G75*
G70*
%OFA0B0*%
%FSLAX24Y24*%
%IPPOS*%
%LPD*%
%AMOC8*
5,1,8,0,0,1.08239X$1,22.5*
%
%ADD10C,0.0100*%
%ADD11R,0.0513X0.0474*%
%ADD12C,0.1346*%
%ADD13C,0.0080*%
%ADD14R,0.0552X0.0631*%
%ADD15C,0.0330*%
D10*
X001466Y000966D02*
X001439Y001109D01*
X001434Y001255D01*
X001450Y001400D01*
X001586Y001271D01*
X001738Y001162D01*
X001904Y001075D01*
X002080Y001012D01*
X002263Y000973D01*
X002450Y000960D01*
X002637Y000973D01*
X002820Y001012D01*
X002996Y001075D01*
X003162Y001162D01*
X003314Y001271D01*
X003450Y001400D01*
X003469Y001255D01*
X003465Y001108D01*
X003439Y000964D01*
X003391Y000825D01*
X003322Y000695D01*
X003235Y000577D01*
X003130Y000474D01*
X003011Y000389D01*
X002881Y000322D01*
X002741Y000276D01*
X002597Y000252D01*
X002450Y000250D01*
X002304Y000254D01*
X002160Y000280D01*
X002022Y000326D01*
X001893Y000394D01*
X001775Y000480D01*
X001671Y000582D01*
X001584Y000699D01*
X001515Y000828D01*
X001466Y000966D01*
X001465Y000974D02*
X002259Y000974D01*
X002641Y000974D02*
X003440Y000974D01*
X003458Y001072D02*
X002989Y001072D01*
X003174Y001171D02*
X003466Y001171D01*
X003467Y001269D02*
X003312Y001269D01*
X003416Y001368D02*
X003454Y001368D01*
X003408Y000875D02*
X001498Y000875D01*
X001542Y000777D02*
X003365Y000777D01*
X003310Y000678D02*
X001599Y000678D01*
X001673Y000580D02*
X003237Y000580D01*
X003137Y000481D02*
X001773Y000481D01*
X001913Y000383D02*
X003000Y000383D01*
X002767Y000284D02*
X002146Y000284D01*
X001911Y001072D02*
X001446Y001072D01*
X001437Y001171D02*
X001726Y001171D01*
X001588Y001269D02*
X001435Y001269D01*
X001446Y001368D02*
X001484Y001368D01*
X001450Y003700D02*
X001438Y003844D01*
X001448Y003988D01*
X001478Y004129D01*
X001528Y004265D01*
X001597Y004391D01*
X001683Y004507D01*
X001786Y004609D01*
X001902Y004695D01*
X002029Y004763D01*
X002164Y004812D01*
X002306Y004842D01*
X002450Y004850D01*
X002607Y004839D01*
X002760Y004803D01*
X002906Y004744D01*
X003040Y004663D01*
X003161Y004562D01*
X003264Y004444D01*
X003347Y004310D01*
X003409Y004166D01*
X003447Y004013D01*
X003461Y003857D01*
X003450Y003700D01*
X003334Y003837D01*
X003200Y003955D01*
X003051Y004053D01*
X002888Y004129D01*
X002717Y004180D01*
X002540Y004206D01*
X002360Y004206D01*
X002183Y004180D01*
X002012Y004129D01*
X001849Y004053D01*
X001700Y003955D01*
X001566Y003837D01*
X001450Y003700D01*
X001447Y003732D02*
X001477Y003732D01*
X001439Y003831D02*
X001560Y003831D01*
X001670Y003929D02*
X001444Y003929D01*
X001456Y004028D02*
X001810Y004028D01*
X002006Y004126D02*
X001477Y004126D01*
X001513Y004225D02*
X003384Y004225D01*
X003419Y004126D02*
X002894Y004126D01*
X003090Y004028D02*
X003443Y004028D01*
X003454Y003929D02*
X003230Y003929D01*
X003340Y003831D02*
X003459Y003831D01*
X003452Y003732D02*
X003423Y003732D01*
X003339Y004323D02*
X001559Y004323D01*
X001619Y004422D02*
X003278Y004422D01*
X003197Y004520D02*
X001696Y004520D01*
X001799Y004619D02*
X003094Y004619D01*
X002951Y004717D02*
X001943Y004717D01*
X002180Y004816D02*
X002707Y004816D01*
X002597Y005752D02*
X002741Y005776D01*
X002881Y005822D01*
X003011Y005889D01*
X003130Y005974D01*
X003235Y006077D01*
X003322Y006195D01*
X003391Y006325D01*
X003439Y006464D01*
X003465Y006608D01*
X003469Y006755D01*
X003450Y006900D01*
X003314Y006771D01*
X003162Y006662D01*
X002996Y006575D01*
X002820Y006512D01*
X002637Y006473D01*
X002450Y006460D01*
X002263Y006473D01*
X002080Y006512D01*
X001904Y006575D01*
X001738Y006662D01*
X001586Y006771D01*
X001450Y006900D01*
X001434Y006755D01*
X001439Y006609D01*
X001466Y006466D01*
X001515Y006328D01*
X001584Y006199D01*
X001671Y006082D01*
X001775Y005980D01*
X001893Y005894D01*
X002022Y005826D01*
X002160Y005780D01*
X002304Y005754D01*
X002450Y005750D01*
X002597Y005752D01*
X002816Y005801D02*
X002099Y005801D01*
X001885Y005899D02*
X003026Y005899D01*
X003154Y005998D02*
X001756Y005998D01*
X001660Y006096D02*
X003248Y006096D01*
X003322Y006195D02*
X001587Y006195D01*
X001534Y006293D02*
X003374Y006293D01*
X003414Y006392D02*
X001492Y006392D01*
X001462Y006490D02*
X002183Y006490D01*
X001878Y006589D02*
X001443Y006589D01*
X001436Y006687D02*
X001703Y006687D01*
X001571Y006786D02*
X001437Y006786D01*
X001448Y006884D02*
X001467Y006884D01*
X002717Y006490D02*
X003443Y006490D01*
X003461Y006589D02*
X003022Y006589D01*
X003197Y006687D02*
X003467Y006687D01*
X003465Y006786D02*
X003329Y006786D01*
X003433Y006884D02*
X003452Y006884D01*
X003450Y009200D02*
X003461Y009357D01*
X003447Y009513D01*
X003409Y009666D01*
X003347Y009810D01*
X003264Y009944D01*
X003161Y010062D01*
X003040Y010163D01*
X002906Y010244D01*
X002760Y010303D01*
X002607Y010339D01*
X002450Y010350D01*
X002306Y010342D01*
X002164Y010312D01*
X002029Y010263D01*
X001902Y010195D01*
X001786Y010109D01*
X001683Y010007D01*
X001597Y009891D01*
X001528Y009765D01*
X001478Y009629D01*
X001448Y009488D01*
X001438Y009344D01*
X001450Y009200D01*
X001566Y009337D01*
X001700Y009455D01*
X001849Y009553D01*
X002012Y009629D01*
X002183Y009680D01*
X002360Y009706D01*
X002540Y009706D01*
X002717Y009680D01*
X002888Y009629D01*
X003051Y009553D01*
X003200Y009455D01*
X003334Y009337D01*
X003450Y009200D01*
X003453Y009248D02*
X003409Y009248D01*
X003460Y009347D02*
X003323Y009347D01*
X003212Y009445D02*
X003453Y009445D01*
X003439Y009544D02*
X003066Y009544D01*
X002844Y009642D02*
X003415Y009642D01*
X003377Y009741D02*
X001519Y009741D01*
X001482Y009642D02*
X002056Y009642D01*
X001834Y009544D02*
X001459Y009544D01*
X001445Y009445D02*
X001688Y009445D01*
X001577Y009347D02*
X001439Y009347D01*
X001446Y009248D02*
X001491Y009248D01*
X001568Y009839D02*
X003329Y009839D01*
X003268Y009938D02*
X001631Y009938D01*
X001713Y010036D02*
X003183Y010036D01*
X003074Y010135D02*
X001820Y010135D01*
X001973Y010233D02*
X002924Y010233D01*
X002638Y010332D02*
X002258Y010332D01*
X002304Y011254D02*
X002160Y011280D01*
X002022Y011326D01*
X001893Y011394D01*
X001775Y011480D01*
X001671Y011582D01*
X001584Y011699D01*
X001515Y011828D01*
X001466Y011966D01*
X001439Y012109D01*
X001434Y012255D01*
X001450Y012400D01*
X001586Y012271D01*
X001738Y012162D01*
X001904Y012075D01*
X002080Y012012D01*
X002263Y011973D01*
X002450Y011960D01*
X002637Y011973D01*
X002820Y012012D01*
X002996Y012075D01*
X003162Y012162D01*
X003314Y012271D01*
X003450Y012400D01*
X003469Y012255D01*
X003465Y012108D01*
X003439Y011964D01*
X003391Y011825D01*
X003322Y011695D01*
X003235Y011577D01*
X003130Y011474D01*
X003011Y011389D01*
X002881Y011322D01*
X002741Y011276D01*
X002597Y011252D01*
X002450Y011250D01*
X002304Y011254D01*
X002051Y011317D02*
X002864Y011317D01*
X003048Y011415D02*
X001863Y011415D01*
X001740Y011514D02*
X003170Y011514D01*
X003260Y011612D02*
X001649Y011612D01*
X001578Y011711D02*
X003330Y011711D01*
X003382Y011809D02*
X001525Y011809D01*
X001487Y011908D02*
X003419Y011908D01*
X003446Y012006D02*
X002793Y012006D01*
X003052Y012105D02*
X003464Y012105D01*
X003467Y012203D02*
X003219Y012203D01*
X003346Y012302D02*
X003463Y012302D01*
X002107Y012006D02*
X001459Y012006D01*
X001440Y012105D02*
X001848Y012105D01*
X001681Y012203D02*
X001435Y012203D01*
X001439Y012302D02*
X001554Y012302D01*
X001450Y014700D02*
X001438Y014844D01*
X001448Y014988D01*
X001478Y015129D01*
X001528Y015265D01*
X001597Y015391D01*
X001683Y015507D01*
X001786Y015609D01*
X001902Y015695D01*
X002029Y015763D01*
X002164Y015812D01*
X002306Y015842D01*
X002450Y015850D01*
X002607Y015839D01*
X002760Y015803D01*
X002906Y015744D01*
X003040Y015663D01*
X003161Y015562D01*
X003264Y015444D01*
X003347Y015310D01*
X003409Y015166D01*
X003447Y015013D01*
X003461Y014857D01*
X003450Y014700D01*
X003334Y014837D01*
X003200Y014955D01*
X003051Y015053D01*
X002888Y015129D01*
X002717Y015180D01*
X002540Y015206D01*
X002360Y015206D01*
X002183Y015180D01*
X002012Y015129D01*
X001849Y015053D01*
X001700Y014955D01*
X001566Y014837D01*
X001450Y014700D01*
X001445Y014764D02*
X001504Y014764D01*
X001440Y014863D02*
X001595Y014863D01*
X001708Y014961D02*
X001446Y014961D01*
X001463Y015060D02*
X001862Y015060D01*
X002110Y015158D02*
X001488Y015158D01*
X001525Y015257D02*
X003370Y015257D01*
X003411Y015158D02*
X002790Y015158D01*
X003038Y015060D02*
X003435Y015060D01*
X003451Y014961D02*
X003192Y014961D01*
X003305Y014863D02*
X003460Y014863D01*
X003454Y014764D02*
X003396Y014764D01*
X003319Y015355D02*
X001577Y015355D01*
X001643Y015454D02*
X003255Y015454D01*
X003169Y015552D02*
X001729Y015552D01*
X001842Y015651D02*
X003055Y015651D01*
X002894Y015749D02*
X002003Y015749D01*
X002408Y015848D02*
X002485Y015848D01*
X002450Y016750D02*
X002304Y016754D01*
X002160Y016780D01*
X002022Y016826D01*
X001893Y016894D01*
X001775Y016980D01*
X001671Y017082D01*
X001584Y017199D01*
X001515Y017328D01*
X001466Y017466D01*
X001439Y017609D01*
X001434Y017755D01*
X001450Y017900D01*
X001586Y017771D01*
X001738Y017662D01*
X001904Y017575D01*
X002080Y017512D01*
X002263Y017473D01*
X002450Y017460D01*
X002637Y017473D01*
X002820Y017512D01*
X002996Y017575D01*
X003162Y017662D01*
X003314Y017771D01*
X003450Y017900D01*
X003469Y017755D01*
X003465Y017608D01*
X003439Y017464D01*
X003391Y017325D01*
X001516Y017325D01*
X001481Y017424D02*
X003425Y017424D01*
X003449Y017522D02*
X002849Y017522D01*
X003083Y017621D02*
X003465Y017621D01*
X003468Y017719D02*
X003242Y017719D01*
X003363Y017818D02*
X003461Y017818D01*
X003391Y017325D02*
X003322Y017195D01*
X003235Y017077D01*
X003130Y016974D01*
X003011Y016889D01*
X002881Y016822D01*
X002741Y016776D01*
X002597Y016752D01*
X002450Y016750D01*
X002010Y016833D02*
X002901Y016833D01*
X003070Y016931D02*
X001841Y016931D01*
X001724Y017030D02*
X003186Y017030D01*
X003272Y017128D02*
X001637Y017128D01*
X001569Y017227D02*
X003339Y017227D01*
X002051Y017522D02*
X001456Y017522D01*
X001439Y017621D02*
X001817Y017621D01*
X001658Y017719D02*
X001435Y017719D01*
X001441Y017818D02*
X001537Y017818D01*
X001450Y020200D02*
X001438Y020344D01*
X001448Y020488D01*
X001478Y020629D01*
X001528Y020765D01*
X001597Y020891D01*
X001683Y021007D01*
X001786Y021109D01*
X001902Y021195D01*
X002029Y021263D01*
X002164Y021312D01*
X002306Y021342D01*
X002450Y021350D01*
X002607Y021339D01*
X002760Y021303D01*
X002906Y021244D01*
X003040Y021163D01*
X003161Y021062D01*
X003264Y020944D01*
X003347Y020810D01*
X003409Y020666D01*
X003447Y020513D01*
X003461Y020357D01*
X003450Y020200D01*
X003334Y020337D01*
X003200Y020455D01*
X003051Y020553D01*
X002888Y020629D01*
X002717Y020680D01*
X002540Y020706D01*
X002360Y020706D01*
X002183Y020680D01*
X002012Y020629D01*
X001849Y020553D01*
X001700Y020455D01*
X001566Y020337D01*
X001450Y020200D01*
X001444Y020280D02*
X001518Y020280D01*
X001441Y020379D02*
X001613Y020379D01*
X001733Y020477D02*
X001447Y020477D01*
X001466Y020576D02*
X001897Y020576D01*
X002163Y020674D02*
X001494Y020674D01*
X001532Y020773D02*
X003363Y020773D01*
X003405Y020674D02*
X002737Y020674D01*
X003003Y020576D02*
X003431Y020576D01*
X003450Y020477D02*
X003167Y020477D01*
X003287Y020379D02*
X003459Y020379D01*
X003455Y020280D02*
X003382Y020280D01*
X003309Y020871D02*
X001586Y020871D01*
X001655Y020970D02*
X003241Y020970D01*
X003154Y021068D02*
X001745Y021068D01*
X001864Y021167D02*
X003035Y021167D01*
X002854Y021265D02*
X002034Y021265D01*
X002160Y022280D02*
X002304Y022254D01*
X002450Y022250D01*
X002597Y022252D01*
X002741Y022276D01*
X002881Y022322D01*
X003011Y022389D01*
X003130Y022474D01*
X003235Y022577D01*
X003322Y022695D01*
X003391Y022825D01*
X003439Y022964D01*
X003465Y023108D01*
X003469Y023255D01*
X003450Y023400D01*
X003314Y023271D01*
X003162Y023162D01*
X002996Y023075D01*
X002820Y023012D01*
X002637Y022973D01*
X002450Y022960D01*
X002263Y022973D01*
X002080Y023012D01*
X001904Y023075D01*
X001738Y023162D01*
X001586Y023271D01*
X001450Y023400D01*
X001434Y023255D01*
X001439Y023109D01*
X001466Y022966D01*
X001515Y022828D01*
X001584Y022699D01*
X001671Y022582D01*
X001775Y022480D01*
X001893Y022394D01*
X002022Y022326D01*
X002160Y022280D01*
X001980Y022349D02*
X002933Y022349D01*
X003092Y022447D02*
X001819Y022447D01*
X001708Y022546D02*
X003202Y022546D01*
X003284Y022644D02*
X001625Y022644D01*
X001560Y022743D02*
X003347Y022743D01*
X003396Y022841D02*
X001510Y022841D01*
X001476Y022940D02*
X003430Y022940D01*
X003452Y023038D02*
X002893Y023038D01*
X003113Y023137D02*
X003465Y023137D01*
X003468Y023235D02*
X003264Y023235D01*
X003380Y023334D02*
X003458Y023334D01*
X002454Y022250D02*
X002448Y022250D01*
X002007Y023038D02*
X001453Y023038D01*
X001438Y023137D02*
X001787Y023137D01*
X001636Y023235D02*
X001434Y023235D01*
X001442Y023334D02*
X001520Y023334D01*
X001450Y025700D02*
X001438Y025844D01*
X001448Y025988D01*
X001478Y026129D01*
X001528Y026265D01*
X001597Y026391D01*
X001683Y026507D01*
X001786Y026609D01*
X001902Y026695D01*
X002029Y026763D01*
X002164Y026812D01*
X002306Y026842D01*
X002450Y026850D01*
X002607Y026839D01*
X002760Y026803D01*
X002906Y026744D01*
X003040Y026663D01*
X003161Y026562D01*
X003264Y026444D01*
X003347Y026310D01*
X003409Y026166D01*
X003447Y026013D01*
X003461Y025857D01*
X003450Y025700D01*
X003334Y025837D01*
X003200Y025955D01*
X003051Y026053D01*
X002888Y026129D01*
X002717Y026180D01*
X002540Y026206D01*
X002360Y026206D01*
X002183Y026180D01*
X002012Y026129D01*
X001849Y026053D01*
X001700Y025955D01*
X001566Y025837D01*
X001450Y025700D01*
X001442Y025796D02*
X001531Y025796D01*
X001442Y025895D02*
X001631Y025895D01*
X001757Y025993D02*
X001449Y025993D01*
X001470Y026092D02*
X001931Y026092D01*
X002252Y026190D02*
X001500Y026190D01*
X001541Y026289D02*
X003356Y026289D01*
X003398Y026190D02*
X002648Y026190D01*
X002815Y026781D02*
X002078Y026781D01*
X001885Y026683D02*
X003008Y026683D01*
X003135Y026584D02*
X001761Y026584D01*
X001667Y026486D02*
X003227Y026486D01*
X003299Y026387D02*
X001594Y026387D01*
X002022Y027826D02*
X001893Y027894D01*
X001775Y027980D01*
X001671Y028082D01*
X001584Y028199D01*
X001515Y028328D01*
X001466Y028466D01*
X001439Y028609D01*
X001434Y028755D01*
X001450Y028900D01*
X001586Y028771D01*
X001738Y028662D01*
X001904Y028575D01*
X002080Y028512D01*
X002263Y028473D01*
X002450Y028460D01*
X002637Y028473D01*
X002820Y028512D01*
X002996Y028575D01*
X003162Y028662D01*
X003314Y028771D01*
X003450Y028900D01*
X003469Y028755D01*
X003465Y028608D01*
X003439Y028464D01*
X003391Y028325D01*
X003322Y028195D01*
X003235Y028077D01*
X003130Y027974D01*
X003011Y027889D01*
X002881Y027822D01*
X002741Y027776D01*
X002597Y027752D01*
X002450Y027750D01*
X002304Y027754D01*
X002160Y027780D01*
X002022Y027826D01*
X001949Y027865D02*
X002964Y027865D01*
X003114Y027963D02*
X001797Y027963D01*
X001692Y028062D02*
X003219Y028062D01*
X003296Y028160D02*
X001613Y028160D01*
X001552Y028259D02*
X003356Y028259D01*
X003402Y028357D02*
X001505Y028357D01*
X001470Y028456D02*
X003436Y028456D01*
X003455Y028554D02*
X002938Y028554D01*
X003144Y028653D02*
X003466Y028653D01*
X003468Y028751D02*
X003286Y028751D01*
X003397Y028850D02*
X003456Y028850D01*
X002682Y027766D02*
X002236Y027766D01*
X001962Y028554D02*
X001449Y028554D01*
X001437Y028653D02*
X001756Y028653D01*
X001614Y028751D02*
X001434Y028751D01*
X001444Y028850D02*
X001503Y028850D01*
X001450Y031200D02*
X001438Y031344D01*
X001448Y031488D01*
X001478Y031629D01*
X001528Y031765D01*
X001597Y031891D01*
X001683Y032007D01*
X001786Y032109D01*
X001902Y032195D01*
X002029Y032263D01*
X002164Y032312D01*
X002306Y032342D01*
X002450Y032350D01*
X002607Y032339D01*
X002760Y032303D01*
X002906Y032244D01*
X003040Y032163D01*
X003161Y032062D01*
X003264Y031944D01*
X003347Y031810D01*
X003409Y031666D01*
X003447Y031513D01*
X003461Y031357D01*
X003450Y031200D01*
X003334Y031337D01*
X003200Y031455D01*
X003051Y031553D01*
X002888Y031629D01*
X002717Y031680D01*
X002540Y031706D01*
X002360Y031706D01*
X002183Y031680D01*
X002012Y031629D01*
X001849Y031553D01*
X001700Y031455D01*
X001566Y031337D01*
X001450Y031200D01*
X001449Y031214D02*
X001461Y031214D01*
X001441Y031312D02*
X001545Y031312D01*
X001443Y031411D02*
X001649Y031411D01*
X001782Y031509D02*
X001452Y031509D01*
X001473Y031608D02*
X001966Y031608D01*
X001777Y032100D02*
X003116Y032100D01*
X003213Y032002D02*
X001679Y032002D01*
X001605Y031903D02*
X003289Y031903D01*
X003350Y031805D02*
X001549Y031805D01*
X001506Y031706D02*
X003391Y031706D01*
X003423Y031608D02*
X002934Y031608D01*
X003118Y031509D02*
X003447Y031509D01*
X003456Y031411D02*
X003251Y031411D01*
X003355Y031312D02*
X003458Y031312D01*
X003451Y031214D02*
X003439Y031214D01*
X002982Y032199D02*
X001909Y032199D01*
X002123Y032297D02*
X002775Y032297D01*
X002597Y033252D02*
X002741Y033276D01*
X002881Y033322D01*
X003011Y033389D01*
X003130Y033474D01*
X003235Y033577D01*
X003322Y033695D01*
X003391Y033825D01*
X003439Y033964D01*
X003465Y034108D01*
X003469Y034255D01*
X003450Y034400D01*
X003314Y034271D01*
X003162Y034162D01*
X002996Y034075D01*
X002820Y034012D01*
X002637Y033973D01*
X002450Y033960D01*
X002263Y033973D01*
X002080Y034012D01*
X001904Y034075D01*
X001738Y034162D01*
X001586Y034271D01*
X001450Y034400D01*
X001434Y034255D01*
X001439Y034109D01*
X001466Y033966D01*
X001515Y033828D01*
X001584Y033699D01*
X001671Y033582D01*
X001775Y033480D01*
X001893Y033394D01*
X002022Y033326D01*
X002160Y033280D01*
X002304Y033254D01*
X002450Y033250D01*
X002597Y033252D01*
X002760Y033282D02*
X002153Y033282D01*
X001918Y033381D02*
X002995Y033381D01*
X003135Y033479D02*
X001775Y033479D01*
X001675Y033578D02*
X003235Y033578D01*
X003308Y033676D02*
X001601Y033676D01*
X001543Y033775D02*
X003364Y033775D01*
X003407Y033873D02*
X001499Y033873D01*
X001465Y033972D02*
X002287Y033972D01*
X002613Y033972D02*
X003440Y033972D01*
X003458Y034070D02*
X002982Y034070D01*
X003171Y034169D02*
X003466Y034169D01*
X003467Y034267D02*
X003309Y034267D01*
X003414Y034366D02*
X003454Y034366D01*
X003450Y036700D02*
X003334Y036837D01*
X003200Y036955D01*
X003051Y037053D01*
X002888Y037129D01*
X002717Y037180D01*
X002540Y037206D01*
X002360Y037206D01*
X002183Y037180D01*
X002012Y037129D01*
X001849Y037053D01*
X001700Y036955D01*
X001566Y036837D01*
X001450Y036700D01*
X001438Y036844D01*
X001448Y036988D01*
X001478Y037129D01*
X001528Y037265D01*
X001597Y037391D01*
X001683Y037507D01*
X001786Y037609D01*
X001902Y037695D01*
X002029Y037763D01*
X002164Y037812D01*
X002306Y037842D01*
X002450Y037850D01*
X002607Y037839D01*
X002760Y037803D01*
X002906Y037744D01*
X003040Y037663D01*
X003161Y037562D01*
X003264Y037444D01*
X003347Y037310D01*
X003409Y037166D01*
X003447Y037013D01*
X003461Y036857D01*
X003450Y036700D01*
X003452Y036730D02*
X003425Y036730D01*
X003459Y036828D02*
X003342Y036828D01*
X003233Y036927D02*
X003454Y036927D01*
X003444Y037025D02*
X003094Y037025D01*
X002900Y037124D02*
X003419Y037124D01*
X003385Y037222D02*
X001512Y037222D01*
X001476Y037124D02*
X002000Y037124D01*
X001806Y037025D02*
X001456Y037025D01*
X001444Y036927D02*
X001667Y036927D01*
X001558Y036828D02*
X001440Y036828D01*
X001448Y036730D02*
X001475Y036730D01*
X001558Y037321D02*
X003341Y037321D01*
X003279Y037419D02*
X001617Y037419D01*
X001694Y037518D02*
X003199Y037518D01*
X003096Y037616D02*
X001796Y037616D01*
X001939Y037715D02*
X002955Y037715D01*
X002718Y037813D02*
X002168Y037813D01*
X001486Y034366D02*
X001446Y034366D01*
X001435Y034267D02*
X001591Y034267D01*
X001729Y034169D02*
X001437Y034169D01*
X001446Y034070D02*
X001918Y034070D01*
X006234Y034255D02*
X006239Y034109D01*
X006266Y033966D01*
X006315Y033828D01*
X006384Y033699D01*
X006471Y033582D01*
X006575Y033480D01*
X006693Y033394D01*
X006822Y033326D01*
X006960Y033280D01*
X007104Y033254D01*
X007250Y033250D01*
X007397Y033252D01*
X007541Y033276D01*
X007681Y033322D01*
X007811Y033389D01*
X007930Y033474D01*
X008035Y033577D01*
X008122Y033695D01*
X008191Y033825D01*
X008239Y033964D01*
X008265Y034108D01*
X008269Y034255D01*
X008250Y034400D01*
X008114Y034271D01*
X007962Y034162D01*
X007796Y034075D01*
X007620Y034012D01*
X007437Y033973D01*
X007250Y033960D01*
X007063Y033973D01*
X006880Y034012D01*
X006704Y034075D01*
X006538Y034162D01*
X006386Y034271D01*
X006250Y034400D01*
X006234Y034255D01*
X006235Y034267D02*
X006391Y034267D01*
X006286Y034366D02*
X006246Y034366D01*
X006237Y034169D02*
X006529Y034169D01*
X006718Y034070D02*
X006246Y034070D01*
X006265Y033972D02*
X007087Y033972D01*
X007413Y033972D02*
X008240Y033972D01*
X008258Y034070D02*
X007782Y034070D01*
X007971Y034169D02*
X008266Y034169D01*
X008267Y034267D02*
X008109Y034267D01*
X008214Y034366D02*
X008254Y034366D01*
X008207Y033873D02*
X006299Y033873D01*
X006343Y033775D02*
X008164Y033775D01*
X008108Y033676D02*
X006401Y033676D01*
X006475Y033578D02*
X008035Y033578D01*
X007935Y033479D02*
X006575Y033479D01*
X006718Y033381D02*
X007795Y033381D01*
X007560Y033282D02*
X006953Y033282D01*
X007106Y032342D02*
X006964Y032312D01*
X006829Y032263D01*
X006702Y032195D01*
X006586Y032109D01*
X006483Y032007D01*
X006397Y031891D01*
X006328Y031765D01*
X006278Y031629D01*
X006248Y031488D01*
X006238Y031344D01*
X006250Y031200D01*
X006366Y031337D01*
X006500Y031455D01*
X006649Y031553D01*
X006812Y031629D01*
X006983Y031680D01*
X007160Y031706D01*
X007340Y031706D01*
X007517Y031680D01*
X007688Y031629D01*
X007851Y031553D01*
X008000Y031455D01*
X008134Y031337D01*
X008250Y031200D01*
X008261Y031357D01*
X008247Y031513D01*
X008209Y031666D01*
X008147Y031810D01*
X008064Y031944D01*
X007961Y032062D01*
X007840Y032163D01*
X007706Y032244D01*
X007560Y032303D01*
X007407Y032339D01*
X007250Y032350D01*
X007106Y032342D01*
X006923Y032297D02*
X007575Y032297D01*
X007782Y032199D02*
X006709Y032199D01*
X006577Y032100D02*
X007916Y032100D01*
X008013Y032002D02*
X006479Y032002D01*
X006405Y031903D02*
X008089Y031903D01*
X008150Y031805D02*
X006349Y031805D01*
X006306Y031706D02*
X008191Y031706D01*
X008223Y031608D02*
X007734Y031608D01*
X007918Y031509D02*
X008247Y031509D01*
X008256Y031411D02*
X008051Y031411D01*
X008155Y031312D02*
X008258Y031312D01*
X008251Y031214D02*
X008239Y031214D01*
X006766Y031608D02*
X006273Y031608D01*
X006252Y031509D02*
X006582Y031509D01*
X006449Y031411D02*
X006243Y031411D01*
X006241Y031312D02*
X006345Y031312D01*
X006261Y031214D02*
X006249Y031214D01*
X006250Y028900D02*
X006234Y028755D01*
X006239Y028609D01*
X006266Y028466D01*
X006315Y028328D01*
X006384Y028199D01*
X006471Y028082D01*
X006575Y027980D01*
X006693Y027894D01*
X006822Y027826D01*
X006960Y027780D01*
X007104Y027754D01*
X007250Y027750D01*
X007397Y027752D01*
X007541Y027776D01*
X007681Y027822D01*
X007811Y027889D01*
X007930Y027974D01*
X008035Y028077D01*
X008122Y028195D01*
X008191Y028325D01*
X008239Y028464D01*
X008265Y028608D01*
X008269Y028755D01*
X008250Y028900D01*
X008114Y028771D01*
X007962Y028662D01*
X007796Y028575D01*
X007620Y028512D01*
X007437Y028473D01*
X007250Y028460D01*
X007063Y028473D01*
X006880Y028512D01*
X006704Y028575D01*
X006538Y028662D01*
X006386Y028771D01*
X006250Y028900D01*
X006244Y028850D02*
X006303Y028850D01*
X006234Y028751D02*
X006414Y028751D01*
X006556Y028653D02*
X006237Y028653D01*
X006249Y028554D02*
X006762Y028554D01*
X006305Y028357D02*
X008202Y028357D01*
X008236Y028456D02*
X006270Y028456D01*
X006352Y028259D02*
X008156Y028259D01*
X008096Y028160D02*
X006413Y028160D01*
X006492Y028062D02*
X008019Y028062D01*
X007914Y027963D02*
X006597Y027963D01*
X006749Y027865D02*
X007764Y027865D01*
X007482Y027766D02*
X007036Y027766D01*
X007106Y026842D02*
X006964Y026812D01*
X006829Y026763D01*
X006702Y026695D01*
X006586Y026609D01*
X006483Y026507D01*
X006397Y026391D01*
X006328Y026265D01*
X006278Y026129D01*
X006248Y025988D01*
X006238Y025844D01*
X006250Y025700D01*
X006366Y025837D01*
X006500Y025955D01*
X006649Y026053D01*
X006812Y026129D01*
X006983Y026180D01*
X007160Y026206D01*
X007340Y026206D01*
X007517Y026180D01*
X007688Y026129D01*
X007851Y026053D01*
X008000Y025955D01*
X008134Y025837D01*
X008250Y025700D01*
X008261Y025857D01*
X008247Y026013D01*
X008209Y026166D01*
X008147Y026310D01*
X008064Y026444D01*
X007961Y026562D01*
X007840Y026663D01*
X007706Y026744D01*
X007560Y026803D01*
X007407Y026839D01*
X007250Y026850D01*
X007106Y026842D01*
X006878Y026781D02*
X007615Y026781D01*
X007808Y026683D02*
X006685Y026683D01*
X006561Y026584D02*
X007935Y026584D01*
X008027Y026486D02*
X006467Y026486D01*
X006394Y026387D02*
X008099Y026387D01*
X008156Y026289D02*
X006341Y026289D01*
X006300Y026190D02*
X007052Y026190D01*
X007448Y026190D02*
X008198Y026190D01*
X008227Y026092D02*
X007769Y026092D01*
X007943Y025993D02*
X008249Y025993D01*
X008257Y025895D02*
X008069Y025895D01*
X008169Y025796D02*
X008257Y025796D01*
X006731Y026092D02*
X006270Y026092D01*
X006249Y025993D02*
X006557Y025993D01*
X006431Y025895D02*
X006242Y025895D01*
X006242Y025796D02*
X006331Y025796D01*
X006250Y023400D02*
X006234Y023255D01*
X006239Y023109D01*
X006266Y022966D01*
X006315Y022828D01*
X006384Y022699D01*
X006471Y022582D01*
X006575Y022480D01*
X006693Y022394D01*
X006822Y022326D01*
X006960Y022280D01*
X007104Y022254D01*
X007250Y022250D01*
X007397Y022252D01*
X007541Y022276D01*
X007681Y022322D01*
X007811Y022389D01*
X007930Y022474D01*
X008035Y022577D01*
X008122Y022695D01*
X008191Y022825D01*
X008239Y022964D01*
X008265Y023108D01*
X008269Y023255D01*
X008250Y023400D01*
X008114Y023271D01*
X007962Y023162D01*
X007796Y023075D01*
X007620Y023012D01*
X007437Y022973D01*
X007250Y022960D01*
X007063Y022973D01*
X006880Y023012D01*
X006704Y023075D01*
X006538Y023162D01*
X006386Y023271D01*
X006250Y023400D01*
X006242Y023334D02*
X006320Y023334D01*
X006234Y023235D02*
X006436Y023235D01*
X006587Y023137D02*
X006238Y023137D01*
X006253Y023038D02*
X006807Y023038D01*
X006508Y022546D02*
X008002Y022546D01*
X008084Y022644D02*
X006425Y022644D01*
X006360Y022743D02*
X008147Y022743D01*
X008196Y022841D02*
X006310Y022841D01*
X006276Y022940D02*
X008230Y022940D01*
X008252Y023038D02*
X007693Y023038D01*
X007913Y023137D02*
X008265Y023137D01*
X008268Y023235D02*
X008064Y023235D01*
X008180Y023334D02*
X008258Y023334D01*
X007892Y022447D02*
X006619Y022447D01*
X006780Y022349D02*
X007733Y022349D01*
X007254Y022250D02*
X007248Y022250D01*
X007250Y021350D02*
X007106Y021342D01*
X006964Y021312D01*
X006829Y021263D01*
X006702Y021195D01*
X006586Y021109D01*
X006483Y021007D01*
X006397Y020891D01*
X006328Y020765D01*
X006278Y020629D01*
X006248Y020488D01*
X006238Y020344D01*
X006250Y020200D01*
X006366Y020337D01*
X006500Y020455D01*
X006649Y020553D01*
X006812Y020629D01*
X006983Y020680D01*
X007160Y020706D01*
X007340Y020706D01*
X007517Y020680D01*
X007688Y020629D01*
X007851Y020553D01*
X008000Y020455D01*
X008134Y020337D01*
X008250Y020200D01*
X008261Y020357D01*
X008247Y020513D01*
X008209Y020666D01*
X008147Y020810D01*
X008064Y020944D01*
X007961Y021062D01*
X007840Y021163D01*
X007706Y021244D01*
X007560Y021303D01*
X007407Y021339D01*
X007250Y021350D01*
X007654Y021265D02*
X006834Y021265D01*
X006664Y021167D02*
X007835Y021167D01*
X007954Y021068D02*
X006545Y021068D01*
X006455Y020970D02*
X008041Y020970D01*
X008109Y020871D02*
X006386Y020871D01*
X006332Y020773D02*
X008163Y020773D01*
X008205Y020674D02*
X007537Y020674D01*
X007803Y020576D02*
X008231Y020576D01*
X008250Y020477D02*
X007967Y020477D01*
X008087Y020379D02*
X008259Y020379D01*
X008255Y020280D02*
X008182Y020280D01*
X006963Y020674D02*
X006294Y020674D01*
X006266Y020576D02*
X006697Y020576D01*
X006533Y020477D02*
X006247Y020477D01*
X006241Y020379D02*
X006413Y020379D01*
X006318Y020280D02*
X006244Y020280D01*
X006250Y017900D02*
X006234Y017755D01*
X006239Y017609D01*
X006266Y017466D01*
X006315Y017328D01*
X006384Y017199D01*
X006471Y017082D01*
X006575Y016980D01*
X006693Y016894D01*
X006822Y016826D01*
X006960Y016780D01*
X007104Y016754D01*
X007250Y016750D01*
X007397Y016752D01*
X007541Y016776D01*
X007681Y016822D01*
X007811Y016889D01*
X007930Y016974D01*
X008035Y017077D01*
X008122Y017195D01*
X008191Y017325D01*
X006316Y017325D01*
X006281Y017424D02*
X008225Y017424D01*
X008239Y017464D02*
X008265Y017608D01*
X008269Y017755D01*
X008250Y017900D01*
X008114Y017771D01*
X007962Y017662D01*
X007796Y017575D01*
X007620Y017512D01*
X007437Y017473D01*
X007250Y017460D01*
X007063Y017473D01*
X006880Y017512D01*
X006704Y017575D01*
X006538Y017662D01*
X006386Y017771D01*
X006250Y017900D01*
X006241Y017818D02*
X006337Y017818D01*
X006235Y017719D02*
X006458Y017719D01*
X006617Y017621D02*
X006239Y017621D01*
X006256Y017522D02*
X006851Y017522D01*
X006524Y017030D02*
X007986Y017030D01*
X008072Y017128D02*
X006437Y017128D01*
X006369Y017227D02*
X008139Y017227D01*
X008191Y017325D02*
X008239Y017464D01*
X008249Y017522D02*
X007649Y017522D01*
X007883Y017621D02*
X008265Y017621D01*
X008268Y017719D02*
X008042Y017719D01*
X008163Y017818D02*
X008261Y017818D01*
X007870Y016931D02*
X006641Y016931D01*
X006810Y016833D02*
X007701Y016833D01*
X007407Y015839D02*
X007250Y015850D01*
X007106Y015842D01*
X006964Y015812D01*
X006829Y015763D01*
X006702Y015695D01*
X006586Y015609D01*
X006483Y015507D01*
X006397Y015391D01*
X006328Y015265D01*
X006278Y015129D01*
X006248Y014988D01*
X006238Y014844D01*
X006250Y014700D01*
X006366Y014837D01*
X006500Y014955D01*
X006649Y015053D01*
X006812Y015129D01*
X006983Y015180D01*
X007160Y015206D01*
X007340Y015206D01*
X007517Y015180D01*
X007688Y015129D01*
X007851Y015053D01*
X008000Y014955D01*
X008134Y014837D01*
X008250Y014700D01*
X008261Y014857D01*
X008247Y015013D01*
X008209Y015166D01*
X008147Y015310D01*
X008064Y015444D01*
X007961Y015562D01*
X007840Y015663D01*
X007706Y015744D01*
X007560Y015803D01*
X007407Y015839D01*
X007285Y015848D02*
X007208Y015848D01*
X006803Y015749D02*
X007694Y015749D01*
X007855Y015651D02*
X006642Y015651D01*
X006529Y015552D02*
X007969Y015552D01*
X008055Y015454D02*
X006443Y015454D01*
X006377Y015355D02*
X008119Y015355D01*
X008170Y015257D02*
X006325Y015257D01*
X006288Y015158D02*
X006910Y015158D01*
X006662Y015060D02*
X006263Y015060D01*
X006246Y014961D02*
X006508Y014961D01*
X006395Y014863D02*
X006240Y014863D01*
X006245Y014764D02*
X006304Y014764D01*
X007590Y015158D02*
X008211Y015158D01*
X008235Y015060D02*
X007838Y015060D01*
X007992Y014961D02*
X008251Y014961D01*
X008260Y014863D02*
X008105Y014863D01*
X008196Y014764D02*
X008254Y014764D01*
X008250Y012400D02*
X008269Y012255D01*
X008265Y012108D01*
X008239Y011964D01*
X008191Y011825D01*
X008122Y011695D01*
X008035Y011577D01*
X007930Y011474D01*
X007811Y011389D01*
X007681Y011322D01*
X007541Y011276D01*
X007397Y011252D01*
X007250Y011250D01*
X007104Y011254D01*
X006960Y011280D01*
X006822Y011326D01*
X006693Y011394D01*
X006575Y011480D01*
X006471Y011582D01*
X006384Y011699D01*
X006315Y011828D01*
X006266Y011966D01*
X006239Y012109D01*
X006234Y012255D01*
X006250Y012400D01*
X006386Y012271D01*
X006538Y012162D01*
X006704Y012075D01*
X006880Y012012D01*
X007063Y011973D01*
X007250Y011960D01*
X007437Y011973D01*
X007620Y012012D01*
X007796Y012075D01*
X007962Y012162D01*
X008114Y012271D01*
X008250Y012400D01*
X008263Y012302D02*
X008146Y012302D01*
X008267Y012203D02*
X008019Y012203D01*
X007852Y012105D02*
X008264Y012105D01*
X008246Y012006D02*
X007593Y012006D01*
X008060Y011612D02*
X006449Y011612D01*
X006378Y011711D02*
X008130Y011711D01*
X008182Y011809D02*
X006325Y011809D01*
X006287Y011908D02*
X008219Y011908D01*
X007970Y011514D02*
X006540Y011514D01*
X006663Y011415D02*
X007848Y011415D01*
X007664Y011317D02*
X006851Y011317D01*
X006907Y012006D02*
X006259Y012006D01*
X006240Y012105D02*
X006648Y012105D01*
X006481Y012203D02*
X006235Y012203D01*
X006239Y012302D02*
X006354Y012302D01*
X006964Y010312D02*
X006829Y010263D01*
X006702Y010195D01*
X006586Y010109D01*
X006483Y010007D01*
X006397Y009891D01*
X006328Y009765D01*
X006278Y009629D01*
X006248Y009488D01*
X006238Y009344D01*
X006250Y009200D01*
X006366Y009337D01*
X006500Y009455D01*
X006649Y009553D01*
X006812Y009629D01*
X006983Y009680D01*
X007160Y009706D01*
X007340Y009706D01*
X007517Y009680D01*
X007688Y009629D01*
X007851Y009553D01*
X008000Y009455D01*
X008134Y009337D01*
X008250Y009200D01*
X008261Y009357D01*
X008247Y009513D01*
X008209Y009666D01*
X008147Y009810D01*
X008064Y009944D01*
X007961Y010062D01*
X007840Y010163D01*
X007706Y010244D01*
X007560Y010303D01*
X007407Y010339D01*
X007250Y010350D01*
X007106Y010342D01*
X006964Y010312D01*
X007058Y010332D02*
X007438Y010332D01*
X007644Y009642D02*
X008215Y009642D01*
X008239Y009544D02*
X007866Y009544D01*
X008012Y009445D02*
X008253Y009445D01*
X008260Y009347D02*
X008123Y009347D01*
X008209Y009248D02*
X008253Y009248D01*
X008177Y009741D02*
X006319Y009741D01*
X006282Y009642D02*
X006856Y009642D01*
X006634Y009544D02*
X006259Y009544D01*
X006245Y009445D02*
X006488Y009445D01*
X006377Y009347D02*
X006239Y009347D01*
X006246Y009248D02*
X006291Y009248D01*
X006368Y009839D02*
X008129Y009839D01*
X008068Y009938D02*
X006431Y009938D01*
X006513Y010036D02*
X007983Y010036D01*
X007874Y010135D02*
X006620Y010135D01*
X006773Y010233D02*
X007724Y010233D01*
X008250Y006900D02*
X008114Y006771D01*
X007962Y006662D01*
X007796Y006575D01*
X007620Y006512D01*
X007437Y006473D01*
X007250Y006460D01*
X007063Y006473D01*
X006880Y006512D01*
X006704Y006575D01*
X006538Y006662D01*
X006386Y006771D01*
X006250Y006900D01*
X006234Y006755D01*
X006239Y006609D01*
X006266Y006466D01*
X006315Y006328D01*
X006384Y006199D01*
X006471Y006082D01*
X006575Y005980D01*
X006693Y005894D01*
X006822Y005826D01*
X006960Y005780D01*
X007104Y005754D01*
X007250Y005750D01*
X007397Y005752D01*
X007541Y005776D01*
X007681Y005822D01*
X007811Y005889D01*
X007930Y005974D01*
X008035Y006077D01*
X008122Y006195D01*
X008191Y006325D01*
X008239Y006464D01*
X008265Y006608D01*
X008269Y006755D01*
X008250Y006900D01*
X008252Y006884D02*
X008233Y006884D01*
X008265Y006786D02*
X008129Y006786D01*
X007997Y006687D02*
X008267Y006687D01*
X008261Y006589D02*
X007822Y006589D01*
X007517Y006490D02*
X008243Y006490D01*
X008214Y006392D02*
X006292Y006392D01*
X006262Y006490D02*
X006983Y006490D01*
X006678Y006589D02*
X006243Y006589D01*
X006236Y006687D02*
X006503Y006687D01*
X006371Y006786D02*
X006237Y006786D01*
X006248Y006884D02*
X006267Y006884D01*
X006334Y006293D02*
X008174Y006293D01*
X008122Y006195D02*
X006387Y006195D01*
X006460Y006096D02*
X008048Y006096D01*
X007954Y005998D02*
X006556Y005998D01*
X006685Y005899D02*
X007826Y005899D01*
X007616Y005801D02*
X006899Y005801D01*
X007106Y004842D02*
X006964Y004812D01*
X006829Y004763D01*
X006702Y004695D01*
X006586Y004609D01*
X006483Y004507D01*
X006397Y004391D01*
X006328Y004265D01*
X006278Y004129D01*
X006248Y003988D01*
X006238Y003844D01*
X006250Y003700D01*
X006366Y003837D01*
X006500Y003955D01*
X006649Y004053D01*
X006812Y004129D01*
X006983Y004180D01*
X007160Y004206D01*
X007340Y004206D01*
X007517Y004180D01*
X007688Y004129D01*
X007851Y004053D01*
X008000Y003955D01*
X008134Y003837D01*
X008250Y003700D01*
X008261Y003857D01*
X008247Y004013D01*
X008209Y004166D01*
X008147Y004310D01*
X008064Y004444D01*
X007961Y004562D01*
X007840Y004663D01*
X007706Y004744D01*
X007560Y004803D01*
X007407Y004839D01*
X007250Y004850D01*
X007106Y004842D01*
X006980Y004816D02*
X007507Y004816D01*
X007751Y004717D02*
X006743Y004717D01*
X006599Y004619D02*
X007894Y004619D01*
X007997Y004520D02*
X006496Y004520D01*
X006419Y004422D02*
X008078Y004422D01*
X008139Y004323D02*
X006359Y004323D01*
X006313Y004225D02*
X008184Y004225D01*
X008219Y004126D02*
X007694Y004126D01*
X007890Y004028D02*
X008243Y004028D01*
X008254Y003929D02*
X008030Y003929D01*
X008140Y003831D02*
X008259Y003831D01*
X008252Y003732D02*
X008223Y003732D01*
X006806Y004126D02*
X006277Y004126D01*
X006256Y004028D02*
X006610Y004028D01*
X006470Y003929D02*
X006244Y003929D01*
X006239Y003831D02*
X006360Y003831D01*
X006277Y003732D02*
X006247Y003732D01*
X006250Y001400D02*
X006234Y001255D01*
X006239Y001109D01*
X006266Y000966D01*
X006315Y000828D01*
X006384Y000699D01*
X006471Y000582D01*
X006575Y000480D01*
X006693Y000394D01*
X006822Y000326D01*
X006960Y000280D01*
X007104Y000254D01*
X007250Y000250D01*
X007397Y000252D01*
X007541Y000276D01*
X007681Y000322D01*
X007811Y000389D01*
X007930Y000474D01*
X008035Y000577D01*
X008122Y000695D01*
X008191Y000825D01*
X008239Y000964D01*
X008265Y001108D01*
X008269Y001255D01*
X008250Y001400D01*
X008114Y001271D01*
X007962Y001162D01*
X007796Y001075D01*
X007620Y001012D01*
X007437Y000973D01*
X007250Y000960D01*
X007063Y000973D01*
X006880Y001012D01*
X006704Y001075D01*
X006538Y001162D01*
X006386Y001271D01*
X006250Y001400D01*
X006246Y001368D02*
X006284Y001368D01*
X006235Y001269D02*
X006388Y001269D01*
X006526Y001171D02*
X006237Y001171D01*
X006246Y001072D02*
X006711Y001072D01*
X006298Y000875D02*
X008208Y000875D01*
X008240Y000974D02*
X007441Y000974D01*
X007059Y000974D02*
X006265Y000974D01*
X006342Y000777D02*
X008165Y000777D01*
X008110Y000678D02*
X006399Y000678D01*
X006473Y000580D02*
X008037Y000580D01*
X007937Y000481D02*
X006573Y000481D01*
X006713Y000383D02*
X007800Y000383D01*
X007567Y000284D02*
X006946Y000284D01*
X007789Y001072D02*
X008258Y001072D01*
X008266Y001171D02*
X007974Y001171D01*
X008112Y001269D02*
X008267Y001269D01*
X008254Y001368D02*
X008216Y001368D01*
X011034Y001255D02*
X011039Y001109D01*
X011066Y000966D01*
X011115Y000828D01*
X011184Y000699D01*
X011271Y000582D01*
X011375Y000480D01*
X011493Y000394D01*
X011622Y000326D01*
X011760Y000280D01*
X011904Y000254D01*
X012050Y000250D01*
X012197Y000252D01*
X012341Y000276D01*
X012481Y000322D01*
X012611Y000389D01*
X012730Y000474D01*
X012835Y000577D01*
X012922Y000695D01*
X012991Y000825D01*
X013039Y000964D01*
X013065Y001108D01*
X013069Y001255D01*
X013050Y001400D01*
X012914Y001271D01*
X012762Y001162D01*
X012596Y001075D01*
X012420Y001012D01*
X012237Y000973D01*
X012050Y000960D01*
X011863Y000973D01*
X011680Y001012D01*
X011504Y001075D01*
X011338Y001162D01*
X011186Y001271D01*
X011050Y001400D01*
X011034Y001255D01*
X011035Y001269D02*
X011188Y001269D01*
X011084Y001368D02*
X011046Y001368D01*
X011037Y001171D02*
X011326Y001171D01*
X011511Y001072D02*
X011046Y001072D01*
X011065Y000974D02*
X011859Y000974D01*
X012241Y000974D02*
X013040Y000974D01*
X013058Y001072D02*
X012589Y001072D01*
X012774Y001171D02*
X013066Y001171D01*
X013067Y001269D02*
X012912Y001269D01*
X013016Y001368D02*
X013054Y001368D01*
X013008Y000875D02*
X011098Y000875D01*
X011142Y000777D02*
X012965Y000777D01*
X012910Y000678D02*
X011199Y000678D01*
X011273Y000580D02*
X012837Y000580D01*
X012737Y000481D02*
X011373Y000481D01*
X011513Y000383D02*
X012600Y000383D01*
X012367Y000284D02*
X011746Y000284D01*
X011050Y003700D02*
X011038Y003844D01*
X011048Y003988D01*
X011078Y004129D01*
X011128Y004265D01*
X011197Y004391D01*
X011283Y004507D01*
X011386Y004609D01*
X011502Y004695D01*
X011629Y004763D01*
X011764Y004812D01*
X011906Y004842D01*
X012050Y004850D01*
X012207Y004839D01*
X012360Y004803D01*
X012506Y004744D01*
X012640Y004663D01*
X012761Y004562D01*
X012864Y004444D01*
X012947Y004310D01*
X013009Y004166D01*
X013047Y004013D01*
X013061Y003857D01*
X013050Y003700D01*
X012934Y003837D01*
X012800Y003955D01*
X012651Y004053D01*
X012488Y004129D01*
X012317Y004180D01*
X012140Y004206D01*
X011960Y004206D01*
X011783Y004180D01*
X011612Y004129D01*
X011449Y004053D01*
X011300Y003955D01*
X011166Y003837D01*
X011050Y003700D01*
X011047Y003732D02*
X011077Y003732D01*
X011039Y003831D02*
X011160Y003831D01*
X011270Y003929D02*
X011044Y003929D01*
X011056Y004028D02*
X011410Y004028D01*
X011606Y004126D02*
X011077Y004126D01*
X011113Y004225D02*
X012984Y004225D01*
X013019Y004126D02*
X012494Y004126D01*
X012690Y004028D02*
X013043Y004028D01*
X013054Y003929D02*
X012830Y003929D01*
X012940Y003831D02*
X013059Y003831D01*
X013052Y003732D02*
X013023Y003732D01*
X012939Y004323D02*
X011159Y004323D01*
X011219Y004422D02*
X012878Y004422D01*
X012797Y004520D02*
X011296Y004520D01*
X011399Y004619D02*
X012694Y004619D01*
X012551Y004717D02*
X011543Y004717D01*
X011780Y004816D02*
X012307Y004816D01*
X012197Y005752D02*
X012341Y005776D01*
X012481Y005822D01*
X012611Y005889D01*
X012730Y005974D01*
X012835Y006077D01*
X012922Y006195D01*
X012991Y006325D01*
X013039Y006464D01*
X013065Y006608D01*
X013069Y006755D01*
X013050Y006900D01*
X012914Y006771D01*
X012762Y006662D01*
X012596Y006575D01*
X012420Y006512D01*
X012237Y006473D01*
X012050Y006460D01*
X011863Y006473D01*
X011680Y006512D01*
X011504Y006575D01*
X011338Y006662D01*
X011186Y006771D01*
X011050Y006900D01*
X011034Y006755D01*
X011039Y006609D01*
X011066Y006466D01*
X011115Y006328D01*
X011184Y006199D01*
X011271Y006082D01*
X011375Y005980D01*
X011493Y005894D01*
X011622Y005826D01*
X011760Y005780D01*
X011904Y005754D01*
X012050Y005750D01*
X012197Y005752D01*
X012416Y005801D02*
X011699Y005801D01*
X011485Y005899D02*
X012626Y005899D01*
X012754Y005998D02*
X011356Y005998D01*
X011260Y006096D02*
X012848Y006096D01*
X012922Y006195D02*
X011187Y006195D01*
X011134Y006293D02*
X012974Y006293D01*
X013014Y006392D02*
X011092Y006392D01*
X011062Y006490D02*
X011783Y006490D01*
X011478Y006589D02*
X011043Y006589D01*
X011036Y006687D02*
X011303Y006687D01*
X011171Y006786D02*
X011037Y006786D01*
X011048Y006884D02*
X011067Y006884D01*
X012317Y006490D02*
X013043Y006490D01*
X013061Y006589D02*
X012622Y006589D01*
X012797Y006687D02*
X013067Y006687D01*
X013065Y006786D02*
X012929Y006786D01*
X013033Y006884D02*
X013052Y006884D01*
X013050Y009200D02*
X013061Y009357D01*
X013047Y009513D01*
X013009Y009666D01*
X012947Y009810D01*
X012864Y009944D01*
X012761Y010062D01*
X012640Y010163D01*
X012506Y010244D01*
X012360Y010303D01*
X012207Y010339D01*
X012050Y010350D01*
X011906Y010342D01*
X011764Y010312D01*
X011629Y010263D01*
X011502Y010195D01*
X011386Y010109D01*
X011283Y010007D01*
X011197Y009891D01*
X011128Y009765D01*
X011078Y009629D01*
X011048Y009488D01*
X011038Y009344D01*
X011050Y009200D01*
X011166Y009337D01*
X011300Y009455D01*
X011449Y009553D01*
X011612Y009629D01*
X011783Y009680D01*
X011960Y009706D01*
X012140Y009706D01*
X012317Y009680D01*
X012488Y009629D01*
X012651Y009553D01*
X012800Y009455D01*
X012934Y009337D01*
X013050Y009200D01*
X013053Y009248D02*
X013009Y009248D01*
X013060Y009347D02*
X012923Y009347D01*
X012812Y009445D02*
X013053Y009445D01*
X013039Y009544D02*
X012666Y009544D01*
X012444Y009642D02*
X013015Y009642D01*
X012977Y009741D02*
X011119Y009741D01*
X011082Y009642D02*
X011656Y009642D01*
X011434Y009544D02*
X011059Y009544D01*
X011045Y009445D02*
X011288Y009445D01*
X011177Y009347D02*
X011039Y009347D01*
X011046Y009248D02*
X011091Y009248D01*
X011168Y009839D02*
X012929Y009839D01*
X012868Y009938D02*
X011231Y009938D01*
X011313Y010036D02*
X012783Y010036D01*
X012674Y010135D02*
X011420Y010135D01*
X011573Y010233D02*
X012524Y010233D01*
X012238Y010332D02*
X011858Y010332D01*
X011904Y011254D02*
X011760Y011280D01*
X011622Y011326D01*
X011493Y011394D01*
X011375Y011480D01*
X011271Y011582D01*
X011184Y011699D01*
X011115Y011828D01*
X011066Y011966D01*
X011039Y012109D01*
X011034Y012255D01*
X011050Y012400D01*
X011186Y012271D01*
X011338Y012162D01*
X011504Y012075D01*
X011680Y012012D01*
X011863Y011973D01*
X012050Y011960D01*
X012237Y011973D01*
X012420Y012012D01*
X012596Y012075D01*
X012762Y012162D01*
X012914Y012271D01*
X013050Y012400D01*
X013069Y012255D01*
X013065Y012108D01*
X013039Y011964D01*
X012991Y011825D01*
X012922Y011695D01*
X012835Y011577D01*
X012730Y011474D01*
X012611Y011389D01*
X012481Y011322D01*
X012341Y011276D01*
X012197Y011252D01*
X012050Y011250D01*
X011904Y011254D01*
X011651Y011317D02*
X012464Y011317D01*
X012648Y011415D02*
X011463Y011415D01*
X011340Y011514D02*
X012770Y011514D01*
X012860Y011612D02*
X011249Y011612D01*
X011178Y011711D02*
X012930Y011711D01*
X012982Y011809D02*
X011125Y011809D01*
X011087Y011908D02*
X013019Y011908D01*
X013046Y012006D02*
X012393Y012006D01*
X012652Y012105D02*
X013064Y012105D01*
X013067Y012203D02*
X012819Y012203D01*
X012946Y012302D02*
X013063Y012302D01*
X011707Y012006D02*
X011059Y012006D01*
X011040Y012105D02*
X011448Y012105D01*
X011281Y012203D02*
X011035Y012203D01*
X011039Y012302D02*
X011154Y012302D01*
X011050Y014700D02*
X011038Y014844D01*
X011048Y014988D01*
X011078Y015129D01*
X011128Y015265D01*
X011197Y015391D01*
X011283Y015507D01*
X011386Y015609D01*
X011502Y015695D01*
X011629Y015763D01*
X011764Y015812D01*
X011906Y015842D01*
X012050Y015850D01*
X012207Y015839D01*
X012360Y015803D01*
X012506Y015744D01*
X012640Y015663D01*
X012761Y015562D01*
X012864Y015444D01*
X012947Y015310D01*
X013009Y015166D01*
X013047Y015013D01*
X013061Y014857D01*
X013050Y014700D01*
X012934Y014837D01*
X012800Y014955D01*
X012651Y015053D01*
X012488Y015129D01*
X012317Y015180D01*
X012140Y015206D01*
X011960Y015206D01*
X011783Y015180D01*
X011612Y015129D01*
X011449Y015053D01*
X011300Y014955D01*
X011166Y014837D01*
X011050Y014700D01*
X011045Y014764D02*
X011104Y014764D01*
X011040Y014863D02*
X011195Y014863D01*
X011308Y014961D02*
X011046Y014961D01*
X011063Y015060D02*
X011462Y015060D01*
X011710Y015158D02*
X011088Y015158D01*
X011125Y015257D02*
X012970Y015257D01*
X013011Y015158D02*
X012390Y015158D01*
X012638Y015060D02*
X013035Y015060D01*
X013051Y014961D02*
X012792Y014961D01*
X012905Y014863D02*
X013060Y014863D01*
X013054Y014764D02*
X012996Y014764D01*
X012919Y015355D02*
X011177Y015355D01*
X011243Y015454D02*
X012855Y015454D01*
X012769Y015552D02*
X011329Y015552D01*
X011442Y015651D02*
X012655Y015651D01*
X012494Y015749D02*
X011603Y015749D01*
X012008Y015848D02*
X012085Y015848D01*
X012050Y016750D02*
X011904Y016754D01*
X011760Y016780D01*
X011622Y016826D01*
X011493Y016894D01*
X011375Y016980D01*
X011271Y017082D01*
X011184Y017199D01*
X011115Y017328D01*
X011066Y017466D01*
X011039Y017609D01*
X011034Y017755D01*
X011050Y017900D01*
X011186Y017771D01*
X011338Y017662D01*
X011504Y017575D01*
X011680Y017512D01*
X011863Y017473D01*
X012050Y017460D01*
X012237Y017473D01*
X012420Y017512D01*
X012596Y017575D01*
X012762Y017662D01*
X012914Y017771D01*
X013050Y017900D01*
X013069Y017755D01*
X013065Y017608D01*
X013039Y017464D01*
X012991Y017325D01*
X011116Y017325D01*
X011081Y017424D02*
X013025Y017424D01*
X013049Y017522D02*
X012449Y017522D01*
X012683Y017621D02*
X013065Y017621D01*
X013068Y017719D02*
X012842Y017719D01*
X012963Y017818D02*
X013061Y017818D01*
X012991Y017325D02*
X012922Y017195D01*
X012835Y017077D01*
X012730Y016974D01*
X012611Y016889D01*
X012481Y016822D01*
X012341Y016776D01*
X012197Y016752D01*
X012050Y016750D01*
X011610Y016833D02*
X012501Y016833D01*
X012670Y016931D02*
X011441Y016931D01*
X011324Y017030D02*
X012786Y017030D01*
X012872Y017128D02*
X011237Y017128D01*
X011169Y017227D02*
X012939Y017227D01*
X011651Y017522D02*
X011056Y017522D01*
X011039Y017621D02*
X011417Y017621D01*
X011258Y017719D02*
X011035Y017719D01*
X011041Y017818D02*
X011137Y017818D01*
X011050Y020200D02*
X011038Y020344D01*
X011048Y020488D01*
X011078Y020629D01*
X011128Y020765D01*
X011197Y020891D01*
X011283Y021007D01*
X011386Y021109D01*
X011502Y021195D01*
X011629Y021263D01*
X011764Y021312D01*
X011906Y021342D01*
X012050Y021350D01*
X012207Y021339D01*
X012360Y021303D01*
X012506Y021244D01*
X012640Y021163D01*
X012761Y021062D01*
X012864Y020944D01*
X012947Y020810D01*
X013009Y020666D01*
X013047Y020513D01*
X013061Y020357D01*
X013050Y020200D01*
X012934Y020337D01*
X012800Y020455D01*
X012651Y020553D01*
X012488Y020629D01*
X012317Y020680D01*
X012140Y020706D01*
X011960Y020706D01*
X011783Y020680D01*
X011612Y020629D01*
X011449Y020553D01*
X011300Y020455D01*
X011166Y020337D01*
X011050Y020200D01*
X011044Y020280D02*
X011118Y020280D01*
X011041Y020379D02*
X011213Y020379D01*
X011333Y020477D02*
X011047Y020477D01*
X011066Y020576D02*
X011497Y020576D01*
X011763Y020674D02*
X011094Y020674D01*
X011132Y020773D02*
X012963Y020773D01*
X013005Y020674D02*
X012337Y020674D01*
X012603Y020576D02*
X013031Y020576D01*
X013050Y020477D02*
X012767Y020477D01*
X012887Y020379D02*
X013059Y020379D01*
X013055Y020280D02*
X012982Y020280D01*
X012909Y020871D02*
X011186Y020871D01*
X011255Y020970D02*
X012841Y020970D01*
X012754Y021068D02*
X011345Y021068D01*
X011464Y021167D02*
X012635Y021167D01*
X012454Y021265D02*
X011634Y021265D01*
X011760Y022280D02*
X011904Y022254D01*
X012050Y022250D01*
X012197Y022252D01*
X012341Y022276D01*
X012481Y022322D01*
X012611Y022389D01*
X012730Y022474D01*
X012835Y022577D01*
X012922Y022695D01*
X012991Y022825D01*
X013039Y022964D01*
X013065Y023108D01*
X013069Y023255D01*
X013050Y023400D01*
X012914Y023271D01*
X012762Y023162D01*
X012596Y023075D01*
X012420Y023012D01*
X012237Y022973D01*
X012050Y022960D01*
X011863Y022973D01*
X011680Y023012D01*
X011504Y023075D01*
X011338Y023162D01*
X011186Y023271D01*
X011050Y023400D01*
X011034Y023255D01*
X011039Y023109D01*
X011066Y022966D01*
X011115Y022828D01*
X011184Y022699D01*
X011271Y022582D01*
X011375Y022480D01*
X011493Y022394D01*
X011622Y022326D01*
X011760Y022280D01*
X011580Y022349D02*
X012533Y022349D01*
X012692Y022447D02*
X011419Y022447D01*
X011308Y022546D02*
X012802Y022546D01*
X012884Y022644D02*
X011225Y022644D01*
X011160Y022743D02*
X012947Y022743D01*
X012996Y022841D02*
X011110Y022841D01*
X011076Y022940D02*
X013030Y022940D01*
X013052Y023038D02*
X012493Y023038D01*
X012713Y023137D02*
X013065Y023137D01*
X013068Y023235D02*
X012864Y023235D01*
X012980Y023334D02*
X013058Y023334D01*
X012054Y022250D02*
X012048Y022250D01*
X011607Y023038D02*
X011053Y023038D01*
X011038Y023137D02*
X011387Y023137D01*
X011236Y023235D02*
X011034Y023235D01*
X011042Y023334D02*
X011120Y023334D01*
X011050Y025700D02*
X011038Y025844D01*
X011048Y025988D01*
X011078Y026129D01*
X011128Y026265D01*
X011197Y026391D01*
X011283Y026507D01*
X011386Y026609D01*
X011502Y026695D01*
X011629Y026763D01*
X011764Y026812D01*
X011906Y026842D01*
X012050Y026850D01*
X012207Y026839D01*
X012360Y026803D01*
X012506Y026744D01*
X012640Y026663D01*
X012761Y026562D01*
X012864Y026444D01*
X012947Y026310D01*
X013009Y026166D01*
X013047Y026013D01*
X013061Y025857D01*
X013050Y025700D01*
X012934Y025837D01*
X012800Y025955D01*
X012651Y026053D01*
X012488Y026129D01*
X012317Y026180D01*
X012140Y026206D01*
X011960Y026206D01*
X011783Y026180D01*
X011612Y026129D01*
X011449Y026053D01*
X011300Y025955D01*
X011166Y025837D01*
X011050Y025700D01*
X011042Y025796D02*
X011131Y025796D01*
X011042Y025895D02*
X011231Y025895D01*
X011357Y025993D02*
X011049Y025993D01*
X011070Y026092D02*
X011531Y026092D01*
X011852Y026190D02*
X011100Y026190D01*
X011141Y026289D02*
X012956Y026289D01*
X012998Y026190D02*
X012248Y026190D01*
X012415Y026781D02*
X011678Y026781D01*
X011485Y026683D02*
X012608Y026683D01*
X012735Y026584D02*
X011361Y026584D01*
X011267Y026486D02*
X012827Y026486D01*
X012899Y026387D02*
X011194Y026387D01*
X011622Y027826D02*
X011493Y027894D01*
X011375Y027980D01*
X011271Y028082D01*
X011184Y028199D01*
X011115Y028328D01*
X011066Y028466D01*
X011039Y028609D01*
X011034Y028755D01*
X011050Y028900D01*
X011186Y028771D01*
X011338Y028662D01*
X011504Y028575D01*
X011680Y028512D01*
X011863Y028473D01*
X012050Y028460D01*
X012237Y028473D01*
X012420Y028512D01*
X012596Y028575D01*
X012762Y028662D01*
X012914Y028771D01*
X013050Y028900D01*
X013069Y028755D01*
X013065Y028608D01*
X013039Y028464D01*
X012991Y028325D01*
X012922Y028195D01*
X012835Y028077D01*
X012730Y027974D01*
X012611Y027889D01*
X012481Y027822D01*
X012341Y027776D01*
X012197Y027752D01*
X012050Y027750D01*
X011904Y027754D01*
X011760Y027780D01*
X011622Y027826D01*
X011549Y027865D02*
X012564Y027865D01*
X012714Y027963D02*
X011397Y027963D01*
X011292Y028062D02*
X012819Y028062D01*
X012896Y028160D02*
X011213Y028160D01*
X011152Y028259D02*
X012956Y028259D01*
X013002Y028357D02*
X011105Y028357D01*
X011070Y028456D02*
X013036Y028456D01*
X013055Y028554D02*
X012538Y028554D01*
X012744Y028653D02*
X013066Y028653D01*
X013068Y028751D02*
X012886Y028751D01*
X012997Y028850D02*
X013056Y028850D01*
X012282Y027766D02*
X011836Y027766D01*
X011562Y028554D02*
X011049Y028554D01*
X011037Y028653D02*
X011356Y028653D01*
X011214Y028751D02*
X011034Y028751D01*
X011044Y028850D02*
X011103Y028850D01*
X011050Y031200D02*
X011038Y031344D01*
X011048Y031488D01*
X011078Y031629D01*
X011128Y031765D01*
X011197Y031891D01*
X011283Y032007D01*
X011386Y032109D01*
X011502Y032195D01*
X011629Y032263D01*
X011764Y032312D01*
X011906Y032342D01*
X012050Y032350D01*
X012207Y032339D01*
X012360Y032303D01*
X012506Y032244D01*
X012640Y032163D01*
X012761Y032062D01*
X012864Y031944D01*
X012947Y031810D01*
X013009Y031666D01*
X013047Y031513D01*
X013061Y031357D01*
X013050Y031200D01*
X012934Y031337D01*
X012800Y031455D01*
X012651Y031553D01*
X012488Y031629D01*
X012317Y031680D01*
X012140Y031706D01*
X011960Y031706D01*
X011783Y031680D01*
X011612Y031629D01*
X011449Y031553D01*
X011300Y031455D01*
X011166Y031337D01*
X011050Y031200D01*
X011049Y031214D02*
X011061Y031214D01*
X011041Y031312D02*
X011145Y031312D01*
X011043Y031411D02*
X011249Y031411D01*
X011382Y031509D02*
X011052Y031509D01*
X011073Y031608D02*
X011566Y031608D01*
X011149Y031805D02*
X012950Y031805D01*
X012991Y031706D02*
X011106Y031706D01*
X011205Y031903D02*
X012889Y031903D01*
X012813Y032002D02*
X011279Y032002D01*
X011377Y032100D02*
X012716Y032100D01*
X012582Y032199D02*
X011509Y032199D01*
X011723Y032297D02*
X012375Y032297D01*
X012534Y031608D02*
X013023Y031608D01*
X013047Y031509D02*
X012718Y031509D01*
X012851Y031411D02*
X013056Y031411D01*
X013058Y031312D02*
X012955Y031312D01*
X013039Y031214D02*
X013051Y031214D01*
X012360Y033282D02*
X011753Y033282D01*
X011760Y033280D02*
X011904Y033254D01*
X012050Y033250D01*
X012197Y033252D01*
X012341Y033276D01*
X012481Y033322D01*
X012611Y033389D01*
X012730Y033474D01*
X012835Y033577D01*
X012922Y033695D01*
X012991Y033825D01*
X013039Y033964D01*
X013065Y034108D01*
X013069Y034255D01*
X013050Y034400D01*
X012914Y034271D01*
X012762Y034162D01*
X012596Y034075D01*
X012420Y034012D01*
X012237Y033973D01*
X012050Y033960D01*
X011863Y033973D01*
X011680Y034012D01*
X011504Y034075D01*
X011338Y034162D01*
X011186Y034271D01*
X011050Y034400D01*
X011034Y034255D01*
X011039Y034109D01*
X011066Y033966D01*
X011115Y033828D01*
X011184Y033699D01*
X011271Y033582D01*
X011375Y033480D01*
X011493Y033394D01*
X011622Y033326D01*
X011760Y033280D01*
X011518Y033381D02*
X012595Y033381D01*
X012735Y033479D02*
X011375Y033479D01*
X011275Y033578D02*
X012835Y033578D01*
X012908Y033676D02*
X011201Y033676D01*
X011143Y033775D02*
X012964Y033775D01*
X013007Y033873D02*
X011099Y033873D01*
X011065Y033972D02*
X011887Y033972D01*
X012213Y033972D02*
X013040Y033972D01*
X013058Y034070D02*
X012582Y034070D01*
X012771Y034169D02*
X013066Y034169D01*
X013067Y034267D02*
X012909Y034267D01*
X013014Y034366D02*
X013054Y034366D01*
X013050Y036700D02*
X012934Y036837D01*
X012800Y036955D01*
X012651Y037053D01*
X012488Y037129D01*
X012317Y037180D01*
X012140Y037206D01*
X011960Y037206D01*
X011783Y037180D01*
X011612Y037129D01*
X011449Y037053D01*
X011300Y036955D01*
X011166Y036837D01*
X011050Y036700D01*
X011038Y036844D01*
X011048Y036988D01*
X011078Y037129D01*
X011128Y037265D01*
X011197Y037391D01*
X011283Y037507D01*
X011386Y037609D01*
X011502Y037695D01*
X011629Y037763D01*
X011764Y037812D01*
X011906Y037842D01*
X012050Y037850D01*
X012207Y037839D01*
X012360Y037803D01*
X012506Y037744D01*
X012640Y037663D01*
X012761Y037562D01*
X012864Y037444D01*
X012947Y037310D01*
X013009Y037166D01*
X013047Y037013D01*
X013061Y036857D01*
X013050Y036700D01*
X013052Y036730D02*
X013025Y036730D01*
X013059Y036828D02*
X012942Y036828D01*
X012833Y036927D02*
X013054Y036927D01*
X013044Y037025D02*
X012694Y037025D01*
X012500Y037124D02*
X013019Y037124D01*
X012985Y037222D02*
X011112Y037222D01*
X011076Y037124D02*
X011600Y037124D01*
X011406Y037025D02*
X011056Y037025D01*
X011044Y036927D02*
X011267Y036927D01*
X011158Y036828D02*
X011040Y036828D01*
X011048Y036730D02*
X011075Y036730D01*
X011158Y037321D02*
X012941Y037321D01*
X012879Y037419D02*
X011217Y037419D01*
X011294Y037518D02*
X012799Y037518D01*
X012696Y037616D02*
X011396Y037616D01*
X011539Y037715D02*
X012555Y037715D01*
X012318Y037813D02*
X011768Y037813D01*
X011086Y034366D02*
X011046Y034366D01*
X011035Y034267D02*
X011191Y034267D01*
X011329Y034169D02*
X011037Y034169D01*
X011046Y034070D02*
X011518Y034070D01*
X008250Y036700D02*
X008261Y036857D01*
X008247Y037013D01*
X008209Y037166D01*
X008147Y037310D01*
X008064Y037444D01*
X007961Y037562D01*
X007840Y037663D01*
X007706Y037744D01*
X007560Y037803D01*
X007407Y037839D01*
X007250Y037850D01*
X007106Y037842D01*
X006964Y037812D01*
X006829Y037763D01*
X006702Y037695D01*
X006586Y037609D01*
X006483Y037507D01*
X006397Y037391D01*
X006328Y037265D01*
X006278Y037129D01*
X006248Y036988D01*
X006238Y036844D01*
X006250Y036700D01*
X006366Y036837D01*
X006500Y036955D01*
X006649Y037053D01*
X006812Y037129D01*
X006983Y037180D01*
X007160Y037206D01*
X007340Y037206D01*
X007517Y037180D01*
X007688Y037129D01*
X007851Y037053D01*
X008000Y036955D01*
X008134Y036837D01*
X008250Y036700D01*
X008252Y036730D02*
X008225Y036730D01*
X008259Y036828D02*
X008142Y036828D01*
X008033Y036927D02*
X008254Y036927D01*
X008244Y037025D02*
X007894Y037025D01*
X007700Y037124D02*
X008219Y037124D01*
X008185Y037222D02*
X006312Y037222D01*
X006276Y037124D02*
X006800Y037124D01*
X006606Y037025D02*
X006256Y037025D01*
X006244Y036927D02*
X006467Y036927D01*
X006358Y036828D02*
X006240Y036828D01*
X006248Y036730D02*
X006275Y036730D01*
X006358Y037321D02*
X008141Y037321D01*
X008079Y037419D02*
X006417Y037419D01*
X006494Y037518D02*
X007999Y037518D01*
X007896Y037616D02*
X006596Y037616D01*
X006739Y037715D02*
X007755Y037715D01*
X007518Y037813D02*
X006968Y037813D01*
X008197Y028850D02*
X008256Y028850D01*
X008268Y028751D02*
X008086Y028751D01*
X007944Y028653D02*
X008266Y028653D01*
X008255Y028554D02*
X007738Y028554D01*
X003427Y026092D02*
X002969Y026092D01*
X003143Y025993D02*
X003449Y025993D01*
X003457Y025895D02*
X003269Y025895D01*
X003369Y025796D02*
X003457Y025796D01*
X012569Y026092D02*
X013027Y026092D01*
X013049Y025993D02*
X012743Y025993D01*
X012869Y025895D02*
X013057Y025895D01*
X013057Y025796D02*
X012969Y025796D01*
X015838Y025844D02*
X015850Y025700D01*
X015966Y025837D01*
X016100Y025955D01*
X016249Y026053D01*
X016412Y026129D01*
X016583Y026180D01*
X016760Y026206D01*
X016940Y026206D01*
X017117Y026180D01*
X017288Y026129D01*
X017451Y026053D01*
X017600Y025955D01*
X017734Y025837D01*
X017850Y025700D01*
X017861Y025857D01*
X017847Y026013D01*
X017809Y026166D01*
X017747Y026310D01*
X017664Y026444D01*
X017561Y026562D01*
X017440Y026663D01*
X017306Y026744D01*
X017160Y026803D01*
X017007Y026839D01*
X016850Y026850D01*
X016706Y026842D01*
X016564Y026812D01*
X016429Y026763D01*
X016302Y026695D01*
X016186Y026609D01*
X016083Y026507D01*
X015997Y026391D01*
X015928Y026265D01*
X015878Y026129D01*
X015848Y025988D01*
X015838Y025844D01*
X015842Y025796D02*
X015931Y025796D01*
X015842Y025895D02*
X016031Y025895D01*
X016157Y025993D02*
X015849Y025993D01*
X015870Y026092D02*
X016331Y026092D01*
X015941Y026289D02*
X017756Y026289D01*
X017798Y026190D02*
X017048Y026190D01*
X016652Y026190D02*
X015900Y026190D01*
X015994Y026387D02*
X017699Y026387D01*
X017627Y026486D02*
X016067Y026486D01*
X016161Y026584D02*
X017535Y026584D01*
X017408Y026683D02*
X016285Y026683D01*
X016478Y026781D02*
X017215Y026781D01*
X017369Y026092D02*
X017827Y026092D01*
X017849Y025993D02*
X017543Y025993D01*
X017669Y025895D02*
X017857Y025895D01*
X017857Y025796D02*
X017769Y025796D01*
X017141Y027776D02*
X016997Y027752D01*
X016850Y027750D01*
X016704Y027754D01*
X016560Y027780D01*
X016422Y027826D01*
X016293Y027894D01*
X016175Y027980D01*
X016071Y028082D01*
X015984Y028199D01*
X015915Y028328D01*
X015866Y028466D01*
X015839Y028609D01*
X015834Y028755D01*
X015850Y028900D01*
X015986Y028771D01*
X016138Y028662D01*
X016304Y028575D01*
X016480Y028512D01*
X016663Y028473D01*
X016850Y028460D01*
X017037Y028473D01*
X017220Y028512D01*
X017396Y028575D01*
X017562Y028662D01*
X017714Y028771D01*
X017850Y028900D01*
X017869Y028755D01*
X017865Y028608D01*
X017839Y028464D01*
X017791Y028325D01*
X017722Y028195D01*
X017635Y028077D01*
X017530Y027974D01*
X017411Y027889D01*
X017281Y027822D01*
X017141Y027776D01*
X017082Y027766D02*
X016636Y027766D01*
X016349Y027865D02*
X017364Y027865D01*
X017514Y027963D02*
X016197Y027963D01*
X016092Y028062D02*
X017619Y028062D01*
X017696Y028160D02*
X016013Y028160D01*
X015952Y028259D02*
X017756Y028259D01*
X017802Y028357D02*
X015905Y028357D01*
X015870Y028456D02*
X017836Y028456D01*
X017855Y028554D02*
X017338Y028554D01*
X017544Y028653D02*
X017866Y028653D01*
X017868Y028751D02*
X017686Y028751D01*
X017797Y028850D02*
X017856Y028850D01*
X016362Y028554D02*
X015849Y028554D01*
X015837Y028653D02*
X016156Y028653D01*
X016014Y028751D02*
X015834Y028751D01*
X015844Y028850D02*
X015903Y028850D01*
X015850Y031200D02*
X015838Y031344D01*
X015848Y031488D01*
X015878Y031629D01*
X015928Y031765D01*
X015997Y031891D01*
X016083Y032007D01*
X016186Y032109D01*
X016302Y032195D01*
X016429Y032263D01*
X016564Y032312D01*
X016706Y032342D01*
X016850Y032350D01*
X017007Y032339D01*
X017160Y032303D01*
X017306Y032244D01*
X017440Y032163D01*
X017561Y032062D01*
X017664Y031944D01*
X017747Y031810D01*
X017809Y031666D01*
X017847Y031513D01*
X017861Y031357D01*
X017850Y031200D01*
X017734Y031337D01*
X017600Y031455D01*
X017451Y031553D01*
X017288Y031629D01*
X017117Y031680D01*
X016940Y031706D01*
X016760Y031706D01*
X016583Y031680D01*
X016412Y031629D01*
X016249Y031553D01*
X016100Y031455D01*
X015966Y031337D01*
X015850Y031200D01*
X015849Y031214D02*
X015861Y031214D01*
X015841Y031312D02*
X015945Y031312D01*
X015843Y031411D02*
X016049Y031411D01*
X016182Y031509D02*
X015852Y031509D01*
X015873Y031608D02*
X016366Y031608D01*
X015949Y031805D02*
X017750Y031805D01*
X017791Y031706D02*
X015906Y031706D01*
X016005Y031903D02*
X017689Y031903D01*
X017613Y032002D02*
X016079Y032002D01*
X016177Y032100D02*
X017516Y032100D01*
X017382Y032199D02*
X016309Y032199D01*
X016523Y032297D02*
X017175Y032297D01*
X017334Y031608D02*
X017823Y031608D01*
X017847Y031509D02*
X017518Y031509D01*
X017651Y031411D02*
X017856Y031411D01*
X017858Y031312D02*
X017755Y031312D01*
X017839Y031214D02*
X017851Y031214D01*
X017160Y033282D02*
X016553Y033282D01*
X016560Y033280D02*
X016704Y033254D01*
X016850Y033250D01*
X016997Y033252D01*
X017141Y033276D01*
X017281Y033322D01*
X017411Y033389D01*
X017530Y033474D01*
X017635Y033577D01*
X017722Y033695D01*
X017791Y033825D01*
X017839Y033964D01*
X017865Y034108D01*
X017869Y034255D01*
X017850Y034400D01*
X017714Y034271D01*
X017562Y034162D01*
X017396Y034075D01*
X017220Y034012D01*
X017037Y033973D01*
X016850Y033960D01*
X016663Y033973D01*
X016480Y034012D01*
X016304Y034075D01*
X016138Y034162D01*
X015986Y034271D01*
X015850Y034400D01*
X015834Y034255D01*
X015839Y034109D01*
X015866Y033966D01*
X015915Y033828D01*
X015984Y033699D01*
X016071Y033582D01*
X016175Y033480D01*
X016293Y033394D01*
X016422Y033326D01*
X016560Y033280D01*
X016318Y033381D02*
X017395Y033381D01*
X017535Y033479D02*
X016175Y033479D01*
X016075Y033578D02*
X017635Y033578D01*
X017708Y033676D02*
X016001Y033676D01*
X015943Y033775D02*
X017764Y033775D01*
X017807Y033873D02*
X015899Y033873D01*
X015865Y033972D02*
X016687Y033972D01*
X017013Y033972D02*
X017840Y033972D01*
X017858Y034070D02*
X017382Y034070D01*
X017571Y034169D02*
X017866Y034169D01*
X017867Y034267D02*
X017709Y034267D01*
X017814Y034366D02*
X017854Y034366D01*
X017850Y036700D02*
X017734Y036837D01*
X017600Y036955D01*
X017451Y037053D01*
X017288Y037129D01*
X017117Y037180D01*
X016940Y037206D01*
X016760Y037206D01*
X016583Y037180D01*
X016412Y037129D01*
X016249Y037053D01*
X016100Y036955D01*
X015966Y036837D01*
X015850Y036700D01*
X015838Y036844D01*
X015848Y036988D01*
X015878Y037129D01*
X015928Y037265D01*
X015997Y037391D01*
X016083Y037507D01*
X016186Y037609D01*
X016302Y037695D01*
X016429Y037763D01*
X016564Y037812D01*
X016706Y037842D01*
X016850Y037850D01*
X017007Y037839D01*
X017160Y037803D01*
X017306Y037744D01*
X017440Y037663D01*
X017561Y037562D01*
X017664Y037444D01*
X017747Y037310D01*
X017809Y037166D01*
X017847Y037013D01*
X017861Y036857D01*
X017850Y036700D01*
X017852Y036730D02*
X017825Y036730D01*
X017859Y036828D02*
X017742Y036828D01*
X017633Y036927D02*
X017854Y036927D01*
X017844Y037025D02*
X017494Y037025D01*
X017300Y037124D02*
X017819Y037124D01*
X017785Y037222D02*
X015912Y037222D01*
X015876Y037124D02*
X016400Y037124D01*
X016206Y037025D02*
X015856Y037025D01*
X015844Y036927D02*
X016067Y036927D01*
X015958Y036828D02*
X015840Y036828D01*
X015848Y036730D02*
X015875Y036730D01*
X015958Y037321D02*
X017741Y037321D01*
X017679Y037419D02*
X016017Y037419D01*
X016094Y037518D02*
X017599Y037518D01*
X017496Y037616D02*
X016196Y037616D01*
X016339Y037715D02*
X017355Y037715D01*
X017118Y037813D02*
X016568Y037813D01*
X015886Y034366D02*
X015846Y034366D01*
X015835Y034267D02*
X015991Y034267D01*
X016129Y034169D02*
X015837Y034169D01*
X015846Y034070D02*
X016318Y034070D01*
X020634Y034255D02*
X020639Y034109D01*
X020666Y033966D01*
X020715Y033828D01*
X020784Y033699D01*
X020871Y033582D01*
X020975Y033480D01*
X021093Y033394D01*
X021222Y033326D01*
X021360Y033280D01*
X021504Y033254D01*
X021650Y033250D01*
X021797Y033252D01*
X021941Y033276D01*
X022081Y033322D01*
X022211Y033389D01*
X022330Y033474D01*
X022435Y033577D01*
X022522Y033695D01*
X022591Y033825D01*
X022639Y033964D01*
X022665Y034108D01*
X022669Y034255D01*
X022650Y034400D01*
X022514Y034271D01*
X022362Y034162D01*
X022196Y034075D01*
X022020Y034012D01*
X021837Y033973D01*
X021650Y033960D01*
X021463Y033973D01*
X021280Y034012D01*
X021104Y034075D01*
X020938Y034162D01*
X020786Y034271D01*
X020650Y034400D01*
X020634Y034255D01*
X020635Y034267D02*
X020791Y034267D01*
X020686Y034366D02*
X020646Y034366D01*
X020637Y034169D02*
X020929Y034169D01*
X021118Y034070D02*
X020646Y034070D01*
X020665Y033972D02*
X021487Y033972D01*
X021813Y033972D02*
X022640Y033972D01*
X022658Y034070D02*
X022182Y034070D01*
X022371Y034169D02*
X022666Y034169D01*
X022667Y034267D02*
X022509Y034267D01*
X022614Y034366D02*
X022654Y034366D01*
X022607Y033873D02*
X020699Y033873D01*
X020743Y033775D02*
X022564Y033775D01*
X022508Y033676D02*
X020801Y033676D01*
X020875Y033578D02*
X022435Y033578D01*
X022335Y033479D02*
X020975Y033479D01*
X021118Y033381D02*
X022195Y033381D01*
X021960Y033282D02*
X021353Y033282D01*
X021506Y032342D02*
X021364Y032312D01*
X021229Y032263D01*
X021102Y032195D01*
X020986Y032109D01*
X020883Y032007D01*
X020797Y031891D01*
X020728Y031765D01*
X020678Y031629D01*
X020648Y031488D01*
X020638Y031344D01*
X020650Y031200D01*
X020766Y031337D01*
X020900Y031455D01*
X021049Y031553D01*
X021212Y031629D01*
X021383Y031680D01*
X021560Y031706D01*
X021740Y031706D01*
X021917Y031680D01*
X022088Y031629D01*
X022251Y031553D01*
X022400Y031455D01*
X022534Y031337D01*
X022650Y031200D01*
X022661Y031357D01*
X022647Y031513D01*
X022609Y031666D01*
X022547Y031810D01*
X022464Y031944D01*
X022361Y032062D01*
X022240Y032163D01*
X022106Y032244D01*
X021960Y032303D01*
X021807Y032339D01*
X021650Y032350D01*
X021506Y032342D01*
X021323Y032297D02*
X021975Y032297D01*
X022182Y032199D02*
X021109Y032199D01*
X020977Y032100D02*
X022316Y032100D01*
X022413Y032002D02*
X020879Y032002D01*
X020805Y031903D02*
X022489Y031903D01*
X022550Y031805D02*
X020749Y031805D01*
X020706Y031706D02*
X022591Y031706D01*
X022623Y031608D02*
X022134Y031608D01*
X022318Y031509D02*
X022647Y031509D01*
X022656Y031411D02*
X022451Y031411D01*
X022555Y031312D02*
X022658Y031312D01*
X022651Y031214D02*
X022639Y031214D01*
X021166Y031608D02*
X020673Y031608D01*
X020652Y031509D02*
X020982Y031509D01*
X020849Y031411D02*
X020643Y031411D01*
X020641Y031312D02*
X020745Y031312D01*
X020661Y031214D02*
X020649Y031214D01*
X020650Y028900D02*
X020634Y028755D01*
X020639Y028609D01*
X020666Y028466D01*
X020715Y028328D01*
X020784Y028199D01*
X020871Y028082D01*
X020975Y027980D01*
X021093Y027894D01*
X021222Y027826D01*
X021360Y027780D01*
X021504Y027754D01*
X021650Y027750D01*
X021797Y027752D01*
X021941Y027776D01*
X022081Y027822D01*
X022211Y027889D01*
X022330Y027974D01*
X022435Y028077D01*
X022522Y028195D01*
X022591Y028325D01*
X022639Y028464D01*
X022665Y028608D01*
X022669Y028755D01*
X022650Y028900D01*
X022514Y028771D01*
X022362Y028662D01*
X022196Y028575D01*
X022020Y028512D01*
X021837Y028473D01*
X021650Y028460D01*
X021463Y028473D01*
X021280Y028512D01*
X021104Y028575D01*
X020938Y028662D01*
X020786Y028771D01*
X020650Y028900D01*
X020644Y028850D02*
X020703Y028850D01*
X020634Y028751D02*
X020814Y028751D01*
X020956Y028653D02*
X020637Y028653D01*
X020649Y028554D02*
X021162Y028554D01*
X020752Y028259D02*
X022556Y028259D01*
X022602Y028357D02*
X020705Y028357D01*
X020670Y028456D02*
X022636Y028456D01*
X022655Y028554D02*
X022138Y028554D01*
X022344Y028653D02*
X022666Y028653D01*
X022668Y028751D02*
X022486Y028751D01*
X022597Y028850D02*
X022656Y028850D01*
X022496Y028160D02*
X020813Y028160D01*
X020892Y028062D02*
X022419Y028062D01*
X022314Y027963D02*
X020997Y027963D01*
X021149Y027865D02*
X022164Y027865D01*
X021882Y027766D02*
X021436Y027766D01*
X021506Y026842D02*
X021364Y026812D01*
X021229Y026763D01*
X021102Y026695D01*
X020986Y026609D01*
X020883Y026507D01*
X020797Y026391D01*
X020728Y026265D01*
X020678Y026129D01*
X020648Y025988D01*
X020638Y025844D01*
X020650Y025700D01*
X020766Y025837D01*
X020900Y025955D01*
X021049Y026053D01*
X021212Y026129D01*
X021383Y026180D01*
X021560Y026206D01*
X021740Y026206D01*
X021917Y026180D01*
X022088Y026129D01*
X022251Y026053D01*
X022400Y025955D01*
X022534Y025837D01*
X022650Y025700D01*
X022661Y025857D01*
X022647Y026013D01*
X022609Y026166D01*
X022547Y026310D01*
X022464Y026444D01*
X022361Y026562D01*
X022240Y026663D01*
X022106Y026744D01*
X021960Y026803D01*
X021807Y026839D01*
X021650Y026850D01*
X021506Y026842D01*
X021278Y026781D02*
X022015Y026781D01*
X022208Y026683D02*
X021085Y026683D01*
X020961Y026584D02*
X022335Y026584D01*
X022427Y026486D02*
X020867Y026486D01*
X020794Y026387D02*
X022499Y026387D01*
X022556Y026289D02*
X020741Y026289D01*
X020700Y026190D02*
X021452Y026190D01*
X021848Y026190D02*
X022598Y026190D01*
X022627Y026092D02*
X022169Y026092D01*
X022343Y025993D02*
X022649Y025993D01*
X022657Y025895D02*
X022469Y025895D01*
X022569Y025796D02*
X022657Y025796D01*
X021131Y026092D02*
X020670Y026092D01*
X020649Y025993D02*
X020957Y025993D01*
X020831Y025895D02*
X020642Y025895D01*
X020642Y025796D02*
X020731Y025796D01*
X020650Y023400D02*
X020634Y023255D01*
X020639Y023109D01*
X020666Y022966D01*
X020715Y022828D01*
X020784Y022699D01*
X020871Y022582D01*
X020975Y022480D01*
X021093Y022394D01*
X021222Y022326D01*
X021360Y022280D01*
X021504Y022254D01*
X021650Y022250D01*
X021797Y022252D01*
X021941Y022276D01*
X022081Y022322D01*
X022211Y022389D01*
X022330Y022474D01*
X022435Y022577D01*
X022522Y022695D01*
X022591Y022825D01*
X022639Y022964D01*
X022665Y023108D01*
X022669Y023255D01*
X022650Y023400D01*
X022514Y023271D01*
X022362Y023162D01*
X022196Y023075D01*
X022020Y023012D01*
X021837Y022973D01*
X021650Y022960D01*
X021463Y022973D01*
X021280Y023012D01*
X021104Y023075D01*
X020938Y023162D01*
X020786Y023271D01*
X020650Y023400D01*
X020642Y023334D02*
X020720Y023334D01*
X020634Y023235D02*
X020836Y023235D01*
X020987Y023137D02*
X020638Y023137D01*
X020653Y023038D02*
X021207Y023038D01*
X020760Y022743D02*
X022547Y022743D01*
X022596Y022841D02*
X020710Y022841D01*
X020676Y022940D02*
X022630Y022940D01*
X022652Y023038D02*
X022093Y023038D01*
X022313Y023137D02*
X022665Y023137D01*
X022668Y023235D02*
X022464Y023235D01*
X022580Y023334D02*
X022658Y023334D01*
X022484Y022644D02*
X020825Y022644D01*
X020908Y022546D02*
X022402Y022546D01*
X022292Y022447D02*
X021019Y022447D01*
X021180Y022349D02*
X022133Y022349D01*
X021654Y022250D02*
X021648Y022250D01*
X021650Y021350D02*
X021506Y021342D01*
X021364Y021312D01*
X021229Y021263D01*
X021102Y021195D01*
X020986Y021109D01*
X020883Y021007D01*
X020797Y020891D01*
X020728Y020765D01*
X020678Y020629D01*
X020648Y020488D01*
X020638Y020344D01*
X020650Y020200D01*
X020766Y020337D01*
X020900Y020455D01*
X021049Y020553D01*
X021212Y020629D01*
X021383Y020680D01*
X021560Y020706D01*
X021740Y020706D01*
X021917Y020680D01*
X022088Y020629D01*
X022251Y020553D01*
X022400Y020455D01*
X022534Y020337D01*
X022650Y020200D01*
X022661Y020357D01*
X022647Y020513D01*
X022609Y020666D01*
X022547Y020810D01*
X022464Y020944D01*
X022361Y021062D01*
X022240Y021163D01*
X022106Y021244D01*
X021960Y021303D01*
X021807Y021339D01*
X021650Y021350D01*
X022054Y021265D02*
X021234Y021265D01*
X021064Y021167D02*
X022235Y021167D01*
X022354Y021068D02*
X020945Y021068D01*
X020855Y020970D02*
X022441Y020970D01*
X022509Y020871D02*
X020786Y020871D01*
X020732Y020773D02*
X022563Y020773D01*
X022605Y020674D02*
X021937Y020674D01*
X022203Y020576D02*
X022631Y020576D01*
X022650Y020477D02*
X022367Y020477D01*
X022487Y020379D02*
X022659Y020379D01*
X022655Y020280D02*
X022582Y020280D01*
X021363Y020674D02*
X020694Y020674D01*
X020666Y020576D02*
X021097Y020576D01*
X020933Y020477D02*
X020647Y020477D01*
X020641Y020379D02*
X020813Y020379D01*
X020718Y020280D02*
X020644Y020280D01*
X020650Y017900D02*
X020634Y017755D01*
X020639Y017609D01*
X020666Y017466D01*
X020715Y017328D01*
X020784Y017199D01*
X020871Y017082D01*
X020975Y016980D01*
X021093Y016894D01*
X021222Y016826D01*
X021360Y016780D01*
X021504Y016754D01*
X021650Y016750D01*
X021797Y016752D01*
X021941Y016776D01*
X022081Y016822D01*
X022211Y016889D01*
X022330Y016974D01*
X022435Y017077D01*
X022522Y017195D01*
X022591Y017325D01*
X020716Y017325D01*
X020681Y017424D02*
X022625Y017424D01*
X022639Y017464D02*
X022665Y017608D01*
X022669Y017755D01*
X022650Y017900D01*
X022514Y017771D01*
X022362Y017662D01*
X022196Y017575D01*
X022020Y017512D01*
X021837Y017473D01*
X021650Y017460D01*
X021463Y017473D01*
X021280Y017512D01*
X021104Y017575D01*
X020938Y017662D01*
X020786Y017771D01*
X020650Y017900D01*
X020641Y017818D02*
X020737Y017818D01*
X020635Y017719D02*
X020858Y017719D01*
X021017Y017621D02*
X020639Y017621D01*
X020656Y017522D02*
X021251Y017522D01*
X020769Y017227D02*
X022539Y017227D01*
X022591Y017325D02*
X022639Y017464D01*
X022649Y017522D02*
X022049Y017522D01*
X022283Y017621D02*
X022665Y017621D01*
X022668Y017719D02*
X022442Y017719D01*
X022563Y017818D02*
X022661Y017818D01*
X022472Y017128D02*
X020837Y017128D01*
X020924Y017030D02*
X022386Y017030D01*
X022270Y016931D02*
X021041Y016931D01*
X021210Y016833D02*
X022101Y016833D01*
X021807Y015839D02*
X021650Y015850D01*
X021506Y015842D01*
X021364Y015812D01*
X021229Y015763D01*
X021102Y015695D01*
X020986Y015609D01*
X020883Y015507D01*
X020797Y015391D01*
X020728Y015265D01*
X020678Y015129D01*
X020648Y014988D01*
X020638Y014844D01*
X020650Y014700D01*
X020766Y014837D01*
X020900Y014955D01*
X021049Y015053D01*
X021212Y015129D01*
X021383Y015180D01*
X021560Y015206D01*
X021740Y015206D01*
X021917Y015180D01*
X022088Y015129D01*
X022251Y015053D01*
X022400Y014955D01*
X022534Y014837D01*
X022650Y014700D01*
X022661Y014857D01*
X022647Y015013D01*
X022609Y015166D01*
X022547Y015310D01*
X022464Y015444D01*
X022361Y015562D01*
X022240Y015663D01*
X022106Y015744D01*
X021960Y015803D01*
X021807Y015839D01*
X021685Y015848D02*
X021608Y015848D01*
X021203Y015749D02*
X022094Y015749D01*
X022255Y015651D02*
X021042Y015651D01*
X020929Y015552D02*
X022369Y015552D01*
X022455Y015454D02*
X020843Y015454D01*
X020777Y015355D02*
X022519Y015355D01*
X022570Y015257D02*
X020725Y015257D01*
X020688Y015158D02*
X021310Y015158D01*
X021062Y015060D02*
X020663Y015060D01*
X020646Y014961D02*
X020908Y014961D01*
X020795Y014863D02*
X020640Y014863D01*
X020645Y014764D02*
X020704Y014764D01*
X021990Y015158D02*
X022611Y015158D01*
X022635Y015060D02*
X022238Y015060D01*
X022392Y014961D02*
X022651Y014961D01*
X022660Y014863D02*
X022505Y014863D01*
X022596Y014764D02*
X022654Y014764D01*
X022650Y012400D02*
X022669Y012255D01*
X022665Y012108D01*
X022639Y011964D01*
X022591Y011825D01*
X022522Y011695D01*
X022435Y011577D01*
X022330Y011474D01*
X022211Y011389D01*
X022081Y011322D01*
X021941Y011276D01*
X021797Y011252D01*
X021650Y011250D01*
X021504Y011254D01*
X021360Y011280D01*
X021222Y011326D01*
X021093Y011394D01*
X020975Y011480D01*
X020871Y011582D01*
X020784Y011699D01*
X020715Y011828D01*
X020666Y011966D01*
X020639Y012109D01*
X020634Y012255D01*
X020650Y012400D01*
X020786Y012271D01*
X020938Y012162D01*
X021104Y012075D01*
X021280Y012012D01*
X021463Y011973D01*
X021650Y011960D01*
X021837Y011973D01*
X022020Y012012D01*
X022196Y012075D01*
X022362Y012162D01*
X022514Y012271D01*
X022650Y012400D01*
X022663Y012302D02*
X022546Y012302D01*
X022667Y012203D02*
X022419Y012203D01*
X022252Y012105D02*
X022664Y012105D01*
X022646Y012006D02*
X021993Y012006D01*
X022460Y011612D02*
X020849Y011612D01*
X020778Y011711D02*
X022530Y011711D01*
X022582Y011809D02*
X020725Y011809D01*
X020687Y011908D02*
X022619Y011908D01*
X022370Y011514D02*
X020940Y011514D01*
X021063Y011415D02*
X022248Y011415D01*
X022064Y011317D02*
X021251Y011317D01*
X021307Y012006D02*
X020659Y012006D01*
X020640Y012105D02*
X021048Y012105D01*
X020881Y012203D02*
X020635Y012203D01*
X020639Y012302D02*
X020754Y012302D01*
X021364Y010312D02*
X021229Y010263D01*
X021102Y010195D01*
X020986Y010109D01*
X020883Y010007D01*
X020797Y009891D01*
X020728Y009765D01*
X020678Y009629D01*
X020648Y009488D01*
X020638Y009344D01*
X020650Y009200D01*
X020766Y009337D01*
X020900Y009455D01*
X021049Y009553D01*
X021212Y009629D01*
X021383Y009680D01*
X021560Y009706D01*
X021740Y009706D01*
X021917Y009680D01*
X022088Y009629D01*
X022251Y009553D01*
X022400Y009455D01*
X022534Y009337D01*
X022650Y009200D01*
X022661Y009357D01*
X022647Y009513D01*
X022609Y009666D01*
X022547Y009810D01*
X022464Y009944D01*
X022361Y010062D01*
X022240Y010163D01*
X022106Y010244D01*
X021960Y010303D01*
X021807Y010339D01*
X021650Y010350D01*
X021506Y010342D01*
X021364Y010312D01*
X021458Y010332D02*
X021838Y010332D01*
X022124Y010233D02*
X021173Y010233D01*
X021020Y010135D02*
X022274Y010135D01*
X022383Y010036D02*
X020913Y010036D01*
X020831Y009938D02*
X022468Y009938D01*
X022529Y009839D02*
X020768Y009839D01*
X020719Y009741D02*
X022577Y009741D01*
X022615Y009642D02*
X022044Y009642D01*
X022266Y009544D02*
X022639Y009544D01*
X022653Y009445D02*
X022412Y009445D01*
X022523Y009347D02*
X022660Y009347D01*
X022653Y009248D02*
X022609Y009248D01*
X021256Y009642D02*
X020682Y009642D01*
X020659Y009544D02*
X021034Y009544D01*
X020888Y009445D02*
X020645Y009445D01*
X020639Y009347D02*
X020777Y009347D01*
X020691Y009248D02*
X020646Y009248D01*
X020650Y006900D02*
X020634Y006755D01*
X020639Y006609D01*
X020666Y006466D01*
X020715Y006328D01*
X020784Y006199D01*
X020871Y006082D01*
X020975Y005980D01*
X021093Y005894D01*
X021222Y005826D01*
X021360Y005780D01*
X021504Y005754D01*
X021650Y005750D01*
X021797Y005752D01*
X021941Y005776D01*
X022081Y005822D01*
X022211Y005889D01*
X022330Y005974D01*
X022435Y006077D01*
X022522Y006195D01*
X022591Y006325D01*
X022639Y006464D01*
X022665Y006608D01*
X022669Y006755D01*
X022650Y006900D01*
X022514Y006771D01*
X022362Y006662D01*
X022196Y006575D01*
X022020Y006512D01*
X021837Y006473D01*
X021650Y006460D01*
X021463Y006473D01*
X021280Y006512D01*
X021104Y006575D01*
X020938Y006662D01*
X020786Y006771D01*
X020650Y006900D01*
X020648Y006884D02*
X020667Y006884D01*
X020637Y006786D02*
X020771Y006786D01*
X020903Y006687D02*
X020636Y006687D01*
X020643Y006589D02*
X021078Y006589D01*
X021383Y006490D02*
X020662Y006490D01*
X020692Y006392D02*
X022614Y006392D01*
X022643Y006490D02*
X021917Y006490D01*
X022016Y005801D02*
X021299Y005801D01*
X021085Y005899D02*
X022226Y005899D01*
X022354Y005998D02*
X020956Y005998D01*
X020860Y006096D02*
X022448Y006096D01*
X022522Y006195D02*
X020787Y006195D01*
X020734Y006293D02*
X022574Y006293D01*
X022661Y006589D02*
X022222Y006589D01*
X022397Y006687D02*
X022667Y006687D01*
X022665Y006786D02*
X022529Y006786D01*
X022633Y006884D02*
X022652Y006884D01*
X021960Y004803D02*
X021807Y004839D01*
X021650Y004850D01*
X021506Y004842D01*
X021364Y004812D01*
X021229Y004763D01*
X021102Y004695D01*
X020986Y004609D01*
X020883Y004507D01*
X020797Y004391D01*
X020728Y004265D01*
X020678Y004129D01*
X020648Y003988D01*
X020638Y003844D01*
X020650Y003700D01*
X020766Y003837D01*
X020900Y003955D01*
X021049Y004053D01*
X021212Y004129D01*
X021383Y004180D01*
X021560Y004206D01*
X021740Y004206D01*
X021917Y004180D01*
X022088Y004129D01*
X022251Y004053D01*
X022400Y003955D01*
X022534Y003837D01*
X022650Y003700D01*
X022661Y003857D01*
X022647Y004013D01*
X022609Y004166D01*
X022547Y004310D01*
X022464Y004444D01*
X022361Y004562D01*
X022240Y004663D01*
X022106Y004744D01*
X021960Y004803D01*
X021907Y004816D02*
X021380Y004816D01*
X021143Y004717D02*
X022151Y004717D01*
X022294Y004619D02*
X020999Y004619D01*
X020896Y004520D02*
X022397Y004520D01*
X022478Y004422D02*
X020819Y004422D01*
X020759Y004323D02*
X022539Y004323D01*
X022584Y004225D02*
X020713Y004225D01*
X020677Y004126D02*
X021206Y004126D01*
X021010Y004028D02*
X020656Y004028D01*
X020644Y003929D02*
X020870Y003929D01*
X020760Y003831D02*
X020639Y003831D01*
X020647Y003732D02*
X020677Y003732D01*
X022094Y004126D02*
X022619Y004126D01*
X022643Y004028D02*
X022290Y004028D01*
X022430Y003929D02*
X022654Y003929D01*
X022659Y003831D02*
X022540Y003831D01*
X022623Y003732D02*
X022652Y003732D01*
X022650Y001400D02*
X022669Y001255D01*
X022665Y001108D01*
X022639Y000964D01*
X022591Y000825D01*
X022522Y000695D01*
X022435Y000577D01*
X022330Y000474D01*
X022211Y000389D01*
X022081Y000322D01*
X021941Y000276D01*
X021797Y000252D01*
X021650Y000250D01*
X021504Y000254D01*
X021360Y000280D01*
X021222Y000326D01*
X021093Y000394D01*
X020975Y000480D01*
X020871Y000582D01*
X020784Y000699D01*
X020715Y000828D01*
X020666Y000966D01*
X020639Y001109D01*
X020634Y001255D01*
X020650Y001400D01*
X020786Y001271D01*
X020938Y001162D01*
X021104Y001075D01*
X021280Y001012D01*
X021463Y000973D01*
X021650Y000960D01*
X021837Y000973D01*
X022020Y001012D01*
X022196Y001075D01*
X022362Y001162D01*
X022514Y001271D01*
X022650Y001400D01*
X022654Y001368D02*
X022616Y001368D01*
X022667Y001269D02*
X022512Y001269D01*
X022374Y001171D02*
X022666Y001171D01*
X022658Y001072D02*
X022189Y001072D01*
X021841Y000974D02*
X022640Y000974D01*
X022608Y000875D02*
X020698Y000875D01*
X020665Y000974D02*
X021459Y000974D01*
X021111Y001072D02*
X020646Y001072D01*
X020637Y001171D02*
X020926Y001171D01*
X020788Y001269D02*
X020635Y001269D01*
X020646Y001368D02*
X020684Y001368D01*
X020742Y000777D02*
X022565Y000777D01*
X022510Y000678D02*
X020799Y000678D01*
X020873Y000580D02*
X022437Y000580D01*
X022337Y000481D02*
X020973Y000481D01*
X021113Y000383D02*
X022200Y000383D01*
X021967Y000284D02*
X021346Y000284D01*
X017839Y000964D02*
X017865Y001108D01*
X017869Y001255D01*
X017850Y001400D01*
X017714Y001271D01*
X017562Y001162D01*
X017396Y001075D01*
X017220Y001012D01*
X017037Y000973D01*
X016850Y000960D01*
X016663Y000973D01*
X016480Y001012D01*
X016304Y001075D01*
X016138Y001162D01*
X015986Y001271D01*
X015850Y001400D01*
X015834Y001255D01*
X015839Y001109D01*
X015866Y000966D01*
X015915Y000828D01*
X015984Y000699D01*
X016071Y000582D01*
X016175Y000480D01*
X016293Y000394D01*
X016422Y000326D01*
X016560Y000280D01*
X016704Y000254D01*
X016850Y000250D01*
X016997Y000252D01*
X017141Y000276D01*
X017281Y000322D01*
X017411Y000389D01*
X017530Y000474D01*
X017635Y000577D01*
X017722Y000695D01*
X017791Y000825D01*
X017839Y000964D01*
X017840Y000974D02*
X017041Y000974D01*
X016659Y000974D02*
X015865Y000974D01*
X015846Y001072D02*
X016311Y001072D01*
X016126Y001171D02*
X015837Y001171D01*
X015835Y001269D02*
X015988Y001269D01*
X015884Y001368D02*
X015846Y001368D01*
X015898Y000875D02*
X017808Y000875D01*
X017765Y000777D02*
X015942Y000777D01*
X015999Y000678D02*
X017710Y000678D01*
X017637Y000580D02*
X016073Y000580D01*
X016173Y000481D02*
X017537Y000481D01*
X017400Y000383D02*
X016313Y000383D01*
X016546Y000284D02*
X017167Y000284D01*
X017389Y001072D02*
X017858Y001072D01*
X017866Y001171D02*
X017574Y001171D01*
X017712Y001269D02*
X017867Y001269D01*
X017854Y001368D02*
X017816Y001368D01*
X017850Y003700D02*
X017734Y003837D01*
X017600Y003955D01*
X017451Y004053D01*
X017288Y004129D01*
X017117Y004180D01*
X016940Y004206D01*
X016760Y004206D01*
X016583Y004180D01*
X016412Y004129D01*
X016249Y004053D01*
X016100Y003955D01*
X015966Y003837D01*
X015850Y003700D01*
X015838Y003844D01*
X015848Y003988D01*
X015878Y004129D01*
X015928Y004265D01*
X015997Y004391D01*
X016083Y004507D01*
X016186Y004609D01*
X016302Y004695D01*
X016429Y004763D01*
X016564Y004812D01*
X016706Y004842D01*
X016850Y004850D01*
X017007Y004839D01*
X017160Y004803D01*
X017306Y004744D01*
X017440Y004663D01*
X017561Y004562D01*
X017664Y004444D01*
X017747Y004310D01*
X017809Y004166D01*
X017847Y004013D01*
X017861Y003857D01*
X017850Y003700D01*
X017852Y003732D02*
X017823Y003732D01*
X017859Y003831D02*
X017740Y003831D01*
X017630Y003929D02*
X017854Y003929D01*
X017843Y004028D02*
X017490Y004028D01*
X017294Y004126D02*
X017819Y004126D01*
X017784Y004225D02*
X015913Y004225D01*
X015877Y004126D02*
X016406Y004126D01*
X016210Y004028D02*
X015856Y004028D01*
X015844Y003929D02*
X016070Y003929D01*
X015960Y003831D02*
X015839Y003831D01*
X015847Y003732D02*
X015877Y003732D01*
X015959Y004323D02*
X017739Y004323D01*
X017678Y004422D02*
X016019Y004422D01*
X016096Y004520D02*
X017597Y004520D01*
X017494Y004619D02*
X016199Y004619D01*
X016343Y004717D02*
X017351Y004717D01*
X017107Y004816D02*
X016580Y004816D01*
X016704Y005754D02*
X016850Y005750D01*
X016997Y005752D01*
X017141Y005776D01*
X017281Y005822D01*
X017411Y005889D01*
X017530Y005974D01*
X017635Y006077D01*
X017722Y006195D01*
X017791Y006325D01*
X017839Y006464D01*
X017865Y006608D01*
X017869Y006755D01*
X017850Y006900D01*
X017714Y006771D01*
X017562Y006662D01*
X017396Y006575D01*
X017220Y006512D01*
X017037Y006473D01*
X016850Y006460D01*
X016663Y006473D01*
X016480Y006512D01*
X016304Y006575D01*
X016138Y006662D01*
X015986Y006771D01*
X015850Y006900D01*
X015834Y006755D01*
X015839Y006609D01*
X015866Y006466D01*
X015915Y006328D01*
X015984Y006199D01*
X016071Y006082D01*
X016175Y005980D01*
X016293Y005894D01*
X016422Y005826D01*
X016560Y005780D01*
X016704Y005754D01*
X016499Y005801D02*
X017216Y005801D01*
X017426Y005899D02*
X016285Y005899D01*
X016156Y005998D02*
X017554Y005998D01*
X017648Y006096D02*
X016060Y006096D01*
X015987Y006195D02*
X017722Y006195D01*
X017774Y006293D02*
X015934Y006293D01*
X015892Y006392D02*
X017814Y006392D01*
X017843Y006490D02*
X017117Y006490D01*
X017422Y006589D02*
X017861Y006589D01*
X017867Y006687D02*
X017597Y006687D01*
X017729Y006786D02*
X017865Y006786D01*
X017852Y006884D02*
X017833Y006884D01*
X016583Y006490D02*
X015862Y006490D01*
X015843Y006589D02*
X016278Y006589D01*
X016103Y006687D02*
X015836Y006687D01*
X015837Y006786D02*
X015971Y006786D01*
X015867Y006884D02*
X015848Y006884D01*
X015850Y009200D02*
X015838Y009344D01*
X015848Y009488D01*
X015878Y009629D01*
X015928Y009765D01*
X015997Y009891D01*
X016083Y010007D01*
X016186Y010109D01*
X016302Y010195D01*
X016429Y010263D01*
X016564Y010312D01*
X016706Y010342D01*
X016850Y010350D01*
X017007Y010339D01*
X017160Y010303D01*
X017306Y010244D01*
X017440Y010163D01*
X017561Y010062D01*
X017664Y009944D01*
X017747Y009810D01*
X017809Y009666D01*
X017847Y009513D01*
X017861Y009357D01*
X017850Y009200D01*
X017734Y009337D01*
X017600Y009455D01*
X017451Y009553D01*
X017288Y009629D01*
X017117Y009680D01*
X016940Y009706D01*
X016760Y009706D01*
X016583Y009680D01*
X016412Y009629D01*
X016249Y009553D01*
X016100Y009455D01*
X015966Y009337D01*
X015850Y009200D01*
X015846Y009248D02*
X015891Y009248D01*
X015839Y009347D02*
X015977Y009347D01*
X016088Y009445D02*
X015845Y009445D01*
X015859Y009544D02*
X016234Y009544D01*
X016456Y009642D02*
X015882Y009642D01*
X015919Y009741D02*
X017777Y009741D01*
X017815Y009642D02*
X017244Y009642D01*
X017466Y009544D02*
X017839Y009544D01*
X017853Y009445D02*
X017612Y009445D01*
X017723Y009347D02*
X017860Y009347D01*
X017853Y009248D02*
X017809Y009248D01*
X017729Y009839D02*
X015968Y009839D01*
X016031Y009938D02*
X017668Y009938D01*
X017583Y010036D02*
X016113Y010036D01*
X016220Y010135D02*
X017474Y010135D01*
X017324Y010233D02*
X016373Y010233D01*
X016658Y010332D02*
X017038Y010332D01*
X016997Y011252D02*
X016850Y011250D01*
X016704Y011254D01*
X016560Y011280D01*
X016422Y011326D01*
X016293Y011394D01*
X016175Y011480D01*
X016071Y011582D01*
X015984Y011699D01*
X015915Y011828D01*
X015866Y011966D01*
X015839Y012109D01*
X015834Y012255D01*
X015850Y012400D01*
X015986Y012271D01*
X016138Y012162D01*
X016304Y012075D01*
X016480Y012012D01*
X016663Y011973D01*
X016850Y011960D01*
X017037Y011973D01*
X017220Y012012D01*
X017396Y012075D01*
X017562Y012162D01*
X017714Y012271D01*
X017850Y012400D01*
X017869Y012255D01*
X017865Y012108D01*
X017839Y011964D01*
X017791Y011825D01*
X017722Y011695D01*
X017635Y011577D01*
X017530Y011474D01*
X017411Y011389D01*
X017281Y011322D01*
X017141Y011276D01*
X016997Y011252D01*
X017264Y011317D02*
X016451Y011317D01*
X016263Y011415D02*
X017448Y011415D01*
X017570Y011514D02*
X016140Y011514D01*
X016049Y011612D02*
X017660Y011612D01*
X017730Y011711D02*
X015978Y011711D01*
X015925Y011809D02*
X017782Y011809D01*
X017819Y011908D02*
X015887Y011908D01*
X015859Y012006D02*
X016507Y012006D01*
X016248Y012105D02*
X015840Y012105D01*
X015835Y012203D02*
X016081Y012203D01*
X015954Y012302D02*
X015839Y012302D01*
X017193Y012006D02*
X017846Y012006D01*
X017864Y012105D02*
X017452Y012105D01*
X017619Y012203D02*
X017867Y012203D01*
X017863Y012302D02*
X017746Y012302D01*
X017850Y014700D02*
X017734Y014837D01*
X017600Y014955D01*
X017451Y015053D01*
X017288Y015129D01*
X017117Y015180D01*
X016940Y015206D01*
X016760Y015206D01*
X016583Y015180D01*
X016412Y015129D01*
X016249Y015053D01*
X016100Y014955D01*
X015966Y014837D01*
X015850Y014700D01*
X015838Y014844D01*
X015848Y014988D01*
X015878Y015129D01*
X015928Y015265D01*
X015997Y015391D01*
X016083Y015507D01*
X016186Y015609D01*
X016302Y015695D01*
X016429Y015763D01*
X016564Y015812D01*
X016706Y015842D01*
X016850Y015850D01*
X017007Y015839D01*
X017160Y015803D01*
X017306Y015744D01*
X017440Y015663D01*
X017561Y015562D01*
X017664Y015444D01*
X017747Y015310D01*
X017809Y015166D01*
X017847Y015013D01*
X017861Y014857D01*
X017850Y014700D01*
X017854Y014764D02*
X017796Y014764D01*
X017860Y014863D02*
X017705Y014863D01*
X017592Y014961D02*
X017851Y014961D01*
X017835Y015060D02*
X017438Y015060D01*
X017190Y015158D02*
X017811Y015158D01*
X017770Y015257D02*
X015925Y015257D01*
X015888Y015158D02*
X016510Y015158D01*
X016262Y015060D02*
X015863Y015060D01*
X015846Y014961D02*
X016108Y014961D01*
X015995Y014863D02*
X015840Y014863D01*
X015845Y014764D02*
X015904Y014764D01*
X015977Y015355D02*
X017719Y015355D01*
X017655Y015454D02*
X016043Y015454D01*
X016129Y015552D02*
X017569Y015552D01*
X017455Y015651D02*
X016242Y015651D01*
X016403Y015749D02*
X017294Y015749D01*
X016885Y015848D02*
X016808Y015848D01*
X016850Y016750D02*
X016997Y016752D01*
X017141Y016776D01*
X017281Y016822D01*
X017411Y016889D01*
X017530Y016974D01*
X017635Y017077D01*
X017722Y017195D01*
X017791Y017325D01*
X015916Y017325D01*
X015915Y017328D02*
X015984Y017199D01*
X016071Y017082D01*
X016175Y016980D01*
X016293Y016894D01*
X016422Y016826D01*
X016560Y016780D01*
X016704Y016754D01*
X016850Y016750D01*
X016410Y016833D02*
X017301Y016833D01*
X017470Y016931D02*
X016241Y016931D01*
X016124Y017030D02*
X017586Y017030D01*
X017672Y017128D02*
X016037Y017128D01*
X015969Y017227D02*
X017739Y017227D01*
X017791Y017325D02*
X017839Y017464D01*
X017865Y017608D01*
X017869Y017755D01*
X017850Y017900D01*
X017714Y017771D01*
X017562Y017662D01*
X017396Y017575D01*
X017220Y017512D01*
X017037Y017473D01*
X016850Y017460D01*
X016663Y017473D01*
X016480Y017512D01*
X016304Y017575D01*
X016138Y017662D01*
X015986Y017771D01*
X015850Y017900D01*
X015834Y017755D01*
X015839Y017609D01*
X015866Y017466D01*
X015915Y017328D01*
X015881Y017424D02*
X017825Y017424D01*
X017849Y017522D02*
X017249Y017522D01*
X017483Y017621D02*
X017865Y017621D01*
X017868Y017719D02*
X017642Y017719D01*
X017763Y017818D02*
X017861Y017818D01*
X016451Y017522D02*
X015856Y017522D01*
X015839Y017621D02*
X016217Y017621D01*
X016058Y017719D02*
X015835Y017719D01*
X015841Y017818D02*
X015937Y017818D01*
X015850Y020200D02*
X015838Y020344D01*
X015848Y020488D01*
X015878Y020629D01*
X015928Y020765D01*
X015997Y020891D01*
X016083Y021007D01*
X016186Y021109D01*
X016302Y021195D01*
X016429Y021263D01*
X016564Y021312D01*
X016706Y021342D01*
X016850Y021350D01*
X017007Y021339D01*
X017160Y021303D01*
X017306Y021244D01*
X017440Y021163D01*
X017561Y021062D01*
X017664Y020944D01*
X017747Y020810D01*
X017809Y020666D01*
X017847Y020513D01*
X017861Y020357D01*
X017850Y020200D01*
X017734Y020337D01*
X017600Y020455D01*
X017451Y020553D01*
X017288Y020629D01*
X017117Y020680D01*
X016940Y020706D01*
X016760Y020706D01*
X016583Y020680D01*
X016412Y020629D01*
X016249Y020553D01*
X016100Y020455D01*
X015966Y020337D01*
X015850Y020200D01*
X015844Y020280D02*
X015918Y020280D01*
X015841Y020379D02*
X016013Y020379D01*
X016133Y020477D02*
X015847Y020477D01*
X015866Y020576D02*
X016297Y020576D01*
X016563Y020674D02*
X015894Y020674D01*
X015932Y020773D02*
X017763Y020773D01*
X017805Y020674D02*
X017137Y020674D01*
X017403Y020576D02*
X017831Y020576D01*
X017850Y020477D02*
X017567Y020477D01*
X017687Y020379D02*
X017859Y020379D01*
X017855Y020280D02*
X017782Y020280D01*
X017709Y020871D02*
X015986Y020871D01*
X016055Y020970D02*
X017641Y020970D01*
X017554Y021068D02*
X016145Y021068D01*
X016264Y021167D02*
X017435Y021167D01*
X017254Y021265D02*
X016434Y021265D01*
X016560Y022280D02*
X016704Y022254D01*
X016850Y022250D01*
X016997Y022252D01*
X017141Y022276D01*
X017281Y022322D01*
X017411Y022389D01*
X017530Y022474D01*
X017635Y022577D01*
X017722Y022695D01*
X017791Y022825D01*
X017839Y022964D01*
X017865Y023108D01*
X017869Y023255D01*
X017850Y023400D01*
X017714Y023271D01*
X017562Y023162D01*
X017396Y023075D01*
X017220Y023012D01*
X017037Y022973D01*
X016850Y022960D01*
X016663Y022973D01*
X016480Y023012D01*
X016304Y023075D01*
X016138Y023162D01*
X015986Y023271D01*
X015850Y023400D01*
X015834Y023255D01*
X015839Y023109D01*
X015866Y022966D01*
X015915Y022828D01*
X015984Y022699D01*
X016071Y022582D01*
X016175Y022480D01*
X016293Y022394D01*
X016422Y022326D01*
X016560Y022280D01*
X016380Y022349D02*
X017333Y022349D01*
X017492Y022447D02*
X016219Y022447D01*
X016108Y022546D02*
X017602Y022546D01*
X017684Y022644D02*
X016025Y022644D01*
X015960Y022743D02*
X017747Y022743D01*
X017796Y022841D02*
X015910Y022841D01*
X015876Y022940D02*
X017830Y022940D01*
X017852Y023038D02*
X017293Y023038D01*
X017513Y023137D02*
X017865Y023137D01*
X017868Y023235D02*
X017664Y023235D01*
X017780Y023334D02*
X017858Y023334D01*
X016854Y022250D02*
X016848Y022250D01*
X016407Y023038D02*
X015853Y023038D01*
X015838Y023137D02*
X016187Y023137D01*
X016036Y023235D02*
X015834Y023235D01*
X015842Y023334D02*
X015920Y023334D01*
X020650Y036700D02*
X020638Y036844D01*
X020648Y036988D01*
X020678Y037129D01*
X020728Y037265D01*
X020797Y037391D01*
X020883Y037507D01*
X020986Y037609D01*
X021102Y037695D01*
X021229Y037763D01*
X021364Y037812D01*
X021506Y037842D01*
X021650Y037850D01*
X021807Y037839D01*
X021960Y037803D01*
X022106Y037744D01*
X022240Y037663D01*
X022361Y037562D01*
X022464Y037444D01*
X022547Y037310D01*
X022609Y037166D01*
X022647Y037013D01*
X022661Y036857D01*
X022650Y036700D01*
X022534Y036837D01*
X022400Y036955D01*
X022251Y037053D01*
X022088Y037129D01*
X021917Y037180D01*
X021740Y037206D01*
X021560Y037206D01*
X021383Y037180D01*
X021212Y037129D01*
X021049Y037053D01*
X020900Y036955D01*
X020766Y036837D01*
X020650Y036700D01*
X020648Y036730D02*
X020675Y036730D01*
X020640Y036828D02*
X020758Y036828D01*
X020867Y036927D02*
X020644Y036927D01*
X020656Y037025D02*
X021006Y037025D01*
X021200Y037124D02*
X020676Y037124D01*
X020712Y037222D02*
X022585Y037222D01*
X022619Y037124D02*
X022100Y037124D01*
X022294Y037025D02*
X022644Y037025D01*
X022654Y036927D02*
X022433Y036927D01*
X022542Y036828D02*
X022659Y036828D01*
X022652Y036730D02*
X022625Y036730D01*
X022541Y037321D02*
X020758Y037321D01*
X020817Y037419D02*
X022479Y037419D01*
X022399Y037518D02*
X020894Y037518D01*
X020996Y037616D02*
X022296Y037616D01*
X022155Y037715D02*
X021139Y037715D01*
X021368Y037813D02*
X021918Y037813D01*
D11*
X021993Y036420D03*
X021323Y036420D03*
X021323Y030920D03*
X021993Y030920D03*
X021993Y025420D03*
X021323Y025420D03*
X021323Y019920D03*
X021993Y019920D03*
X021993Y014420D03*
X021323Y014420D03*
X021323Y008920D03*
X021993Y008920D03*
X021993Y003420D03*
X021323Y003420D03*
X017193Y003420D03*
X016523Y003420D03*
X016523Y008920D03*
X017193Y008920D03*
X017193Y014420D03*
X016523Y014420D03*
X016523Y019920D03*
X017193Y019920D03*
X017193Y025420D03*
X016523Y025420D03*
X016523Y030920D03*
X017193Y030920D03*
X017193Y036420D03*
X016523Y036420D03*
X012393Y036420D03*
X011723Y036420D03*
X011723Y030920D03*
X012393Y030920D03*
X012393Y025420D03*
X011723Y025420D03*
X011723Y019920D03*
X012393Y019920D03*
X012393Y014420D03*
X011723Y014420D03*
X011723Y008920D03*
X012393Y008920D03*
X012393Y003420D03*
X011723Y003420D03*
X007593Y003420D03*
X006923Y003420D03*
X006923Y008920D03*
X007593Y008920D03*
X007593Y014420D03*
X006923Y014420D03*
X006923Y019920D03*
X007593Y019920D03*
X007593Y025420D03*
X006923Y025420D03*
X006923Y030920D03*
X007593Y030920D03*
X007593Y036420D03*
X006923Y036420D03*
X002793Y036420D03*
X002123Y036420D03*
X002123Y030920D03*
X002793Y030920D03*
X002793Y025420D03*
X002123Y025420D03*
X002123Y019920D03*
X002793Y019920D03*
X002793Y014420D03*
X002123Y014420D03*
X002123Y008920D03*
X002793Y008920D03*
X002793Y003420D03*
X002123Y003420D03*
D12*
X002450Y004500D03*
X002450Y006600D03*
X002450Y010000D03*
X002450Y012100D03*
X002450Y015500D03*
X002450Y017600D03*
X002450Y021000D03*
X002450Y023100D03*
X002450Y026500D03*
X002450Y028600D03*
X002450Y032000D03*
X002450Y034100D03*
X002450Y037500D03*
X007250Y037500D03*
X007250Y034100D03*
X007250Y032000D03*
X007250Y028600D03*
X007250Y026500D03*
X007250Y023100D03*
X007250Y021000D03*
X007250Y017600D03*
X007250Y015500D03*
X007250Y012100D03*
X007250Y010000D03*
X007250Y006600D03*
X007250Y004500D03*
X007250Y001100D03*
X002450Y001100D03*
X012050Y001100D03*
X012050Y004500D03*
X012050Y006600D03*
X012050Y010000D03*
X012050Y012100D03*
X012050Y015500D03*
X012050Y017600D03*
X012050Y021000D03*
X012050Y023100D03*
X012050Y026500D03*
X012050Y028600D03*
X012050Y032000D03*
X012050Y034100D03*
X012050Y037500D03*
X016850Y037500D03*
X016850Y034100D03*
X016850Y032000D03*
X016850Y028600D03*
X016850Y026500D03*
X016850Y023100D03*
X016850Y021000D03*
X016850Y017600D03*
X016850Y015500D03*
X016850Y012100D03*
X016850Y010000D03*
X016850Y006600D03*
X016850Y004500D03*
X016850Y001100D03*
X021650Y001100D03*
X021650Y004500D03*
X021650Y006600D03*
X021650Y010000D03*
X021650Y012100D03*
X021650Y015500D03*
X021650Y017600D03*
X021650Y021000D03*
X021650Y023100D03*
X021650Y026500D03*
X021650Y028600D03*
X021650Y032000D03*
X021650Y034100D03*
X021650Y037500D03*
D13*
X021566Y037733D02*
X021734Y037733D01*
X021901Y037709D01*
X022062Y037662D01*
X022216Y037592D01*
X022357Y037501D01*
X022485Y037391D01*
X022595Y037264D01*
X022598Y037407D01*
X022579Y037548D01*
X022539Y037685D01*
X022478Y037815D01*
X022399Y037933D01*
X022302Y038038D01*
X022190Y038127D01*
X022066Y038198D01*
X021932Y038249D01*
X021793Y038279D01*
X021650Y038287D01*
X021507Y038279D01*
X021368Y038249D01*
X021234Y038198D01*
X021110Y038127D01*
X020998Y038038D01*
X020901Y037933D01*
X020822Y037815D01*
X020761Y037685D01*
X020721Y037548D01*
X020702Y037407D01*
X020705Y037264D01*
X020815Y037391D01*
X020943Y037501D01*
X021084Y037592D01*
X021238Y037662D01*
X021399Y037709D01*
X021566Y037733D01*
X021461Y037718D02*
X020776Y037718D01*
X020747Y037640D02*
X021189Y037640D01*
X021036Y037561D02*
X020724Y037561D01*
X020712Y037483D02*
X020921Y037483D01*
X020831Y037404D02*
X020702Y037404D01*
X020704Y037326D02*
X020759Y037326D01*
X020813Y037797D02*
X022487Y037797D01*
X022524Y037718D02*
X021839Y037718D01*
X022111Y037640D02*
X022553Y037640D01*
X022576Y037561D02*
X022264Y037561D01*
X022379Y037483D02*
X022588Y037483D01*
X022598Y037404D02*
X022469Y037404D01*
X022541Y037326D02*
X022596Y037326D01*
X022438Y037875D02*
X020862Y037875D01*
X020920Y037954D02*
X022380Y037954D01*
X022308Y038032D02*
X020992Y038032D01*
X021089Y038111D02*
X022211Y038111D01*
X022082Y038189D02*
X021218Y038189D01*
X021454Y038268D02*
X021846Y038268D01*
X022595Y034336D02*
X022485Y034209D01*
X022357Y034099D01*
X022216Y034008D01*
X022062Y033938D01*
X021901Y033891D01*
X021734Y033867D01*
X021566Y033867D01*
X021399Y033891D01*
X021238Y033938D01*
X021084Y034008D01*
X020943Y034099D01*
X020815Y034209D01*
X020705Y034336D01*
X020702Y034193D01*
X020721Y034052D01*
X020761Y033915D01*
X020822Y033785D01*
X020901Y033667D01*
X020998Y033562D01*
X021110Y033473D01*
X021234Y033402D01*
X021368Y033351D01*
X021507Y033321D01*
X021650Y033313D01*
X021793Y033321D01*
X021932Y033351D01*
X022066Y033402D01*
X022190Y033473D01*
X022302Y033562D01*
X022399Y033667D01*
X022478Y033785D01*
X022539Y033915D01*
X022579Y034052D01*
X022598Y034193D01*
X022595Y034336D01*
X022596Y034264D02*
X022532Y034264D01*
X022597Y034186D02*
X022457Y034186D01*
X022367Y034107D02*
X022587Y034107D01*
X022573Y034029D02*
X022248Y034029D01*
X022089Y033950D02*
X022550Y033950D01*
X022519Y033872D02*
X021768Y033872D01*
X021532Y033872D02*
X020781Y033872D01*
X020750Y033950D02*
X021211Y033950D01*
X021052Y034029D02*
X020727Y034029D01*
X020713Y034107D02*
X020933Y034107D01*
X020843Y034186D02*
X020703Y034186D01*
X020704Y034264D02*
X020768Y034264D01*
X020818Y033793D02*
X022482Y033793D01*
X022431Y033715D02*
X020869Y033715D01*
X020929Y033636D02*
X022371Y033636D01*
X022297Y033558D02*
X021003Y033558D01*
X021102Y033479D02*
X022198Y033479D01*
X022063Y033401D02*
X021237Y033401D01*
X021502Y033322D02*
X021798Y033322D01*
X021793Y032779D02*
X021650Y032787D01*
X021507Y032779D01*
X021368Y032749D01*
X021234Y032698D01*
X021110Y032627D01*
X020998Y032538D01*
X020901Y032433D01*
X020822Y032315D01*
X020761Y032185D01*
X020721Y032048D01*
X020702Y031907D01*
X020705Y031764D01*
X020815Y031891D01*
X020943Y032001D01*
X021084Y032092D01*
X021238Y032162D01*
X021399Y032209D01*
X021566Y032233D01*
X021734Y032233D01*
X021901Y032209D01*
X022062Y032162D01*
X022216Y032092D01*
X022357Y032001D01*
X022485Y031891D01*
X022595Y031764D01*
X022598Y031907D01*
X022579Y032048D01*
X022539Y032185D01*
X022478Y032315D01*
X022399Y032433D01*
X022302Y032538D01*
X022190Y032627D01*
X022066Y032698D01*
X021932Y032749D01*
X021793Y032779D01*
X021823Y032773D02*
X021477Y032773D01*
X021227Y032694D02*
X022073Y032694D01*
X022205Y032616D02*
X021095Y032616D01*
X020997Y032537D02*
X022303Y032537D01*
X022375Y032459D02*
X020925Y032459D01*
X020865Y032380D02*
X022435Y032380D01*
X022485Y032302D02*
X020815Y032302D01*
X020779Y032223D02*
X021495Y032223D01*
X021805Y032223D02*
X022521Y032223D01*
X022551Y032145D02*
X022100Y032145D01*
X022256Y032066D02*
X022574Y032066D01*
X022587Y031988D02*
X022373Y031988D01*
X022464Y031909D02*
X022598Y031909D01*
X022596Y031831D02*
X022537Y031831D01*
X021200Y032145D02*
X020749Y032145D01*
X020726Y032066D02*
X021044Y032066D01*
X020927Y031988D02*
X020713Y031988D01*
X020702Y031909D02*
X020836Y031909D01*
X020763Y031831D02*
X020704Y031831D01*
X020705Y028836D02*
X020815Y028709D01*
X020943Y028599D01*
X021084Y028508D01*
X021238Y028438D01*
X021399Y028391D01*
X021566Y028367D01*
X021734Y028367D01*
X021901Y028391D01*
X022062Y028438D01*
X022216Y028508D01*
X022357Y028599D01*
X022485Y028709D01*
X022595Y028836D01*
X022598Y028693D01*
X022579Y028552D01*
X022539Y028415D01*
X022478Y028285D01*
X022399Y028167D01*
X022302Y028062D01*
X022190Y027973D01*
X022066Y027902D01*
X021932Y027851D01*
X021793Y027821D01*
X021650Y027813D01*
X021507Y027821D01*
X021368Y027851D01*
X021234Y027902D01*
X021110Y027973D01*
X020998Y028062D01*
X020901Y028167D01*
X020822Y028285D01*
X020761Y028415D01*
X020721Y028552D01*
X020702Y028693D01*
X020705Y028836D01*
X020704Y028769D02*
X020763Y028769D01*
X020702Y028691D02*
X020837Y028691D01*
X020928Y028612D02*
X020713Y028612D01*
X020726Y028534D02*
X021045Y028534D01*
X021200Y028455D02*
X020749Y028455D01*
X020779Y028377D02*
X021498Y028377D01*
X021802Y028377D02*
X022521Y028377D01*
X022551Y028455D02*
X022100Y028455D01*
X022255Y028534D02*
X022574Y028534D01*
X022587Y028612D02*
X022372Y028612D01*
X022463Y028691D02*
X022598Y028691D01*
X022596Y028769D02*
X022537Y028769D01*
X022484Y028298D02*
X020816Y028298D01*
X020866Y028220D02*
X022434Y028220D01*
X022375Y028141D02*
X020925Y028141D01*
X020997Y028063D02*
X022303Y028063D01*
X022204Y027984D02*
X021096Y027984D01*
X021228Y027906D02*
X022072Y027906D01*
X021822Y027827D02*
X021478Y027827D01*
X021507Y027279D02*
X021368Y027249D01*
X021234Y027198D01*
X021110Y027127D01*
X020998Y027038D01*
X020901Y026933D01*
X020822Y026815D01*
X020761Y026685D01*
X020721Y026548D01*
X020702Y026407D01*
X020705Y026264D01*
X020815Y026391D01*
X020943Y026501D01*
X021084Y026592D01*
X021238Y026662D01*
X021399Y026709D01*
X021566Y026733D01*
X021734Y026733D01*
X021901Y026709D01*
X022062Y026662D01*
X022216Y026592D01*
X022357Y026501D01*
X022485Y026391D01*
X022595Y026264D01*
X022598Y026407D01*
X022579Y026548D01*
X022539Y026685D01*
X022478Y026815D01*
X022399Y026933D01*
X022302Y027038D01*
X022190Y027127D01*
X022066Y027198D01*
X021932Y027249D01*
X021793Y027279D01*
X021650Y027287D01*
X021507Y027279D01*
X021500Y027278D02*
X021800Y027278D01*
X022063Y027199D02*
X021237Y027199D01*
X021102Y027121D02*
X022198Y027121D01*
X022297Y027042D02*
X021003Y027042D01*
X020929Y026964D02*
X022371Y026964D01*
X022431Y026885D02*
X020869Y026885D01*
X020818Y026807D02*
X022482Y026807D01*
X022519Y026728D02*
X021770Y026728D01*
X021530Y026728D02*
X020781Y026728D01*
X020750Y026650D02*
X021211Y026650D01*
X021052Y026571D02*
X020727Y026571D01*
X020713Y026493D02*
X020933Y026493D01*
X020842Y026414D02*
X020703Y026414D01*
X020704Y026336D02*
X020767Y026336D01*
X022089Y026650D02*
X022550Y026650D01*
X022573Y026571D02*
X022248Y026571D01*
X022367Y026493D02*
X022587Y026493D01*
X022597Y026414D02*
X022458Y026414D01*
X022533Y026336D02*
X022596Y026336D01*
X022595Y023336D02*
X022485Y023209D01*
X022357Y023099D01*
X022216Y023008D01*
X022062Y022938D01*
X021901Y022891D01*
X021734Y022867D01*
X021566Y022867D01*
X021399Y022891D01*
X021238Y022938D01*
X021084Y023008D01*
X020943Y023099D01*
X020815Y023209D01*
X020705Y023336D01*
X020702Y023193D01*
X020721Y023052D01*
X020761Y022915D01*
X020822Y022785D01*
X020901Y022667D01*
X020998Y022562D01*
X021110Y022473D01*
X021234Y022402D01*
X021368Y022351D01*
X021507Y022321D01*
X021650Y022313D01*
X021793Y022321D01*
X021932Y022351D01*
X022066Y022402D01*
X022190Y022473D01*
X022302Y022562D01*
X022399Y022667D01*
X022478Y022785D01*
X022539Y022915D01*
X022579Y023052D01*
X022598Y023193D01*
X022595Y023336D01*
X022596Y023274D02*
X022541Y023274D01*
X022598Y023196D02*
X022469Y023196D01*
X022378Y023117D02*
X022588Y023117D01*
X022575Y023039D02*
X022263Y023039D01*
X022111Y022960D02*
X022552Y022960D01*
X022524Y022882D02*
X021837Y022882D01*
X021463Y022882D02*
X020776Y022882D01*
X020748Y022960D02*
X021189Y022960D01*
X021037Y023039D02*
X020725Y023039D01*
X020712Y023117D02*
X020922Y023117D01*
X020831Y023196D02*
X020702Y023196D01*
X020704Y023274D02*
X020759Y023274D01*
X020813Y022803D02*
X022487Y022803D01*
X022438Y022725D02*
X020862Y022725D01*
X020920Y022646D02*
X022380Y022646D01*
X022307Y022568D02*
X020993Y022568D01*
X021089Y022489D02*
X022211Y022489D01*
X022081Y022411D02*
X021219Y022411D01*
X021455Y022332D02*
X021845Y022332D01*
X021793Y021779D02*
X021650Y021787D01*
X021507Y021779D01*
X021368Y021749D01*
X021234Y021698D01*
X021110Y021627D01*
X020998Y021538D01*
X020901Y021433D01*
X020822Y021315D01*
X020761Y021185D01*
X020721Y021048D01*
X020702Y020907D01*
X020705Y020764D01*
X020815Y020891D01*
X020943Y021001D01*
X021084Y021092D01*
X021238Y021162D01*
X021399Y021209D01*
X021566Y021233D01*
X021734Y021233D01*
X021901Y021209D01*
X022062Y021162D01*
X022216Y021092D01*
X022357Y021001D01*
X022485Y020891D01*
X022595Y020764D01*
X022598Y020907D01*
X022579Y021048D01*
X022539Y021185D01*
X022478Y021315D01*
X022399Y021433D01*
X022302Y021538D01*
X022190Y021627D01*
X022066Y021698D01*
X021932Y021749D01*
X021793Y021779D01*
X021733Y021783D02*
X021567Y021783D01*
X021250Y021704D02*
X022050Y021704D01*
X022192Y021626D02*
X021108Y021626D01*
X021009Y021547D02*
X022291Y021547D01*
X022366Y021469D02*
X020934Y021469D01*
X020872Y021390D02*
X022428Y021390D01*
X022480Y021312D02*
X020820Y021312D01*
X020783Y021233D02*
X021565Y021233D01*
X021735Y021233D02*
X022517Y021233D01*
X022548Y021155D02*
X022078Y021155D01*
X022240Y021076D02*
X022571Y021076D01*
X022586Y020998D02*
X022361Y020998D01*
X022452Y020919D02*
X022596Y020919D01*
X022597Y020841D02*
X022528Y020841D01*
X021222Y021155D02*
X020752Y021155D01*
X020729Y021076D02*
X021060Y021076D01*
X020939Y020998D02*
X020714Y020998D01*
X020704Y020919D02*
X020848Y020919D01*
X020772Y020841D02*
X020703Y020841D01*
X020705Y017836D02*
X020815Y017709D01*
X020943Y017599D01*
X021084Y017508D01*
X021238Y017438D01*
X021399Y017391D01*
X021566Y017367D01*
X021734Y017367D01*
X021901Y017391D01*
X022062Y017438D01*
X022216Y017508D01*
X022357Y017599D01*
X022485Y017709D01*
X022595Y017836D01*
X022598Y017693D01*
X022579Y017552D01*
X022539Y017415D01*
X022478Y017285D01*
X022399Y017167D01*
X022302Y017062D01*
X022190Y016973D01*
X022066Y016902D01*
X021932Y016851D01*
X021793Y016821D01*
X021650Y016813D01*
X021507Y016821D01*
X021368Y016851D01*
X021234Y016902D01*
X021110Y016973D01*
X020998Y017062D01*
X020901Y017167D01*
X020822Y017285D01*
X020761Y017415D01*
X020721Y017552D01*
X020702Y017693D01*
X020705Y017836D01*
X020704Y017779D02*
X020755Y017779D01*
X020702Y017701D02*
X020825Y017701D01*
X020916Y017622D02*
X020711Y017622D01*
X020723Y017544D02*
X021029Y017544D01*
X021179Y017465D02*
X020746Y017465D01*
X020774Y017387D02*
X021428Y017387D01*
X021083Y016994D02*
X022217Y016994D01*
X022312Y017073D02*
X020988Y017073D01*
X020916Y017151D02*
X022384Y017151D01*
X022441Y017230D02*
X020859Y017230D01*
X020811Y017308D02*
X022489Y017308D01*
X022526Y017387D02*
X021872Y017387D01*
X022121Y017465D02*
X022554Y017465D01*
X022577Y017544D02*
X022271Y017544D01*
X022384Y017622D02*
X022589Y017622D01*
X022598Y017701D02*
X022475Y017701D01*
X022545Y017779D02*
X022596Y017779D01*
X022090Y016916D02*
X021210Y016916D01*
X021432Y016837D02*
X021868Y016837D01*
X021793Y016279D02*
X021650Y016287D01*
X021507Y016279D01*
X021368Y016249D01*
X021234Y016198D01*
X021110Y016127D01*
X020998Y016038D01*
X020901Y015933D01*
X020822Y015815D01*
X020761Y015685D01*
X020721Y015548D01*
X020702Y015407D01*
X020705Y015264D01*
X020815Y015391D01*
X020943Y015501D01*
X021084Y015592D01*
X021238Y015662D01*
X021399Y015709D01*
X021566Y015733D01*
X021734Y015733D01*
X021901Y015709D01*
X022062Y015662D01*
X022216Y015592D01*
X022357Y015501D01*
X022485Y015391D01*
X022595Y015264D01*
X022598Y015407D01*
X022579Y015548D01*
X022539Y015685D01*
X022478Y015815D01*
X022399Y015933D01*
X022302Y016038D01*
X022190Y016127D01*
X022066Y016198D01*
X021932Y016249D01*
X021793Y016279D01*
X022037Y016209D02*
X021263Y016209D01*
X021116Y016131D02*
X022184Y016131D01*
X022285Y016052D02*
X021015Y016052D01*
X020938Y015974D02*
X022362Y015974D01*
X022424Y015895D02*
X020876Y015895D01*
X020823Y015817D02*
X022477Y015817D01*
X022514Y015738D02*
X020786Y015738D01*
X020753Y015660D02*
X021232Y015660D01*
X021067Y015581D02*
X020730Y015581D01*
X020715Y015503D02*
X020945Y015503D01*
X020854Y015424D02*
X020704Y015424D01*
X020703Y015346D02*
X020776Y015346D01*
X020708Y015267D02*
X020705Y015267D01*
X022068Y015660D02*
X022547Y015660D01*
X022570Y015581D02*
X022233Y015581D01*
X022355Y015503D02*
X022585Y015503D01*
X022596Y015424D02*
X022446Y015424D01*
X022524Y015346D02*
X022597Y015346D01*
X022592Y015267D02*
X022595Y015267D01*
X022595Y012336D02*
X022485Y012209D01*
X022357Y012099D01*
X022216Y012008D01*
X022062Y011938D01*
X021901Y011891D01*
X021734Y011867D01*
X021566Y011867D01*
X021399Y011891D01*
X021238Y011938D01*
X021084Y012008D01*
X020943Y012099D01*
X020815Y012209D01*
X020705Y012336D01*
X020702Y012193D01*
X020721Y012052D01*
X020761Y011915D01*
X020822Y011785D01*
X020901Y011667D01*
X020998Y011562D01*
X021110Y011473D01*
X021234Y011402D01*
X021368Y011351D01*
X021507Y011321D01*
X021650Y011313D01*
X021793Y011321D01*
X021932Y011351D01*
X022066Y011402D01*
X022190Y011473D01*
X022302Y011562D01*
X022399Y011667D01*
X022478Y011785D01*
X022539Y011915D01*
X022579Y012052D01*
X022598Y012193D01*
X022595Y012336D01*
X022596Y012284D02*
X022550Y012284D01*
X022598Y012206D02*
X022480Y012206D01*
X022390Y012127D02*
X022589Y012127D01*
X022578Y012049D02*
X022279Y012049D01*
X022132Y011970D02*
X022555Y011970D01*
X022528Y011892D02*
X021904Y011892D01*
X022099Y011421D02*
X021201Y011421D01*
X021077Y011499D02*
X022223Y011499D01*
X022316Y011578D02*
X020984Y011578D01*
X020911Y011656D02*
X022389Y011656D01*
X022444Y011735D02*
X020856Y011735D01*
X020809Y011813D02*
X022491Y011813D01*
X021891Y011342D02*
X021409Y011342D01*
X021396Y011892D02*
X020772Y011892D01*
X020745Y011970D02*
X021168Y011970D01*
X021021Y012049D02*
X020722Y012049D01*
X020711Y012127D02*
X020910Y012127D01*
X020820Y012206D02*
X020702Y012206D01*
X020704Y012284D02*
X020750Y012284D01*
X021507Y010779D02*
X021650Y010787D01*
X021793Y010779D01*
X021932Y010749D01*
X022066Y010698D01*
X022190Y010627D01*
X022302Y010538D01*
X022399Y010433D01*
X022478Y010315D01*
X022539Y010185D01*
X022579Y010048D01*
X022598Y009907D01*
X022595Y009764D01*
X022485Y009891D01*
X022357Y010001D01*
X022216Y010092D01*
X022062Y010162D01*
X021901Y010209D01*
X021734Y010233D01*
X021566Y010233D01*
X021399Y010209D01*
X021238Y010162D01*
X021084Y010092D01*
X020943Y010001D01*
X020815Y009891D01*
X020705Y009764D01*
X020702Y009907D01*
X020721Y010048D01*
X020761Y010185D01*
X020822Y010315D01*
X020901Y010433D01*
X020998Y010538D01*
X021110Y010627D01*
X021234Y010698D01*
X021368Y010749D01*
X021507Y010779D01*
X021276Y010714D02*
X022024Y010714D01*
X022176Y010636D02*
X021124Y010636D01*
X021022Y010557D02*
X022278Y010557D01*
X022357Y010479D02*
X020943Y010479D01*
X020879Y010400D02*
X022421Y010400D01*
X022474Y010322D02*
X020826Y010322D01*
X020788Y010243D02*
X022512Y010243D01*
X022545Y010165D02*
X022053Y010165D01*
X022225Y010086D02*
X022568Y010086D01*
X022585Y010008D02*
X022347Y010008D01*
X022440Y009929D02*
X022595Y009929D01*
X022597Y009851D02*
X022520Y009851D01*
X022588Y009772D02*
X022595Y009772D01*
X021247Y010165D02*
X020755Y010165D01*
X020732Y010086D02*
X021075Y010086D01*
X020953Y010008D02*
X020715Y010008D01*
X020705Y009929D02*
X020860Y009929D01*
X020780Y009851D02*
X020703Y009851D01*
X020705Y009772D02*
X020712Y009772D01*
X020705Y006836D02*
X020815Y006709D01*
X020943Y006599D01*
X021084Y006508D01*
X021238Y006438D01*
X021399Y006391D01*
X021566Y006367D01*
X021734Y006367D01*
X021901Y006391D01*
X022062Y006438D01*
X022216Y006508D01*
X022357Y006599D01*
X022485Y006709D01*
X022595Y006836D01*
X022598Y006693D01*
X022579Y006552D01*
X022539Y006415D01*
X022478Y006285D01*
X022399Y006167D01*
X022302Y006062D01*
X022190Y005973D01*
X022066Y005902D01*
X021932Y005851D01*
X021793Y005821D01*
X021650Y005813D01*
X021507Y005821D01*
X021368Y005851D01*
X021234Y005902D01*
X021110Y005973D01*
X020998Y006062D01*
X020901Y006167D01*
X020822Y006285D01*
X020761Y006415D01*
X020721Y006552D01*
X020702Y006693D01*
X020705Y006836D01*
X020704Y006789D02*
X020746Y006789D01*
X020702Y006711D02*
X020814Y006711D01*
X020905Y006632D02*
X020710Y006632D01*
X020720Y006554D02*
X021014Y006554D01*
X021157Y006475D02*
X020743Y006475D01*
X020769Y006397D02*
X021379Y006397D01*
X021071Y006004D02*
X022229Y006004D01*
X022321Y006083D02*
X020979Y006083D01*
X020906Y006161D02*
X022394Y006161D01*
X022448Y006240D02*
X020852Y006240D01*
X020806Y006318D02*
X022494Y006318D01*
X022531Y006397D02*
X021921Y006397D01*
X022143Y006475D02*
X022557Y006475D01*
X022580Y006554D02*
X022286Y006554D01*
X022395Y006632D02*
X022590Y006632D01*
X022598Y006711D02*
X022486Y006711D01*
X022554Y006789D02*
X022596Y006789D01*
X022107Y005926D02*
X021193Y005926D01*
X021386Y005847D02*
X021914Y005847D01*
X021793Y005279D02*
X021650Y005287D01*
X021507Y005279D01*
X021368Y005249D01*
X021234Y005198D01*
X021110Y005127D01*
X020998Y005038D01*
X020901Y004933D01*
X020822Y004815D01*
X020761Y004685D01*
X020721Y004548D01*
X020702Y004407D01*
X020705Y004264D01*
X020815Y004391D01*
X020943Y004501D01*
X021084Y004592D01*
X021238Y004662D01*
X021399Y004709D01*
X021566Y004733D01*
X021734Y004733D01*
X021901Y004709D01*
X022062Y004662D01*
X022216Y004592D01*
X022357Y004501D01*
X022485Y004391D01*
X022595Y004264D01*
X022598Y004407D01*
X022579Y004548D01*
X022539Y004685D01*
X022478Y004815D01*
X022399Y004933D01*
X022302Y005038D01*
X022190Y005127D01*
X022066Y005198D01*
X021932Y005249D01*
X021793Y005279D01*
X022011Y005219D02*
X021289Y005219D01*
X021133Y005141D02*
X022167Y005141D01*
X022272Y005062D02*
X021028Y005062D01*
X020948Y004984D02*
X022352Y004984D01*
X022418Y004905D02*
X020882Y004905D01*
X020829Y004827D02*
X022471Y004827D01*
X022510Y004748D02*
X020790Y004748D01*
X020756Y004670D02*
X021264Y004670D01*
X021083Y004591D02*
X020733Y004591D01*
X020716Y004513D02*
X020961Y004513D01*
X020865Y004434D02*
X020706Y004434D01*
X020703Y004356D02*
X020785Y004356D01*
X020717Y004277D02*
X020705Y004277D01*
X022036Y004670D02*
X022544Y004670D01*
X022567Y004591D02*
X022217Y004591D01*
X022339Y004513D02*
X022584Y004513D01*
X022594Y004434D02*
X022435Y004434D01*
X022515Y004356D02*
X022597Y004356D01*
X022595Y004277D02*
X022583Y004277D01*
X022595Y001336D02*
X022485Y001209D01*
X022357Y001099D01*
X022216Y001008D01*
X022062Y000938D01*
X021901Y000891D01*
X021734Y000867D01*
X021566Y000867D01*
X021399Y000891D01*
X021238Y000938D01*
X021084Y001008D01*
X020943Y001099D01*
X020815Y001209D01*
X020705Y001336D01*
X020702Y001193D01*
X020721Y001052D01*
X020761Y000915D01*
X020822Y000785D01*
X020901Y000667D01*
X020998Y000562D01*
X021110Y000473D01*
X021234Y000402D01*
X021368Y000351D01*
X021507Y000321D01*
X021650Y000313D01*
X021793Y000321D01*
X021932Y000351D01*
X022066Y000402D01*
X022190Y000473D01*
X022302Y000562D01*
X022399Y000667D01*
X022478Y000785D01*
X022539Y000915D01*
X022579Y001052D01*
X022598Y001193D01*
X022595Y001336D01*
X022596Y001294D02*
X022558Y001294D01*
X022598Y001215D02*
X022490Y001215D01*
X022401Y001137D02*
X022591Y001137D01*
X022580Y001058D02*
X022294Y001058D01*
X022154Y000980D02*
X022558Y000980D01*
X022533Y000901D02*
X021938Y000901D01*
X022236Y000509D02*
X021064Y000509D01*
X020974Y000587D02*
X022326Y000587D01*
X022398Y000666D02*
X020902Y000666D01*
X020849Y000744D02*
X022451Y000744D01*
X022496Y000823D02*
X020804Y000823D01*
X020767Y000901D02*
X021362Y000901D01*
X021146Y000980D02*
X020742Y000980D01*
X020720Y001058D02*
X021006Y001058D01*
X020899Y001137D02*
X020709Y001137D01*
X020702Y001215D02*
X020810Y001215D01*
X020742Y001294D02*
X020704Y001294D01*
X021184Y000430D02*
X022116Y000430D01*
X021935Y000352D02*
X021365Y000352D01*
X017779Y001052D02*
X017798Y001193D01*
X017795Y001336D01*
X017685Y001209D01*
X017557Y001099D01*
X017416Y001008D01*
X017262Y000938D01*
X017101Y000891D01*
X016934Y000867D01*
X016766Y000867D01*
X016599Y000891D01*
X016438Y000938D01*
X016284Y001008D01*
X016143Y001099D01*
X016015Y001209D01*
X015905Y001336D01*
X015902Y001193D01*
X015921Y001052D01*
X015961Y000915D01*
X016022Y000785D01*
X016101Y000667D01*
X016198Y000562D01*
X016310Y000473D01*
X016434Y000402D01*
X016568Y000351D01*
X016707Y000321D01*
X016850Y000313D01*
X016993Y000321D01*
X017132Y000351D01*
X017266Y000402D01*
X017390Y000473D01*
X017502Y000562D01*
X017599Y000667D01*
X017678Y000785D01*
X017739Y000915D01*
X017779Y001052D01*
X017780Y001058D02*
X017494Y001058D01*
X017601Y001137D02*
X017791Y001137D01*
X017798Y001215D02*
X017690Y001215D01*
X017758Y001294D02*
X017796Y001294D01*
X017758Y000980D02*
X017354Y000980D01*
X017138Y000901D02*
X017733Y000901D01*
X017696Y000823D02*
X016004Y000823D01*
X015967Y000901D02*
X016562Y000901D01*
X016346Y000980D02*
X015942Y000980D01*
X015920Y001058D02*
X016206Y001058D01*
X016099Y001137D02*
X015909Y001137D01*
X015902Y001215D02*
X016010Y001215D01*
X015942Y001294D02*
X015904Y001294D01*
X016049Y000744D02*
X017651Y000744D01*
X017598Y000666D02*
X016102Y000666D01*
X016174Y000587D02*
X017526Y000587D01*
X017436Y000509D02*
X016264Y000509D01*
X016384Y000430D02*
X017316Y000430D01*
X017135Y000352D02*
X016565Y000352D01*
X015905Y004264D02*
X016015Y004391D01*
X016143Y004501D01*
X016284Y004592D01*
X016438Y004662D01*
X016599Y004709D01*
X016766Y004733D01*
X016934Y004733D01*
X017101Y004709D01*
X017262Y004662D01*
X017416Y004592D01*
X017557Y004501D01*
X017685Y004391D01*
X017795Y004264D01*
X017798Y004407D01*
X017779Y004548D01*
X017739Y004685D01*
X017678Y004815D01*
X017599Y004933D01*
X017502Y005038D01*
X017390Y005127D01*
X017266Y005198D01*
X017132Y005249D01*
X016993Y005279D01*
X016850Y005287D01*
X016707Y005279D01*
X016568Y005249D01*
X016434Y005198D01*
X016310Y005127D01*
X016198Y005038D01*
X016101Y004933D01*
X016022Y004815D01*
X015961Y004685D01*
X015921Y004548D01*
X015902Y004407D01*
X015905Y004264D01*
X015905Y004277D02*
X015917Y004277D01*
X015903Y004356D02*
X015985Y004356D01*
X015906Y004434D02*
X016065Y004434D01*
X016161Y004513D02*
X015916Y004513D01*
X015933Y004591D02*
X016283Y004591D01*
X016464Y004670D02*
X015956Y004670D01*
X015990Y004748D02*
X017710Y004748D01*
X017744Y004670D02*
X017236Y004670D01*
X017417Y004591D02*
X017767Y004591D01*
X017784Y004513D02*
X017539Y004513D01*
X017635Y004434D02*
X017794Y004434D01*
X017797Y004356D02*
X017715Y004356D01*
X017783Y004277D02*
X017795Y004277D01*
X017671Y004827D02*
X016029Y004827D01*
X016082Y004905D02*
X017618Y004905D01*
X017552Y004984D02*
X016148Y004984D01*
X016228Y005062D02*
X017472Y005062D01*
X017367Y005141D02*
X016333Y005141D01*
X016489Y005219D02*
X017211Y005219D01*
X017114Y005847D02*
X016586Y005847D01*
X016568Y005851D02*
X016707Y005821D01*
X016850Y005813D01*
X016993Y005821D01*
X017132Y005851D01*
X017266Y005902D01*
X017390Y005973D01*
X017502Y006062D01*
X017599Y006167D01*
X017678Y006285D01*
X017739Y006415D01*
X017779Y006552D01*
X017798Y006693D01*
X017795Y006836D01*
X017685Y006709D01*
X017557Y006599D01*
X017416Y006508D01*
X017262Y006438D01*
X017101Y006391D01*
X016934Y006367D01*
X016766Y006367D01*
X016599Y006391D01*
X016438Y006438D01*
X016284Y006508D01*
X016143Y006599D01*
X016015Y006709D01*
X015905Y006836D01*
X015902Y006693D01*
X015921Y006552D01*
X015961Y006415D01*
X016022Y006285D01*
X016101Y006167D01*
X016198Y006062D01*
X016310Y005973D01*
X016434Y005902D01*
X016568Y005851D01*
X016393Y005926D02*
X017307Y005926D01*
X017429Y006004D02*
X016271Y006004D01*
X016179Y006083D02*
X017521Y006083D01*
X017594Y006161D02*
X016106Y006161D01*
X016052Y006240D02*
X017648Y006240D01*
X017694Y006318D02*
X016006Y006318D01*
X015969Y006397D02*
X016579Y006397D01*
X016357Y006475D02*
X015943Y006475D01*
X015920Y006554D02*
X016214Y006554D01*
X016105Y006632D02*
X015910Y006632D01*
X015902Y006711D02*
X016014Y006711D01*
X015946Y006789D02*
X015904Y006789D01*
X017121Y006397D02*
X017731Y006397D01*
X017757Y006475D02*
X017343Y006475D01*
X017486Y006554D02*
X017780Y006554D01*
X017790Y006632D02*
X017595Y006632D01*
X017686Y006711D02*
X017798Y006711D01*
X017796Y006789D02*
X017754Y006789D01*
X017795Y009764D02*
X017685Y009891D01*
X017557Y010001D01*
X017416Y010092D01*
X017262Y010162D01*
X017101Y010209D01*
X016934Y010233D01*
X016766Y010233D01*
X016599Y010209D01*
X016438Y010162D01*
X016284Y010092D01*
X016143Y010001D01*
X016015Y009891D01*
X015905Y009764D01*
X015902Y009907D01*
X015921Y010048D01*
X015961Y010185D01*
X016022Y010315D01*
X016101Y010433D01*
X016198Y010538D01*
X016310Y010627D01*
X016434Y010698D01*
X016568Y010749D01*
X016707Y010779D01*
X016850Y010787D01*
X016993Y010779D01*
X017132Y010749D01*
X017266Y010698D01*
X017390Y010627D01*
X017502Y010538D01*
X017599Y010433D01*
X017678Y010315D01*
X017739Y010185D01*
X017779Y010048D01*
X017798Y009907D01*
X017795Y009764D01*
X017795Y009772D02*
X017788Y009772D01*
X017797Y009851D02*
X017720Y009851D01*
X017795Y009929D02*
X017640Y009929D01*
X017547Y010008D02*
X017785Y010008D01*
X017768Y010086D02*
X017425Y010086D01*
X017253Y010165D02*
X017745Y010165D01*
X017712Y010243D02*
X015988Y010243D01*
X015955Y010165D02*
X016447Y010165D01*
X016275Y010086D02*
X015932Y010086D01*
X015915Y010008D02*
X016153Y010008D01*
X016060Y009929D02*
X015905Y009929D01*
X015903Y009851D02*
X015980Y009851D01*
X015912Y009772D02*
X015905Y009772D01*
X016026Y010322D02*
X017674Y010322D01*
X017621Y010400D02*
X016079Y010400D01*
X016143Y010479D02*
X017557Y010479D01*
X017478Y010557D02*
X016222Y010557D01*
X016324Y010636D02*
X017376Y010636D01*
X017224Y010714D02*
X016476Y010714D01*
X016609Y011342D02*
X017091Y011342D01*
X017132Y011351D02*
X016993Y011321D01*
X016850Y011313D01*
X016707Y011321D01*
X016568Y011351D01*
X016434Y011402D01*
X016310Y011473D01*
X016198Y011562D01*
X016101Y011667D01*
X016022Y011785D01*
X015961Y011915D01*
X015921Y012052D01*
X015902Y012193D01*
X015905Y012336D01*
X016015Y012209D01*
X016143Y012099D01*
X016284Y012008D01*
X016438Y011938D01*
X016599Y011891D01*
X016766Y011867D01*
X016934Y011867D01*
X017101Y011891D01*
X017262Y011938D01*
X017416Y012008D01*
X017557Y012099D01*
X017685Y012209D01*
X017795Y012336D01*
X017798Y012193D01*
X017779Y012052D01*
X017739Y011915D01*
X017678Y011785D01*
X017599Y011667D01*
X017502Y011562D01*
X017390Y011473D01*
X017266Y011402D01*
X017132Y011351D01*
X017299Y011421D02*
X016401Y011421D01*
X016277Y011499D02*
X017423Y011499D01*
X017516Y011578D02*
X016184Y011578D01*
X016111Y011656D02*
X017589Y011656D01*
X017644Y011735D02*
X016056Y011735D01*
X016009Y011813D02*
X017691Y011813D01*
X017728Y011892D02*
X017104Y011892D01*
X017332Y011970D02*
X017755Y011970D01*
X017778Y012049D02*
X017479Y012049D01*
X017590Y012127D02*
X017789Y012127D01*
X017798Y012206D02*
X017680Y012206D01*
X017750Y012284D02*
X017796Y012284D01*
X016596Y011892D02*
X015972Y011892D01*
X015945Y011970D02*
X016368Y011970D01*
X016221Y012049D02*
X015922Y012049D01*
X015911Y012127D02*
X016110Y012127D01*
X016020Y012206D02*
X015902Y012206D01*
X015904Y012284D02*
X015950Y012284D01*
X015905Y015264D02*
X016015Y015391D01*
X016143Y015501D01*
X016284Y015592D01*
X016438Y015662D01*
X016599Y015709D01*
X016766Y015733D01*
X016934Y015733D01*
X017101Y015709D01*
X017262Y015662D01*
X017416Y015592D01*
X017557Y015501D01*
X017685Y015391D01*
X017795Y015264D01*
X017798Y015407D01*
X017779Y015548D01*
X017739Y015685D01*
X017678Y015815D01*
X017599Y015933D01*
X017502Y016038D01*
X017390Y016127D01*
X017266Y016198D01*
X017132Y016249D01*
X016993Y016279D01*
X016850Y016287D01*
X016707Y016279D01*
X016568Y016249D01*
X016434Y016198D01*
X016310Y016127D01*
X016198Y016038D01*
X016101Y015933D01*
X016022Y015815D01*
X015961Y015685D01*
X015921Y015548D01*
X015902Y015407D01*
X015905Y015264D01*
X015905Y015267D02*
X015908Y015267D01*
X015903Y015346D02*
X015976Y015346D01*
X015904Y015424D02*
X016054Y015424D01*
X016145Y015503D02*
X015915Y015503D01*
X015930Y015581D02*
X016267Y015581D01*
X016432Y015660D02*
X015953Y015660D01*
X015986Y015738D02*
X017714Y015738D01*
X017747Y015660D02*
X017268Y015660D01*
X017433Y015581D02*
X017770Y015581D01*
X017785Y015503D02*
X017555Y015503D01*
X017646Y015424D02*
X017796Y015424D01*
X017797Y015346D02*
X017724Y015346D01*
X017792Y015267D02*
X017795Y015267D01*
X017677Y015817D02*
X016023Y015817D01*
X016076Y015895D02*
X017624Y015895D01*
X017562Y015974D02*
X016138Y015974D01*
X016215Y016052D02*
X017485Y016052D01*
X017384Y016131D02*
X016316Y016131D01*
X016463Y016209D02*
X017237Y016209D01*
X017132Y016851D02*
X016993Y016821D01*
X016850Y016813D01*
X016707Y016821D01*
X016568Y016851D01*
X016434Y016902D01*
X016310Y016973D01*
X016198Y017062D01*
X016101Y017167D01*
X016022Y017285D01*
X015961Y017415D01*
X015921Y017552D01*
X015902Y017693D01*
X015905Y017836D01*
X016015Y017709D01*
X016143Y017599D01*
X016284Y017508D01*
X016438Y017438D01*
X016599Y017391D01*
X016766Y017367D01*
X016934Y017367D01*
X017101Y017391D01*
X017262Y017438D01*
X017416Y017508D01*
X017557Y017599D01*
X017685Y017709D01*
X017795Y017836D01*
X017798Y017693D01*
X017779Y017552D01*
X017739Y017415D01*
X017678Y017285D01*
X017599Y017167D01*
X017502Y017062D01*
X017390Y016973D01*
X017266Y016902D01*
X017132Y016851D01*
X017068Y016837D02*
X016632Y016837D01*
X016410Y016916D02*
X017290Y016916D01*
X017417Y016994D02*
X016283Y016994D01*
X016188Y017073D02*
X017512Y017073D01*
X017584Y017151D02*
X016116Y017151D01*
X016059Y017230D02*
X017641Y017230D01*
X017689Y017308D02*
X016011Y017308D01*
X015974Y017387D02*
X016628Y017387D01*
X016379Y017465D02*
X015946Y017465D01*
X015923Y017544D02*
X016229Y017544D01*
X016116Y017622D02*
X015911Y017622D01*
X015902Y017701D02*
X016025Y017701D01*
X015955Y017779D02*
X015904Y017779D01*
X017072Y017387D02*
X017726Y017387D01*
X017754Y017465D02*
X017321Y017465D01*
X017471Y017544D02*
X017777Y017544D01*
X017789Y017622D02*
X017584Y017622D01*
X017675Y017701D02*
X017798Y017701D01*
X017796Y017779D02*
X017745Y017779D01*
X017795Y020764D02*
X017685Y020891D01*
X017557Y021001D01*
X017416Y021092D01*
X017262Y021162D01*
X017101Y021209D01*
X016934Y021233D01*
X016766Y021233D01*
X016599Y021209D01*
X016438Y021162D01*
X016284Y021092D01*
X016143Y021001D01*
X016015Y020891D01*
X015905Y020764D01*
X015902Y020907D01*
X015921Y021048D01*
X015961Y021185D01*
X016022Y021315D01*
X016101Y021433D01*
X016198Y021538D01*
X016310Y021627D01*
X016434Y021698D01*
X016568Y021749D01*
X016707Y021779D01*
X016850Y021787D01*
X016993Y021779D01*
X017132Y021749D01*
X017266Y021698D01*
X017390Y021627D01*
X017502Y021538D01*
X017599Y021433D01*
X017678Y021315D01*
X017739Y021185D01*
X017779Y021048D01*
X017798Y020907D01*
X017795Y020764D01*
X017797Y020841D02*
X017728Y020841D01*
X017796Y020919D02*
X017652Y020919D01*
X017561Y020998D02*
X017786Y020998D01*
X017771Y021076D02*
X017440Y021076D01*
X017278Y021155D02*
X017748Y021155D01*
X017717Y021233D02*
X016935Y021233D01*
X016765Y021233D02*
X015983Y021233D01*
X015952Y021155D02*
X016422Y021155D01*
X016260Y021076D02*
X015929Y021076D01*
X015914Y020998D02*
X016139Y020998D01*
X016048Y020919D02*
X015904Y020919D01*
X015903Y020841D02*
X015972Y020841D01*
X016020Y021312D02*
X017680Y021312D01*
X017628Y021390D02*
X016072Y021390D01*
X016134Y021469D02*
X017566Y021469D01*
X017491Y021547D02*
X016209Y021547D01*
X016308Y021626D02*
X017392Y021626D01*
X017250Y021704D02*
X016450Y021704D01*
X016767Y021783D02*
X016933Y021783D01*
X016850Y022313D02*
X016993Y022321D01*
X017132Y022351D01*
X017266Y022402D01*
X017390Y022473D01*
X017502Y022562D01*
X017599Y022667D01*
X017678Y022785D01*
X017739Y022915D01*
X017779Y023052D01*
X017798Y023193D01*
X017795Y023336D01*
X017685Y023209D01*
X017557Y023099D01*
X017416Y023008D01*
X017262Y022938D01*
X017101Y022891D01*
X016934Y022867D01*
X016766Y022867D01*
X016599Y022891D01*
X016438Y022938D01*
X016284Y023008D01*
X016143Y023099D01*
X016015Y023209D01*
X015905Y023336D01*
X015902Y023193D01*
X015921Y023052D01*
X015961Y022915D01*
X016022Y022785D01*
X016101Y022667D01*
X016198Y022562D01*
X016310Y022473D01*
X016434Y022402D01*
X016568Y022351D01*
X016707Y022321D01*
X016850Y022313D01*
X016655Y022332D02*
X017045Y022332D01*
X017281Y022411D02*
X016419Y022411D01*
X016289Y022489D02*
X017411Y022489D01*
X017507Y022568D02*
X016193Y022568D01*
X016120Y022646D02*
X017580Y022646D01*
X017638Y022725D02*
X016062Y022725D01*
X016013Y022803D02*
X017687Y022803D01*
X017724Y022882D02*
X017037Y022882D01*
X017311Y022960D02*
X017752Y022960D01*
X017775Y023039D02*
X017463Y023039D01*
X017578Y023117D02*
X017788Y023117D01*
X017798Y023196D02*
X017669Y023196D01*
X017741Y023274D02*
X017796Y023274D01*
X016663Y022882D02*
X015976Y022882D01*
X015948Y022960D02*
X016389Y022960D01*
X016237Y023039D02*
X015925Y023039D01*
X015912Y023117D02*
X016122Y023117D01*
X016031Y023196D02*
X015902Y023196D01*
X015904Y023274D02*
X015959Y023274D01*
X015905Y026264D02*
X016015Y026391D01*
X016143Y026501D01*
X016284Y026592D01*
X016438Y026662D01*
X016599Y026709D01*
X016766Y026733D01*
X016934Y026733D01*
X017101Y026709D01*
X017262Y026662D01*
X017416Y026592D01*
X017557Y026501D01*
X017685Y026391D01*
X017795Y026264D01*
X017798Y026407D01*
X017779Y026548D01*
X017739Y026685D01*
X017678Y026815D01*
X017599Y026933D01*
X017502Y027038D01*
X017390Y027127D01*
X017266Y027198D01*
X017132Y027249D01*
X016993Y027279D01*
X016850Y027287D01*
X016707Y027279D01*
X016568Y027249D01*
X016434Y027198D01*
X016310Y027127D01*
X016198Y027038D01*
X016101Y026933D01*
X016022Y026815D01*
X015961Y026685D01*
X015921Y026548D01*
X015902Y026407D01*
X015905Y026264D01*
X015904Y026336D02*
X015967Y026336D01*
X015903Y026414D02*
X016042Y026414D01*
X016133Y026493D02*
X015913Y026493D01*
X015927Y026571D02*
X016252Y026571D01*
X016411Y026650D02*
X015950Y026650D01*
X015981Y026728D02*
X016730Y026728D01*
X016970Y026728D02*
X017719Y026728D01*
X017750Y026650D02*
X017289Y026650D01*
X017448Y026571D02*
X017773Y026571D01*
X017787Y026493D02*
X017567Y026493D01*
X017658Y026414D02*
X017797Y026414D01*
X017796Y026336D02*
X017733Y026336D01*
X017682Y026807D02*
X016018Y026807D01*
X016069Y026885D02*
X017631Y026885D01*
X017571Y026964D02*
X016129Y026964D01*
X016203Y027042D02*
X017497Y027042D01*
X017398Y027121D02*
X016302Y027121D01*
X016437Y027199D02*
X017263Y027199D01*
X017000Y027278D02*
X016700Y027278D01*
X016707Y027821D02*
X016568Y027851D01*
X016434Y027902D01*
X016310Y027973D01*
X016198Y028062D01*
X016101Y028167D01*
X016022Y028285D01*
X015961Y028415D01*
X015921Y028552D01*
X015902Y028693D01*
X015905Y028836D01*
X016015Y028709D01*
X016143Y028599D01*
X016284Y028508D01*
X016438Y028438D01*
X016599Y028391D01*
X016766Y028367D01*
X016934Y028367D01*
X017101Y028391D01*
X017262Y028438D01*
X017416Y028508D01*
X017557Y028599D01*
X017685Y028709D01*
X017795Y028836D01*
X017798Y028693D01*
X017779Y028552D01*
X017739Y028415D01*
X017678Y028285D01*
X017599Y028167D01*
X017502Y028062D01*
X017390Y027973D01*
X017266Y027902D01*
X017132Y027851D01*
X016993Y027821D01*
X016850Y027813D01*
X016707Y027821D01*
X016678Y027827D02*
X017022Y027827D01*
X017272Y027906D02*
X016428Y027906D01*
X016296Y027984D02*
X017404Y027984D01*
X017503Y028063D02*
X016197Y028063D01*
X016125Y028141D02*
X017575Y028141D01*
X017634Y028220D02*
X016066Y028220D01*
X016016Y028298D02*
X017684Y028298D01*
X017721Y028377D02*
X017002Y028377D01*
X016698Y028377D02*
X015979Y028377D01*
X015949Y028455D02*
X016400Y028455D01*
X016245Y028534D02*
X015926Y028534D01*
X015913Y028612D02*
X016128Y028612D01*
X016037Y028691D02*
X015902Y028691D01*
X015904Y028769D02*
X015963Y028769D01*
X017300Y028455D02*
X017751Y028455D01*
X017774Y028534D02*
X017455Y028534D01*
X017572Y028612D02*
X017787Y028612D01*
X017798Y028691D02*
X017663Y028691D01*
X017737Y028769D02*
X017796Y028769D01*
X017795Y031764D02*
X017685Y031891D01*
X017557Y032001D01*
X017416Y032092D01*
X017262Y032162D01*
X017101Y032209D01*
X016934Y032233D01*
X016766Y032233D01*
X016599Y032209D01*
X016438Y032162D01*
X016284Y032092D01*
X016143Y032001D01*
X016015Y031891D01*
X015905Y031764D01*
X015902Y031907D01*
X015921Y032048D01*
X015961Y032185D01*
X016022Y032315D01*
X016101Y032433D01*
X016198Y032538D01*
X016310Y032627D01*
X016434Y032698D01*
X016568Y032749D01*
X016707Y032779D01*
X016850Y032787D01*
X016993Y032779D01*
X017132Y032749D01*
X017266Y032698D01*
X017390Y032627D01*
X017502Y032538D01*
X017599Y032433D01*
X017678Y032315D01*
X017739Y032185D01*
X017779Y032048D01*
X017798Y031907D01*
X017795Y031764D01*
X017796Y031831D02*
X017737Y031831D01*
X017798Y031909D02*
X017664Y031909D01*
X017573Y031988D02*
X017787Y031988D01*
X017774Y032066D02*
X017456Y032066D01*
X017300Y032145D02*
X017751Y032145D01*
X017721Y032223D02*
X017005Y032223D01*
X016695Y032223D02*
X015979Y032223D01*
X015949Y032145D02*
X016400Y032145D01*
X016244Y032066D02*
X015926Y032066D01*
X015913Y031988D02*
X016127Y031988D01*
X016036Y031909D02*
X015902Y031909D01*
X015904Y031831D02*
X015963Y031831D01*
X016015Y032302D02*
X017685Y032302D01*
X017635Y032380D02*
X016065Y032380D01*
X016125Y032459D02*
X017575Y032459D01*
X017503Y032537D02*
X016197Y032537D01*
X016295Y032616D02*
X017405Y032616D01*
X017273Y032694D02*
X016427Y032694D01*
X016677Y032773D02*
X017023Y032773D01*
X016993Y033321D02*
X016850Y033313D01*
X016707Y033321D01*
X016568Y033351D01*
X016434Y033402D01*
X016310Y033473D01*
X016198Y033562D01*
X016101Y033667D01*
X016022Y033785D01*
X015961Y033915D01*
X015921Y034052D01*
X015902Y034193D01*
X015905Y034336D01*
X016015Y034209D01*
X016143Y034099D01*
X016284Y034008D01*
X016438Y033938D01*
X016599Y033891D01*
X016766Y033867D01*
X016934Y033867D01*
X017101Y033891D01*
X017262Y033938D01*
X017416Y034008D01*
X017557Y034099D01*
X017685Y034209D01*
X017795Y034336D01*
X017798Y034193D01*
X017779Y034052D01*
X017739Y033915D01*
X017678Y033785D01*
X017599Y033667D01*
X017502Y033562D01*
X017390Y033473D01*
X017266Y033402D01*
X017132Y033351D01*
X016993Y033321D01*
X016998Y033322D02*
X016702Y033322D01*
X016437Y033401D02*
X017263Y033401D01*
X017398Y033479D02*
X016302Y033479D01*
X016203Y033558D02*
X017497Y033558D01*
X017571Y033636D02*
X016129Y033636D01*
X016069Y033715D02*
X017631Y033715D01*
X017682Y033793D02*
X016018Y033793D01*
X015981Y033872D02*
X016732Y033872D01*
X016968Y033872D02*
X017719Y033872D01*
X017750Y033950D02*
X017289Y033950D01*
X017448Y034029D02*
X017773Y034029D01*
X017787Y034107D02*
X017567Y034107D01*
X017657Y034186D02*
X017797Y034186D01*
X017796Y034264D02*
X017732Y034264D01*
X016411Y033950D02*
X015950Y033950D01*
X015927Y034029D02*
X016252Y034029D01*
X016133Y034107D02*
X015913Y034107D01*
X015903Y034186D02*
X016043Y034186D01*
X015968Y034264D02*
X015904Y034264D01*
X015905Y037264D02*
X016015Y037391D01*
X016143Y037501D01*
X016284Y037592D01*
X016438Y037662D01*
X016599Y037709D01*
X016766Y037733D01*
X016934Y037733D01*
X017101Y037709D01*
X017262Y037662D01*
X017416Y037592D01*
X017557Y037501D01*
X017685Y037391D01*
X017795Y037264D01*
X017798Y037407D01*
X017779Y037548D01*
X017739Y037685D01*
X017678Y037815D01*
X017599Y037933D01*
X017502Y038038D01*
X017390Y038127D01*
X017266Y038198D01*
X017132Y038249D01*
X016993Y038279D01*
X016850Y038287D01*
X016707Y038279D01*
X016568Y038249D01*
X016434Y038198D01*
X016310Y038127D01*
X016198Y038038D01*
X016101Y037933D01*
X016022Y037815D01*
X015961Y037685D01*
X015921Y037548D01*
X015902Y037407D01*
X015905Y037264D01*
X015904Y037326D02*
X015959Y037326D01*
X015902Y037404D02*
X016031Y037404D01*
X016121Y037483D02*
X015912Y037483D01*
X015924Y037561D02*
X016236Y037561D01*
X016389Y037640D02*
X015947Y037640D01*
X015976Y037718D02*
X016661Y037718D01*
X017039Y037718D02*
X017724Y037718D01*
X017753Y037640D02*
X017311Y037640D01*
X017464Y037561D02*
X017776Y037561D01*
X017788Y037483D02*
X017579Y037483D01*
X017669Y037404D02*
X017798Y037404D01*
X017796Y037326D02*
X017741Y037326D01*
X017687Y037797D02*
X016013Y037797D01*
X016062Y037875D02*
X017638Y037875D01*
X017580Y037954D02*
X016120Y037954D01*
X016192Y038032D02*
X017508Y038032D01*
X017411Y038111D02*
X016289Y038111D01*
X016418Y038189D02*
X017282Y038189D01*
X017046Y038268D02*
X016654Y038268D01*
X012979Y037548D02*
X012939Y037685D01*
X012878Y037815D01*
X012799Y037933D01*
X012702Y038038D01*
X012590Y038127D01*
X012466Y038198D01*
X012332Y038249D01*
X012193Y038279D01*
X012050Y038287D01*
X011907Y038279D01*
X011768Y038249D01*
X011634Y038198D01*
X011510Y038127D01*
X011398Y038038D01*
X011301Y037933D01*
X011222Y037815D01*
X011161Y037685D01*
X011121Y037548D01*
X011102Y037407D01*
X011105Y037264D01*
X011215Y037391D01*
X011343Y037501D01*
X011484Y037592D01*
X011638Y037662D01*
X011799Y037709D01*
X011966Y037733D01*
X012134Y037733D01*
X012301Y037709D01*
X012462Y037662D01*
X012616Y037592D01*
X012757Y037501D01*
X012885Y037391D01*
X012995Y037264D01*
X012998Y037407D01*
X012979Y037548D01*
X012976Y037561D02*
X012664Y037561D01*
X012779Y037483D02*
X012988Y037483D01*
X012998Y037404D02*
X012869Y037404D01*
X012941Y037326D02*
X012996Y037326D01*
X012953Y037640D02*
X012511Y037640D01*
X012239Y037718D02*
X012924Y037718D01*
X012887Y037797D02*
X011213Y037797D01*
X011176Y037718D02*
X011861Y037718D01*
X011589Y037640D02*
X011147Y037640D01*
X011124Y037561D02*
X011436Y037561D01*
X011321Y037483D02*
X011112Y037483D01*
X011102Y037404D02*
X011231Y037404D01*
X011159Y037326D02*
X011104Y037326D01*
X011262Y037875D02*
X012838Y037875D01*
X012780Y037954D02*
X011320Y037954D01*
X011392Y038032D02*
X012708Y038032D01*
X012611Y038111D02*
X011489Y038111D01*
X011618Y038189D02*
X012482Y038189D01*
X012246Y038268D02*
X011854Y038268D01*
X011105Y034336D02*
X011215Y034209D01*
X011343Y034099D01*
X011484Y034008D01*
X011638Y033938D01*
X011799Y033891D01*
X011966Y033867D01*
X012134Y033867D01*
X012301Y033891D01*
X012462Y033938D01*
X012616Y034008D01*
X012757Y034099D01*
X012885Y034209D01*
X012995Y034336D01*
X012998Y034193D01*
X012979Y034052D01*
X012939Y033915D01*
X012878Y033785D01*
X012799Y033667D01*
X012702Y033562D01*
X012590Y033473D01*
X012466Y033402D01*
X012332Y033351D01*
X012193Y033321D01*
X012050Y033313D01*
X011907Y033321D01*
X011768Y033351D01*
X011634Y033402D01*
X011510Y033473D01*
X011398Y033562D01*
X011301Y033667D01*
X011222Y033785D01*
X011161Y033915D01*
X011121Y034052D01*
X011102Y034193D01*
X011105Y034336D01*
X011104Y034264D02*
X011168Y034264D01*
X011103Y034186D02*
X011243Y034186D01*
X011333Y034107D02*
X011113Y034107D01*
X011127Y034029D02*
X011452Y034029D01*
X011611Y033950D02*
X011150Y033950D01*
X011181Y033872D02*
X011932Y033872D01*
X012168Y033872D02*
X012919Y033872D01*
X012950Y033950D02*
X012489Y033950D01*
X012648Y034029D02*
X012973Y034029D01*
X012987Y034107D02*
X012767Y034107D01*
X012857Y034186D02*
X012997Y034186D01*
X012996Y034264D02*
X012932Y034264D01*
X012882Y033793D02*
X011218Y033793D01*
X011269Y033715D02*
X012831Y033715D01*
X012771Y033636D02*
X011329Y033636D01*
X011403Y033558D02*
X012697Y033558D01*
X012598Y033479D02*
X011502Y033479D01*
X011637Y033401D02*
X012463Y033401D01*
X012198Y033322D02*
X011902Y033322D01*
X011907Y032779D02*
X011768Y032749D01*
X011634Y032698D01*
X011510Y032627D01*
X011398Y032538D01*
X011301Y032433D01*
X011222Y032315D01*
X011161Y032185D01*
X011121Y032048D01*
X011102Y031907D01*
X011105Y031764D01*
X011215Y031891D01*
X011343Y032001D01*
X011484Y032092D01*
X011638Y032162D01*
X011799Y032209D01*
X011966Y032233D01*
X012134Y032233D01*
X012301Y032209D01*
X012462Y032162D01*
X012616Y032092D01*
X012757Y032001D01*
X012885Y031891D01*
X012995Y031764D01*
X012998Y031907D01*
X012979Y032048D01*
X012939Y032185D01*
X012878Y032315D01*
X012799Y032433D01*
X012702Y032538D01*
X012590Y032627D01*
X012466Y032698D01*
X012332Y032749D01*
X012193Y032779D01*
X012050Y032787D01*
X011907Y032779D01*
X011877Y032773D02*
X012223Y032773D01*
X012473Y032694D02*
X011627Y032694D01*
X011495Y032616D02*
X012605Y032616D01*
X012703Y032537D02*
X011397Y032537D01*
X011325Y032459D02*
X012775Y032459D01*
X012835Y032380D02*
X011265Y032380D01*
X011215Y032302D02*
X012885Y032302D01*
X012921Y032223D02*
X012205Y032223D01*
X012500Y032145D02*
X012951Y032145D01*
X012974Y032066D02*
X012656Y032066D01*
X012773Y031988D02*
X012987Y031988D01*
X012998Y031909D02*
X012864Y031909D01*
X012937Y031831D02*
X012996Y031831D01*
X011895Y032223D02*
X011179Y032223D01*
X011149Y032145D02*
X011600Y032145D01*
X011444Y032066D02*
X011126Y032066D01*
X011113Y031988D02*
X011327Y031988D01*
X011236Y031909D02*
X011102Y031909D01*
X011104Y031831D02*
X011163Y031831D01*
X011105Y028836D02*
X011215Y028709D01*
X011343Y028599D01*
X011484Y028508D01*
X011638Y028438D01*
X011799Y028391D01*
X011966Y028367D01*
X012134Y028367D01*
X012301Y028391D01*
X012462Y028438D01*
X012616Y028508D01*
X012757Y028599D01*
X012885Y028709D01*
X012995Y028836D01*
X012998Y028693D01*
X012979Y028552D01*
X012939Y028415D01*
X012878Y028285D01*
X012799Y028167D01*
X012702Y028062D01*
X012590Y027973D01*
X012466Y027902D01*
X012332Y027851D01*
X012193Y027821D01*
X012050Y027813D01*
X011907Y027821D01*
X011768Y027851D01*
X011634Y027902D01*
X011510Y027973D01*
X011398Y028062D01*
X011301Y028167D01*
X011222Y028285D01*
X011161Y028415D01*
X011121Y028552D01*
X011102Y028693D01*
X011105Y028836D01*
X011104Y028769D02*
X011163Y028769D01*
X011102Y028691D02*
X011237Y028691D01*
X011328Y028612D02*
X011113Y028612D01*
X011126Y028534D02*
X011445Y028534D01*
X011600Y028455D02*
X011149Y028455D01*
X011179Y028377D02*
X011898Y028377D01*
X012202Y028377D02*
X012921Y028377D01*
X012951Y028455D02*
X012500Y028455D01*
X012655Y028534D02*
X012974Y028534D01*
X012987Y028612D02*
X012772Y028612D01*
X012863Y028691D02*
X012998Y028691D01*
X012996Y028769D02*
X012937Y028769D01*
X012884Y028298D02*
X011216Y028298D01*
X011266Y028220D02*
X012834Y028220D01*
X012775Y028141D02*
X011325Y028141D01*
X011397Y028063D02*
X012703Y028063D01*
X012604Y027984D02*
X011496Y027984D01*
X011628Y027906D02*
X012472Y027906D01*
X012222Y027827D02*
X011878Y027827D01*
X011907Y027279D02*
X011768Y027249D01*
X011634Y027198D01*
X011510Y027127D01*
X011398Y027038D01*
X011301Y026933D01*
X011222Y026815D01*
X011161Y026685D01*
X011121Y026548D01*
X011102Y026407D01*
X011105Y026264D01*
X011215Y026391D01*
X011343Y026501D01*
X011484Y026592D01*
X011638Y026662D01*
X011799Y026709D01*
X011966Y026733D01*
X012134Y026733D01*
X012301Y026709D01*
X012462Y026662D01*
X012616Y026592D01*
X012757Y026501D01*
X012885Y026391D01*
X012995Y026264D01*
X012998Y026407D01*
X012979Y026548D01*
X012939Y026685D01*
X012878Y026815D01*
X012799Y026933D01*
X012702Y027038D01*
X012590Y027127D01*
X012466Y027198D01*
X012332Y027249D01*
X012193Y027279D01*
X012050Y027287D01*
X011907Y027279D01*
X011900Y027278D02*
X012200Y027278D01*
X012463Y027199D02*
X011637Y027199D01*
X011502Y027121D02*
X012598Y027121D01*
X012697Y027042D02*
X011403Y027042D01*
X011329Y026964D02*
X012771Y026964D01*
X012831Y026885D02*
X011269Y026885D01*
X011218Y026807D02*
X012882Y026807D01*
X012919Y026728D02*
X012170Y026728D01*
X011930Y026728D02*
X011181Y026728D01*
X011150Y026650D02*
X011611Y026650D01*
X011452Y026571D02*
X011127Y026571D01*
X011113Y026493D02*
X011333Y026493D01*
X011242Y026414D02*
X011103Y026414D01*
X011104Y026336D02*
X011167Y026336D01*
X012489Y026650D02*
X012950Y026650D01*
X012973Y026571D02*
X012648Y026571D01*
X012767Y026493D02*
X012987Y026493D01*
X012997Y026414D02*
X012858Y026414D01*
X012933Y026336D02*
X012996Y026336D01*
X012995Y023336D02*
X012885Y023209D01*
X012757Y023099D01*
X012616Y023008D01*
X012462Y022938D01*
X012301Y022891D01*
X012134Y022867D01*
X011966Y022867D01*
X011799Y022891D01*
X011638Y022938D01*
X011484Y023008D01*
X011343Y023099D01*
X011215Y023209D01*
X011105Y023336D01*
X011102Y023193D01*
X011121Y023052D01*
X011161Y022915D01*
X011222Y022785D01*
X011301Y022667D01*
X011398Y022562D01*
X011510Y022473D01*
X011634Y022402D01*
X011768Y022351D01*
X011907Y022321D01*
X012050Y022313D01*
X012193Y022321D01*
X012332Y022351D01*
X012466Y022402D01*
X012590Y022473D01*
X012702Y022562D01*
X012799Y022667D01*
X012878Y022785D01*
X012939Y022915D01*
X012979Y023052D01*
X012998Y023193D01*
X012995Y023336D01*
X012996Y023274D02*
X012941Y023274D01*
X012998Y023196D02*
X012869Y023196D01*
X012778Y023117D02*
X012988Y023117D01*
X012975Y023039D02*
X012663Y023039D01*
X012511Y022960D02*
X012952Y022960D01*
X012924Y022882D02*
X012237Y022882D01*
X011863Y022882D02*
X011176Y022882D01*
X011148Y022960D02*
X011589Y022960D01*
X011437Y023039D02*
X011125Y023039D01*
X011112Y023117D02*
X011322Y023117D01*
X011231Y023196D02*
X011102Y023196D01*
X011104Y023274D02*
X011159Y023274D01*
X011213Y022803D02*
X012887Y022803D01*
X012838Y022725D02*
X011262Y022725D01*
X011320Y022646D02*
X012780Y022646D01*
X012707Y022568D02*
X011393Y022568D01*
X011489Y022489D02*
X012611Y022489D01*
X012481Y022411D02*
X011619Y022411D01*
X011855Y022332D02*
X012245Y022332D01*
X012193Y021779D02*
X012050Y021787D01*
X011907Y021779D01*
X011768Y021749D01*
X011634Y021698D01*
X011510Y021627D01*
X011398Y021538D01*
X011301Y021433D01*
X011222Y021315D01*
X011161Y021185D01*
X011121Y021048D01*
X011102Y020907D01*
X011105Y020764D01*
X011215Y020891D01*
X011343Y021001D01*
X011484Y021092D01*
X011638Y021162D01*
X011799Y021209D01*
X011966Y021233D01*
X012134Y021233D01*
X012301Y021209D01*
X012462Y021162D01*
X012616Y021092D01*
X012757Y021001D01*
X012885Y020891D01*
X012995Y020764D01*
X012998Y020907D01*
X012979Y021048D01*
X012939Y021185D01*
X012878Y021315D01*
X012799Y021433D01*
X012702Y021538D01*
X012590Y021627D01*
X012466Y021698D01*
X012332Y021749D01*
X012193Y021779D01*
X012133Y021783D02*
X011967Y021783D01*
X011650Y021704D02*
X012450Y021704D01*
X012592Y021626D02*
X011508Y021626D01*
X011409Y021547D02*
X012691Y021547D01*
X012766Y021469D02*
X011334Y021469D01*
X011272Y021390D02*
X012828Y021390D01*
X012880Y021312D02*
X011220Y021312D01*
X011183Y021233D02*
X011965Y021233D01*
X012135Y021233D02*
X012917Y021233D01*
X012948Y021155D02*
X012478Y021155D01*
X012640Y021076D02*
X012971Y021076D01*
X012986Y020998D02*
X012761Y020998D01*
X012852Y020919D02*
X012996Y020919D01*
X012997Y020841D02*
X012928Y020841D01*
X011622Y021155D02*
X011152Y021155D01*
X011129Y021076D02*
X011460Y021076D01*
X011339Y020998D02*
X011114Y020998D01*
X011104Y020919D02*
X011248Y020919D01*
X011172Y020841D02*
X011103Y020841D01*
X011105Y017836D02*
X011215Y017709D01*
X011343Y017599D01*
X011484Y017508D01*
X011638Y017438D01*
X011799Y017391D01*
X011966Y017367D01*
X012134Y017367D01*
X012301Y017391D01*
X012462Y017438D01*
X012616Y017508D01*
X012757Y017599D01*
X012885Y017709D01*
X012995Y017836D01*
X012998Y017693D01*
X012979Y017552D01*
X012939Y017415D01*
X012878Y017285D01*
X012799Y017167D01*
X012702Y017062D01*
X012590Y016973D01*
X012466Y016902D01*
X012332Y016851D01*
X012193Y016821D01*
X012050Y016813D01*
X011907Y016821D01*
X011768Y016851D01*
X011634Y016902D01*
X011510Y016973D01*
X011398Y017062D01*
X011301Y017167D01*
X011222Y017285D01*
X011161Y017415D01*
X011121Y017552D01*
X011102Y017693D01*
X011105Y017836D01*
X011104Y017779D02*
X011155Y017779D01*
X011102Y017701D02*
X011225Y017701D01*
X011316Y017622D02*
X011111Y017622D01*
X011123Y017544D02*
X011429Y017544D01*
X011579Y017465D02*
X011146Y017465D01*
X011174Y017387D02*
X011828Y017387D01*
X012272Y017387D02*
X012926Y017387D01*
X012954Y017465D02*
X012521Y017465D01*
X012671Y017544D02*
X012977Y017544D01*
X012989Y017622D02*
X012784Y017622D01*
X012875Y017701D02*
X012998Y017701D01*
X012996Y017779D02*
X012945Y017779D01*
X012889Y017308D02*
X011211Y017308D01*
X011259Y017230D02*
X012841Y017230D01*
X012784Y017151D02*
X011316Y017151D01*
X011388Y017073D02*
X012712Y017073D01*
X012617Y016994D02*
X011483Y016994D01*
X011610Y016916D02*
X012490Y016916D01*
X012268Y016837D02*
X011832Y016837D01*
X011907Y016279D02*
X011768Y016249D01*
X011634Y016198D01*
X011510Y016127D01*
X011398Y016038D01*
X011301Y015933D01*
X011222Y015815D01*
X011161Y015685D01*
X011121Y015548D01*
X011102Y015407D01*
X011105Y015264D01*
X011215Y015391D01*
X011343Y015501D01*
X011484Y015592D01*
X011638Y015662D01*
X011799Y015709D01*
X011966Y015733D01*
X012134Y015733D01*
X012301Y015709D01*
X012462Y015662D01*
X012616Y015592D01*
X012757Y015501D01*
X012885Y015391D01*
X012995Y015264D01*
X012998Y015407D01*
X012979Y015548D01*
X012939Y015685D01*
X012878Y015815D01*
X012799Y015933D01*
X012702Y016038D01*
X012590Y016127D01*
X012466Y016198D01*
X012332Y016249D01*
X012193Y016279D01*
X012050Y016287D01*
X011907Y016279D01*
X011663Y016209D02*
X012437Y016209D01*
X012584Y016131D02*
X011516Y016131D01*
X011415Y016052D02*
X012685Y016052D01*
X012762Y015974D02*
X011338Y015974D01*
X011276Y015895D02*
X012824Y015895D01*
X012877Y015817D02*
X011223Y015817D01*
X011186Y015738D02*
X012914Y015738D01*
X012947Y015660D02*
X012468Y015660D01*
X012633Y015581D02*
X012970Y015581D01*
X012985Y015503D02*
X012755Y015503D01*
X012846Y015424D02*
X012996Y015424D01*
X012997Y015346D02*
X012924Y015346D01*
X012992Y015267D02*
X012995Y015267D01*
X011632Y015660D02*
X011153Y015660D01*
X011130Y015581D02*
X011467Y015581D01*
X011345Y015503D02*
X011115Y015503D01*
X011104Y015424D02*
X011254Y015424D01*
X011176Y015346D02*
X011103Y015346D01*
X011105Y015267D02*
X011108Y015267D01*
X011105Y012336D02*
X011215Y012209D01*
X011343Y012099D01*
X011484Y012008D01*
X011638Y011938D01*
X011799Y011891D01*
X011966Y011867D01*
X012134Y011867D01*
X012301Y011891D01*
X012462Y011938D01*
X012616Y012008D01*
X012757Y012099D01*
X012885Y012209D01*
X012995Y012336D01*
X012998Y012193D01*
X012979Y012052D01*
X012939Y011915D01*
X012878Y011785D01*
X012799Y011667D01*
X012702Y011562D01*
X012590Y011473D01*
X012466Y011402D01*
X012332Y011351D01*
X012193Y011321D01*
X012050Y011313D01*
X011907Y011321D01*
X011768Y011351D01*
X011634Y011402D01*
X011510Y011473D01*
X011398Y011562D01*
X011301Y011667D01*
X011222Y011785D01*
X011161Y011915D01*
X011121Y012052D01*
X011102Y012193D01*
X011105Y012336D01*
X011104Y012284D02*
X011150Y012284D01*
X011102Y012206D02*
X011220Y012206D01*
X011310Y012127D02*
X011111Y012127D01*
X011122Y012049D02*
X011421Y012049D01*
X011568Y011970D02*
X011145Y011970D01*
X011172Y011892D02*
X011796Y011892D01*
X011477Y011499D02*
X012623Y011499D01*
X012716Y011578D02*
X011384Y011578D01*
X011311Y011656D02*
X012789Y011656D01*
X012844Y011735D02*
X011256Y011735D01*
X011209Y011813D02*
X012891Y011813D01*
X012928Y011892D02*
X012304Y011892D01*
X012532Y011970D02*
X012955Y011970D01*
X012978Y012049D02*
X012679Y012049D01*
X012790Y012127D02*
X012989Y012127D01*
X012998Y012206D02*
X012880Y012206D01*
X012950Y012284D02*
X012996Y012284D01*
X012499Y011421D02*
X011601Y011421D01*
X011809Y011342D02*
X012291Y011342D01*
X012193Y010779D02*
X012050Y010787D01*
X011907Y010779D01*
X011768Y010749D01*
X011634Y010698D01*
X011510Y010627D01*
X011398Y010538D01*
X011301Y010433D01*
X011222Y010315D01*
X011161Y010185D01*
X011121Y010048D01*
X011102Y009907D01*
X011105Y009764D01*
X011215Y009891D01*
X011343Y010001D01*
X011484Y010092D01*
X011638Y010162D01*
X011799Y010209D01*
X011966Y010233D01*
X012134Y010233D01*
X012301Y010209D01*
X012462Y010162D01*
X012616Y010092D01*
X012757Y010001D01*
X012885Y009891D01*
X012995Y009764D01*
X012998Y009907D01*
X012979Y010048D01*
X012939Y010185D01*
X012878Y010315D01*
X012799Y010433D01*
X012702Y010538D01*
X012590Y010627D01*
X012466Y010698D01*
X012332Y010749D01*
X012193Y010779D01*
X012424Y010714D02*
X011676Y010714D01*
X011524Y010636D02*
X012576Y010636D01*
X012678Y010557D02*
X011422Y010557D01*
X011343Y010479D02*
X012757Y010479D01*
X012821Y010400D02*
X011279Y010400D01*
X011226Y010322D02*
X012874Y010322D01*
X012912Y010243D02*
X011188Y010243D01*
X011155Y010165D02*
X011647Y010165D01*
X011475Y010086D02*
X011132Y010086D01*
X011115Y010008D02*
X011353Y010008D01*
X011260Y009929D02*
X011105Y009929D01*
X011103Y009851D02*
X011180Y009851D01*
X011112Y009772D02*
X011105Y009772D01*
X012453Y010165D02*
X012945Y010165D01*
X012968Y010086D02*
X012625Y010086D01*
X012747Y010008D02*
X012985Y010008D01*
X012995Y009929D02*
X012840Y009929D01*
X012920Y009851D02*
X012997Y009851D01*
X012988Y009772D02*
X012995Y009772D01*
X012995Y006836D02*
X012885Y006709D01*
X012757Y006599D01*
X012616Y006508D01*
X012462Y006438D01*
X012301Y006391D01*
X012134Y006367D01*
X011966Y006367D01*
X011799Y006391D01*
X011638Y006438D01*
X011484Y006508D01*
X011343Y006599D01*
X011215Y006709D01*
X011105Y006836D01*
X011102Y006693D01*
X011121Y006552D01*
X011161Y006415D01*
X011222Y006285D01*
X011301Y006167D01*
X011398Y006062D01*
X011510Y005973D01*
X011634Y005902D01*
X011768Y005851D01*
X011907Y005821D01*
X012050Y005813D01*
X012193Y005821D01*
X012332Y005851D01*
X012466Y005902D01*
X012590Y005973D01*
X012702Y006062D01*
X012799Y006167D01*
X012878Y006285D01*
X012939Y006415D01*
X012979Y006552D01*
X012998Y006693D01*
X012995Y006836D01*
X012996Y006789D02*
X012954Y006789D01*
X012998Y006711D02*
X012886Y006711D01*
X012795Y006632D02*
X012990Y006632D01*
X012980Y006554D02*
X012686Y006554D01*
X012543Y006475D02*
X012957Y006475D01*
X012931Y006397D02*
X012321Y006397D01*
X012629Y006004D02*
X011471Y006004D01*
X011379Y006083D02*
X012721Y006083D01*
X012794Y006161D02*
X011306Y006161D01*
X011252Y006240D02*
X012848Y006240D01*
X012894Y006318D02*
X011206Y006318D01*
X011169Y006397D02*
X011779Y006397D01*
X011557Y006475D02*
X011143Y006475D01*
X011120Y006554D02*
X011414Y006554D01*
X011305Y006632D02*
X011110Y006632D01*
X011102Y006711D02*
X011214Y006711D01*
X011146Y006789D02*
X011104Y006789D01*
X011593Y005926D02*
X012507Y005926D01*
X012314Y005847D02*
X011786Y005847D01*
X011907Y005279D02*
X011768Y005249D01*
X011634Y005198D01*
X011510Y005127D01*
X011398Y005038D01*
X011301Y004933D01*
X011222Y004815D01*
X011161Y004685D01*
X011121Y004548D01*
X011102Y004407D01*
X011105Y004264D01*
X011215Y004391D01*
X011343Y004501D01*
X011484Y004592D01*
X011638Y004662D01*
X011799Y004709D01*
X011966Y004733D01*
X012134Y004733D01*
X012301Y004709D01*
X012462Y004662D01*
X012616Y004592D01*
X012757Y004501D01*
X012885Y004391D01*
X012995Y004264D01*
X012998Y004407D01*
X012979Y004548D01*
X012939Y004685D01*
X012878Y004815D01*
X012799Y004933D01*
X012702Y005038D01*
X012590Y005127D01*
X012466Y005198D01*
X012332Y005249D01*
X012193Y005279D01*
X012050Y005287D01*
X011907Y005279D01*
X011689Y005219D02*
X012411Y005219D01*
X012567Y005141D02*
X011533Y005141D01*
X011428Y005062D02*
X012672Y005062D01*
X012752Y004984D02*
X011348Y004984D01*
X011282Y004905D02*
X012818Y004905D01*
X012871Y004827D02*
X011229Y004827D01*
X011190Y004748D02*
X012910Y004748D01*
X012944Y004670D02*
X012436Y004670D01*
X012617Y004591D02*
X012967Y004591D01*
X012984Y004513D02*
X012739Y004513D01*
X012835Y004434D02*
X012994Y004434D01*
X012997Y004356D02*
X012915Y004356D01*
X012983Y004277D02*
X012995Y004277D01*
X011664Y004670D02*
X011156Y004670D01*
X011133Y004591D02*
X011483Y004591D01*
X011361Y004513D02*
X011116Y004513D01*
X011106Y004434D02*
X011265Y004434D01*
X011185Y004356D02*
X011103Y004356D01*
X011105Y004277D02*
X011117Y004277D01*
X011105Y001336D02*
X011215Y001209D01*
X011343Y001099D01*
X011484Y001008D01*
X011638Y000938D01*
X011799Y000891D01*
X011966Y000867D01*
X012134Y000867D01*
X012301Y000891D01*
X012462Y000938D01*
X012616Y001008D01*
X012757Y001099D01*
X012885Y001209D01*
X012995Y001336D01*
X012998Y001193D01*
X012979Y001052D01*
X012939Y000915D01*
X012878Y000785D01*
X012799Y000667D01*
X012702Y000562D01*
X012590Y000473D01*
X012466Y000402D01*
X012332Y000351D01*
X012193Y000321D01*
X012050Y000313D01*
X011907Y000321D01*
X011768Y000351D01*
X011634Y000402D01*
X011510Y000473D01*
X011398Y000562D01*
X011301Y000667D01*
X011222Y000785D01*
X011161Y000915D01*
X011121Y001052D01*
X011102Y001193D01*
X011105Y001336D01*
X011104Y001294D02*
X011142Y001294D01*
X011102Y001215D02*
X011210Y001215D01*
X011299Y001137D02*
X011109Y001137D01*
X011120Y001058D02*
X011406Y001058D01*
X011546Y000980D02*
X011142Y000980D01*
X011167Y000901D02*
X011762Y000901D01*
X011464Y000509D02*
X012636Y000509D01*
X012726Y000587D02*
X011374Y000587D01*
X011302Y000666D02*
X012798Y000666D01*
X012851Y000744D02*
X011249Y000744D01*
X011204Y000823D02*
X012896Y000823D01*
X012933Y000901D02*
X012338Y000901D01*
X012554Y000980D02*
X012958Y000980D01*
X012980Y001058D02*
X012694Y001058D01*
X012801Y001137D02*
X012991Y001137D01*
X012998Y001215D02*
X012890Y001215D01*
X012958Y001294D02*
X012996Y001294D01*
X012516Y000430D02*
X011584Y000430D01*
X011765Y000352D02*
X012335Y000352D01*
X008179Y001052D02*
X008198Y001193D01*
X008195Y001336D01*
X008085Y001209D01*
X007957Y001099D01*
X007816Y001008D01*
X007662Y000938D01*
X007501Y000891D01*
X007334Y000867D01*
X007166Y000867D01*
X006999Y000891D01*
X006838Y000938D01*
X006684Y001008D01*
X006543Y001099D01*
X006415Y001209D01*
X006305Y001336D01*
X006302Y001193D01*
X006321Y001052D01*
X006361Y000915D01*
X006422Y000785D01*
X006501Y000667D01*
X006598Y000562D01*
X006710Y000473D01*
X006834Y000402D01*
X006968Y000351D01*
X007107Y000321D01*
X007250Y000313D01*
X007393Y000321D01*
X007532Y000351D01*
X007666Y000402D01*
X007790Y000473D01*
X007902Y000562D01*
X007999Y000667D01*
X008078Y000785D01*
X008139Y000915D01*
X008179Y001052D01*
X008180Y001058D02*
X007894Y001058D01*
X008001Y001137D02*
X008191Y001137D01*
X008198Y001215D02*
X008090Y001215D01*
X008158Y001294D02*
X008196Y001294D01*
X008158Y000980D02*
X007754Y000980D01*
X007538Y000901D02*
X008133Y000901D01*
X008096Y000823D02*
X006404Y000823D01*
X006367Y000901D02*
X006962Y000901D01*
X006746Y000980D02*
X006342Y000980D01*
X006320Y001058D02*
X006606Y001058D01*
X006499Y001137D02*
X006309Y001137D01*
X006302Y001215D02*
X006410Y001215D01*
X006342Y001294D02*
X006304Y001294D01*
X006449Y000744D02*
X008051Y000744D01*
X007998Y000666D02*
X006502Y000666D01*
X006574Y000587D02*
X007926Y000587D01*
X007836Y000509D02*
X006664Y000509D01*
X006784Y000430D02*
X007716Y000430D01*
X007535Y000352D02*
X006965Y000352D01*
X006305Y004264D02*
X006415Y004391D01*
X006543Y004501D01*
X006684Y004592D01*
X006838Y004662D01*
X006999Y004709D01*
X007166Y004733D01*
X007334Y004733D01*
X007501Y004709D01*
X007662Y004662D01*
X007816Y004592D01*
X007957Y004501D01*
X008085Y004391D01*
X008195Y004264D01*
X008198Y004407D01*
X008179Y004548D01*
X008139Y004685D01*
X008078Y004815D01*
X007999Y004933D01*
X007902Y005038D01*
X007790Y005127D01*
X007666Y005198D01*
X007532Y005249D01*
X007393Y005279D01*
X007250Y005287D01*
X007107Y005279D01*
X006968Y005249D01*
X006834Y005198D01*
X006710Y005127D01*
X006598Y005038D01*
X006501Y004933D01*
X006422Y004815D01*
X006361Y004685D01*
X006321Y004548D01*
X006302Y004407D01*
X006305Y004264D01*
X006305Y004277D02*
X006317Y004277D01*
X006303Y004356D02*
X006385Y004356D01*
X006306Y004434D02*
X006465Y004434D01*
X006561Y004513D02*
X006316Y004513D01*
X006333Y004591D02*
X006683Y004591D01*
X006864Y004670D02*
X006356Y004670D01*
X006390Y004748D02*
X008110Y004748D01*
X008144Y004670D02*
X007636Y004670D01*
X007817Y004591D02*
X008167Y004591D01*
X008184Y004513D02*
X007939Y004513D01*
X008035Y004434D02*
X008194Y004434D01*
X008197Y004356D02*
X008115Y004356D01*
X008183Y004277D02*
X008195Y004277D01*
X008071Y004827D02*
X006429Y004827D01*
X006482Y004905D02*
X008018Y004905D01*
X007952Y004984D02*
X006548Y004984D01*
X006628Y005062D02*
X007872Y005062D01*
X007767Y005141D02*
X006733Y005141D01*
X006889Y005219D02*
X007611Y005219D01*
X007514Y005847D02*
X006986Y005847D01*
X006968Y005851D02*
X007107Y005821D01*
X007250Y005813D01*
X007393Y005821D01*
X007532Y005851D01*
X007666Y005902D01*
X007790Y005973D01*
X007902Y006062D01*
X007999Y006167D01*
X008078Y006285D01*
X008139Y006415D01*
X008179Y006552D01*
X008198Y006693D01*
X008195Y006836D01*
X008085Y006709D01*
X007957Y006599D01*
X007816Y006508D01*
X007662Y006438D01*
X007501Y006391D01*
X007334Y006367D01*
X007166Y006367D01*
X006999Y006391D01*
X006838Y006438D01*
X006684Y006508D01*
X006543Y006599D01*
X006415Y006709D01*
X006305Y006836D01*
X006302Y006693D01*
X006321Y006552D01*
X006361Y006415D01*
X006422Y006285D01*
X006501Y006167D01*
X006598Y006062D01*
X006710Y005973D01*
X006834Y005902D01*
X006968Y005851D01*
X006793Y005926D02*
X007707Y005926D01*
X007829Y006004D02*
X006671Y006004D01*
X006579Y006083D02*
X007921Y006083D01*
X007994Y006161D02*
X006506Y006161D01*
X006452Y006240D02*
X008048Y006240D01*
X008094Y006318D02*
X006406Y006318D01*
X006369Y006397D02*
X006979Y006397D01*
X006757Y006475D02*
X006343Y006475D01*
X006320Y006554D02*
X006614Y006554D01*
X006505Y006632D02*
X006310Y006632D01*
X006302Y006711D02*
X006414Y006711D01*
X006346Y006789D02*
X006304Y006789D01*
X007521Y006397D02*
X008131Y006397D01*
X008157Y006475D02*
X007743Y006475D01*
X007886Y006554D02*
X008180Y006554D01*
X008190Y006632D02*
X007995Y006632D01*
X008086Y006711D02*
X008198Y006711D01*
X008196Y006789D02*
X008154Y006789D01*
X008195Y009764D02*
X008085Y009891D01*
X007957Y010001D01*
X007816Y010092D01*
X007662Y010162D01*
X007501Y010209D01*
X007334Y010233D01*
X007166Y010233D01*
X006999Y010209D01*
X006838Y010162D01*
X006684Y010092D01*
X006543Y010001D01*
X006415Y009891D01*
X006305Y009764D01*
X006302Y009907D01*
X006321Y010048D01*
X006361Y010185D01*
X006422Y010315D01*
X006501Y010433D01*
X006598Y010538D01*
X006710Y010627D01*
X006834Y010698D01*
X006968Y010749D01*
X007107Y010779D01*
X007250Y010787D01*
X007393Y010779D01*
X007532Y010749D01*
X007666Y010698D01*
X007790Y010627D01*
X007902Y010538D01*
X007999Y010433D01*
X008078Y010315D01*
X008139Y010185D01*
X008179Y010048D01*
X008198Y009907D01*
X008195Y009764D01*
X008195Y009772D02*
X008188Y009772D01*
X008197Y009851D02*
X008120Y009851D01*
X008195Y009929D02*
X008040Y009929D01*
X007947Y010008D02*
X008185Y010008D01*
X008168Y010086D02*
X007825Y010086D01*
X007653Y010165D02*
X008145Y010165D01*
X008112Y010243D02*
X006388Y010243D01*
X006355Y010165D02*
X006847Y010165D01*
X006675Y010086D02*
X006332Y010086D01*
X006315Y010008D02*
X006553Y010008D01*
X006460Y009929D02*
X006305Y009929D01*
X006303Y009851D02*
X006380Y009851D01*
X006312Y009772D02*
X006305Y009772D01*
X006426Y010322D02*
X008074Y010322D01*
X008021Y010400D02*
X006479Y010400D01*
X006543Y010479D02*
X007957Y010479D01*
X007878Y010557D02*
X006622Y010557D01*
X006724Y010636D02*
X007776Y010636D01*
X007624Y010714D02*
X006876Y010714D01*
X007009Y011342D02*
X007491Y011342D01*
X007532Y011351D02*
X007666Y011402D01*
X007790Y011473D01*
X007902Y011562D01*
X007999Y011667D01*
X008078Y011785D01*
X008139Y011915D01*
X008179Y012052D01*
X008198Y012193D01*
X008195Y012336D01*
X008085Y012209D01*
X007957Y012099D01*
X007816Y012008D01*
X007662Y011938D01*
X007501Y011891D01*
X007334Y011867D01*
X007166Y011867D01*
X006999Y011891D01*
X006838Y011938D01*
X006684Y012008D01*
X006543Y012099D01*
X006415Y012209D01*
X006305Y012336D01*
X006302Y012193D01*
X006321Y012052D01*
X006361Y011915D01*
X006422Y011785D01*
X006501Y011667D01*
X006598Y011562D01*
X006710Y011473D01*
X006834Y011402D01*
X006968Y011351D01*
X007107Y011321D01*
X007250Y011313D01*
X007393Y011321D01*
X007532Y011351D01*
X007699Y011421D02*
X006801Y011421D01*
X006677Y011499D02*
X007823Y011499D01*
X007916Y011578D02*
X006584Y011578D01*
X006511Y011656D02*
X007989Y011656D01*
X008044Y011735D02*
X006456Y011735D01*
X006409Y011813D02*
X008091Y011813D01*
X008128Y011892D02*
X007504Y011892D01*
X007732Y011970D02*
X008155Y011970D01*
X008178Y012049D02*
X007879Y012049D01*
X007990Y012127D02*
X008189Y012127D01*
X008198Y012206D02*
X008080Y012206D01*
X008150Y012284D02*
X008196Y012284D01*
X006996Y011892D02*
X006372Y011892D01*
X006345Y011970D02*
X006768Y011970D01*
X006621Y012049D02*
X006322Y012049D01*
X006311Y012127D02*
X006510Y012127D01*
X006420Y012206D02*
X006302Y012206D01*
X006304Y012284D02*
X006350Y012284D01*
X006305Y015264D02*
X006415Y015391D01*
X006543Y015501D01*
X006684Y015592D01*
X006838Y015662D01*
X006999Y015709D01*
X007166Y015733D01*
X007334Y015733D01*
X007501Y015709D01*
X007662Y015662D01*
X007816Y015592D01*
X007957Y015501D01*
X008085Y015391D01*
X008195Y015264D01*
X008198Y015407D01*
X008179Y015548D01*
X008139Y015685D01*
X008078Y015815D01*
X007999Y015933D01*
X007902Y016038D01*
X007790Y016127D01*
X007666Y016198D01*
X007532Y016249D01*
X007393Y016279D01*
X007250Y016287D01*
X007107Y016279D01*
X006968Y016249D01*
X006834Y016198D01*
X006710Y016127D01*
X006598Y016038D01*
X006501Y015933D01*
X006422Y015815D01*
X006361Y015685D01*
X006321Y015548D01*
X006302Y015407D01*
X006305Y015264D01*
X006305Y015267D02*
X006308Y015267D01*
X006303Y015346D02*
X006376Y015346D01*
X006304Y015424D02*
X006454Y015424D01*
X006545Y015503D02*
X006315Y015503D01*
X006330Y015581D02*
X006667Y015581D01*
X006832Y015660D02*
X006353Y015660D01*
X006386Y015738D02*
X008114Y015738D01*
X008147Y015660D02*
X007668Y015660D01*
X007833Y015581D02*
X008170Y015581D01*
X008185Y015503D02*
X007955Y015503D01*
X008046Y015424D02*
X008196Y015424D01*
X008197Y015346D02*
X008124Y015346D01*
X008192Y015267D02*
X008195Y015267D01*
X008077Y015817D02*
X006423Y015817D01*
X006476Y015895D02*
X008024Y015895D01*
X007962Y015974D02*
X006538Y015974D01*
X006615Y016052D02*
X007885Y016052D01*
X007784Y016131D02*
X006716Y016131D01*
X006863Y016209D02*
X007637Y016209D01*
X007532Y016851D02*
X007393Y016821D01*
X007250Y016813D01*
X007107Y016821D01*
X006968Y016851D01*
X006834Y016902D01*
X006710Y016973D01*
X006598Y017062D01*
X006501Y017167D01*
X006422Y017285D01*
X006361Y017415D01*
X006321Y017552D01*
X006302Y017693D01*
X006305Y017836D01*
X006415Y017709D01*
X006543Y017599D01*
X006684Y017508D01*
X006838Y017438D01*
X006999Y017391D01*
X007166Y017367D01*
X007334Y017367D01*
X007501Y017391D01*
X007662Y017438D01*
X007816Y017508D01*
X007957Y017599D01*
X008085Y017709D01*
X008195Y017836D01*
X008198Y017693D01*
X008179Y017552D01*
X008139Y017415D01*
X008078Y017285D01*
X007999Y017167D01*
X007902Y017062D01*
X007790Y016973D01*
X007666Y016902D01*
X007532Y016851D01*
X007468Y016837D02*
X007032Y016837D01*
X006810Y016916D02*
X007690Y016916D01*
X007817Y016994D02*
X006683Y016994D01*
X006588Y017073D02*
X007912Y017073D01*
X007984Y017151D02*
X006516Y017151D01*
X006459Y017230D02*
X008041Y017230D01*
X008089Y017308D02*
X006411Y017308D01*
X006374Y017387D02*
X007028Y017387D01*
X006779Y017465D02*
X006346Y017465D01*
X006323Y017544D02*
X006629Y017544D01*
X006516Y017622D02*
X006311Y017622D01*
X006302Y017701D02*
X006425Y017701D01*
X006355Y017779D02*
X006304Y017779D01*
X007472Y017387D02*
X008126Y017387D01*
X008154Y017465D02*
X007721Y017465D01*
X007871Y017544D02*
X008177Y017544D01*
X008189Y017622D02*
X007984Y017622D01*
X008075Y017701D02*
X008198Y017701D01*
X008196Y017779D02*
X008145Y017779D01*
X008195Y020764D02*
X008085Y020891D01*
X007957Y021001D01*
X007816Y021092D01*
X007662Y021162D01*
X007501Y021209D01*
X007334Y021233D01*
X007166Y021233D01*
X006999Y021209D01*
X006838Y021162D01*
X006684Y021092D01*
X006543Y021001D01*
X006415Y020891D01*
X006305Y020764D01*
X006302Y020907D01*
X006321Y021048D01*
X006361Y021185D01*
X006422Y021315D01*
X006501Y021433D01*
X006598Y021538D01*
X006710Y021627D01*
X006834Y021698D01*
X006968Y021749D01*
X007107Y021779D01*
X007250Y021787D01*
X007393Y021779D01*
X007532Y021749D01*
X007666Y021698D01*
X007790Y021627D01*
X007902Y021538D01*
X007999Y021433D01*
X008078Y021315D01*
X008139Y021185D01*
X008179Y021048D01*
X008198Y020907D01*
X008195Y020764D01*
X008197Y020841D02*
X008128Y020841D01*
X008196Y020919D02*
X008052Y020919D01*
X007961Y020998D02*
X008186Y020998D01*
X008171Y021076D02*
X007840Y021076D01*
X007678Y021155D02*
X008148Y021155D01*
X008117Y021233D02*
X007335Y021233D01*
X007165Y021233D02*
X006383Y021233D01*
X006352Y021155D02*
X006822Y021155D01*
X006660Y021076D02*
X006329Y021076D01*
X006314Y020998D02*
X006539Y020998D01*
X006448Y020919D02*
X006304Y020919D01*
X006303Y020841D02*
X006372Y020841D01*
X006420Y021312D02*
X008080Y021312D01*
X008028Y021390D02*
X006472Y021390D01*
X006534Y021469D02*
X007966Y021469D01*
X007891Y021547D02*
X006609Y021547D01*
X006708Y021626D02*
X007792Y021626D01*
X007650Y021704D02*
X006850Y021704D01*
X007167Y021783D02*
X007333Y021783D01*
X007250Y022313D02*
X007107Y022321D01*
X006968Y022351D01*
X006834Y022402D01*
X006710Y022473D01*
X006598Y022562D01*
X006501Y022667D01*
X006422Y022785D01*
X006361Y022915D01*
X006321Y023052D01*
X006302Y023193D01*
X006305Y023336D01*
X006415Y023209D01*
X006543Y023099D01*
X006684Y023008D01*
X006838Y022938D01*
X006999Y022891D01*
X007166Y022867D01*
X007334Y022867D01*
X007501Y022891D01*
X007662Y022938D01*
X007816Y023008D01*
X007957Y023099D01*
X008085Y023209D01*
X008195Y023336D01*
X008198Y023193D01*
X008179Y023052D01*
X008139Y022915D01*
X008078Y022785D01*
X007999Y022667D01*
X007902Y022562D01*
X007790Y022473D01*
X007666Y022402D01*
X007532Y022351D01*
X007393Y022321D01*
X007250Y022313D01*
X007055Y022332D02*
X007445Y022332D01*
X007681Y022411D02*
X006819Y022411D01*
X006689Y022489D02*
X007811Y022489D01*
X007907Y022568D02*
X006593Y022568D01*
X006520Y022646D02*
X007980Y022646D01*
X008038Y022725D02*
X006462Y022725D01*
X006413Y022803D02*
X008087Y022803D01*
X008124Y022882D02*
X007437Y022882D01*
X007711Y022960D02*
X008152Y022960D01*
X008175Y023039D02*
X007863Y023039D01*
X007978Y023117D02*
X008188Y023117D01*
X008198Y023196D02*
X008069Y023196D01*
X008141Y023274D02*
X008196Y023274D01*
X007063Y022882D02*
X006376Y022882D01*
X006348Y022960D02*
X006789Y022960D01*
X006637Y023039D02*
X006325Y023039D01*
X006312Y023117D02*
X006522Y023117D01*
X006431Y023196D02*
X006302Y023196D01*
X006304Y023274D02*
X006359Y023274D01*
X006305Y026264D02*
X006415Y026391D01*
X006543Y026501D01*
X006684Y026592D01*
X006838Y026662D01*
X006999Y026709D01*
X007166Y026733D01*
X007334Y026733D01*
X007501Y026709D01*
X007662Y026662D01*
X007816Y026592D01*
X007957Y026501D01*
X008085Y026391D01*
X008195Y026264D01*
X008198Y026407D01*
X008179Y026548D01*
X008139Y026685D01*
X008078Y026815D01*
X007999Y026933D01*
X007902Y027038D01*
X007790Y027127D01*
X007666Y027198D01*
X007532Y027249D01*
X007393Y027279D01*
X007250Y027287D01*
X007107Y027279D01*
X006968Y027249D01*
X006834Y027198D01*
X006710Y027127D01*
X006598Y027038D01*
X006501Y026933D01*
X006422Y026815D01*
X006361Y026685D01*
X006321Y026548D01*
X006302Y026407D01*
X006305Y026264D01*
X006304Y026336D02*
X006367Y026336D01*
X006303Y026414D02*
X006442Y026414D01*
X006533Y026493D02*
X006313Y026493D01*
X006327Y026571D02*
X006652Y026571D01*
X006811Y026650D02*
X006350Y026650D01*
X006381Y026728D02*
X007130Y026728D01*
X007370Y026728D02*
X008119Y026728D01*
X008150Y026650D02*
X007689Y026650D01*
X007848Y026571D02*
X008173Y026571D01*
X008187Y026493D02*
X007967Y026493D01*
X008058Y026414D02*
X008197Y026414D01*
X008196Y026336D02*
X008133Y026336D01*
X008082Y026807D02*
X006418Y026807D01*
X006469Y026885D02*
X008031Y026885D01*
X007971Y026964D02*
X006529Y026964D01*
X006603Y027042D02*
X007897Y027042D01*
X007798Y027121D02*
X006702Y027121D01*
X006837Y027199D02*
X007663Y027199D01*
X007400Y027278D02*
X007100Y027278D01*
X007107Y027821D02*
X006968Y027851D01*
X006834Y027902D01*
X006710Y027973D01*
X006598Y028062D01*
X006501Y028167D01*
X006422Y028285D01*
X006361Y028415D01*
X006321Y028552D01*
X006302Y028693D01*
X006305Y028836D01*
X006415Y028709D01*
X006543Y028599D01*
X006684Y028508D01*
X006838Y028438D01*
X006999Y028391D01*
X007166Y028367D01*
X007334Y028367D01*
X007501Y028391D01*
X007662Y028438D01*
X007816Y028508D01*
X007957Y028599D01*
X008085Y028709D01*
X008195Y028836D01*
X008198Y028693D01*
X008179Y028552D01*
X008139Y028415D01*
X008078Y028285D01*
X007999Y028167D01*
X007902Y028062D01*
X007790Y027973D01*
X007666Y027902D01*
X007532Y027851D01*
X007393Y027821D01*
X007250Y027813D01*
X007107Y027821D01*
X007078Y027827D02*
X007422Y027827D01*
X007672Y027906D02*
X006828Y027906D01*
X006696Y027984D02*
X007804Y027984D01*
X007903Y028063D02*
X006597Y028063D01*
X006525Y028141D02*
X007975Y028141D01*
X008034Y028220D02*
X006466Y028220D01*
X006416Y028298D02*
X008084Y028298D01*
X008121Y028377D02*
X007402Y028377D01*
X007098Y028377D02*
X006379Y028377D01*
X006349Y028455D02*
X006800Y028455D01*
X006645Y028534D02*
X006326Y028534D01*
X006313Y028612D02*
X006528Y028612D01*
X006437Y028691D02*
X006302Y028691D01*
X006304Y028769D02*
X006363Y028769D01*
X007700Y028455D02*
X008151Y028455D01*
X008174Y028534D02*
X007855Y028534D01*
X007972Y028612D02*
X008187Y028612D01*
X008198Y028691D02*
X008063Y028691D01*
X008137Y028769D02*
X008196Y028769D01*
X008195Y031764D02*
X008085Y031891D01*
X007957Y032001D01*
X007816Y032092D01*
X007662Y032162D01*
X007501Y032209D01*
X007334Y032233D01*
X007166Y032233D01*
X006999Y032209D01*
X006838Y032162D01*
X006684Y032092D01*
X006543Y032001D01*
X006415Y031891D01*
X006305Y031764D01*
X006302Y031907D01*
X006321Y032048D01*
X006361Y032185D01*
X006422Y032315D01*
X006501Y032433D01*
X006598Y032538D01*
X006710Y032627D01*
X006834Y032698D01*
X006968Y032749D01*
X007107Y032779D01*
X007250Y032787D01*
X007393Y032779D01*
X007532Y032749D01*
X007666Y032698D01*
X007790Y032627D01*
X007902Y032538D01*
X007999Y032433D01*
X008078Y032315D01*
X008139Y032185D01*
X008179Y032048D01*
X008198Y031907D01*
X008195Y031764D01*
X008196Y031831D02*
X008137Y031831D01*
X008198Y031909D02*
X008064Y031909D01*
X007973Y031988D02*
X008187Y031988D01*
X008174Y032066D02*
X007856Y032066D01*
X007700Y032145D02*
X008151Y032145D01*
X008121Y032223D02*
X007405Y032223D01*
X007095Y032223D02*
X006379Y032223D01*
X006349Y032145D02*
X006800Y032145D01*
X006644Y032066D02*
X006326Y032066D01*
X006313Y031988D02*
X006527Y031988D01*
X006436Y031909D02*
X006302Y031909D01*
X006304Y031831D02*
X006363Y031831D01*
X006415Y032302D02*
X008085Y032302D01*
X008035Y032380D02*
X006465Y032380D01*
X006525Y032459D02*
X007975Y032459D01*
X007903Y032537D02*
X006597Y032537D01*
X006695Y032616D02*
X007805Y032616D01*
X007673Y032694D02*
X006827Y032694D01*
X007077Y032773D02*
X007423Y032773D01*
X007393Y033321D02*
X007532Y033351D01*
X007666Y033402D01*
X007790Y033473D01*
X007902Y033562D01*
X007999Y033667D01*
X008078Y033785D01*
X008139Y033915D01*
X008179Y034052D01*
X008198Y034193D01*
X008195Y034336D01*
X008085Y034209D01*
X007957Y034099D01*
X007816Y034008D01*
X007662Y033938D01*
X007501Y033891D01*
X007334Y033867D01*
X007166Y033867D01*
X006999Y033891D01*
X006838Y033938D01*
X006684Y034008D01*
X006543Y034099D01*
X006415Y034209D01*
X006305Y034336D01*
X006302Y034193D01*
X006321Y034052D01*
X006361Y033915D01*
X006422Y033785D01*
X006501Y033667D01*
X006598Y033562D01*
X006710Y033473D01*
X006834Y033402D01*
X006968Y033351D01*
X007107Y033321D01*
X007250Y033313D01*
X007393Y033321D01*
X007398Y033322D02*
X007102Y033322D01*
X006837Y033401D02*
X007663Y033401D01*
X007798Y033479D02*
X006702Y033479D01*
X006603Y033558D02*
X007897Y033558D01*
X007971Y033636D02*
X006529Y033636D01*
X006469Y033715D02*
X008031Y033715D01*
X008082Y033793D02*
X006418Y033793D01*
X006381Y033872D02*
X007132Y033872D01*
X007368Y033872D02*
X008119Y033872D01*
X008150Y033950D02*
X007689Y033950D01*
X007848Y034029D02*
X008173Y034029D01*
X008187Y034107D02*
X007967Y034107D01*
X008057Y034186D02*
X008197Y034186D01*
X008196Y034264D02*
X008132Y034264D01*
X006811Y033950D02*
X006350Y033950D01*
X006327Y034029D02*
X006652Y034029D01*
X006533Y034107D02*
X006313Y034107D01*
X006303Y034186D02*
X006443Y034186D01*
X006368Y034264D02*
X006304Y034264D01*
X006305Y037264D02*
X006415Y037391D01*
X006543Y037501D01*
X006684Y037592D01*
X006838Y037662D01*
X006999Y037709D01*
X007166Y037733D01*
X007334Y037733D01*
X007501Y037709D01*
X007662Y037662D01*
X007816Y037592D01*
X007957Y037501D01*
X008085Y037391D01*
X008195Y037264D01*
X008198Y037407D01*
X008179Y037548D01*
X008139Y037685D01*
X008078Y037815D01*
X007999Y037933D01*
X007902Y038038D01*
X007790Y038127D01*
X007666Y038198D01*
X007532Y038249D01*
X007393Y038279D01*
X007250Y038287D01*
X007107Y038279D01*
X006968Y038249D01*
X006834Y038198D01*
X006710Y038127D01*
X006598Y038038D01*
X006501Y037933D01*
X006422Y037815D01*
X006361Y037685D01*
X006321Y037548D01*
X006302Y037407D01*
X006305Y037264D01*
X006304Y037326D02*
X006359Y037326D01*
X006302Y037404D02*
X006431Y037404D01*
X006521Y037483D02*
X006312Y037483D01*
X006324Y037561D02*
X006636Y037561D01*
X006789Y037640D02*
X006347Y037640D01*
X006376Y037718D02*
X007061Y037718D01*
X007439Y037718D02*
X008124Y037718D01*
X008153Y037640D02*
X007711Y037640D01*
X007864Y037561D02*
X008176Y037561D01*
X008188Y037483D02*
X007979Y037483D01*
X008069Y037404D02*
X008198Y037404D01*
X008196Y037326D02*
X008141Y037326D01*
X008087Y037797D02*
X006413Y037797D01*
X006462Y037875D02*
X008038Y037875D01*
X007980Y037954D02*
X006520Y037954D01*
X006592Y038032D02*
X007908Y038032D01*
X007811Y038111D02*
X006689Y038111D01*
X006818Y038189D02*
X007682Y038189D01*
X007446Y038268D02*
X007054Y038268D01*
X003379Y037548D02*
X003339Y037685D01*
X003278Y037815D01*
X003199Y037933D01*
X003102Y038038D01*
X002990Y038127D01*
X002866Y038198D01*
X002732Y038249D01*
X002593Y038279D01*
X002450Y038287D01*
X002307Y038279D01*
X002168Y038249D01*
X002034Y038198D01*
X001910Y038127D01*
X001798Y038038D01*
X001701Y037933D01*
X001622Y037815D01*
X001561Y037685D01*
X001521Y037548D01*
X001502Y037407D01*
X001505Y037264D01*
X001615Y037391D01*
X001743Y037501D01*
X001884Y037592D01*
X002038Y037662D01*
X002199Y037709D01*
X002366Y037733D01*
X002534Y037733D01*
X002701Y037709D01*
X002862Y037662D01*
X003016Y037592D01*
X003157Y037501D01*
X003285Y037391D01*
X003395Y037264D01*
X003398Y037407D01*
X003379Y037548D01*
X003376Y037561D02*
X003064Y037561D01*
X003179Y037483D02*
X003388Y037483D01*
X003398Y037404D02*
X003269Y037404D01*
X003341Y037326D02*
X003396Y037326D01*
X003353Y037640D02*
X002911Y037640D01*
X002639Y037718D02*
X003324Y037718D01*
X003287Y037797D02*
X001613Y037797D01*
X001576Y037718D02*
X002261Y037718D01*
X001989Y037640D02*
X001547Y037640D01*
X001524Y037561D02*
X001836Y037561D01*
X001721Y037483D02*
X001512Y037483D01*
X001502Y037404D02*
X001631Y037404D01*
X001559Y037326D02*
X001504Y037326D01*
X001662Y037875D02*
X003238Y037875D01*
X003180Y037954D02*
X001720Y037954D01*
X001792Y038032D02*
X003108Y038032D01*
X003011Y038111D02*
X001889Y038111D01*
X002018Y038189D02*
X002882Y038189D01*
X002646Y038268D02*
X002254Y038268D01*
X001505Y034336D02*
X001615Y034209D01*
X001743Y034099D01*
X001884Y034008D01*
X002038Y033938D01*
X002199Y033891D01*
X002366Y033867D01*
X002534Y033867D01*
X002701Y033891D01*
X002862Y033938D01*
X003016Y034008D01*
X003157Y034099D01*
X003285Y034209D01*
X003395Y034336D01*
X003398Y034193D01*
X003379Y034052D01*
X003339Y033915D01*
X003278Y033785D01*
X003199Y033667D01*
X003102Y033562D01*
X002990Y033473D01*
X002866Y033402D01*
X002732Y033351D01*
X002593Y033321D01*
X002450Y033313D01*
X002307Y033321D01*
X002168Y033351D01*
X002034Y033402D01*
X001910Y033473D01*
X001798Y033562D01*
X001701Y033667D01*
X001622Y033785D01*
X001561Y033915D01*
X001521Y034052D01*
X001502Y034193D01*
X001505Y034336D01*
X001504Y034264D02*
X001568Y034264D01*
X001503Y034186D02*
X001643Y034186D01*
X001733Y034107D02*
X001513Y034107D01*
X001527Y034029D02*
X001852Y034029D01*
X002011Y033950D02*
X001550Y033950D01*
X001581Y033872D02*
X002332Y033872D01*
X002568Y033872D02*
X003319Y033872D01*
X003350Y033950D02*
X002889Y033950D01*
X003048Y034029D02*
X003373Y034029D01*
X003387Y034107D02*
X003167Y034107D01*
X003257Y034186D02*
X003397Y034186D01*
X003396Y034264D02*
X003332Y034264D01*
X003282Y033793D02*
X001618Y033793D01*
X001669Y033715D02*
X003231Y033715D01*
X003171Y033636D02*
X001729Y033636D01*
X001803Y033558D02*
X003097Y033558D01*
X002998Y033479D02*
X001902Y033479D01*
X002037Y033401D02*
X002863Y033401D01*
X002598Y033322D02*
X002302Y033322D01*
X002307Y032779D02*
X002168Y032749D01*
X002034Y032698D01*
X001910Y032627D01*
X001798Y032538D01*
X001701Y032433D01*
X001622Y032315D01*
X001561Y032185D01*
X001521Y032048D01*
X001502Y031907D01*
X001505Y031764D01*
X001615Y031891D01*
X001743Y032001D01*
X001884Y032092D01*
X002038Y032162D01*
X002199Y032209D01*
X002366Y032233D01*
X002534Y032233D01*
X002701Y032209D01*
X002862Y032162D01*
X003016Y032092D01*
X003157Y032001D01*
X003285Y031891D01*
X003395Y031764D01*
X003398Y031907D01*
X003379Y032048D01*
X003339Y032185D01*
X003278Y032315D01*
X003199Y032433D01*
X003102Y032538D01*
X002990Y032627D01*
X002866Y032698D01*
X002732Y032749D01*
X002593Y032779D01*
X002450Y032787D01*
X002307Y032779D01*
X002277Y032773D02*
X002623Y032773D01*
X002873Y032694D02*
X002027Y032694D01*
X001895Y032616D02*
X003005Y032616D01*
X003103Y032537D02*
X001797Y032537D01*
X001725Y032459D02*
X003175Y032459D01*
X003235Y032380D02*
X001665Y032380D01*
X001615Y032302D02*
X003285Y032302D01*
X003321Y032223D02*
X002605Y032223D01*
X002295Y032223D02*
X001579Y032223D01*
X001549Y032145D02*
X002000Y032145D01*
X001844Y032066D02*
X001526Y032066D01*
X001513Y031988D02*
X001727Y031988D01*
X001636Y031909D02*
X001502Y031909D01*
X001504Y031831D02*
X001563Y031831D01*
X002900Y032145D02*
X003351Y032145D01*
X003374Y032066D02*
X003056Y032066D01*
X003173Y031988D02*
X003387Y031988D01*
X003398Y031909D02*
X003264Y031909D01*
X003337Y031831D02*
X003396Y031831D01*
X003395Y028836D02*
X003285Y028709D01*
X003157Y028599D01*
X003016Y028508D01*
X002862Y028438D01*
X002701Y028391D01*
X002534Y028367D01*
X002366Y028367D01*
X002199Y028391D01*
X002038Y028438D01*
X001884Y028508D01*
X001743Y028599D01*
X001615Y028709D01*
X001505Y028836D01*
X001502Y028693D01*
X001521Y028552D01*
X001561Y028415D01*
X001622Y028285D01*
X001701Y028167D01*
X001798Y028062D01*
X001910Y027973D01*
X002034Y027902D01*
X002168Y027851D01*
X002307Y027821D01*
X002450Y027813D01*
X002593Y027821D01*
X002732Y027851D01*
X002866Y027902D01*
X002990Y027973D01*
X003102Y028062D01*
X003199Y028167D01*
X003278Y028285D01*
X003339Y028415D01*
X003379Y028552D01*
X003398Y028693D01*
X003395Y028836D01*
X003396Y028769D02*
X003337Y028769D01*
X003398Y028691D02*
X003263Y028691D01*
X003172Y028612D02*
X003387Y028612D01*
X003374Y028534D02*
X003055Y028534D01*
X002900Y028455D02*
X003351Y028455D01*
X003321Y028377D02*
X002602Y028377D01*
X002298Y028377D02*
X001579Y028377D01*
X001549Y028455D02*
X002000Y028455D01*
X001845Y028534D02*
X001526Y028534D01*
X001513Y028612D02*
X001728Y028612D01*
X001637Y028691D02*
X001502Y028691D01*
X001504Y028769D02*
X001563Y028769D01*
X001616Y028298D02*
X003284Y028298D01*
X003234Y028220D02*
X001666Y028220D01*
X001725Y028141D02*
X003175Y028141D01*
X003103Y028063D02*
X001797Y028063D01*
X001896Y027984D02*
X003004Y027984D01*
X002872Y027906D02*
X002028Y027906D01*
X002278Y027827D02*
X002622Y027827D01*
X002593Y027279D02*
X002450Y027287D01*
X002307Y027279D01*
X002168Y027249D01*
X002034Y027198D01*
X001910Y027127D01*
X001798Y027038D01*
X001701Y026933D01*
X001622Y026815D01*
X001561Y026685D01*
X001521Y026548D01*
X001502Y026407D01*
X001505Y026264D01*
X001615Y026391D01*
X001743Y026501D01*
X001884Y026592D01*
X002038Y026662D01*
X002199Y026709D01*
X002366Y026733D01*
X002534Y026733D01*
X002701Y026709D01*
X002862Y026662D01*
X003016Y026592D01*
X003157Y026501D01*
X003285Y026391D01*
X003395Y026264D01*
X003398Y026407D01*
X003379Y026548D01*
X003339Y026685D01*
X003278Y026815D01*
X003199Y026933D01*
X003102Y027038D01*
X002990Y027127D01*
X002866Y027198D01*
X002732Y027249D01*
X002593Y027279D01*
X002600Y027278D02*
X002300Y027278D01*
X002037Y027199D02*
X002863Y027199D01*
X002998Y027121D02*
X001902Y027121D01*
X001803Y027042D02*
X003097Y027042D01*
X003171Y026964D02*
X001729Y026964D01*
X001669Y026885D02*
X003231Y026885D01*
X003282Y026807D02*
X001618Y026807D01*
X001581Y026728D02*
X002330Y026728D01*
X002570Y026728D02*
X003319Y026728D01*
X003350Y026650D02*
X002889Y026650D01*
X003048Y026571D02*
X003373Y026571D01*
X003387Y026493D02*
X003167Y026493D01*
X003258Y026414D02*
X003397Y026414D01*
X003396Y026336D02*
X003333Y026336D01*
X002011Y026650D02*
X001550Y026650D01*
X001527Y026571D02*
X001852Y026571D01*
X001733Y026493D02*
X001513Y026493D01*
X001503Y026414D02*
X001642Y026414D01*
X001567Y026336D02*
X001504Y026336D01*
X001505Y023336D02*
X001615Y023209D01*
X001743Y023099D01*
X001884Y023008D01*
X002038Y022938D01*
X002199Y022891D01*
X002366Y022867D01*
X002534Y022867D01*
X002701Y022891D01*
X002862Y022938D01*
X003016Y023008D01*
X003157Y023099D01*
X003285Y023209D01*
X003395Y023336D01*
X003398Y023193D01*
X003379Y023052D01*
X003339Y022915D01*
X003278Y022785D01*
X003199Y022667D01*
X003102Y022562D01*
X002990Y022473D01*
X002866Y022402D01*
X002732Y022351D01*
X002593Y022321D01*
X002450Y022313D01*
X002307Y022321D01*
X002168Y022351D01*
X002034Y022402D01*
X001910Y022473D01*
X001798Y022562D01*
X001701Y022667D01*
X001622Y022785D01*
X001561Y022915D01*
X001521Y023052D01*
X001502Y023193D01*
X001505Y023336D01*
X001504Y023274D02*
X001559Y023274D01*
X001502Y023196D02*
X001631Y023196D01*
X001722Y023117D02*
X001512Y023117D01*
X001525Y023039D02*
X001837Y023039D01*
X001989Y022960D02*
X001548Y022960D01*
X001576Y022882D02*
X002263Y022882D01*
X002637Y022882D02*
X003324Y022882D01*
X003352Y022960D02*
X002911Y022960D01*
X003063Y023039D02*
X003375Y023039D01*
X003388Y023117D02*
X003178Y023117D01*
X003269Y023196D02*
X003398Y023196D01*
X003396Y023274D02*
X003341Y023274D01*
X003287Y022803D02*
X001613Y022803D01*
X001662Y022725D02*
X003238Y022725D01*
X003180Y022646D02*
X001720Y022646D01*
X001793Y022568D02*
X003107Y022568D01*
X003011Y022489D02*
X001889Y022489D01*
X002019Y022411D02*
X002881Y022411D01*
X002645Y022332D02*
X002255Y022332D01*
X002307Y021779D02*
X002168Y021749D01*
X002034Y021698D01*
X001910Y021627D01*
X001798Y021538D01*
X001701Y021433D01*
X001622Y021315D01*
X001561Y021185D01*
X001521Y021048D01*
X001502Y020907D01*
X001505Y020764D01*
X001615Y020891D01*
X001743Y021001D01*
X001884Y021092D01*
X002038Y021162D01*
X002199Y021209D01*
X002366Y021233D01*
X002534Y021233D01*
X002701Y021209D01*
X002862Y021162D01*
X003016Y021092D01*
X003157Y021001D01*
X003285Y020891D01*
X003395Y020764D01*
X003398Y020907D01*
X003379Y021048D01*
X003339Y021185D01*
X003278Y021315D01*
X003199Y021433D01*
X003102Y021538D01*
X002990Y021627D01*
X002866Y021698D01*
X002732Y021749D01*
X002593Y021779D01*
X002450Y021787D01*
X002307Y021779D01*
X002367Y021783D02*
X002533Y021783D01*
X002850Y021704D02*
X002050Y021704D01*
X001908Y021626D02*
X002992Y021626D01*
X003091Y021547D02*
X001809Y021547D01*
X001734Y021469D02*
X003166Y021469D01*
X003228Y021390D02*
X001672Y021390D01*
X001620Y021312D02*
X003280Y021312D01*
X003317Y021233D02*
X002535Y021233D01*
X002365Y021233D02*
X001583Y021233D01*
X001552Y021155D02*
X002022Y021155D01*
X001860Y021076D02*
X001529Y021076D01*
X001514Y020998D02*
X001739Y020998D01*
X001648Y020919D02*
X001504Y020919D01*
X001503Y020841D02*
X001572Y020841D01*
X002878Y021155D02*
X003348Y021155D01*
X003371Y021076D02*
X003040Y021076D01*
X003161Y020998D02*
X003386Y020998D01*
X003396Y020919D02*
X003252Y020919D01*
X003328Y020841D02*
X003397Y020841D01*
X003395Y017836D02*
X003285Y017709D01*
X003157Y017599D01*
X003016Y017508D01*
X002862Y017438D01*
X002701Y017391D01*
X002534Y017367D01*
X002366Y017367D01*
X002199Y017391D01*
X002038Y017438D01*
X001884Y017508D01*
X001743Y017599D01*
X001615Y017709D01*
X001505Y017836D01*
X001502Y017693D01*
X001521Y017552D01*
X001561Y017415D01*
X001622Y017285D01*
X001701Y017167D01*
X001798Y017062D01*
X001910Y016973D01*
X002034Y016902D01*
X002168Y016851D01*
X002307Y016821D01*
X002450Y016813D01*
X002593Y016821D01*
X002732Y016851D01*
X002866Y016902D01*
X002990Y016973D01*
X003102Y017062D01*
X003199Y017167D01*
X003278Y017285D01*
X003339Y017415D01*
X003379Y017552D01*
X003398Y017693D01*
X003395Y017836D01*
X003396Y017779D02*
X003345Y017779D01*
X003398Y017701D02*
X003275Y017701D01*
X003184Y017622D02*
X003389Y017622D01*
X003377Y017544D02*
X003071Y017544D01*
X002921Y017465D02*
X003354Y017465D01*
X003326Y017387D02*
X002672Y017387D01*
X003017Y016994D02*
X001883Y016994D01*
X001788Y017073D02*
X003112Y017073D01*
X003184Y017151D02*
X001716Y017151D01*
X001659Y017230D02*
X003241Y017230D01*
X003289Y017308D02*
X001611Y017308D01*
X001574Y017387D02*
X002228Y017387D01*
X001979Y017465D02*
X001546Y017465D01*
X001523Y017544D02*
X001829Y017544D01*
X001716Y017622D02*
X001511Y017622D01*
X001502Y017701D02*
X001625Y017701D01*
X001555Y017779D02*
X001504Y017779D01*
X002010Y016916D02*
X002890Y016916D01*
X002668Y016837D02*
X002232Y016837D01*
X002307Y016279D02*
X002168Y016249D01*
X002034Y016198D01*
X001910Y016127D01*
X001798Y016038D01*
X001701Y015933D01*
X001622Y015815D01*
X001561Y015685D01*
X001521Y015548D01*
X001502Y015407D01*
X001505Y015264D01*
X001615Y015391D01*
X001743Y015501D01*
X001884Y015592D01*
X002038Y015662D01*
X002199Y015709D01*
X002366Y015733D01*
X002534Y015733D01*
X002701Y015709D01*
X002862Y015662D01*
X003016Y015592D01*
X003157Y015501D01*
X003285Y015391D01*
X003395Y015264D01*
X003398Y015407D01*
X003379Y015548D01*
X003339Y015685D01*
X003278Y015815D01*
X003199Y015933D01*
X003102Y016038D01*
X002990Y016127D01*
X002866Y016198D01*
X002732Y016249D01*
X002593Y016279D01*
X002450Y016287D01*
X002307Y016279D01*
X002063Y016209D02*
X002837Y016209D01*
X002984Y016131D02*
X001916Y016131D01*
X001815Y016052D02*
X003085Y016052D01*
X003162Y015974D02*
X001738Y015974D01*
X001676Y015895D02*
X003224Y015895D01*
X003277Y015817D02*
X001623Y015817D01*
X001586Y015738D02*
X003314Y015738D01*
X003347Y015660D02*
X002868Y015660D01*
X003033Y015581D02*
X003370Y015581D01*
X003385Y015503D02*
X003155Y015503D01*
X003246Y015424D02*
X003396Y015424D01*
X003397Y015346D02*
X003324Y015346D01*
X003392Y015267D02*
X003395Y015267D01*
X002032Y015660D02*
X001553Y015660D01*
X001530Y015581D02*
X001867Y015581D01*
X001745Y015503D02*
X001515Y015503D01*
X001504Y015424D02*
X001654Y015424D01*
X001576Y015346D02*
X001503Y015346D01*
X001505Y015267D02*
X001508Y015267D01*
X001505Y012336D02*
X001615Y012209D01*
X001743Y012099D01*
X001884Y012008D01*
X002038Y011938D01*
X002199Y011891D01*
X002366Y011867D01*
X002534Y011867D01*
X002701Y011891D01*
X002862Y011938D01*
X003016Y012008D01*
X003157Y012099D01*
X003285Y012209D01*
X003395Y012336D01*
X003398Y012193D01*
X003379Y012052D01*
X003339Y011915D01*
X003278Y011785D01*
X003199Y011667D01*
X003102Y011562D01*
X002990Y011473D01*
X002866Y011402D01*
X002732Y011351D01*
X002593Y011321D01*
X002450Y011313D01*
X002307Y011321D01*
X002168Y011351D01*
X002034Y011402D01*
X001910Y011473D01*
X001798Y011562D01*
X001701Y011667D01*
X001622Y011785D01*
X001561Y011915D01*
X001521Y012052D01*
X001502Y012193D01*
X001505Y012336D01*
X001504Y012284D02*
X001550Y012284D01*
X001502Y012206D02*
X001620Y012206D01*
X001710Y012127D02*
X001511Y012127D01*
X001522Y012049D02*
X001821Y012049D01*
X001968Y011970D02*
X001545Y011970D01*
X001572Y011892D02*
X002196Y011892D01*
X002001Y011421D02*
X002899Y011421D01*
X003023Y011499D02*
X001877Y011499D01*
X001784Y011578D02*
X003116Y011578D01*
X003189Y011656D02*
X001711Y011656D01*
X001656Y011735D02*
X003244Y011735D01*
X003291Y011813D02*
X001609Y011813D01*
X002209Y011342D02*
X002691Y011342D01*
X002704Y011892D02*
X003328Y011892D01*
X003355Y011970D02*
X002932Y011970D01*
X003079Y012049D02*
X003378Y012049D01*
X003389Y012127D02*
X003190Y012127D01*
X003280Y012206D02*
X003398Y012206D01*
X003396Y012284D02*
X003350Y012284D01*
X002593Y010779D02*
X002450Y010787D01*
X002307Y010779D01*
X002168Y010749D01*
X002034Y010698D01*
X001910Y010627D01*
X001798Y010538D01*
X001701Y010433D01*
X001622Y010315D01*
X001561Y010185D01*
X001521Y010048D01*
X001502Y009907D01*
X001505Y009764D01*
X001615Y009891D01*
X001743Y010001D01*
X001884Y010092D01*
X002038Y010162D01*
X002199Y010209D01*
X002366Y010233D01*
X002534Y010233D01*
X002701Y010209D01*
X002862Y010162D01*
X003016Y010092D01*
X003157Y010001D01*
X003285Y009891D01*
X003395Y009764D01*
X003398Y009907D01*
X003379Y010048D01*
X003339Y010185D01*
X003278Y010315D01*
X003199Y010433D01*
X003102Y010538D01*
X002990Y010627D01*
X002866Y010698D01*
X002732Y010749D01*
X002593Y010779D01*
X002824Y010714D02*
X002076Y010714D01*
X001924Y010636D02*
X002976Y010636D01*
X003078Y010557D02*
X001822Y010557D01*
X001743Y010479D02*
X003157Y010479D01*
X003221Y010400D02*
X001679Y010400D01*
X001626Y010322D02*
X003274Y010322D01*
X003312Y010243D02*
X001588Y010243D01*
X001555Y010165D02*
X002047Y010165D01*
X001875Y010086D02*
X001532Y010086D01*
X001515Y010008D02*
X001753Y010008D01*
X001660Y009929D02*
X001505Y009929D01*
X001503Y009851D02*
X001580Y009851D01*
X001512Y009772D02*
X001505Y009772D01*
X002853Y010165D02*
X003345Y010165D01*
X003368Y010086D02*
X003025Y010086D01*
X003147Y010008D02*
X003385Y010008D01*
X003395Y009929D02*
X003240Y009929D01*
X003320Y009851D02*
X003397Y009851D01*
X003388Y009772D02*
X003395Y009772D01*
X003395Y006836D02*
X003285Y006709D01*
X003157Y006599D01*
X003016Y006508D01*
X002862Y006438D01*
X002701Y006391D01*
X002534Y006367D01*
X002366Y006367D01*
X002199Y006391D01*
X002038Y006438D01*
X001884Y006508D01*
X001743Y006599D01*
X001615Y006709D01*
X001505Y006836D01*
X001502Y006693D01*
X001521Y006552D01*
X001561Y006415D01*
X001622Y006285D01*
X001701Y006167D01*
X001798Y006062D01*
X001910Y005973D01*
X002034Y005902D01*
X002168Y005851D01*
X002307Y005821D01*
X002450Y005813D01*
X002593Y005821D01*
X002732Y005851D01*
X002866Y005902D01*
X002990Y005973D01*
X003102Y006062D01*
X003199Y006167D01*
X003278Y006285D01*
X003339Y006415D01*
X003379Y006552D01*
X003398Y006693D01*
X003395Y006836D01*
X003396Y006789D02*
X003354Y006789D01*
X003398Y006711D02*
X003286Y006711D01*
X003195Y006632D02*
X003390Y006632D01*
X003380Y006554D02*
X003086Y006554D01*
X002943Y006475D02*
X003357Y006475D01*
X003331Y006397D02*
X002721Y006397D01*
X003029Y006004D02*
X001871Y006004D01*
X001779Y006083D02*
X003121Y006083D01*
X003194Y006161D02*
X001706Y006161D01*
X001652Y006240D02*
X003248Y006240D01*
X003294Y006318D02*
X001606Y006318D01*
X001569Y006397D02*
X002179Y006397D01*
X001957Y006475D02*
X001543Y006475D01*
X001520Y006554D02*
X001814Y006554D01*
X001705Y006632D02*
X001510Y006632D01*
X001502Y006711D02*
X001614Y006711D01*
X001546Y006789D02*
X001504Y006789D01*
X001993Y005926D02*
X002907Y005926D01*
X002714Y005847D02*
X002186Y005847D01*
X002307Y005279D02*
X002168Y005249D01*
X002034Y005198D01*
X001910Y005127D01*
X001798Y005038D01*
X001701Y004933D01*
X001622Y004815D01*
X001561Y004685D01*
X001521Y004548D01*
X001502Y004407D01*
X001505Y004264D01*
X001615Y004391D01*
X001743Y004501D01*
X001884Y004592D01*
X002038Y004662D01*
X002199Y004709D01*
X002366Y004733D01*
X002534Y004733D01*
X002701Y004709D01*
X002862Y004662D01*
X003016Y004592D01*
X003157Y004501D01*
X003285Y004391D01*
X003395Y004264D01*
X003398Y004407D01*
X003379Y004548D01*
X003339Y004685D01*
X003278Y004815D01*
X003199Y004933D01*
X003102Y005038D01*
X002990Y005127D01*
X002866Y005198D01*
X002732Y005249D01*
X002593Y005279D01*
X002450Y005287D01*
X002307Y005279D01*
X002089Y005219D02*
X002811Y005219D01*
X002967Y005141D02*
X001933Y005141D01*
X001828Y005062D02*
X003072Y005062D01*
X003152Y004984D02*
X001748Y004984D01*
X001682Y004905D02*
X003218Y004905D01*
X003271Y004827D02*
X001629Y004827D01*
X001590Y004748D02*
X003310Y004748D01*
X003344Y004670D02*
X002836Y004670D01*
X003017Y004591D02*
X003367Y004591D01*
X003384Y004513D02*
X003139Y004513D01*
X003235Y004434D02*
X003394Y004434D01*
X003397Y004356D02*
X003315Y004356D01*
X003383Y004277D02*
X003395Y004277D01*
X002064Y004670D02*
X001556Y004670D01*
X001533Y004591D02*
X001883Y004591D01*
X001761Y004513D02*
X001516Y004513D01*
X001506Y004434D02*
X001665Y004434D01*
X001585Y004356D02*
X001503Y004356D01*
X001505Y004277D02*
X001517Y004277D01*
X001505Y001336D02*
X001615Y001209D01*
X001743Y001099D01*
X001884Y001008D01*
X002038Y000938D01*
X002199Y000891D01*
X002366Y000867D01*
X002534Y000867D01*
X002701Y000891D01*
X002862Y000938D01*
X003016Y001008D01*
X003157Y001099D01*
X003285Y001209D01*
X003395Y001336D01*
X003398Y001193D01*
X003379Y001052D01*
X003339Y000915D01*
X003278Y000785D01*
X003199Y000667D01*
X003102Y000562D01*
X002990Y000473D01*
X002866Y000402D01*
X002732Y000351D01*
X002593Y000321D01*
X002450Y000313D01*
X002307Y000321D01*
X002168Y000351D01*
X002034Y000402D01*
X001910Y000473D01*
X001798Y000562D01*
X001701Y000667D01*
X001622Y000785D01*
X001561Y000915D01*
X001521Y001052D01*
X001502Y001193D01*
X001505Y001336D01*
X001504Y001294D02*
X001542Y001294D01*
X001502Y001215D02*
X001610Y001215D01*
X001699Y001137D02*
X001509Y001137D01*
X001520Y001058D02*
X001806Y001058D01*
X001946Y000980D02*
X001542Y000980D01*
X001567Y000901D02*
X002162Y000901D01*
X001864Y000509D02*
X003036Y000509D01*
X003126Y000587D02*
X001774Y000587D01*
X001702Y000666D02*
X003198Y000666D01*
X003251Y000744D02*
X001649Y000744D01*
X001604Y000823D02*
X003296Y000823D01*
X003333Y000901D02*
X002738Y000901D01*
X002954Y000980D02*
X003358Y000980D01*
X003380Y001058D02*
X003094Y001058D01*
X003201Y001137D02*
X003391Y001137D01*
X003398Y001215D02*
X003290Y001215D01*
X003358Y001294D02*
X003396Y001294D01*
X002916Y000430D02*
X001984Y000430D01*
X002165Y000352D02*
X002735Y000352D01*
D14*
X003048Y002520D03*
X001867Y002520D03*
X001867Y008020D03*
X003048Y008020D03*
X006667Y008020D03*
X007848Y008020D03*
X007848Y002520D03*
X006667Y002520D03*
X011467Y002520D03*
X012648Y002520D03*
X012648Y008020D03*
X011467Y008020D03*
X011467Y013520D03*
X012648Y013520D03*
X012648Y019020D03*
X011467Y019020D03*
X011467Y024520D03*
X012648Y024520D03*
X012648Y030020D03*
X011467Y030020D03*
X007848Y030020D03*
X006667Y030020D03*
X006667Y024520D03*
X007848Y024520D03*
X007848Y019020D03*
X006667Y019020D03*
X006667Y013520D03*
X007848Y013520D03*
X003048Y013520D03*
X001867Y013520D03*
X001867Y019020D03*
X003048Y019020D03*
X003048Y024520D03*
X001867Y024520D03*
X001867Y030020D03*
X003048Y030020D03*
X003048Y035520D03*
X001867Y035520D03*
X006667Y035520D03*
X007848Y035520D03*
X011467Y035520D03*
X012648Y035520D03*
X016267Y035520D03*
X017448Y035520D03*
X021067Y035520D03*
X022248Y035520D03*
X022248Y030020D03*
X021067Y030020D03*
X021067Y024520D03*
X022248Y024520D03*
X022248Y019020D03*
X021067Y019020D03*
X021067Y013520D03*
X022248Y013520D03*
X022248Y008020D03*
X021067Y008020D03*
X021067Y002520D03*
X022248Y002520D03*
X017448Y002520D03*
X016267Y002520D03*
X016267Y008020D03*
X017448Y008020D03*
X017448Y013520D03*
X016267Y013520D03*
X016267Y019020D03*
X017448Y019020D03*
X017448Y024520D03*
X016267Y024520D03*
X016267Y030020D03*
X017448Y030020D03*
D15*
X000650Y000650D03*
X004250Y000650D03*
X005450Y000650D03*
X009050Y000650D03*
X010250Y000650D03*
X013850Y000650D03*
X015050Y000650D03*
X018650Y000650D03*
X019850Y000650D03*
X023450Y000650D03*
X023350Y037850D03*
X019850Y037850D03*
X018550Y037850D03*
X015050Y037850D03*
X013750Y037850D03*
X010250Y037850D03*
X008950Y037850D03*
X005450Y037850D03*
X004150Y037850D03*
X000650Y037850D03*
M02*
