G75*
G70*
%OFA0B0*%
%FSLAX24Y24*%
%IPPOS*%
%LPD*%
%AMOC8*
5,1,8,0,0,1.08239X$1,22.5*
%
%ADD10C,0.0010*%
D10*
X002450Y001100D02*
X002850Y001100D01*
X002450Y001100D02*
X002050Y001500D01*
X002050Y000700D01*
X002450Y001100D01*
X002450Y004500D02*
X002850Y004500D01*
X002450Y004500D02*
X002050Y004900D01*
X002050Y004100D01*
X002450Y004500D01*
X002450Y006600D02*
X002850Y006600D01*
X002450Y006600D02*
X002050Y007000D01*
X002050Y006200D01*
X002450Y006600D01*
X002450Y010000D02*
X002850Y010000D01*
X002450Y010000D02*
X002050Y010400D01*
X002050Y009600D01*
X002450Y010000D01*
X002450Y012100D02*
X002850Y012100D01*
X002450Y012100D02*
X002050Y012500D01*
X002050Y011700D01*
X002450Y012100D01*
X002450Y015500D02*
X002850Y015500D01*
X002450Y015500D02*
X002050Y015900D01*
X002050Y015100D01*
X002450Y015500D01*
X002450Y017600D02*
X002850Y017600D01*
X002450Y017600D02*
X002050Y018000D01*
X002050Y017200D01*
X002450Y017600D01*
X002450Y021000D02*
X002850Y021000D01*
X002450Y021000D02*
X002050Y021400D01*
X002050Y020600D01*
X002450Y021000D01*
X002450Y023100D02*
X002850Y023100D01*
X002450Y023100D02*
X002050Y023500D01*
X002050Y022700D01*
X002450Y023100D01*
X002450Y026500D02*
X002850Y026500D01*
X002450Y026500D02*
X002050Y026900D01*
X002050Y026100D01*
X002450Y026500D01*
X002450Y028600D02*
X002850Y028600D01*
X002450Y028600D02*
X002050Y029000D01*
X002050Y028200D01*
X002450Y028600D01*
X002450Y032000D02*
X002850Y032000D01*
X002450Y032000D02*
X002050Y032400D01*
X002050Y031600D01*
X002450Y032000D01*
X002450Y034100D02*
X002850Y034100D01*
X002450Y034100D02*
X002050Y034500D01*
X002050Y033700D01*
X002450Y034100D01*
X002450Y037500D02*
X002850Y037500D01*
X002450Y037500D02*
X002050Y037900D01*
X002050Y037100D01*
X002450Y037500D01*
X007250Y037500D02*
X007650Y037500D01*
X007250Y037500D02*
X006850Y037900D01*
X006850Y037100D01*
X007250Y037500D01*
X007250Y034100D02*
X007650Y034100D01*
X007250Y034100D02*
X006850Y034500D01*
X006850Y033700D01*
X007250Y034100D01*
X007250Y032000D02*
X007650Y032000D01*
X007250Y032000D02*
X006850Y032400D01*
X006850Y031600D01*
X007250Y032000D01*
X007250Y028600D02*
X007650Y028600D01*
X007250Y028600D02*
X006850Y029000D01*
X006850Y028200D01*
X007250Y028600D01*
X007250Y026500D02*
X007650Y026500D01*
X007250Y026500D02*
X006850Y026900D01*
X006850Y026100D01*
X007250Y026500D01*
X007250Y023100D02*
X007650Y023100D01*
X007250Y023100D02*
X006850Y023500D01*
X006850Y022700D01*
X007250Y023100D01*
X007250Y021000D02*
X007650Y021000D01*
X007250Y021000D02*
X006850Y021400D01*
X006850Y020600D01*
X007250Y021000D01*
X007250Y017600D02*
X007650Y017600D01*
X007250Y017600D02*
X006850Y018000D01*
X006850Y017200D01*
X007250Y017600D01*
X007250Y015500D02*
X007650Y015500D01*
X007250Y015500D02*
X006850Y015900D01*
X006850Y015100D01*
X007250Y015500D01*
X007250Y012100D02*
X007650Y012100D01*
X007250Y012100D02*
X006850Y012500D01*
X006850Y011700D01*
X007250Y012100D01*
X007250Y010000D02*
X007650Y010000D01*
X007250Y010000D02*
X006850Y010400D01*
X006850Y009600D01*
X007250Y010000D01*
X007250Y006600D02*
X007650Y006600D01*
X007250Y006600D02*
X006850Y007000D01*
X006850Y006200D01*
X007250Y006600D01*
X007250Y004500D02*
X007650Y004500D01*
X007250Y004500D02*
X006850Y004900D01*
X006850Y004100D01*
X007250Y004500D01*
X007250Y001100D02*
X007650Y001100D01*
X007250Y001100D02*
X006850Y001500D01*
X006850Y000700D01*
X007250Y001100D01*
X012050Y001100D02*
X012450Y001100D01*
X012050Y001100D02*
X011650Y001500D01*
X011650Y000700D01*
X012050Y001100D01*
X012050Y004500D02*
X012450Y004500D01*
X012050Y004500D02*
X011650Y004900D01*
X011650Y004100D01*
X012050Y004500D01*
X012050Y006600D02*
X012450Y006600D01*
X012050Y006600D02*
X011650Y007000D01*
X011650Y006200D01*
X012050Y006600D01*
X012050Y010000D02*
X012450Y010000D01*
X012050Y010000D02*
X011650Y010400D01*
X011650Y009600D01*
X012050Y010000D01*
X012050Y012100D02*
X012450Y012100D01*
X012050Y012100D02*
X011650Y012500D01*
X011650Y011700D01*
X012050Y012100D01*
X012050Y015500D02*
X012450Y015500D01*
X012050Y015500D02*
X011650Y015900D01*
X011650Y015100D01*
X012050Y015500D01*
X012050Y017600D02*
X012450Y017600D01*
X012050Y017600D02*
X011650Y018000D01*
X011650Y017200D01*
X012050Y017600D01*
X012050Y021000D02*
X012450Y021000D01*
X012050Y021000D02*
X011650Y021400D01*
X011650Y020600D01*
X012050Y021000D01*
X012050Y023100D02*
X012450Y023100D01*
X012050Y023100D02*
X011650Y023500D01*
X011650Y022700D01*
X012050Y023100D01*
X012050Y026500D02*
X012450Y026500D01*
X012050Y026500D02*
X011650Y026900D01*
X011650Y026100D01*
X012050Y026500D01*
X012050Y028600D02*
X012450Y028600D01*
X012050Y028600D02*
X011650Y029000D01*
X011650Y028200D01*
X012050Y028600D01*
X012050Y032000D02*
X012450Y032000D01*
X012050Y032000D02*
X011650Y032400D01*
X011650Y031600D01*
X012050Y032000D01*
X012050Y034100D02*
X012450Y034100D01*
X012050Y034100D02*
X011650Y034500D01*
X011650Y033700D01*
X012050Y034100D01*
X012050Y037500D02*
X012450Y037500D01*
X012050Y037500D02*
X011650Y037900D01*
X011650Y037100D01*
X012050Y037500D01*
X016850Y037500D02*
X017250Y037500D01*
X016850Y037500D02*
X016450Y037900D01*
X016450Y037100D01*
X016850Y037500D01*
X016850Y034100D02*
X017250Y034100D01*
X016850Y034100D02*
X016450Y034500D01*
X016450Y033700D01*
X016850Y034100D01*
X016850Y032000D02*
X017250Y032000D01*
X016850Y032000D02*
X016450Y032400D01*
X016450Y031600D01*
X016850Y032000D01*
X016850Y028600D02*
X017250Y028600D01*
X016850Y028600D02*
X016450Y029000D01*
X016450Y028200D01*
X016850Y028600D01*
X016850Y026500D02*
X017250Y026500D01*
X016850Y026500D02*
X016450Y026900D01*
X016450Y026100D01*
X016850Y026500D01*
X016850Y023100D02*
X017250Y023100D01*
X016850Y023100D02*
X016450Y023500D01*
X016450Y022700D01*
X016850Y023100D01*
X016850Y021000D02*
X017250Y021000D01*
X016850Y021000D02*
X016450Y021400D01*
X016450Y020600D01*
X016850Y021000D01*
X016850Y017600D02*
X017250Y017600D01*
X016850Y017600D02*
X016450Y018000D01*
X016450Y017200D01*
X016850Y017600D01*
X016850Y015500D02*
X017250Y015500D01*
X016850Y015500D02*
X016450Y015900D01*
X016450Y015100D01*
X016850Y015500D01*
X016850Y012100D02*
X017250Y012100D01*
X016850Y012100D02*
X016450Y012500D01*
X016450Y011700D01*
X016850Y012100D01*
X016850Y010000D02*
X017250Y010000D01*
X016850Y010000D02*
X016450Y010400D01*
X016450Y009600D01*
X016850Y010000D01*
X016850Y006600D02*
X017250Y006600D01*
X016850Y006600D02*
X016450Y007000D01*
X016450Y006200D01*
X016850Y006600D01*
X016850Y004500D02*
X017250Y004500D01*
X016850Y004500D02*
X016450Y004900D01*
X016450Y004100D01*
X016850Y004500D01*
X016850Y001100D02*
X017250Y001100D01*
X016850Y001100D02*
X016450Y001500D01*
X016450Y000700D01*
X016850Y001100D01*
X021650Y001100D02*
X022050Y001100D01*
X021650Y001100D02*
X021250Y001500D01*
X021250Y000700D01*
X021650Y001100D01*
X021650Y004500D02*
X022050Y004500D01*
X021650Y004500D02*
X021250Y004900D01*
X021250Y004100D01*
X021650Y004500D01*
X021650Y006600D02*
X022050Y006600D01*
X021650Y006600D02*
X021250Y007000D01*
X021250Y006200D01*
X021650Y006600D01*
X021650Y010000D02*
X022050Y010000D01*
X021650Y010000D02*
X021250Y010400D01*
X021250Y009600D01*
X021650Y010000D01*
X021650Y012100D02*
X022050Y012100D01*
X021650Y012100D02*
X021250Y012500D01*
X021250Y011700D01*
X021650Y012100D01*
X021650Y015500D02*
X022050Y015500D01*
X021650Y015500D02*
X021250Y015900D01*
X021250Y015100D01*
X021650Y015500D01*
X021650Y017600D02*
X022050Y017600D01*
X021650Y017600D02*
X021250Y018000D01*
X021250Y017200D01*
X021650Y017600D01*
X021650Y021000D02*
X022050Y021000D01*
X021650Y021000D02*
X021250Y021400D01*
X021250Y020600D01*
X021650Y021000D01*
X021650Y023100D02*
X022050Y023100D01*
X021650Y023100D02*
X021250Y023500D01*
X021250Y022700D01*
X021650Y023100D01*
X021650Y026500D02*
X022050Y026500D01*
X021650Y026500D02*
X021250Y026900D01*
X021250Y026100D01*
X021650Y026500D01*
X021650Y028600D02*
X022050Y028600D01*
X021650Y028600D02*
X021250Y029000D01*
X021250Y028200D01*
X021650Y028600D01*
X021650Y032000D02*
X022050Y032000D01*
X021650Y032000D02*
X021250Y032400D01*
X021250Y031600D01*
X021650Y032000D01*
X021650Y034100D02*
X022050Y034100D01*
X021650Y034100D02*
X021250Y034500D01*
X021250Y033700D01*
X021650Y034100D01*
X021650Y037500D02*
X022050Y037500D01*
X021650Y037500D02*
X021250Y037900D01*
X021250Y037100D01*
X021650Y037500D01*
M02*
