G75*
G70*
%OFA0B0*%
%FSLAX24Y24*%
%IPPOS*%
%LPD*%
%AMOC8*
5,1,8,0,0,1.08239X$1,22.5*
%
%ADD10C,0.0100*%
%ADD11C,0.0010*%
%ADD12R,0.0180X0.0300*%
%ADD13C,0.0080*%
D10*
X000150Y000150D02*
X000150Y038350D01*
X001250Y038350D01*
X001250Y000150D01*
X000150Y000150D01*
X001450Y001250D02*
X001450Y004350D01*
X001454Y004411D01*
X001461Y004472D01*
X001472Y004532D01*
X001487Y004592D01*
X001506Y004650D01*
X001528Y004707D01*
X001554Y004763D01*
X001583Y004816D01*
X001615Y004868D01*
X001651Y004918D01*
X001690Y004966D01*
X001732Y005010D01*
X001776Y005053D01*
X001823Y005092D01*
X001872Y005128D01*
X001924Y005161D01*
X001977Y005191D01*
X002033Y005218D01*
X002089Y005240D01*
X002148Y005260D01*
X002207Y005275D01*
X002267Y005287D01*
X002328Y005295D01*
X002389Y005299D01*
X002450Y005300D01*
X002511Y005299D01*
X002572Y005295D01*
X002633Y005287D01*
X002693Y005275D01*
X002752Y005260D01*
X002811Y005240D01*
X002867Y005218D01*
X002923Y005191D01*
X002976Y005161D01*
X003028Y005128D01*
X003077Y005092D01*
X003124Y005053D01*
X003168Y005010D01*
X003210Y004966D01*
X003249Y004918D01*
X003285Y004868D01*
X003317Y004816D01*
X003346Y004763D01*
X003372Y004707D01*
X003394Y004650D01*
X003413Y004592D01*
X003428Y004532D01*
X003439Y004472D01*
X003446Y004411D01*
X003450Y004350D01*
X003450Y001250D01*
X003650Y000150D02*
X003650Y038350D01*
X004750Y038350D01*
X004750Y000150D01*
X003650Y000150D01*
X004950Y000150D02*
X004950Y038350D01*
X006050Y038350D01*
X006050Y000150D01*
X004950Y000150D01*
X006250Y001250D02*
X006250Y004350D01*
X006254Y004411D01*
X006261Y004472D01*
X006272Y004532D01*
X006287Y004592D01*
X006306Y004650D01*
X006328Y004707D01*
X006354Y004763D01*
X006383Y004816D01*
X006415Y004868D01*
X006451Y004918D01*
X006490Y004966D01*
X006532Y005010D01*
X006576Y005053D01*
X006623Y005092D01*
X006672Y005128D01*
X006724Y005161D01*
X006777Y005191D01*
X006833Y005218D01*
X006889Y005240D01*
X006948Y005260D01*
X007007Y005275D01*
X007067Y005287D01*
X007128Y005295D01*
X007189Y005299D01*
X007250Y005300D01*
X007311Y005299D01*
X007372Y005295D01*
X007433Y005287D01*
X007493Y005275D01*
X007552Y005260D01*
X007611Y005240D01*
X007667Y005218D01*
X007723Y005191D01*
X007776Y005161D01*
X007828Y005128D01*
X007877Y005092D01*
X007924Y005053D01*
X007968Y005010D01*
X008010Y004966D01*
X008049Y004918D01*
X008085Y004868D01*
X008117Y004816D01*
X008146Y004763D01*
X008172Y004707D01*
X008194Y004650D01*
X008213Y004592D01*
X008228Y004532D01*
X008239Y004472D01*
X008246Y004411D01*
X008250Y004350D01*
X008250Y001250D01*
X008450Y000150D02*
X008450Y038350D01*
X009550Y038350D01*
X009550Y000150D01*
X008450Y000150D01*
X009750Y000150D02*
X009750Y038350D01*
X010850Y038350D01*
X010850Y000150D01*
X009750Y000150D01*
X011050Y001250D02*
X011050Y004350D01*
X011054Y004411D01*
X011061Y004472D01*
X011072Y004532D01*
X011087Y004592D01*
X011106Y004650D01*
X011128Y004707D01*
X011154Y004763D01*
X011183Y004816D01*
X011215Y004868D01*
X011251Y004918D01*
X011290Y004966D01*
X011332Y005010D01*
X011376Y005053D01*
X011423Y005092D01*
X011472Y005128D01*
X011524Y005161D01*
X011577Y005191D01*
X011633Y005218D01*
X011689Y005240D01*
X011748Y005260D01*
X011807Y005275D01*
X011867Y005287D01*
X011928Y005295D01*
X011989Y005299D01*
X012050Y005300D01*
X012111Y005299D01*
X012172Y005295D01*
X012233Y005287D01*
X012293Y005275D01*
X012352Y005260D01*
X012411Y005240D01*
X012467Y005218D01*
X012523Y005191D01*
X012576Y005161D01*
X012628Y005128D01*
X012677Y005092D01*
X012724Y005053D01*
X012768Y005010D01*
X012810Y004966D01*
X012849Y004918D01*
X012885Y004868D01*
X012917Y004816D01*
X012946Y004763D01*
X012972Y004707D01*
X012994Y004650D01*
X013013Y004592D01*
X013028Y004532D01*
X013039Y004472D01*
X013046Y004411D01*
X013050Y004350D01*
X013050Y001250D01*
X013250Y000150D02*
X013250Y038350D01*
X014350Y038350D01*
X014350Y000150D01*
X013250Y000150D01*
X013050Y001250D02*
X013046Y001189D01*
X013039Y001128D01*
X013028Y001068D01*
X013013Y001009D01*
X012994Y000950D01*
X012972Y000893D01*
X012946Y000837D01*
X012917Y000784D01*
X012885Y000732D01*
X012849Y000682D01*
X012810Y000634D01*
X012768Y000590D01*
X012724Y000547D01*
X012677Y000508D01*
X012628Y000472D01*
X012576Y000439D01*
X012523Y000409D01*
X012467Y000382D01*
X012410Y000360D01*
X012352Y000340D01*
X012293Y000325D01*
X012233Y000313D01*
X012172Y000305D01*
X012111Y000301D01*
X012050Y000300D01*
X011989Y000301D01*
X011928Y000305D01*
X011867Y000313D01*
X011807Y000325D01*
X011748Y000340D01*
X011690Y000360D01*
X011633Y000382D01*
X011577Y000409D01*
X011524Y000439D01*
X011472Y000472D01*
X011423Y000508D01*
X011376Y000547D01*
X011332Y000590D01*
X011290Y000634D01*
X011251Y000682D01*
X011215Y000732D01*
X011183Y000784D01*
X011154Y000837D01*
X011128Y000893D01*
X011106Y000950D01*
X011087Y001009D01*
X011072Y001068D01*
X011061Y001128D01*
X011054Y001189D01*
X011050Y001250D01*
X011050Y006750D02*
X011050Y009850D01*
X011054Y009911D01*
X011061Y009972D01*
X011072Y010032D01*
X011087Y010092D01*
X011106Y010150D01*
X011128Y010207D01*
X011154Y010263D01*
X011183Y010316D01*
X011215Y010368D01*
X011251Y010418D01*
X011290Y010466D01*
X011332Y010510D01*
X011376Y010553D01*
X011423Y010592D01*
X011472Y010628D01*
X011524Y010661D01*
X011577Y010691D01*
X011633Y010718D01*
X011689Y010740D01*
X011748Y010760D01*
X011807Y010775D01*
X011867Y010787D01*
X011928Y010795D01*
X011989Y010799D01*
X012050Y010800D01*
X012111Y010799D01*
X012172Y010795D01*
X012233Y010787D01*
X012293Y010775D01*
X012352Y010760D01*
X012411Y010740D01*
X012467Y010718D01*
X012523Y010691D01*
X012576Y010661D01*
X012628Y010628D01*
X012677Y010592D01*
X012724Y010553D01*
X012768Y010510D01*
X012810Y010466D01*
X012849Y010418D01*
X012885Y010368D01*
X012917Y010316D01*
X012946Y010263D01*
X012972Y010207D01*
X012994Y010150D01*
X013013Y010092D01*
X013028Y010032D01*
X013039Y009972D01*
X013046Y009911D01*
X013050Y009850D01*
X013050Y006750D01*
X013046Y006689D01*
X013039Y006628D01*
X013028Y006568D01*
X013013Y006509D01*
X012994Y006450D01*
X012972Y006393D01*
X012946Y006337D01*
X012917Y006284D01*
X012885Y006232D01*
X012849Y006182D01*
X012810Y006134D01*
X012768Y006090D01*
X012724Y006047D01*
X012677Y006008D01*
X012628Y005972D01*
X012576Y005939D01*
X012523Y005909D01*
X012467Y005882D01*
X012410Y005860D01*
X012352Y005840D01*
X012293Y005825D01*
X012233Y005813D01*
X012172Y005805D01*
X012111Y005801D01*
X012050Y005800D01*
X011989Y005801D01*
X011928Y005805D01*
X011867Y005813D01*
X011807Y005825D01*
X011748Y005840D01*
X011690Y005860D01*
X011633Y005882D01*
X011577Y005909D01*
X011524Y005939D01*
X011472Y005972D01*
X011423Y006008D01*
X011376Y006047D01*
X011332Y006090D01*
X011290Y006134D01*
X011251Y006182D01*
X011215Y006232D01*
X011183Y006284D01*
X011154Y006337D01*
X011128Y006393D01*
X011106Y006450D01*
X011087Y006509D01*
X011072Y006568D01*
X011061Y006628D01*
X011054Y006689D01*
X011050Y006750D01*
X008250Y006750D02*
X008250Y009850D01*
X008246Y009911D01*
X008239Y009972D01*
X008228Y010032D01*
X008213Y010092D01*
X008194Y010150D01*
X008172Y010207D01*
X008146Y010263D01*
X008117Y010316D01*
X008085Y010368D01*
X008049Y010418D01*
X008010Y010466D01*
X007968Y010510D01*
X007924Y010553D01*
X007877Y010592D01*
X007828Y010628D01*
X007776Y010661D01*
X007723Y010691D01*
X007667Y010718D01*
X007611Y010740D01*
X007552Y010760D01*
X007493Y010775D01*
X007433Y010787D01*
X007372Y010795D01*
X007311Y010799D01*
X007250Y010800D01*
X007189Y010799D01*
X007128Y010795D01*
X007067Y010787D01*
X007007Y010775D01*
X006948Y010760D01*
X006889Y010740D01*
X006833Y010718D01*
X006777Y010691D01*
X006724Y010661D01*
X006672Y010628D01*
X006623Y010592D01*
X006576Y010553D01*
X006532Y010510D01*
X006490Y010466D01*
X006451Y010418D01*
X006415Y010368D01*
X006383Y010316D01*
X006354Y010263D01*
X006328Y010207D01*
X006306Y010150D01*
X006287Y010092D01*
X006272Y010032D01*
X006261Y009972D01*
X006254Y009911D01*
X006250Y009850D01*
X006250Y006750D01*
X006254Y006689D01*
X006261Y006628D01*
X006272Y006568D01*
X006287Y006509D01*
X006306Y006450D01*
X006328Y006393D01*
X006354Y006337D01*
X006383Y006284D01*
X006415Y006232D01*
X006451Y006182D01*
X006490Y006134D01*
X006532Y006090D01*
X006576Y006047D01*
X006623Y006008D01*
X006672Y005972D01*
X006724Y005939D01*
X006777Y005909D01*
X006833Y005882D01*
X006890Y005860D01*
X006948Y005840D01*
X007007Y005825D01*
X007067Y005813D01*
X007128Y005805D01*
X007189Y005801D01*
X007250Y005800D01*
X007311Y005801D01*
X007372Y005805D01*
X007433Y005813D01*
X007493Y005825D01*
X007552Y005840D01*
X007610Y005860D01*
X007667Y005882D01*
X007723Y005909D01*
X007776Y005939D01*
X007828Y005972D01*
X007877Y006008D01*
X007924Y006047D01*
X007968Y006090D01*
X008010Y006134D01*
X008049Y006182D01*
X008085Y006232D01*
X008117Y006284D01*
X008146Y006337D01*
X008172Y006393D01*
X008194Y006450D01*
X008213Y006509D01*
X008228Y006568D01*
X008239Y006628D01*
X008246Y006689D01*
X008250Y006750D01*
X008250Y012250D02*
X008250Y015350D01*
X008246Y015411D01*
X008239Y015472D01*
X008228Y015532D01*
X008213Y015592D01*
X008194Y015650D01*
X008172Y015707D01*
X008146Y015763D01*
X008117Y015816D01*
X008085Y015868D01*
X008049Y015918D01*
X008010Y015966D01*
X007968Y016010D01*
X007924Y016053D01*
X007877Y016092D01*
X007828Y016128D01*
X007776Y016161D01*
X007723Y016191D01*
X007667Y016218D01*
X007611Y016240D01*
X007552Y016260D01*
X007493Y016275D01*
X007433Y016287D01*
X007372Y016295D01*
X007311Y016299D01*
X007250Y016300D01*
X007189Y016299D01*
X007128Y016295D01*
X007067Y016287D01*
X007007Y016275D01*
X006948Y016260D01*
X006889Y016240D01*
X006833Y016218D01*
X006777Y016191D01*
X006724Y016161D01*
X006672Y016128D01*
X006623Y016092D01*
X006576Y016053D01*
X006532Y016010D01*
X006490Y015966D01*
X006451Y015918D01*
X006415Y015868D01*
X006383Y015816D01*
X006354Y015763D01*
X006328Y015707D01*
X006306Y015650D01*
X006287Y015592D01*
X006272Y015532D01*
X006261Y015472D01*
X006254Y015411D01*
X006250Y015350D01*
X006250Y012250D01*
X006254Y012189D01*
X006261Y012128D01*
X006272Y012068D01*
X006287Y012009D01*
X006306Y011950D01*
X006328Y011893D01*
X006354Y011837D01*
X006383Y011784D01*
X006415Y011732D01*
X006451Y011682D01*
X006490Y011634D01*
X006532Y011590D01*
X006576Y011547D01*
X006623Y011508D01*
X006672Y011472D01*
X006724Y011439D01*
X006777Y011409D01*
X006833Y011382D01*
X006890Y011360D01*
X006948Y011340D01*
X007007Y011325D01*
X007067Y011313D01*
X007128Y011305D01*
X007189Y011301D01*
X007250Y011300D01*
X007311Y011301D01*
X007372Y011305D01*
X007433Y011313D01*
X007493Y011325D01*
X007552Y011340D01*
X007610Y011360D01*
X007667Y011382D01*
X007723Y011409D01*
X007776Y011439D01*
X007828Y011472D01*
X007877Y011508D01*
X007924Y011547D01*
X007968Y011590D01*
X008010Y011634D01*
X008049Y011682D01*
X008085Y011732D01*
X008117Y011784D01*
X008146Y011837D01*
X008172Y011893D01*
X008194Y011950D01*
X008213Y012009D01*
X008228Y012068D01*
X008239Y012128D01*
X008246Y012189D01*
X008250Y012250D01*
X011050Y012250D02*
X011050Y015350D01*
X011054Y015411D01*
X011061Y015472D01*
X011072Y015532D01*
X011087Y015592D01*
X011106Y015650D01*
X011128Y015707D01*
X011154Y015763D01*
X011183Y015816D01*
X011215Y015868D01*
X011251Y015918D01*
X011290Y015966D01*
X011332Y016010D01*
X011376Y016053D01*
X011423Y016092D01*
X011472Y016128D01*
X011524Y016161D01*
X011577Y016191D01*
X011633Y016218D01*
X011689Y016240D01*
X011748Y016260D01*
X011807Y016275D01*
X011867Y016287D01*
X011928Y016295D01*
X011989Y016299D01*
X012050Y016300D01*
X012111Y016299D01*
X012172Y016295D01*
X012233Y016287D01*
X012293Y016275D01*
X012352Y016260D01*
X012411Y016240D01*
X012467Y016218D01*
X012523Y016191D01*
X012576Y016161D01*
X012628Y016128D01*
X012677Y016092D01*
X012724Y016053D01*
X012768Y016010D01*
X012810Y015966D01*
X012849Y015918D01*
X012885Y015868D01*
X012917Y015816D01*
X012946Y015763D01*
X012972Y015707D01*
X012994Y015650D01*
X013013Y015592D01*
X013028Y015532D01*
X013039Y015472D01*
X013046Y015411D01*
X013050Y015350D01*
X013050Y012250D01*
X013046Y012189D01*
X013039Y012128D01*
X013028Y012068D01*
X013013Y012009D01*
X012994Y011950D01*
X012972Y011893D01*
X012946Y011837D01*
X012917Y011784D01*
X012885Y011732D01*
X012849Y011682D01*
X012810Y011634D01*
X012768Y011590D01*
X012724Y011547D01*
X012677Y011508D01*
X012628Y011472D01*
X012576Y011439D01*
X012523Y011409D01*
X012467Y011382D01*
X012410Y011360D01*
X012352Y011340D01*
X012293Y011325D01*
X012233Y011313D01*
X012172Y011305D01*
X012111Y011301D01*
X012050Y011300D01*
X011989Y011301D01*
X011928Y011305D01*
X011867Y011313D01*
X011807Y011325D01*
X011748Y011340D01*
X011690Y011360D01*
X011633Y011382D01*
X011577Y011409D01*
X011524Y011439D01*
X011472Y011472D01*
X011423Y011508D01*
X011376Y011547D01*
X011332Y011590D01*
X011290Y011634D01*
X011251Y011682D01*
X011215Y011732D01*
X011183Y011784D01*
X011154Y011837D01*
X011128Y011893D01*
X011106Y011950D01*
X011087Y012009D01*
X011072Y012068D01*
X011061Y012128D01*
X011054Y012189D01*
X011050Y012250D01*
X011050Y017750D02*
X011050Y020850D01*
X011054Y020911D01*
X011061Y020972D01*
X011072Y021032D01*
X011087Y021092D01*
X011106Y021150D01*
X011128Y021207D01*
X011154Y021263D01*
X011183Y021316D01*
X011215Y021368D01*
X011251Y021418D01*
X011290Y021466D01*
X011332Y021510D01*
X011376Y021553D01*
X011423Y021592D01*
X011472Y021628D01*
X011524Y021661D01*
X011577Y021691D01*
X011633Y021718D01*
X011689Y021740D01*
X011748Y021760D01*
X011807Y021775D01*
X011867Y021787D01*
X011928Y021795D01*
X011989Y021799D01*
X012050Y021800D01*
X012111Y021799D01*
X012172Y021795D01*
X012233Y021787D01*
X012293Y021775D01*
X012352Y021760D01*
X012411Y021740D01*
X012467Y021718D01*
X012523Y021691D01*
X012576Y021661D01*
X012628Y021628D01*
X012677Y021592D01*
X012724Y021553D01*
X012768Y021510D01*
X012810Y021466D01*
X012849Y021418D01*
X012885Y021368D01*
X012917Y021316D01*
X012946Y021263D01*
X012972Y021207D01*
X012994Y021150D01*
X013013Y021092D01*
X013028Y021032D01*
X013039Y020972D01*
X013046Y020911D01*
X013050Y020850D01*
X013050Y017750D01*
X013046Y017689D01*
X013039Y017628D01*
X013028Y017568D01*
X013013Y017509D01*
X012994Y017450D01*
X012972Y017393D01*
X012946Y017337D01*
X012917Y017284D01*
X012885Y017232D01*
X012849Y017182D01*
X012810Y017134D01*
X012768Y017090D01*
X012724Y017047D01*
X012677Y017008D01*
X012628Y016972D01*
X012576Y016939D01*
X012523Y016909D01*
X012467Y016882D01*
X012410Y016860D01*
X012352Y016840D01*
X012293Y016825D01*
X012233Y016813D01*
X012172Y016805D01*
X012111Y016801D01*
X012050Y016800D01*
X011989Y016801D01*
X011928Y016805D01*
X011867Y016813D01*
X011807Y016825D01*
X011748Y016840D01*
X011690Y016860D01*
X011633Y016882D01*
X011577Y016909D01*
X011524Y016939D01*
X011472Y016972D01*
X011423Y017008D01*
X011376Y017047D01*
X011332Y017090D01*
X011290Y017134D01*
X011251Y017182D01*
X011215Y017232D01*
X011183Y017284D01*
X011154Y017337D01*
X011128Y017393D01*
X011106Y017450D01*
X011087Y017509D01*
X011072Y017568D01*
X011061Y017628D01*
X011054Y017689D01*
X011050Y017750D01*
X008250Y017750D02*
X008250Y020850D01*
X008246Y020911D01*
X008239Y020972D01*
X008228Y021032D01*
X008213Y021092D01*
X008194Y021150D01*
X008172Y021207D01*
X008146Y021263D01*
X008117Y021316D01*
X008085Y021368D01*
X008049Y021418D01*
X008010Y021466D01*
X007968Y021510D01*
X007924Y021553D01*
X007877Y021592D01*
X007828Y021628D01*
X007776Y021661D01*
X007723Y021691D01*
X007667Y021718D01*
X007611Y021740D01*
X007552Y021760D01*
X007493Y021775D01*
X007433Y021787D01*
X007372Y021795D01*
X007311Y021799D01*
X007250Y021800D01*
X007189Y021799D01*
X007128Y021795D01*
X007067Y021787D01*
X007007Y021775D01*
X006948Y021760D01*
X006889Y021740D01*
X006833Y021718D01*
X006777Y021691D01*
X006724Y021661D01*
X006672Y021628D01*
X006623Y021592D01*
X006576Y021553D01*
X006532Y021510D01*
X006490Y021466D01*
X006451Y021418D01*
X006415Y021368D01*
X006383Y021316D01*
X006354Y021263D01*
X006328Y021207D01*
X006306Y021150D01*
X006287Y021092D01*
X006272Y021032D01*
X006261Y020972D01*
X006254Y020911D01*
X006250Y020850D01*
X006250Y017750D01*
X006254Y017689D01*
X006261Y017628D01*
X006272Y017568D01*
X006287Y017509D01*
X006306Y017450D01*
X006328Y017393D01*
X006354Y017337D01*
X006383Y017284D01*
X006415Y017232D01*
X006451Y017182D01*
X006490Y017134D01*
X006532Y017090D01*
X006576Y017047D01*
X006623Y017008D01*
X006672Y016972D01*
X006724Y016939D01*
X006777Y016909D01*
X006833Y016882D01*
X006890Y016860D01*
X006948Y016840D01*
X007007Y016825D01*
X007067Y016813D01*
X007128Y016805D01*
X007189Y016801D01*
X007250Y016800D01*
X007311Y016801D01*
X007372Y016805D01*
X007433Y016813D01*
X007493Y016825D01*
X007552Y016840D01*
X007610Y016860D01*
X007667Y016882D01*
X007723Y016909D01*
X007776Y016939D01*
X007828Y016972D01*
X007877Y017008D01*
X007924Y017047D01*
X007968Y017090D01*
X008010Y017134D01*
X008049Y017182D01*
X008085Y017232D01*
X008117Y017284D01*
X008146Y017337D01*
X008172Y017393D01*
X008194Y017450D01*
X008213Y017509D01*
X008228Y017568D01*
X008239Y017628D01*
X008246Y017689D01*
X008250Y017750D01*
X008250Y023250D02*
X008250Y026350D01*
X008246Y026411D01*
X008239Y026472D01*
X008228Y026532D01*
X008213Y026592D01*
X008194Y026650D01*
X008172Y026707D01*
X008146Y026763D01*
X008117Y026816D01*
X008085Y026868D01*
X008049Y026918D01*
X008010Y026966D01*
X007968Y027010D01*
X007924Y027053D01*
X007877Y027092D01*
X007828Y027128D01*
X007776Y027161D01*
X007723Y027191D01*
X007667Y027218D01*
X007611Y027240D01*
X007552Y027260D01*
X007493Y027275D01*
X007433Y027287D01*
X007372Y027295D01*
X007311Y027299D01*
X007250Y027300D01*
X007189Y027299D01*
X007128Y027295D01*
X007067Y027287D01*
X007007Y027275D01*
X006948Y027260D01*
X006889Y027240D01*
X006833Y027218D01*
X006777Y027191D01*
X006724Y027161D01*
X006672Y027128D01*
X006623Y027092D01*
X006576Y027053D01*
X006532Y027010D01*
X006490Y026966D01*
X006451Y026918D01*
X006415Y026868D01*
X006383Y026816D01*
X006354Y026763D01*
X006328Y026707D01*
X006306Y026650D01*
X006287Y026592D01*
X006272Y026532D01*
X006261Y026472D01*
X006254Y026411D01*
X006250Y026350D01*
X006250Y023250D01*
X006254Y023189D01*
X006261Y023128D01*
X006272Y023068D01*
X006287Y023009D01*
X006306Y022950D01*
X006328Y022893D01*
X006354Y022837D01*
X006383Y022784D01*
X006415Y022732D01*
X006451Y022682D01*
X006490Y022634D01*
X006532Y022590D01*
X006576Y022547D01*
X006623Y022508D01*
X006672Y022472D01*
X006724Y022439D01*
X006777Y022409D01*
X006833Y022382D01*
X006890Y022360D01*
X006948Y022340D01*
X007007Y022325D01*
X007067Y022313D01*
X007128Y022305D01*
X007189Y022301D01*
X007250Y022300D01*
X007311Y022301D01*
X007372Y022305D01*
X007433Y022313D01*
X007493Y022325D01*
X007552Y022340D01*
X007610Y022360D01*
X007667Y022382D01*
X007723Y022409D01*
X007776Y022439D01*
X007828Y022472D01*
X007877Y022508D01*
X007924Y022547D01*
X007968Y022590D01*
X008010Y022634D01*
X008049Y022682D01*
X008085Y022732D01*
X008117Y022784D01*
X008146Y022837D01*
X008172Y022893D01*
X008194Y022950D01*
X008213Y023009D01*
X008228Y023068D01*
X008239Y023128D01*
X008246Y023189D01*
X008250Y023250D01*
X011050Y023250D02*
X011050Y026350D01*
X011054Y026411D01*
X011061Y026472D01*
X011072Y026532D01*
X011087Y026592D01*
X011106Y026650D01*
X011128Y026707D01*
X011154Y026763D01*
X011183Y026816D01*
X011215Y026868D01*
X011251Y026918D01*
X011290Y026966D01*
X011332Y027010D01*
X011376Y027053D01*
X011423Y027092D01*
X011472Y027128D01*
X011524Y027161D01*
X011577Y027191D01*
X011633Y027218D01*
X011689Y027240D01*
X011748Y027260D01*
X011807Y027275D01*
X011867Y027287D01*
X011928Y027295D01*
X011989Y027299D01*
X012050Y027300D01*
X012111Y027299D01*
X012172Y027295D01*
X012233Y027287D01*
X012293Y027275D01*
X012352Y027260D01*
X012411Y027240D01*
X012467Y027218D01*
X012523Y027191D01*
X012576Y027161D01*
X012628Y027128D01*
X012677Y027092D01*
X012724Y027053D01*
X012768Y027010D01*
X012810Y026966D01*
X012849Y026918D01*
X012885Y026868D01*
X012917Y026816D01*
X012946Y026763D01*
X012972Y026707D01*
X012994Y026650D01*
X013013Y026592D01*
X013028Y026532D01*
X013039Y026472D01*
X013046Y026411D01*
X013050Y026350D01*
X013050Y023250D01*
X013046Y023189D01*
X013039Y023128D01*
X013028Y023068D01*
X013013Y023009D01*
X012994Y022950D01*
X012972Y022893D01*
X012946Y022837D01*
X012917Y022784D01*
X012885Y022732D01*
X012849Y022682D01*
X012810Y022634D01*
X012768Y022590D01*
X012724Y022547D01*
X012677Y022508D01*
X012628Y022472D01*
X012576Y022439D01*
X012523Y022409D01*
X012467Y022382D01*
X012410Y022360D01*
X012352Y022340D01*
X012293Y022325D01*
X012233Y022313D01*
X012172Y022305D01*
X012111Y022301D01*
X012050Y022300D01*
X011989Y022301D01*
X011928Y022305D01*
X011867Y022313D01*
X011807Y022325D01*
X011748Y022340D01*
X011690Y022360D01*
X011633Y022382D01*
X011577Y022409D01*
X011524Y022439D01*
X011472Y022472D01*
X011423Y022508D01*
X011376Y022547D01*
X011332Y022590D01*
X011290Y022634D01*
X011251Y022682D01*
X011215Y022732D01*
X011183Y022784D01*
X011154Y022837D01*
X011128Y022893D01*
X011106Y022950D01*
X011087Y023009D01*
X011072Y023068D01*
X011061Y023128D01*
X011054Y023189D01*
X011050Y023250D01*
X011050Y028750D02*
X011050Y031850D01*
X011054Y031911D01*
X011061Y031972D01*
X011072Y032032D01*
X011087Y032092D01*
X011106Y032150D01*
X011128Y032207D01*
X011154Y032263D01*
X011183Y032316D01*
X011215Y032368D01*
X011251Y032418D01*
X011290Y032466D01*
X011332Y032510D01*
X011376Y032553D01*
X011423Y032592D01*
X011472Y032628D01*
X011524Y032661D01*
X011577Y032691D01*
X011633Y032718D01*
X011689Y032740D01*
X011748Y032760D01*
X011807Y032775D01*
X011867Y032787D01*
X011928Y032795D01*
X011989Y032799D01*
X012050Y032800D01*
X012111Y032799D01*
X012172Y032795D01*
X012233Y032787D01*
X012293Y032775D01*
X012352Y032760D01*
X012411Y032740D01*
X012467Y032718D01*
X012523Y032691D01*
X012576Y032661D01*
X012628Y032628D01*
X012677Y032592D01*
X012724Y032553D01*
X012768Y032510D01*
X012810Y032466D01*
X012849Y032418D01*
X012885Y032368D01*
X012917Y032316D01*
X012946Y032263D01*
X012972Y032207D01*
X012994Y032150D01*
X013013Y032092D01*
X013028Y032032D01*
X013039Y031972D01*
X013046Y031911D01*
X013050Y031850D01*
X013050Y028750D01*
X013046Y028689D01*
X013039Y028628D01*
X013028Y028568D01*
X013013Y028509D01*
X012994Y028450D01*
X012972Y028393D01*
X012946Y028337D01*
X012917Y028284D01*
X012885Y028232D01*
X012849Y028182D01*
X012810Y028134D01*
X012768Y028090D01*
X012724Y028047D01*
X012677Y028008D01*
X012628Y027972D01*
X012576Y027939D01*
X012523Y027909D01*
X012467Y027882D01*
X012410Y027860D01*
X012352Y027840D01*
X012293Y027825D01*
X012233Y027813D01*
X012172Y027805D01*
X012111Y027801D01*
X012050Y027800D01*
X011989Y027801D01*
X011928Y027805D01*
X011867Y027813D01*
X011807Y027825D01*
X011748Y027840D01*
X011690Y027860D01*
X011633Y027882D01*
X011577Y027909D01*
X011524Y027939D01*
X011472Y027972D01*
X011423Y028008D01*
X011376Y028047D01*
X011332Y028090D01*
X011290Y028134D01*
X011251Y028182D01*
X011215Y028232D01*
X011183Y028284D01*
X011154Y028337D01*
X011128Y028393D01*
X011106Y028450D01*
X011087Y028509D01*
X011072Y028568D01*
X011061Y028628D01*
X011054Y028689D01*
X011050Y028750D01*
X008250Y028750D02*
X008250Y031850D01*
X008246Y031911D01*
X008239Y031972D01*
X008228Y032032D01*
X008213Y032092D01*
X008194Y032150D01*
X008172Y032207D01*
X008146Y032263D01*
X008117Y032316D01*
X008085Y032368D01*
X008049Y032418D01*
X008010Y032466D01*
X007968Y032510D01*
X007924Y032553D01*
X007877Y032592D01*
X007828Y032628D01*
X007776Y032661D01*
X007723Y032691D01*
X007667Y032718D01*
X007611Y032740D01*
X007552Y032760D01*
X007493Y032775D01*
X007433Y032787D01*
X007372Y032795D01*
X007311Y032799D01*
X007250Y032800D01*
X007189Y032799D01*
X007128Y032795D01*
X007067Y032787D01*
X007007Y032775D01*
X006948Y032760D01*
X006889Y032740D01*
X006833Y032718D01*
X006777Y032691D01*
X006724Y032661D01*
X006672Y032628D01*
X006623Y032592D01*
X006576Y032553D01*
X006532Y032510D01*
X006490Y032466D01*
X006451Y032418D01*
X006415Y032368D01*
X006383Y032316D01*
X006354Y032263D01*
X006328Y032207D01*
X006306Y032150D01*
X006287Y032092D01*
X006272Y032032D01*
X006261Y031972D01*
X006254Y031911D01*
X006250Y031850D01*
X006250Y028750D01*
X006254Y028689D01*
X006261Y028628D01*
X006272Y028568D01*
X006287Y028509D01*
X006306Y028450D01*
X006328Y028393D01*
X006354Y028337D01*
X006383Y028284D01*
X006415Y028232D01*
X006451Y028182D01*
X006490Y028134D01*
X006532Y028090D01*
X006576Y028047D01*
X006623Y028008D01*
X006672Y027972D01*
X006724Y027939D01*
X006777Y027909D01*
X006833Y027882D01*
X006890Y027860D01*
X006948Y027840D01*
X007007Y027825D01*
X007067Y027813D01*
X007128Y027805D01*
X007189Y027801D01*
X007250Y027800D01*
X007311Y027801D01*
X007372Y027805D01*
X007433Y027813D01*
X007493Y027825D01*
X007552Y027840D01*
X007610Y027860D01*
X007667Y027882D01*
X007723Y027909D01*
X007776Y027939D01*
X007828Y027972D01*
X007877Y028008D01*
X007924Y028047D01*
X007968Y028090D01*
X008010Y028134D01*
X008049Y028182D01*
X008085Y028232D01*
X008117Y028284D01*
X008146Y028337D01*
X008172Y028393D01*
X008194Y028450D01*
X008213Y028509D01*
X008228Y028568D01*
X008239Y028628D01*
X008246Y028689D01*
X008250Y028750D01*
X008250Y034250D02*
X008250Y037350D01*
X008246Y037411D01*
X008239Y037472D01*
X008228Y037532D01*
X008213Y037592D01*
X008194Y037650D01*
X008172Y037707D01*
X008146Y037763D01*
X008117Y037816D01*
X008085Y037868D01*
X008049Y037918D01*
X008010Y037966D01*
X007968Y038010D01*
X007924Y038053D01*
X007877Y038092D01*
X007828Y038128D01*
X007776Y038161D01*
X007723Y038191D01*
X007667Y038218D01*
X007611Y038240D01*
X007552Y038260D01*
X007493Y038275D01*
X007433Y038287D01*
X007372Y038295D01*
X007311Y038299D01*
X007250Y038300D01*
X007189Y038299D01*
X007128Y038295D01*
X007067Y038287D01*
X007007Y038275D01*
X006948Y038260D01*
X006889Y038240D01*
X006833Y038218D01*
X006777Y038191D01*
X006724Y038161D01*
X006672Y038128D01*
X006623Y038092D01*
X006576Y038053D01*
X006532Y038010D01*
X006490Y037966D01*
X006451Y037918D01*
X006415Y037868D01*
X006383Y037816D01*
X006354Y037763D01*
X006328Y037707D01*
X006306Y037650D01*
X006287Y037592D01*
X006272Y037532D01*
X006261Y037472D01*
X006254Y037411D01*
X006250Y037350D01*
X006250Y034250D01*
X006254Y034189D01*
X006261Y034128D01*
X006272Y034068D01*
X006287Y034009D01*
X006306Y033950D01*
X006328Y033893D01*
X006354Y033837D01*
X006383Y033784D01*
X006415Y033732D01*
X006451Y033682D01*
X006490Y033634D01*
X006532Y033590D01*
X006576Y033547D01*
X006623Y033508D01*
X006672Y033472D01*
X006724Y033439D01*
X006777Y033409D01*
X006833Y033382D01*
X006890Y033360D01*
X006948Y033340D01*
X007007Y033325D01*
X007067Y033313D01*
X007128Y033305D01*
X007189Y033301D01*
X007250Y033300D01*
X007311Y033301D01*
X007372Y033305D01*
X007433Y033313D01*
X007493Y033325D01*
X007552Y033340D01*
X007610Y033360D01*
X007667Y033382D01*
X007723Y033409D01*
X007776Y033439D01*
X007828Y033472D01*
X007877Y033508D01*
X007924Y033547D01*
X007968Y033590D01*
X008010Y033634D01*
X008049Y033682D01*
X008085Y033732D01*
X008117Y033784D01*
X008146Y033837D01*
X008172Y033893D01*
X008194Y033950D01*
X008213Y034009D01*
X008228Y034068D01*
X008239Y034128D01*
X008246Y034189D01*
X008250Y034250D01*
X011050Y034250D02*
X011050Y037350D01*
X011054Y037411D01*
X011061Y037472D01*
X011072Y037532D01*
X011087Y037592D01*
X011106Y037650D01*
X011128Y037707D01*
X011154Y037763D01*
X011183Y037816D01*
X011215Y037868D01*
X011251Y037918D01*
X011290Y037966D01*
X011332Y038010D01*
X011376Y038053D01*
X011423Y038092D01*
X011472Y038128D01*
X011524Y038161D01*
X011577Y038191D01*
X011633Y038218D01*
X011689Y038240D01*
X011748Y038260D01*
X011807Y038275D01*
X011867Y038287D01*
X011928Y038295D01*
X011989Y038299D01*
X012050Y038300D01*
X012111Y038299D01*
X012172Y038295D01*
X012233Y038287D01*
X012293Y038275D01*
X012352Y038260D01*
X012411Y038240D01*
X012467Y038218D01*
X012523Y038191D01*
X012576Y038161D01*
X012628Y038128D01*
X012677Y038092D01*
X012724Y038053D01*
X012768Y038010D01*
X012810Y037966D01*
X012849Y037918D01*
X012885Y037868D01*
X012917Y037816D01*
X012946Y037763D01*
X012972Y037707D01*
X012994Y037650D01*
X013013Y037592D01*
X013028Y037532D01*
X013039Y037472D01*
X013046Y037411D01*
X013050Y037350D01*
X013050Y034250D01*
X013046Y034189D01*
X013039Y034128D01*
X013028Y034068D01*
X013013Y034009D01*
X012994Y033950D01*
X012972Y033893D01*
X012946Y033837D01*
X012917Y033784D01*
X012885Y033732D01*
X012849Y033682D01*
X012810Y033634D01*
X012768Y033590D01*
X012724Y033547D01*
X012677Y033508D01*
X012628Y033472D01*
X012576Y033439D01*
X012523Y033409D01*
X012467Y033382D01*
X012410Y033360D01*
X012352Y033340D01*
X012293Y033325D01*
X012233Y033313D01*
X012172Y033305D01*
X012111Y033301D01*
X012050Y033300D01*
X011989Y033301D01*
X011928Y033305D01*
X011867Y033313D01*
X011807Y033325D01*
X011748Y033340D01*
X011690Y033360D01*
X011633Y033382D01*
X011577Y033409D01*
X011524Y033439D01*
X011472Y033472D01*
X011423Y033508D01*
X011376Y033547D01*
X011332Y033590D01*
X011290Y033634D01*
X011251Y033682D01*
X011215Y033732D01*
X011183Y033784D01*
X011154Y033837D01*
X011128Y033893D01*
X011106Y033950D01*
X011087Y034009D01*
X011072Y034068D01*
X011061Y034128D01*
X011054Y034189D01*
X011050Y034250D01*
X014550Y038350D02*
X015650Y038350D01*
X015650Y000150D01*
X014550Y000150D01*
X014550Y038350D01*
X015850Y037350D02*
X015850Y034250D01*
X015854Y034189D01*
X015861Y034128D01*
X015872Y034068D01*
X015887Y034009D01*
X015906Y033950D01*
X015928Y033893D01*
X015954Y033837D01*
X015983Y033784D01*
X016015Y033732D01*
X016051Y033682D01*
X016090Y033634D01*
X016132Y033590D01*
X016176Y033547D01*
X016223Y033508D01*
X016272Y033472D01*
X016324Y033439D01*
X016377Y033409D01*
X016433Y033382D01*
X016490Y033360D01*
X016548Y033340D01*
X016607Y033325D01*
X016667Y033313D01*
X016728Y033305D01*
X016789Y033301D01*
X016850Y033300D01*
X016911Y033301D01*
X016972Y033305D01*
X017033Y033313D01*
X017093Y033325D01*
X017152Y033340D01*
X017210Y033360D01*
X017267Y033382D01*
X017323Y033409D01*
X017376Y033439D01*
X017428Y033472D01*
X017477Y033508D01*
X017524Y033547D01*
X017568Y033590D01*
X017610Y033634D01*
X017649Y033682D01*
X017685Y033732D01*
X017717Y033784D01*
X017746Y033837D01*
X017772Y033893D01*
X017794Y033950D01*
X017813Y034009D01*
X017828Y034068D01*
X017839Y034128D01*
X017846Y034189D01*
X017850Y034250D01*
X017850Y037350D01*
X018050Y038350D02*
X019150Y038350D01*
X019150Y000150D01*
X018050Y000150D01*
X018050Y038350D01*
X017850Y037350D02*
X017846Y037411D01*
X017839Y037472D01*
X017828Y037532D01*
X017813Y037592D01*
X017794Y037650D01*
X017772Y037707D01*
X017746Y037763D01*
X017717Y037816D01*
X017685Y037868D01*
X017649Y037918D01*
X017610Y037966D01*
X017568Y038010D01*
X017524Y038053D01*
X017477Y038092D01*
X017428Y038128D01*
X017376Y038161D01*
X017323Y038191D01*
X017267Y038218D01*
X017211Y038240D01*
X017152Y038260D01*
X017093Y038275D01*
X017033Y038287D01*
X016972Y038295D01*
X016911Y038299D01*
X016850Y038300D01*
X016789Y038299D01*
X016728Y038295D01*
X016667Y038287D01*
X016607Y038275D01*
X016548Y038260D01*
X016489Y038240D01*
X016433Y038218D01*
X016377Y038191D01*
X016324Y038161D01*
X016272Y038128D01*
X016223Y038092D01*
X016176Y038053D01*
X016132Y038010D01*
X016090Y037966D01*
X016051Y037918D01*
X016015Y037868D01*
X015983Y037816D01*
X015954Y037763D01*
X015928Y037707D01*
X015906Y037650D01*
X015887Y037592D01*
X015872Y037532D01*
X015861Y037472D01*
X015854Y037411D01*
X015850Y037350D01*
X019350Y038350D02*
X020450Y038350D01*
X020450Y000150D01*
X019350Y000150D01*
X019350Y038350D01*
X020650Y037350D02*
X020650Y034250D01*
X020654Y034189D01*
X020661Y034128D01*
X020672Y034068D01*
X020687Y034009D01*
X020706Y033950D01*
X020728Y033893D01*
X020754Y033837D01*
X020783Y033784D01*
X020815Y033732D01*
X020851Y033682D01*
X020890Y033634D01*
X020932Y033590D01*
X020976Y033547D01*
X021023Y033508D01*
X021072Y033472D01*
X021124Y033439D01*
X021177Y033409D01*
X021233Y033382D01*
X021290Y033360D01*
X021348Y033340D01*
X021407Y033325D01*
X021467Y033313D01*
X021528Y033305D01*
X021589Y033301D01*
X021650Y033300D01*
X021711Y033301D01*
X021772Y033305D01*
X021833Y033313D01*
X021893Y033325D01*
X021952Y033340D01*
X022010Y033360D01*
X022067Y033382D01*
X022123Y033409D01*
X022176Y033439D01*
X022228Y033472D01*
X022277Y033508D01*
X022324Y033547D01*
X022368Y033590D01*
X022410Y033634D01*
X022449Y033682D01*
X022485Y033732D01*
X022517Y033784D01*
X022546Y033837D01*
X022572Y033893D01*
X022594Y033950D01*
X022613Y034009D01*
X022628Y034068D01*
X022639Y034128D01*
X022646Y034189D01*
X022650Y034250D01*
X022650Y037350D01*
X022850Y038350D02*
X023950Y038350D01*
X023950Y000150D01*
X022850Y000150D01*
X022850Y038350D01*
X022650Y037350D02*
X022646Y037411D01*
X022639Y037472D01*
X022628Y037532D01*
X022613Y037592D01*
X022594Y037650D01*
X022572Y037707D01*
X022546Y037763D01*
X022517Y037816D01*
X022485Y037868D01*
X022449Y037918D01*
X022410Y037966D01*
X022368Y038010D01*
X022324Y038053D01*
X022277Y038092D01*
X022228Y038128D01*
X022176Y038161D01*
X022123Y038191D01*
X022067Y038218D01*
X022011Y038240D01*
X021952Y038260D01*
X021893Y038275D01*
X021833Y038287D01*
X021772Y038295D01*
X021711Y038299D01*
X021650Y038300D01*
X021589Y038299D01*
X021528Y038295D01*
X021467Y038287D01*
X021407Y038275D01*
X021348Y038260D01*
X021289Y038240D01*
X021233Y038218D01*
X021177Y038191D01*
X021124Y038161D01*
X021072Y038128D01*
X021023Y038092D01*
X020976Y038053D01*
X020932Y038010D01*
X020890Y037966D01*
X020851Y037918D01*
X020815Y037868D01*
X020783Y037816D01*
X020754Y037763D01*
X020728Y037707D01*
X020706Y037650D01*
X020687Y037592D01*
X020672Y037532D01*
X020661Y037472D01*
X020654Y037411D01*
X020650Y037350D01*
X020650Y031850D02*
X020650Y028750D01*
X020654Y028689D01*
X020661Y028628D01*
X020672Y028568D01*
X020687Y028509D01*
X020706Y028450D01*
X020728Y028393D01*
X020754Y028337D01*
X020783Y028284D01*
X020815Y028232D01*
X020851Y028182D01*
X020890Y028134D01*
X020932Y028090D01*
X020976Y028047D01*
X021023Y028008D01*
X021072Y027972D01*
X021124Y027939D01*
X021177Y027909D01*
X021233Y027882D01*
X021290Y027860D01*
X021348Y027840D01*
X021407Y027825D01*
X021467Y027813D01*
X021528Y027805D01*
X021589Y027801D01*
X021650Y027800D01*
X021711Y027801D01*
X021772Y027805D01*
X021833Y027813D01*
X021893Y027825D01*
X021952Y027840D01*
X022010Y027860D01*
X022067Y027882D01*
X022123Y027909D01*
X022176Y027939D01*
X022228Y027972D01*
X022277Y028008D01*
X022324Y028047D01*
X022368Y028090D01*
X022410Y028134D01*
X022449Y028182D01*
X022485Y028232D01*
X022517Y028284D01*
X022546Y028337D01*
X022572Y028393D01*
X022594Y028450D01*
X022613Y028509D01*
X022628Y028568D01*
X022639Y028628D01*
X022646Y028689D01*
X022650Y028750D01*
X022650Y031850D01*
X022646Y031911D01*
X022639Y031972D01*
X022628Y032032D01*
X022613Y032092D01*
X022594Y032150D01*
X022572Y032207D01*
X022546Y032263D01*
X022517Y032316D01*
X022485Y032368D01*
X022449Y032418D01*
X022410Y032466D01*
X022368Y032510D01*
X022324Y032553D01*
X022277Y032592D01*
X022228Y032628D01*
X022176Y032661D01*
X022123Y032691D01*
X022067Y032718D01*
X022011Y032740D01*
X021952Y032760D01*
X021893Y032775D01*
X021833Y032787D01*
X021772Y032795D01*
X021711Y032799D01*
X021650Y032800D01*
X021589Y032799D01*
X021528Y032795D01*
X021467Y032787D01*
X021407Y032775D01*
X021348Y032760D01*
X021289Y032740D01*
X021233Y032718D01*
X021177Y032691D01*
X021124Y032661D01*
X021072Y032628D01*
X021023Y032592D01*
X020976Y032553D01*
X020932Y032510D01*
X020890Y032466D01*
X020851Y032418D01*
X020815Y032368D01*
X020783Y032316D01*
X020754Y032263D01*
X020728Y032207D01*
X020706Y032150D01*
X020687Y032092D01*
X020672Y032032D01*
X020661Y031972D01*
X020654Y031911D01*
X020650Y031850D01*
X017850Y031850D02*
X017850Y028750D01*
X017846Y028689D01*
X017839Y028628D01*
X017828Y028568D01*
X017813Y028509D01*
X017794Y028450D01*
X017772Y028393D01*
X017746Y028337D01*
X017717Y028284D01*
X017685Y028232D01*
X017649Y028182D01*
X017610Y028134D01*
X017568Y028090D01*
X017524Y028047D01*
X017477Y028008D01*
X017428Y027972D01*
X017376Y027939D01*
X017323Y027909D01*
X017267Y027882D01*
X017210Y027860D01*
X017152Y027840D01*
X017093Y027825D01*
X017033Y027813D01*
X016972Y027805D01*
X016911Y027801D01*
X016850Y027800D01*
X016789Y027801D01*
X016728Y027805D01*
X016667Y027813D01*
X016607Y027825D01*
X016548Y027840D01*
X016490Y027860D01*
X016433Y027882D01*
X016377Y027909D01*
X016324Y027939D01*
X016272Y027972D01*
X016223Y028008D01*
X016176Y028047D01*
X016132Y028090D01*
X016090Y028134D01*
X016051Y028182D01*
X016015Y028232D01*
X015983Y028284D01*
X015954Y028337D01*
X015928Y028393D01*
X015906Y028450D01*
X015887Y028509D01*
X015872Y028568D01*
X015861Y028628D01*
X015854Y028689D01*
X015850Y028750D01*
X015850Y031850D01*
X015854Y031911D01*
X015861Y031972D01*
X015872Y032032D01*
X015887Y032092D01*
X015906Y032150D01*
X015928Y032207D01*
X015954Y032263D01*
X015983Y032316D01*
X016015Y032368D01*
X016051Y032418D01*
X016090Y032466D01*
X016132Y032510D01*
X016176Y032553D01*
X016223Y032592D01*
X016272Y032628D01*
X016324Y032661D01*
X016377Y032691D01*
X016433Y032718D01*
X016489Y032740D01*
X016548Y032760D01*
X016607Y032775D01*
X016667Y032787D01*
X016728Y032795D01*
X016789Y032799D01*
X016850Y032800D01*
X016911Y032799D01*
X016972Y032795D01*
X017033Y032787D01*
X017093Y032775D01*
X017152Y032760D01*
X017211Y032740D01*
X017267Y032718D01*
X017323Y032691D01*
X017376Y032661D01*
X017428Y032628D01*
X017477Y032592D01*
X017524Y032553D01*
X017568Y032510D01*
X017610Y032466D01*
X017649Y032418D01*
X017685Y032368D01*
X017717Y032316D01*
X017746Y032263D01*
X017772Y032207D01*
X017794Y032150D01*
X017813Y032092D01*
X017828Y032032D01*
X017839Y031972D01*
X017846Y031911D01*
X017850Y031850D01*
X017850Y026350D02*
X017850Y023250D01*
X017846Y023189D01*
X017839Y023128D01*
X017828Y023068D01*
X017813Y023009D01*
X017794Y022950D01*
X017772Y022893D01*
X017746Y022837D01*
X017717Y022784D01*
X017685Y022732D01*
X017649Y022682D01*
X017610Y022634D01*
X017568Y022590D01*
X017524Y022547D01*
X017477Y022508D01*
X017428Y022472D01*
X017376Y022439D01*
X017323Y022409D01*
X017267Y022382D01*
X017210Y022360D01*
X017152Y022340D01*
X017093Y022325D01*
X017033Y022313D01*
X016972Y022305D01*
X016911Y022301D01*
X016850Y022300D01*
X016789Y022301D01*
X016728Y022305D01*
X016667Y022313D01*
X016607Y022325D01*
X016548Y022340D01*
X016490Y022360D01*
X016433Y022382D01*
X016377Y022409D01*
X016324Y022439D01*
X016272Y022472D01*
X016223Y022508D01*
X016176Y022547D01*
X016132Y022590D01*
X016090Y022634D01*
X016051Y022682D01*
X016015Y022732D01*
X015983Y022784D01*
X015954Y022837D01*
X015928Y022893D01*
X015906Y022950D01*
X015887Y023009D01*
X015872Y023068D01*
X015861Y023128D01*
X015854Y023189D01*
X015850Y023250D01*
X015850Y026350D01*
X015854Y026411D01*
X015861Y026472D01*
X015872Y026532D01*
X015887Y026592D01*
X015906Y026650D01*
X015928Y026707D01*
X015954Y026763D01*
X015983Y026816D01*
X016015Y026868D01*
X016051Y026918D01*
X016090Y026966D01*
X016132Y027010D01*
X016176Y027053D01*
X016223Y027092D01*
X016272Y027128D01*
X016324Y027161D01*
X016377Y027191D01*
X016433Y027218D01*
X016489Y027240D01*
X016548Y027260D01*
X016607Y027275D01*
X016667Y027287D01*
X016728Y027295D01*
X016789Y027299D01*
X016850Y027300D01*
X016911Y027299D01*
X016972Y027295D01*
X017033Y027287D01*
X017093Y027275D01*
X017152Y027260D01*
X017211Y027240D01*
X017267Y027218D01*
X017323Y027191D01*
X017376Y027161D01*
X017428Y027128D01*
X017477Y027092D01*
X017524Y027053D01*
X017568Y027010D01*
X017610Y026966D01*
X017649Y026918D01*
X017685Y026868D01*
X017717Y026816D01*
X017746Y026763D01*
X017772Y026707D01*
X017794Y026650D01*
X017813Y026592D01*
X017828Y026532D01*
X017839Y026472D01*
X017846Y026411D01*
X017850Y026350D01*
X020650Y026350D02*
X020650Y023250D01*
X020654Y023189D01*
X020661Y023128D01*
X020672Y023068D01*
X020687Y023009D01*
X020706Y022950D01*
X020728Y022893D01*
X020754Y022837D01*
X020783Y022784D01*
X020815Y022732D01*
X020851Y022682D01*
X020890Y022634D01*
X020932Y022590D01*
X020976Y022547D01*
X021023Y022508D01*
X021072Y022472D01*
X021124Y022439D01*
X021177Y022409D01*
X021233Y022382D01*
X021290Y022360D01*
X021348Y022340D01*
X021407Y022325D01*
X021467Y022313D01*
X021528Y022305D01*
X021589Y022301D01*
X021650Y022300D01*
X021711Y022301D01*
X021772Y022305D01*
X021833Y022313D01*
X021893Y022325D01*
X021952Y022340D01*
X022010Y022360D01*
X022067Y022382D01*
X022123Y022409D01*
X022176Y022439D01*
X022228Y022472D01*
X022277Y022508D01*
X022324Y022547D01*
X022368Y022590D01*
X022410Y022634D01*
X022449Y022682D01*
X022485Y022732D01*
X022517Y022784D01*
X022546Y022837D01*
X022572Y022893D01*
X022594Y022950D01*
X022613Y023009D01*
X022628Y023068D01*
X022639Y023128D01*
X022646Y023189D01*
X022650Y023250D01*
X022650Y026350D01*
X022646Y026411D01*
X022639Y026472D01*
X022628Y026532D01*
X022613Y026592D01*
X022594Y026650D01*
X022572Y026707D01*
X022546Y026763D01*
X022517Y026816D01*
X022485Y026868D01*
X022449Y026918D01*
X022410Y026966D01*
X022368Y027010D01*
X022324Y027053D01*
X022277Y027092D01*
X022228Y027128D01*
X022176Y027161D01*
X022123Y027191D01*
X022067Y027218D01*
X022011Y027240D01*
X021952Y027260D01*
X021893Y027275D01*
X021833Y027287D01*
X021772Y027295D01*
X021711Y027299D01*
X021650Y027300D01*
X021589Y027299D01*
X021528Y027295D01*
X021467Y027287D01*
X021407Y027275D01*
X021348Y027260D01*
X021289Y027240D01*
X021233Y027218D01*
X021177Y027191D01*
X021124Y027161D01*
X021072Y027128D01*
X021023Y027092D01*
X020976Y027053D01*
X020932Y027010D01*
X020890Y026966D01*
X020851Y026918D01*
X020815Y026868D01*
X020783Y026816D01*
X020754Y026763D01*
X020728Y026707D01*
X020706Y026650D01*
X020687Y026592D01*
X020672Y026532D01*
X020661Y026472D01*
X020654Y026411D01*
X020650Y026350D01*
X020650Y020850D02*
X020650Y017750D01*
X020654Y017689D01*
X020661Y017628D01*
X020672Y017568D01*
X020687Y017509D01*
X020706Y017450D01*
X020728Y017393D01*
X020754Y017337D01*
X020783Y017284D01*
X020815Y017232D01*
X020851Y017182D01*
X020890Y017134D01*
X020932Y017090D01*
X020976Y017047D01*
X021023Y017008D01*
X021072Y016972D01*
X021124Y016939D01*
X021177Y016909D01*
X021233Y016882D01*
X021290Y016860D01*
X021348Y016840D01*
X021407Y016825D01*
X021467Y016813D01*
X021528Y016805D01*
X021589Y016801D01*
X021650Y016800D01*
X021711Y016801D01*
X021772Y016805D01*
X021833Y016813D01*
X021893Y016825D01*
X021952Y016840D01*
X022010Y016860D01*
X022067Y016882D01*
X022123Y016909D01*
X022176Y016939D01*
X022228Y016972D01*
X022277Y017008D01*
X022324Y017047D01*
X022368Y017090D01*
X022410Y017134D01*
X022449Y017182D01*
X022485Y017232D01*
X022517Y017284D01*
X022546Y017337D01*
X022572Y017393D01*
X022594Y017450D01*
X022613Y017509D01*
X022628Y017568D01*
X022639Y017628D01*
X022646Y017689D01*
X022650Y017750D01*
X022650Y020850D01*
X022646Y020911D01*
X022639Y020972D01*
X022628Y021032D01*
X022613Y021092D01*
X022594Y021150D01*
X022572Y021207D01*
X022546Y021263D01*
X022517Y021316D01*
X022485Y021368D01*
X022449Y021418D01*
X022410Y021466D01*
X022368Y021510D01*
X022324Y021553D01*
X022277Y021592D01*
X022228Y021628D01*
X022176Y021661D01*
X022123Y021691D01*
X022067Y021718D01*
X022011Y021740D01*
X021952Y021760D01*
X021893Y021775D01*
X021833Y021787D01*
X021772Y021795D01*
X021711Y021799D01*
X021650Y021800D01*
X021589Y021799D01*
X021528Y021795D01*
X021467Y021787D01*
X021407Y021775D01*
X021348Y021760D01*
X021289Y021740D01*
X021233Y021718D01*
X021177Y021691D01*
X021124Y021661D01*
X021072Y021628D01*
X021023Y021592D01*
X020976Y021553D01*
X020932Y021510D01*
X020890Y021466D01*
X020851Y021418D01*
X020815Y021368D01*
X020783Y021316D01*
X020754Y021263D01*
X020728Y021207D01*
X020706Y021150D01*
X020687Y021092D01*
X020672Y021032D01*
X020661Y020972D01*
X020654Y020911D01*
X020650Y020850D01*
X017850Y020850D02*
X017850Y017750D01*
X017846Y017689D01*
X017839Y017628D01*
X017828Y017568D01*
X017813Y017509D01*
X017794Y017450D01*
X017772Y017393D01*
X017746Y017337D01*
X017717Y017284D01*
X017685Y017232D01*
X017649Y017182D01*
X017610Y017134D01*
X017568Y017090D01*
X017524Y017047D01*
X017477Y017008D01*
X017428Y016972D01*
X017376Y016939D01*
X017323Y016909D01*
X017267Y016882D01*
X017210Y016860D01*
X017152Y016840D01*
X017093Y016825D01*
X017033Y016813D01*
X016972Y016805D01*
X016911Y016801D01*
X016850Y016800D01*
X016789Y016801D01*
X016728Y016805D01*
X016667Y016813D01*
X016607Y016825D01*
X016548Y016840D01*
X016490Y016860D01*
X016433Y016882D01*
X016377Y016909D01*
X016324Y016939D01*
X016272Y016972D01*
X016223Y017008D01*
X016176Y017047D01*
X016132Y017090D01*
X016090Y017134D01*
X016051Y017182D01*
X016015Y017232D01*
X015983Y017284D01*
X015954Y017337D01*
X015928Y017393D01*
X015906Y017450D01*
X015887Y017509D01*
X015872Y017568D01*
X015861Y017628D01*
X015854Y017689D01*
X015850Y017750D01*
X015850Y020850D01*
X015854Y020911D01*
X015861Y020972D01*
X015872Y021032D01*
X015887Y021092D01*
X015906Y021150D01*
X015928Y021207D01*
X015954Y021263D01*
X015983Y021316D01*
X016015Y021368D01*
X016051Y021418D01*
X016090Y021466D01*
X016132Y021510D01*
X016176Y021553D01*
X016223Y021592D01*
X016272Y021628D01*
X016324Y021661D01*
X016377Y021691D01*
X016433Y021718D01*
X016489Y021740D01*
X016548Y021760D01*
X016607Y021775D01*
X016667Y021787D01*
X016728Y021795D01*
X016789Y021799D01*
X016850Y021800D01*
X016911Y021799D01*
X016972Y021795D01*
X017033Y021787D01*
X017093Y021775D01*
X017152Y021760D01*
X017211Y021740D01*
X017267Y021718D01*
X017323Y021691D01*
X017376Y021661D01*
X017428Y021628D01*
X017477Y021592D01*
X017524Y021553D01*
X017568Y021510D01*
X017610Y021466D01*
X017649Y021418D01*
X017685Y021368D01*
X017717Y021316D01*
X017746Y021263D01*
X017772Y021207D01*
X017794Y021150D01*
X017813Y021092D01*
X017828Y021032D01*
X017839Y020972D01*
X017846Y020911D01*
X017850Y020850D01*
X017850Y015350D02*
X017850Y012250D01*
X017846Y012189D01*
X017839Y012128D01*
X017828Y012068D01*
X017813Y012009D01*
X017794Y011950D01*
X017772Y011893D01*
X017746Y011837D01*
X017717Y011784D01*
X017685Y011732D01*
X017649Y011682D01*
X017610Y011634D01*
X017568Y011590D01*
X017524Y011547D01*
X017477Y011508D01*
X017428Y011472D01*
X017376Y011439D01*
X017323Y011409D01*
X017267Y011382D01*
X017210Y011360D01*
X017152Y011340D01*
X017093Y011325D01*
X017033Y011313D01*
X016972Y011305D01*
X016911Y011301D01*
X016850Y011300D01*
X016789Y011301D01*
X016728Y011305D01*
X016667Y011313D01*
X016607Y011325D01*
X016548Y011340D01*
X016490Y011360D01*
X016433Y011382D01*
X016377Y011409D01*
X016324Y011439D01*
X016272Y011472D01*
X016223Y011508D01*
X016176Y011547D01*
X016132Y011590D01*
X016090Y011634D01*
X016051Y011682D01*
X016015Y011732D01*
X015983Y011784D01*
X015954Y011837D01*
X015928Y011893D01*
X015906Y011950D01*
X015887Y012009D01*
X015872Y012068D01*
X015861Y012128D01*
X015854Y012189D01*
X015850Y012250D01*
X015850Y015350D01*
X015854Y015411D01*
X015861Y015472D01*
X015872Y015532D01*
X015887Y015592D01*
X015906Y015650D01*
X015928Y015707D01*
X015954Y015763D01*
X015983Y015816D01*
X016015Y015868D01*
X016051Y015918D01*
X016090Y015966D01*
X016132Y016010D01*
X016176Y016053D01*
X016223Y016092D01*
X016272Y016128D01*
X016324Y016161D01*
X016377Y016191D01*
X016433Y016218D01*
X016489Y016240D01*
X016548Y016260D01*
X016607Y016275D01*
X016667Y016287D01*
X016728Y016295D01*
X016789Y016299D01*
X016850Y016300D01*
X016911Y016299D01*
X016972Y016295D01*
X017033Y016287D01*
X017093Y016275D01*
X017152Y016260D01*
X017211Y016240D01*
X017267Y016218D01*
X017323Y016191D01*
X017376Y016161D01*
X017428Y016128D01*
X017477Y016092D01*
X017524Y016053D01*
X017568Y016010D01*
X017610Y015966D01*
X017649Y015918D01*
X017685Y015868D01*
X017717Y015816D01*
X017746Y015763D01*
X017772Y015707D01*
X017794Y015650D01*
X017813Y015592D01*
X017828Y015532D01*
X017839Y015472D01*
X017846Y015411D01*
X017850Y015350D01*
X020650Y015350D02*
X020650Y012250D01*
X020654Y012189D01*
X020661Y012128D01*
X020672Y012068D01*
X020687Y012009D01*
X020706Y011950D01*
X020728Y011893D01*
X020754Y011837D01*
X020783Y011784D01*
X020815Y011732D01*
X020851Y011682D01*
X020890Y011634D01*
X020932Y011590D01*
X020976Y011547D01*
X021023Y011508D01*
X021072Y011472D01*
X021124Y011439D01*
X021177Y011409D01*
X021233Y011382D01*
X021290Y011360D01*
X021348Y011340D01*
X021407Y011325D01*
X021467Y011313D01*
X021528Y011305D01*
X021589Y011301D01*
X021650Y011300D01*
X021711Y011301D01*
X021772Y011305D01*
X021833Y011313D01*
X021893Y011325D01*
X021952Y011340D01*
X022010Y011360D01*
X022067Y011382D01*
X022123Y011409D01*
X022176Y011439D01*
X022228Y011472D01*
X022277Y011508D01*
X022324Y011547D01*
X022368Y011590D01*
X022410Y011634D01*
X022449Y011682D01*
X022485Y011732D01*
X022517Y011784D01*
X022546Y011837D01*
X022572Y011893D01*
X022594Y011950D01*
X022613Y012009D01*
X022628Y012068D01*
X022639Y012128D01*
X022646Y012189D01*
X022650Y012250D01*
X022650Y015350D01*
X022646Y015411D01*
X022639Y015472D01*
X022628Y015532D01*
X022613Y015592D01*
X022594Y015650D01*
X022572Y015707D01*
X022546Y015763D01*
X022517Y015816D01*
X022485Y015868D01*
X022449Y015918D01*
X022410Y015966D01*
X022368Y016010D01*
X022324Y016053D01*
X022277Y016092D01*
X022228Y016128D01*
X022176Y016161D01*
X022123Y016191D01*
X022067Y016218D01*
X022011Y016240D01*
X021952Y016260D01*
X021893Y016275D01*
X021833Y016287D01*
X021772Y016295D01*
X021711Y016299D01*
X021650Y016300D01*
X021589Y016299D01*
X021528Y016295D01*
X021467Y016287D01*
X021407Y016275D01*
X021348Y016260D01*
X021289Y016240D01*
X021233Y016218D01*
X021177Y016191D01*
X021124Y016161D01*
X021072Y016128D01*
X021023Y016092D01*
X020976Y016053D01*
X020932Y016010D01*
X020890Y015966D01*
X020851Y015918D01*
X020815Y015868D01*
X020783Y015816D01*
X020754Y015763D01*
X020728Y015707D01*
X020706Y015650D01*
X020687Y015592D01*
X020672Y015532D01*
X020661Y015472D01*
X020654Y015411D01*
X020650Y015350D01*
X020650Y009850D02*
X020650Y006750D01*
X020654Y006689D01*
X020661Y006628D01*
X020672Y006568D01*
X020687Y006509D01*
X020706Y006450D01*
X020728Y006393D01*
X020754Y006337D01*
X020783Y006284D01*
X020815Y006232D01*
X020851Y006182D01*
X020890Y006134D01*
X020932Y006090D01*
X020976Y006047D01*
X021023Y006008D01*
X021072Y005972D01*
X021124Y005939D01*
X021177Y005909D01*
X021233Y005882D01*
X021290Y005860D01*
X021348Y005840D01*
X021407Y005825D01*
X021467Y005813D01*
X021528Y005805D01*
X021589Y005801D01*
X021650Y005800D01*
X021711Y005801D01*
X021772Y005805D01*
X021833Y005813D01*
X021893Y005825D01*
X021952Y005840D01*
X022010Y005860D01*
X022067Y005882D01*
X022123Y005909D01*
X022176Y005939D01*
X022228Y005972D01*
X022277Y006008D01*
X022324Y006047D01*
X022368Y006090D01*
X022410Y006134D01*
X022449Y006182D01*
X022485Y006232D01*
X022517Y006284D01*
X022546Y006337D01*
X022572Y006393D01*
X022594Y006450D01*
X022613Y006509D01*
X022628Y006568D01*
X022639Y006628D01*
X022646Y006689D01*
X022650Y006750D01*
X022650Y009850D01*
X022646Y009911D01*
X022639Y009972D01*
X022628Y010032D01*
X022613Y010092D01*
X022594Y010150D01*
X022572Y010207D01*
X022546Y010263D01*
X022517Y010316D01*
X022485Y010368D01*
X022449Y010418D01*
X022410Y010466D01*
X022368Y010510D01*
X022324Y010553D01*
X022277Y010592D01*
X022228Y010628D01*
X022176Y010661D01*
X022123Y010691D01*
X022067Y010718D01*
X022011Y010740D01*
X021952Y010760D01*
X021893Y010775D01*
X021833Y010787D01*
X021772Y010795D01*
X021711Y010799D01*
X021650Y010800D01*
X021589Y010799D01*
X021528Y010795D01*
X021467Y010787D01*
X021407Y010775D01*
X021348Y010760D01*
X021289Y010740D01*
X021233Y010718D01*
X021177Y010691D01*
X021124Y010661D01*
X021072Y010628D01*
X021023Y010592D01*
X020976Y010553D01*
X020932Y010510D01*
X020890Y010466D01*
X020851Y010418D01*
X020815Y010368D01*
X020783Y010316D01*
X020754Y010263D01*
X020728Y010207D01*
X020706Y010150D01*
X020687Y010092D01*
X020672Y010032D01*
X020661Y009972D01*
X020654Y009911D01*
X020650Y009850D01*
X017850Y009850D02*
X017850Y006750D01*
X017846Y006689D01*
X017839Y006628D01*
X017828Y006568D01*
X017813Y006509D01*
X017794Y006450D01*
X017772Y006393D01*
X017746Y006337D01*
X017717Y006284D01*
X017685Y006232D01*
X017649Y006182D01*
X017610Y006134D01*
X017568Y006090D01*
X017524Y006047D01*
X017477Y006008D01*
X017428Y005972D01*
X017376Y005939D01*
X017323Y005909D01*
X017267Y005882D01*
X017210Y005860D01*
X017152Y005840D01*
X017093Y005825D01*
X017033Y005813D01*
X016972Y005805D01*
X016911Y005801D01*
X016850Y005800D01*
X016789Y005801D01*
X016728Y005805D01*
X016667Y005813D01*
X016607Y005825D01*
X016548Y005840D01*
X016490Y005860D01*
X016433Y005882D01*
X016377Y005909D01*
X016324Y005939D01*
X016272Y005972D01*
X016223Y006008D01*
X016176Y006047D01*
X016132Y006090D01*
X016090Y006134D01*
X016051Y006182D01*
X016015Y006232D01*
X015983Y006284D01*
X015954Y006337D01*
X015928Y006393D01*
X015906Y006450D01*
X015887Y006509D01*
X015872Y006568D01*
X015861Y006628D01*
X015854Y006689D01*
X015850Y006750D01*
X015850Y009850D01*
X015854Y009911D01*
X015861Y009972D01*
X015872Y010032D01*
X015887Y010092D01*
X015906Y010150D01*
X015928Y010207D01*
X015954Y010263D01*
X015983Y010316D01*
X016015Y010368D01*
X016051Y010418D01*
X016090Y010466D01*
X016132Y010510D01*
X016176Y010553D01*
X016223Y010592D01*
X016272Y010628D01*
X016324Y010661D01*
X016377Y010691D01*
X016433Y010718D01*
X016489Y010740D01*
X016548Y010760D01*
X016607Y010775D01*
X016667Y010787D01*
X016728Y010795D01*
X016789Y010799D01*
X016850Y010800D01*
X016911Y010799D01*
X016972Y010795D01*
X017033Y010787D01*
X017093Y010775D01*
X017152Y010760D01*
X017211Y010740D01*
X017267Y010718D01*
X017323Y010691D01*
X017376Y010661D01*
X017428Y010628D01*
X017477Y010592D01*
X017524Y010553D01*
X017568Y010510D01*
X017610Y010466D01*
X017649Y010418D01*
X017685Y010368D01*
X017717Y010316D01*
X017746Y010263D01*
X017772Y010207D01*
X017794Y010150D01*
X017813Y010092D01*
X017828Y010032D01*
X017839Y009972D01*
X017846Y009911D01*
X017850Y009850D01*
X017850Y004350D02*
X017850Y001250D01*
X017846Y001189D01*
X017839Y001128D01*
X017828Y001068D01*
X017813Y001009D01*
X017794Y000950D01*
X017772Y000893D01*
X017746Y000837D01*
X017717Y000784D01*
X017685Y000732D01*
X017649Y000682D01*
X017610Y000634D01*
X017568Y000590D01*
X017524Y000547D01*
X017477Y000508D01*
X017428Y000472D01*
X017376Y000439D01*
X017323Y000409D01*
X017267Y000382D01*
X017210Y000360D01*
X017152Y000340D01*
X017093Y000325D01*
X017033Y000313D01*
X016972Y000305D01*
X016911Y000301D01*
X016850Y000300D01*
X016789Y000301D01*
X016728Y000305D01*
X016667Y000313D01*
X016607Y000325D01*
X016548Y000340D01*
X016490Y000360D01*
X016433Y000382D01*
X016377Y000409D01*
X016324Y000439D01*
X016272Y000472D01*
X016223Y000508D01*
X016176Y000547D01*
X016132Y000590D01*
X016090Y000634D01*
X016051Y000682D01*
X016015Y000732D01*
X015983Y000784D01*
X015954Y000837D01*
X015928Y000893D01*
X015906Y000950D01*
X015887Y001009D01*
X015872Y001068D01*
X015861Y001128D01*
X015854Y001189D01*
X015850Y001250D01*
X015850Y004350D01*
X015854Y004411D01*
X015861Y004472D01*
X015872Y004532D01*
X015887Y004592D01*
X015906Y004650D01*
X015928Y004707D01*
X015954Y004763D01*
X015983Y004816D01*
X016015Y004868D01*
X016051Y004918D01*
X016090Y004966D01*
X016132Y005010D01*
X016176Y005053D01*
X016223Y005092D01*
X016272Y005128D01*
X016324Y005161D01*
X016377Y005191D01*
X016433Y005218D01*
X016489Y005240D01*
X016548Y005260D01*
X016607Y005275D01*
X016667Y005287D01*
X016728Y005295D01*
X016789Y005299D01*
X016850Y005300D01*
X016911Y005299D01*
X016972Y005295D01*
X017033Y005287D01*
X017093Y005275D01*
X017152Y005260D01*
X017211Y005240D01*
X017267Y005218D01*
X017323Y005191D01*
X017376Y005161D01*
X017428Y005128D01*
X017477Y005092D01*
X017524Y005053D01*
X017568Y005010D01*
X017610Y004966D01*
X017649Y004918D01*
X017685Y004868D01*
X017717Y004816D01*
X017746Y004763D01*
X017772Y004707D01*
X017794Y004650D01*
X017813Y004592D01*
X017828Y004532D01*
X017839Y004472D01*
X017846Y004411D01*
X017850Y004350D01*
X020650Y004350D02*
X020650Y001250D01*
X020654Y001189D01*
X020661Y001128D01*
X020672Y001068D01*
X020687Y001009D01*
X020706Y000950D01*
X020728Y000893D01*
X020754Y000837D01*
X020783Y000784D01*
X020815Y000732D01*
X020851Y000682D01*
X020890Y000634D01*
X020932Y000590D01*
X020976Y000547D01*
X021023Y000508D01*
X021072Y000472D01*
X021124Y000439D01*
X021177Y000409D01*
X021233Y000382D01*
X021290Y000360D01*
X021348Y000340D01*
X021407Y000325D01*
X021467Y000313D01*
X021528Y000305D01*
X021589Y000301D01*
X021650Y000300D01*
X021711Y000301D01*
X021772Y000305D01*
X021833Y000313D01*
X021893Y000325D01*
X021952Y000340D01*
X022010Y000360D01*
X022067Y000382D01*
X022123Y000409D01*
X022176Y000439D01*
X022228Y000472D01*
X022277Y000508D01*
X022324Y000547D01*
X022368Y000590D01*
X022410Y000634D01*
X022449Y000682D01*
X022485Y000732D01*
X022517Y000784D01*
X022546Y000837D01*
X022572Y000893D01*
X022594Y000950D01*
X022613Y001009D01*
X022628Y001068D01*
X022639Y001128D01*
X022646Y001189D01*
X022650Y001250D01*
X022650Y004350D01*
X022646Y004411D01*
X022639Y004472D01*
X022628Y004532D01*
X022613Y004592D01*
X022594Y004650D01*
X022572Y004707D01*
X022546Y004763D01*
X022517Y004816D01*
X022485Y004868D01*
X022449Y004918D01*
X022410Y004966D01*
X022368Y005010D01*
X022324Y005053D01*
X022277Y005092D01*
X022228Y005128D01*
X022176Y005161D01*
X022123Y005191D01*
X022067Y005218D01*
X022011Y005240D01*
X021952Y005260D01*
X021893Y005275D01*
X021833Y005287D01*
X021772Y005295D01*
X021711Y005299D01*
X021650Y005300D01*
X021589Y005299D01*
X021528Y005295D01*
X021467Y005287D01*
X021407Y005275D01*
X021348Y005260D01*
X021289Y005240D01*
X021233Y005218D01*
X021177Y005191D01*
X021124Y005161D01*
X021072Y005128D01*
X021023Y005092D01*
X020976Y005053D01*
X020932Y005010D01*
X020890Y004966D01*
X020851Y004918D01*
X020815Y004868D01*
X020783Y004816D01*
X020754Y004763D01*
X020728Y004707D01*
X020706Y004650D01*
X020687Y004592D01*
X020672Y004532D01*
X020661Y004472D01*
X020654Y004411D01*
X020650Y004350D01*
X008250Y001250D02*
X008246Y001189D01*
X008239Y001128D01*
X008228Y001068D01*
X008213Y001009D01*
X008194Y000950D01*
X008172Y000893D01*
X008146Y000837D01*
X008117Y000784D01*
X008085Y000732D01*
X008049Y000682D01*
X008010Y000634D01*
X007968Y000590D01*
X007924Y000547D01*
X007877Y000508D01*
X007828Y000472D01*
X007776Y000439D01*
X007723Y000409D01*
X007667Y000382D01*
X007610Y000360D01*
X007552Y000340D01*
X007493Y000325D01*
X007433Y000313D01*
X007372Y000305D01*
X007311Y000301D01*
X007250Y000300D01*
X007189Y000301D01*
X007128Y000305D01*
X007067Y000313D01*
X007007Y000325D01*
X006948Y000340D01*
X006890Y000360D01*
X006833Y000382D01*
X006777Y000409D01*
X006724Y000439D01*
X006672Y000472D01*
X006623Y000508D01*
X006576Y000547D01*
X006532Y000590D01*
X006490Y000634D01*
X006451Y000682D01*
X006415Y000732D01*
X006383Y000784D01*
X006354Y000837D01*
X006328Y000893D01*
X006306Y000950D01*
X006287Y001009D01*
X006272Y001068D01*
X006261Y001128D01*
X006254Y001189D01*
X006250Y001250D01*
X003450Y006750D02*
X003450Y009850D01*
X003446Y009911D01*
X003439Y009972D01*
X003428Y010032D01*
X003413Y010092D01*
X003394Y010150D01*
X003372Y010207D01*
X003346Y010263D01*
X003317Y010316D01*
X003285Y010368D01*
X003249Y010418D01*
X003210Y010466D01*
X003168Y010510D01*
X003124Y010553D01*
X003077Y010592D01*
X003028Y010628D01*
X002976Y010661D01*
X002923Y010691D01*
X002867Y010718D01*
X002811Y010740D01*
X002752Y010760D01*
X002693Y010775D01*
X002633Y010787D01*
X002572Y010795D01*
X002511Y010799D01*
X002450Y010800D01*
X002389Y010799D01*
X002328Y010795D01*
X002267Y010787D01*
X002207Y010775D01*
X002148Y010760D01*
X002089Y010740D01*
X002033Y010718D01*
X001977Y010691D01*
X001924Y010661D01*
X001872Y010628D01*
X001823Y010592D01*
X001776Y010553D01*
X001732Y010510D01*
X001690Y010466D01*
X001651Y010418D01*
X001615Y010368D01*
X001583Y010316D01*
X001554Y010263D01*
X001528Y010207D01*
X001506Y010150D01*
X001487Y010092D01*
X001472Y010032D01*
X001461Y009972D01*
X001454Y009911D01*
X001450Y009850D01*
X001450Y006750D01*
X001454Y006689D01*
X001461Y006628D01*
X001472Y006568D01*
X001487Y006509D01*
X001506Y006450D01*
X001528Y006393D01*
X001554Y006337D01*
X001583Y006284D01*
X001615Y006232D01*
X001651Y006182D01*
X001690Y006134D01*
X001732Y006090D01*
X001776Y006047D01*
X001823Y006008D01*
X001872Y005972D01*
X001924Y005939D01*
X001977Y005909D01*
X002033Y005882D01*
X002090Y005860D01*
X002148Y005840D01*
X002207Y005825D01*
X002267Y005813D01*
X002328Y005805D01*
X002389Y005801D01*
X002450Y005800D01*
X002511Y005801D01*
X002572Y005805D01*
X002633Y005813D01*
X002693Y005825D01*
X002752Y005840D01*
X002810Y005860D01*
X002867Y005882D01*
X002923Y005909D01*
X002976Y005939D01*
X003028Y005972D01*
X003077Y006008D01*
X003124Y006047D01*
X003168Y006090D01*
X003210Y006134D01*
X003249Y006182D01*
X003285Y006232D01*
X003317Y006284D01*
X003346Y006337D01*
X003372Y006393D01*
X003394Y006450D01*
X003413Y006509D01*
X003428Y006568D01*
X003439Y006628D01*
X003446Y006689D01*
X003450Y006750D01*
X003450Y012250D02*
X003450Y015350D01*
X003446Y015411D01*
X003439Y015472D01*
X003428Y015532D01*
X003413Y015592D01*
X003394Y015650D01*
X003372Y015707D01*
X003346Y015763D01*
X003317Y015816D01*
X003285Y015868D01*
X003249Y015918D01*
X003210Y015966D01*
X003168Y016010D01*
X003124Y016053D01*
X003077Y016092D01*
X003028Y016128D01*
X002976Y016161D01*
X002923Y016191D01*
X002867Y016218D01*
X002811Y016240D01*
X002752Y016260D01*
X002693Y016275D01*
X002633Y016287D01*
X002572Y016295D01*
X002511Y016299D01*
X002450Y016300D01*
X002389Y016299D01*
X002328Y016295D01*
X002267Y016287D01*
X002207Y016275D01*
X002148Y016260D01*
X002089Y016240D01*
X002033Y016218D01*
X001977Y016191D01*
X001924Y016161D01*
X001872Y016128D01*
X001823Y016092D01*
X001776Y016053D01*
X001732Y016010D01*
X001690Y015966D01*
X001651Y015918D01*
X001615Y015868D01*
X001583Y015816D01*
X001554Y015763D01*
X001528Y015707D01*
X001506Y015650D01*
X001487Y015592D01*
X001472Y015532D01*
X001461Y015472D01*
X001454Y015411D01*
X001450Y015350D01*
X001450Y012250D01*
X001454Y012189D01*
X001461Y012128D01*
X001472Y012068D01*
X001487Y012009D01*
X001506Y011950D01*
X001528Y011893D01*
X001554Y011837D01*
X001583Y011784D01*
X001615Y011732D01*
X001651Y011682D01*
X001690Y011634D01*
X001732Y011590D01*
X001776Y011547D01*
X001823Y011508D01*
X001872Y011472D01*
X001924Y011439D01*
X001977Y011409D01*
X002033Y011382D01*
X002090Y011360D01*
X002148Y011340D01*
X002207Y011325D01*
X002267Y011313D01*
X002328Y011305D01*
X002389Y011301D01*
X002450Y011300D01*
X002511Y011301D01*
X002572Y011305D01*
X002633Y011313D01*
X002693Y011325D01*
X002752Y011340D01*
X002810Y011360D01*
X002867Y011382D01*
X002923Y011409D01*
X002976Y011439D01*
X003028Y011472D01*
X003077Y011508D01*
X003124Y011547D01*
X003168Y011590D01*
X003210Y011634D01*
X003249Y011682D01*
X003285Y011732D01*
X003317Y011784D01*
X003346Y011837D01*
X003372Y011893D01*
X003394Y011950D01*
X003413Y012009D01*
X003428Y012068D01*
X003439Y012128D01*
X003446Y012189D01*
X003450Y012250D01*
X003450Y017750D02*
X003450Y020850D01*
X003446Y020911D01*
X003439Y020972D01*
X003428Y021032D01*
X003413Y021092D01*
X003394Y021150D01*
X003372Y021207D01*
X003346Y021263D01*
X003317Y021316D01*
X003285Y021368D01*
X003249Y021418D01*
X003210Y021466D01*
X003168Y021510D01*
X003124Y021553D01*
X003077Y021592D01*
X003028Y021628D01*
X002976Y021661D01*
X002923Y021691D01*
X002867Y021718D01*
X002811Y021740D01*
X002752Y021760D01*
X002693Y021775D01*
X002633Y021787D01*
X002572Y021795D01*
X002511Y021799D01*
X002450Y021800D01*
X002389Y021799D01*
X002328Y021795D01*
X002267Y021787D01*
X002207Y021775D01*
X002148Y021760D01*
X002089Y021740D01*
X002033Y021718D01*
X001977Y021691D01*
X001924Y021661D01*
X001872Y021628D01*
X001823Y021592D01*
X001776Y021553D01*
X001732Y021510D01*
X001690Y021466D01*
X001651Y021418D01*
X001615Y021368D01*
X001583Y021316D01*
X001554Y021263D01*
X001528Y021207D01*
X001506Y021150D01*
X001487Y021092D01*
X001472Y021032D01*
X001461Y020972D01*
X001454Y020911D01*
X001450Y020850D01*
X001450Y017750D01*
X001454Y017689D01*
X001461Y017628D01*
X001472Y017568D01*
X001487Y017509D01*
X001506Y017450D01*
X001528Y017393D01*
X001554Y017337D01*
X001583Y017284D01*
X001615Y017232D01*
X001651Y017182D01*
X001690Y017134D01*
X001732Y017090D01*
X001776Y017047D01*
X001823Y017008D01*
X001872Y016972D01*
X001924Y016939D01*
X001977Y016909D01*
X002033Y016882D01*
X002090Y016860D01*
X002148Y016840D01*
X002207Y016825D01*
X002267Y016813D01*
X002328Y016805D01*
X002389Y016801D01*
X002450Y016800D01*
X002511Y016801D01*
X002572Y016805D01*
X002633Y016813D01*
X002693Y016825D01*
X002752Y016840D01*
X002810Y016860D01*
X002867Y016882D01*
X002923Y016909D01*
X002976Y016939D01*
X003028Y016972D01*
X003077Y017008D01*
X003124Y017047D01*
X003168Y017090D01*
X003210Y017134D01*
X003249Y017182D01*
X003285Y017232D01*
X003317Y017284D01*
X003346Y017337D01*
X003372Y017393D01*
X003394Y017450D01*
X003413Y017509D01*
X003428Y017568D01*
X003439Y017628D01*
X003446Y017689D01*
X003450Y017750D01*
X003450Y023250D02*
X003450Y026350D01*
X003446Y026411D01*
X003439Y026472D01*
X003428Y026532D01*
X003413Y026592D01*
X003394Y026650D01*
X003372Y026707D01*
X003346Y026763D01*
X003317Y026816D01*
X003285Y026868D01*
X003249Y026918D01*
X003210Y026966D01*
X003168Y027010D01*
X003124Y027053D01*
X003077Y027092D01*
X003028Y027128D01*
X002976Y027161D01*
X002923Y027191D01*
X002867Y027218D01*
X002811Y027240D01*
X002752Y027260D01*
X002693Y027275D01*
X002633Y027287D01*
X002572Y027295D01*
X002511Y027299D01*
X002450Y027300D01*
X002389Y027299D01*
X002328Y027295D01*
X002267Y027287D01*
X002207Y027275D01*
X002148Y027260D01*
X002089Y027240D01*
X002033Y027218D01*
X001977Y027191D01*
X001924Y027161D01*
X001872Y027128D01*
X001823Y027092D01*
X001776Y027053D01*
X001732Y027010D01*
X001690Y026966D01*
X001651Y026918D01*
X001615Y026868D01*
X001583Y026816D01*
X001554Y026763D01*
X001528Y026707D01*
X001506Y026650D01*
X001487Y026592D01*
X001472Y026532D01*
X001461Y026472D01*
X001454Y026411D01*
X001450Y026350D01*
X001450Y023250D01*
X001454Y023189D01*
X001461Y023128D01*
X001472Y023068D01*
X001487Y023009D01*
X001506Y022950D01*
X001528Y022893D01*
X001554Y022837D01*
X001583Y022784D01*
X001615Y022732D01*
X001651Y022682D01*
X001690Y022634D01*
X001732Y022590D01*
X001776Y022547D01*
X001823Y022508D01*
X001872Y022472D01*
X001924Y022439D01*
X001977Y022409D01*
X002033Y022382D01*
X002090Y022360D01*
X002148Y022340D01*
X002207Y022325D01*
X002267Y022313D01*
X002328Y022305D01*
X002389Y022301D01*
X002450Y022300D01*
X002511Y022301D01*
X002572Y022305D01*
X002633Y022313D01*
X002693Y022325D01*
X002752Y022340D01*
X002810Y022360D01*
X002867Y022382D01*
X002923Y022409D01*
X002976Y022439D01*
X003028Y022472D01*
X003077Y022508D01*
X003124Y022547D01*
X003168Y022590D01*
X003210Y022634D01*
X003249Y022682D01*
X003285Y022732D01*
X003317Y022784D01*
X003346Y022837D01*
X003372Y022893D01*
X003394Y022950D01*
X003413Y023009D01*
X003428Y023068D01*
X003439Y023128D01*
X003446Y023189D01*
X003450Y023250D01*
X003450Y028750D02*
X003450Y031850D01*
X003446Y031911D01*
X003439Y031972D01*
X003428Y032032D01*
X003413Y032092D01*
X003394Y032150D01*
X003372Y032207D01*
X003346Y032263D01*
X003317Y032316D01*
X003285Y032368D01*
X003249Y032418D01*
X003210Y032466D01*
X003168Y032510D01*
X003124Y032553D01*
X003077Y032592D01*
X003028Y032628D01*
X002976Y032661D01*
X002923Y032691D01*
X002867Y032718D01*
X002811Y032740D01*
X002752Y032760D01*
X002693Y032775D01*
X002633Y032787D01*
X002572Y032795D01*
X002511Y032799D01*
X002450Y032800D01*
X002389Y032799D01*
X002328Y032795D01*
X002267Y032787D01*
X002207Y032775D01*
X002148Y032760D01*
X002089Y032740D01*
X002033Y032718D01*
X001977Y032691D01*
X001924Y032661D01*
X001872Y032628D01*
X001823Y032592D01*
X001776Y032553D01*
X001732Y032510D01*
X001690Y032466D01*
X001651Y032418D01*
X001615Y032368D01*
X001583Y032316D01*
X001554Y032263D01*
X001528Y032207D01*
X001506Y032150D01*
X001487Y032092D01*
X001472Y032032D01*
X001461Y031972D01*
X001454Y031911D01*
X001450Y031850D01*
X001450Y028750D01*
X001454Y028689D01*
X001461Y028628D01*
X001472Y028568D01*
X001487Y028509D01*
X001506Y028450D01*
X001528Y028393D01*
X001554Y028337D01*
X001583Y028284D01*
X001615Y028232D01*
X001651Y028182D01*
X001690Y028134D01*
X001732Y028090D01*
X001776Y028047D01*
X001823Y028008D01*
X001872Y027972D01*
X001924Y027939D01*
X001977Y027909D01*
X002033Y027882D01*
X002090Y027860D01*
X002148Y027840D01*
X002207Y027825D01*
X002267Y027813D01*
X002328Y027805D01*
X002389Y027801D01*
X002450Y027800D01*
X002511Y027801D01*
X002572Y027805D01*
X002633Y027813D01*
X002693Y027825D01*
X002752Y027840D01*
X002810Y027860D01*
X002867Y027882D01*
X002923Y027909D01*
X002976Y027939D01*
X003028Y027972D01*
X003077Y028008D01*
X003124Y028047D01*
X003168Y028090D01*
X003210Y028134D01*
X003249Y028182D01*
X003285Y028232D01*
X003317Y028284D01*
X003346Y028337D01*
X003372Y028393D01*
X003394Y028450D01*
X003413Y028509D01*
X003428Y028568D01*
X003439Y028628D01*
X003446Y028689D01*
X003450Y028750D01*
X003450Y034250D02*
X003450Y037350D01*
X003446Y037411D01*
X003439Y037472D01*
X003428Y037532D01*
X003413Y037592D01*
X003394Y037650D01*
X003372Y037707D01*
X003346Y037763D01*
X003317Y037816D01*
X003285Y037868D01*
X003249Y037918D01*
X003210Y037966D01*
X003168Y038010D01*
X003124Y038053D01*
X003077Y038092D01*
X003028Y038128D01*
X002976Y038161D01*
X002923Y038191D01*
X002867Y038218D01*
X002811Y038240D01*
X002752Y038260D01*
X002693Y038275D01*
X002633Y038287D01*
X002572Y038295D01*
X002511Y038299D01*
X002450Y038300D01*
X002389Y038299D01*
X002328Y038295D01*
X002267Y038287D01*
X002207Y038275D01*
X002148Y038260D01*
X002089Y038240D01*
X002033Y038218D01*
X001977Y038191D01*
X001924Y038161D01*
X001872Y038128D01*
X001823Y038092D01*
X001776Y038053D01*
X001732Y038010D01*
X001690Y037966D01*
X001651Y037918D01*
X001615Y037868D01*
X001583Y037816D01*
X001554Y037763D01*
X001528Y037707D01*
X001506Y037650D01*
X001487Y037592D01*
X001472Y037532D01*
X001461Y037472D01*
X001454Y037411D01*
X001450Y037350D01*
X001450Y034250D01*
X001454Y034189D01*
X001461Y034128D01*
X001472Y034068D01*
X001487Y034009D01*
X001506Y033950D01*
X001528Y033893D01*
X001554Y033837D01*
X001583Y033784D01*
X001615Y033732D01*
X001651Y033682D01*
X001690Y033634D01*
X001732Y033590D01*
X001776Y033547D01*
X001823Y033508D01*
X001872Y033472D01*
X001924Y033439D01*
X001977Y033409D01*
X002033Y033382D01*
X002090Y033360D01*
X002148Y033340D01*
X002207Y033325D01*
X002267Y033313D01*
X002328Y033305D01*
X002389Y033301D01*
X002450Y033300D01*
X002511Y033301D01*
X002572Y033305D01*
X002633Y033313D01*
X002693Y033325D01*
X002752Y033340D01*
X002810Y033360D01*
X002867Y033382D01*
X002923Y033409D01*
X002976Y033439D01*
X003028Y033472D01*
X003077Y033508D01*
X003124Y033547D01*
X003168Y033590D01*
X003210Y033634D01*
X003249Y033682D01*
X003285Y033732D01*
X003317Y033784D01*
X003346Y033837D01*
X003372Y033893D01*
X003394Y033950D01*
X003413Y034009D01*
X003428Y034068D01*
X003439Y034128D01*
X003446Y034189D01*
X003450Y034250D01*
X003450Y001250D02*
X003446Y001189D01*
X003439Y001128D01*
X003428Y001068D01*
X003413Y001009D01*
X003394Y000950D01*
X003372Y000893D01*
X003346Y000837D01*
X003317Y000784D01*
X003285Y000732D01*
X003249Y000682D01*
X003210Y000634D01*
X003168Y000590D01*
X003124Y000547D01*
X003077Y000508D01*
X003028Y000472D01*
X002976Y000439D01*
X002923Y000409D01*
X002867Y000382D01*
X002810Y000360D01*
X002752Y000340D01*
X002693Y000325D01*
X002633Y000313D01*
X002572Y000305D01*
X002511Y000301D01*
X002450Y000300D01*
X002389Y000301D01*
X002328Y000305D01*
X002267Y000313D01*
X002207Y000325D01*
X002148Y000340D01*
X002090Y000360D01*
X002033Y000382D01*
X001977Y000409D01*
X001924Y000439D01*
X001872Y000472D01*
X001823Y000508D01*
X001776Y000547D01*
X001732Y000590D01*
X001690Y000634D01*
X001651Y000682D01*
X001615Y000732D01*
X001583Y000784D01*
X001554Y000837D01*
X001528Y000893D01*
X001506Y000950D01*
X001487Y001009D01*
X001472Y001068D01*
X001461Y001128D01*
X001454Y001189D01*
X001450Y001250D01*
D11*
X001855Y005455D02*
X001855Y005605D01*
X001930Y005605D01*
X001955Y005580D01*
X001955Y005530D01*
X001930Y005505D01*
X001855Y005505D01*
X001905Y005505D02*
X001955Y005455D01*
X002002Y005480D02*
X002027Y005455D01*
X002077Y005455D01*
X002102Y005480D01*
X002102Y005580D01*
X002077Y005605D01*
X002027Y005605D01*
X002002Y005580D01*
X002002Y005480D01*
X002150Y005480D02*
X002175Y005455D01*
X002225Y005455D01*
X002250Y005480D01*
X002250Y005605D01*
X002297Y005605D02*
X002397Y005605D01*
X002444Y005605D02*
X002444Y005455D01*
X002544Y005455D01*
X002494Y005530D02*
X002444Y005530D01*
X002444Y005605D02*
X002544Y005605D01*
X002739Y005580D02*
X002739Y005480D01*
X002764Y005455D01*
X002814Y005455D01*
X002839Y005480D01*
X002839Y005580D01*
X002814Y005605D01*
X002764Y005605D01*
X002739Y005580D01*
X002886Y005605D02*
X002886Y005480D01*
X002911Y005455D01*
X002961Y005455D01*
X002986Y005480D01*
X002986Y005605D01*
X003034Y005605D02*
X003134Y005605D01*
X003084Y005605D02*
X003084Y005455D01*
X002347Y005455D02*
X002347Y005605D01*
X002150Y005605D02*
X002150Y005480D01*
X002175Y010955D02*
X002150Y010980D01*
X002150Y011105D01*
X002102Y011080D02*
X002077Y011105D01*
X002027Y011105D01*
X002002Y011080D01*
X002002Y010980D01*
X002027Y010955D01*
X002077Y010955D01*
X002102Y010980D01*
X002102Y011080D01*
X002175Y010955D02*
X002225Y010955D01*
X002250Y010980D01*
X002250Y011105D01*
X002297Y011105D02*
X002397Y011105D01*
X002444Y011105D02*
X002444Y010955D01*
X002544Y010955D01*
X002494Y011030D02*
X002444Y011030D01*
X002444Y011105D02*
X002544Y011105D01*
X002739Y011080D02*
X002739Y010980D01*
X002764Y010955D01*
X002814Y010955D01*
X002839Y010980D01*
X002839Y011080D01*
X002814Y011105D01*
X002764Y011105D01*
X002739Y011080D01*
X002886Y011105D02*
X002886Y010980D01*
X002911Y010955D01*
X002961Y010955D01*
X002986Y010980D01*
X002986Y011105D01*
X003034Y011105D02*
X003134Y011105D01*
X003084Y011105D02*
X003084Y010955D01*
X002347Y010955D02*
X002347Y011105D01*
X001955Y011080D02*
X001955Y011030D01*
X001930Y011005D01*
X001855Y011005D01*
X001855Y010955D02*
X001855Y011105D01*
X001930Y011105D01*
X001955Y011080D01*
X001905Y011005D02*
X001955Y010955D01*
X001955Y016455D02*
X001905Y016505D01*
X001930Y016505D02*
X001855Y016505D01*
X001855Y016455D02*
X001855Y016605D01*
X001930Y016605D01*
X001955Y016580D01*
X001955Y016530D01*
X001930Y016505D01*
X002002Y016480D02*
X002027Y016455D01*
X002077Y016455D01*
X002102Y016480D01*
X002102Y016580D01*
X002077Y016605D01*
X002027Y016605D01*
X002002Y016580D01*
X002002Y016480D01*
X002150Y016480D02*
X002175Y016455D01*
X002225Y016455D01*
X002250Y016480D01*
X002250Y016605D01*
X002297Y016605D02*
X002397Y016605D01*
X002444Y016605D02*
X002444Y016455D01*
X002544Y016455D01*
X002494Y016530D02*
X002444Y016530D01*
X002444Y016605D02*
X002544Y016605D01*
X002739Y016580D02*
X002739Y016480D01*
X002764Y016455D01*
X002814Y016455D01*
X002839Y016480D01*
X002839Y016580D01*
X002814Y016605D01*
X002764Y016605D01*
X002739Y016580D01*
X002886Y016605D02*
X002886Y016480D01*
X002911Y016455D01*
X002961Y016455D01*
X002986Y016480D01*
X002986Y016605D01*
X003034Y016605D02*
X003134Y016605D01*
X003084Y016605D02*
X003084Y016455D01*
X002347Y016455D02*
X002347Y016605D01*
X002150Y016605D02*
X002150Y016480D01*
X002125Y021955D02*
X002150Y021980D01*
X002150Y022105D01*
X002197Y022105D02*
X002297Y022105D01*
X002344Y022105D02*
X002344Y021955D01*
X002444Y021955D01*
X002394Y022030D02*
X002344Y022030D01*
X002344Y022105D02*
X002444Y022105D01*
X002639Y022080D02*
X002639Y021980D01*
X002664Y021955D01*
X002714Y021955D01*
X002739Y021980D01*
X002739Y022080D01*
X002714Y022105D01*
X002664Y022105D01*
X002639Y022080D01*
X002786Y022105D02*
X002786Y021980D01*
X002811Y021955D01*
X002861Y021955D01*
X002886Y021980D01*
X002886Y022105D01*
X002934Y022105D02*
X003034Y022105D01*
X002984Y022105D02*
X002984Y021955D01*
X002247Y021955D02*
X002247Y022105D01*
X002125Y021955D02*
X002075Y021955D01*
X002050Y021980D01*
X002050Y022105D01*
X002002Y022080D02*
X001977Y022105D01*
X001927Y022105D01*
X001902Y022080D01*
X001902Y021980D01*
X001927Y021955D01*
X001977Y021955D01*
X002002Y021980D01*
X002002Y022080D01*
X001855Y022080D02*
X001855Y022030D01*
X001830Y022005D01*
X001755Y022005D01*
X001755Y021955D02*
X001755Y022105D01*
X001830Y022105D01*
X001855Y022080D01*
X001805Y022005D02*
X001855Y021955D01*
X001855Y027455D02*
X001855Y027605D01*
X001930Y027605D01*
X001955Y027580D01*
X001955Y027530D01*
X001930Y027505D01*
X001855Y027505D01*
X001905Y027505D02*
X001955Y027455D01*
X002002Y027480D02*
X002027Y027455D01*
X002077Y027455D01*
X002102Y027480D01*
X002102Y027580D01*
X002077Y027605D01*
X002027Y027605D01*
X002002Y027580D01*
X002002Y027480D01*
X002150Y027480D02*
X002175Y027455D01*
X002225Y027455D01*
X002250Y027480D01*
X002250Y027605D01*
X002297Y027605D02*
X002397Y027605D01*
X002444Y027605D02*
X002444Y027455D01*
X002544Y027455D01*
X002494Y027530D02*
X002444Y027530D01*
X002444Y027605D02*
X002544Y027605D01*
X002739Y027580D02*
X002739Y027480D01*
X002764Y027455D01*
X002814Y027455D01*
X002839Y027480D01*
X002839Y027580D01*
X002814Y027605D01*
X002764Y027605D01*
X002739Y027580D01*
X002886Y027605D02*
X002886Y027480D01*
X002911Y027455D01*
X002961Y027455D01*
X002986Y027480D01*
X002986Y027605D01*
X003034Y027605D02*
X003134Y027605D01*
X003084Y027605D02*
X003084Y027455D01*
X002347Y027455D02*
X002347Y027605D01*
X002150Y027605D02*
X002150Y027480D01*
X002175Y032955D02*
X002150Y032980D01*
X002150Y033105D01*
X002102Y033080D02*
X002077Y033105D01*
X002027Y033105D01*
X002002Y033080D01*
X002002Y032980D01*
X002027Y032955D01*
X002077Y032955D01*
X002102Y032980D01*
X002102Y033080D01*
X002175Y032955D02*
X002225Y032955D01*
X002250Y032980D01*
X002250Y033105D01*
X002297Y033105D02*
X002397Y033105D01*
X002444Y033105D02*
X002444Y032955D01*
X002544Y032955D01*
X002494Y033030D02*
X002444Y033030D01*
X002444Y033105D02*
X002544Y033105D01*
X002739Y033080D02*
X002739Y032980D01*
X002764Y032955D01*
X002814Y032955D01*
X002839Y032980D01*
X002839Y033080D01*
X002814Y033105D01*
X002764Y033105D01*
X002739Y033080D01*
X002886Y033105D02*
X002886Y032980D01*
X002911Y032955D01*
X002961Y032955D01*
X002986Y032980D01*
X002986Y033105D01*
X003034Y033105D02*
X003134Y033105D01*
X003084Y033105D02*
X003084Y032955D01*
X002347Y032955D02*
X002347Y033105D01*
X001955Y033080D02*
X001955Y033030D01*
X001930Y033005D01*
X001855Y033005D01*
X001855Y032955D02*
X001855Y033105D01*
X001930Y033105D01*
X001955Y033080D01*
X001905Y033005D02*
X001955Y032955D01*
X006655Y032955D02*
X006655Y033105D01*
X006730Y033105D01*
X006755Y033080D01*
X006755Y033030D01*
X006730Y033005D01*
X006655Y033005D01*
X006705Y033005D02*
X006755Y032955D01*
X006802Y032980D02*
X006827Y032955D01*
X006877Y032955D01*
X006902Y032980D01*
X006902Y033080D01*
X006877Y033105D01*
X006827Y033105D01*
X006802Y033080D01*
X006802Y032980D01*
X006950Y032980D02*
X006975Y032955D01*
X007025Y032955D01*
X007050Y032980D01*
X007050Y033105D01*
X007097Y033105D02*
X007197Y033105D01*
X007244Y033105D02*
X007244Y032955D01*
X007344Y032955D01*
X007294Y033030D02*
X007244Y033030D01*
X007244Y033105D02*
X007344Y033105D01*
X007539Y033080D02*
X007539Y032980D01*
X007564Y032955D01*
X007614Y032955D01*
X007639Y032980D01*
X007639Y033080D01*
X007614Y033105D01*
X007564Y033105D01*
X007539Y033080D01*
X007686Y033105D02*
X007686Y032980D01*
X007711Y032955D01*
X007761Y032955D01*
X007786Y032980D01*
X007786Y033105D01*
X007834Y033105D02*
X007934Y033105D01*
X007884Y033105D02*
X007884Y032955D01*
X007147Y032955D02*
X007147Y033105D01*
X006950Y033105D02*
X006950Y032980D01*
X006950Y027605D02*
X006950Y027480D01*
X006975Y027455D01*
X007025Y027455D01*
X007050Y027480D01*
X007050Y027605D01*
X007097Y027605D02*
X007197Y027605D01*
X007244Y027605D02*
X007244Y027455D01*
X007344Y027455D01*
X007294Y027530D02*
X007244Y027530D01*
X007244Y027605D02*
X007344Y027605D01*
X007539Y027580D02*
X007539Y027480D01*
X007564Y027455D01*
X007614Y027455D01*
X007639Y027480D01*
X007639Y027580D01*
X007614Y027605D01*
X007564Y027605D01*
X007539Y027580D01*
X007686Y027605D02*
X007686Y027480D01*
X007711Y027455D01*
X007761Y027455D01*
X007786Y027480D01*
X007786Y027605D01*
X007834Y027605D02*
X007934Y027605D01*
X007884Y027605D02*
X007884Y027455D01*
X007147Y027455D02*
X007147Y027605D01*
X006902Y027580D02*
X006877Y027605D01*
X006827Y027605D01*
X006802Y027580D01*
X006802Y027480D01*
X006827Y027455D01*
X006877Y027455D01*
X006902Y027480D01*
X006902Y027580D01*
X006755Y027580D02*
X006755Y027530D01*
X006730Y027505D01*
X006655Y027505D01*
X006655Y027455D02*
X006655Y027605D01*
X006730Y027605D01*
X006755Y027580D01*
X006705Y027505D02*
X006755Y027455D01*
X006777Y022105D02*
X006727Y022105D01*
X006702Y022080D01*
X006702Y021980D01*
X006727Y021955D01*
X006777Y021955D01*
X006802Y021980D01*
X006802Y022080D01*
X006777Y022105D01*
X006850Y022105D02*
X006850Y021980D01*
X006875Y021955D01*
X006925Y021955D01*
X006950Y021980D01*
X006950Y022105D01*
X006997Y022105D02*
X007097Y022105D01*
X007144Y022105D02*
X007144Y021955D01*
X007244Y021955D01*
X007194Y022030D02*
X007144Y022030D01*
X007144Y022105D02*
X007244Y022105D01*
X007439Y022080D02*
X007439Y021980D01*
X007464Y021955D01*
X007514Y021955D01*
X007539Y021980D01*
X007539Y022080D01*
X007514Y022105D01*
X007464Y022105D01*
X007439Y022080D01*
X007586Y022105D02*
X007586Y021980D01*
X007611Y021955D01*
X007661Y021955D01*
X007686Y021980D01*
X007686Y022105D01*
X007734Y022105D02*
X007834Y022105D01*
X007784Y022105D02*
X007784Y021955D01*
X007047Y021955D02*
X007047Y022105D01*
X006655Y022080D02*
X006655Y022030D01*
X006630Y022005D01*
X006555Y022005D01*
X006555Y021955D02*
X006555Y022105D01*
X006630Y022105D01*
X006655Y022080D01*
X006605Y022005D02*
X006655Y021955D01*
X006655Y016605D02*
X006730Y016605D01*
X006755Y016580D01*
X006755Y016530D01*
X006730Y016505D01*
X006655Y016505D01*
X006655Y016455D02*
X006655Y016605D01*
X006705Y016505D02*
X006755Y016455D01*
X006802Y016480D02*
X006827Y016455D01*
X006877Y016455D01*
X006902Y016480D01*
X006902Y016580D01*
X006877Y016605D01*
X006827Y016605D01*
X006802Y016580D01*
X006802Y016480D01*
X006950Y016480D02*
X006975Y016455D01*
X007025Y016455D01*
X007050Y016480D01*
X007050Y016605D01*
X007097Y016605D02*
X007197Y016605D01*
X007244Y016605D02*
X007244Y016455D01*
X007344Y016455D01*
X007294Y016530D02*
X007244Y016530D01*
X007244Y016605D02*
X007344Y016605D01*
X007539Y016580D02*
X007539Y016480D01*
X007564Y016455D01*
X007614Y016455D01*
X007639Y016480D01*
X007639Y016580D01*
X007614Y016605D01*
X007564Y016605D01*
X007539Y016580D01*
X007686Y016605D02*
X007686Y016480D01*
X007711Y016455D01*
X007761Y016455D01*
X007786Y016480D01*
X007786Y016605D01*
X007834Y016605D02*
X007934Y016605D01*
X007884Y016605D02*
X007884Y016455D01*
X007147Y016455D02*
X007147Y016605D01*
X006950Y016605D02*
X006950Y016480D01*
X006950Y011105D02*
X006950Y010980D01*
X006975Y010955D01*
X007025Y010955D01*
X007050Y010980D01*
X007050Y011105D01*
X007097Y011105D02*
X007197Y011105D01*
X007244Y011105D02*
X007244Y010955D01*
X007344Y010955D01*
X007294Y011030D02*
X007244Y011030D01*
X007244Y011105D02*
X007344Y011105D01*
X007539Y011080D02*
X007539Y010980D01*
X007564Y010955D01*
X007614Y010955D01*
X007639Y010980D01*
X007639Y011080D01*
X007614Y011105D01*
X007564Y011105D01*
X007539Y011080D01*
X007686Y011105D02*
X007686Y010980D01*
X007711Y010955D01*
X007761Y010955D01*
X007786Y010980D01*
X007786Y011105D01*
X007834Y011105D02*
X007934Y011105D01*
X007884Y011105D02*
X007884Y010955D01*
X007147Y010955D02*
X007147Y011105D01*
X006902Y011080D02*
X006877Y011105D01*
X006827Y011105D01*
X006802Y011080D01*
X006802Y010980D01*
X006827Y010955D01*
X006877Y010955D01*
X006902Y010980D01*
X006902Y011080D01*
X006755Y011080D02*
X006755Y011030D01*
X006730Y011005D01*
X006655Y011005D01*
X006655Y010955D02*
X006655Y011105D01*
X006730Y011105D01*
X006755Y011080D01*
X006705Y011005D02*
X006755Y010955D01*
X006730Y005605D02*
X006755Y005580D01*
X006755Y005530D01*
X006730Y005505D01*
X006655Y005505D01*
X006655Y005455D02*
X006655Y005605D01*
X006730Y005605D01*
X006802Y005580D02*
X006802Y005480D01*
X006827Y005455D01*
X006877Y005455D01*
X006902Y005480D01*
X006902Y005580D01*
X006877Y005605D01*
X006827Y005605D01*
X006802Y005580D01*
X006705Y005505D02*
X006755Y005455D01*
X006950Y005480D02*
X006975Y005455D01*
X007025Y005455D01*
X007050Y005480D01*
X007050Y005605D01*
X007097Y005605D02*
X007197Y005605D01*
X007244Y005605D02*
X007244Y005455D01*
X007344Y005455D01*
X007294Y005530D02*
X007244Y005530D01*
X007244Y005605D02*
X007344Y005605D01*
X007539Y005580D02*
X007539Y005480D01*
X007564Y005455D01*
X007614Y005455D01*
X007639Y005480D01*
X007639Y005580D01*
X007614Y005605D01*
X007564Y005605D01*
X007539Y005580D01*
X007686Y005605D02*
X007686Y005480D01*
X007711Y005455D01*
X007761Y005455D01*
X007786Y005480D01*
X007786Y005605D01*
X007834Y005605D02*
X007934Y005605D01*
X007884Y005605D02*
X007884Y005455D01*
X007147Y005455D02*
X007147Y005605D01*
X006950Y005605D02*
X006950Y005480D01*
X011455Y005505D02*
X011530Y005505D01*
X011555Y005530D01*
X011555Y005580D01*
X011530Y005605D01*
X011455Y005605D01*
X011455Y005455D01*
X011505Y005505D02*
X011555Y005455D01*
X011602Y005480D02*
X011627Y005455D01*
X011677Y005455D01*
X011702Y005480D01*
X011702Y005580D01*
X011677Y005605D01*
X011627Y005605D01*
X011602Y005580D01*
X011602Y005480D01*
X011750Y005480D02*
X011775Y005455D01*
X011825Y005455D01*
X011850Y005480D01*
X011850Y005605D01*
X011897Y005605D02*
X011997Y005605D01*
X012044Y005605D02*
X012044Y005455D01*
X012144Y005455D01*
X012094Y005530D02*
X012044Y005530D01*
X012044Y005605D02*
X012144Y005605D01*
X012339Y005580D02*
X012339Y005480D01*
X012364Y005455D01*
X012414Y005455D01*
X012439Y005480D01*
X012439Y005580D01*
X012414Y005605D01*
X012364Y005605D01*
X012339Y005580D01*
X012486Y005605D02*
X012486Y005480D01*
X012511Y005455D01*
X012561Y005455D01*
X012586Y005480D01*
X012586Y005605D01*
X012634Y005605D02*
X012734Y005605D01*
X012684Y005605D02*
X012684Y005455D01*
X011947Y005455D02*
X011947Y005605D01*
X011750Y005605D02*
X011750Y005480D01*
X011775Y010955D02*
X011825Y010955D01*
X011850Y010980D01*
X011850Y011105D01*
X011897Y011105D02*
X011997Y011105D01*
X012044Y011105D02*
X012044Y010955D01*
X012144Y010955D01*
X012094Y011030D02*
X012044Y011030D01*
X012044Y011105D02*
X012144Y011105D01*
X012339Y011080D02*
X012339Y010980D01*
X012364Y010955D01*
X012414Y010955D01*
X012439Y010980D01*
X012439Y011080D01*
X012414Y011105D01*
X012364Y011105D01*
X012339Y011080D01*
X012486Y011105D02*
X012486Y010980D01*
X012511Y010955D01*
X012561Y010955D01*
X012586Y010980D01*
X012586Y011105D01*
X012634Y011105D02*
X012734Y011105D01*
X012684Y011105D02*
X012684Y010955D01*
X011947Y010955D02*
X011947Y011105D01*
X011750Y011105D02*
X011750Y010980D01*
X011775Y010955D01*
X011702Y010980D02*
X011702Y011080D01*
X011677Y011105D01*
X011627Y011105D01*
X011602Y011080D01*
X011602Y010980D01*
X011627Y010955D01*
X011677Y010955D01*
X011702Y010980D01*
X011555Y010955D02*
X011505Y011005D01*
X011530Y011005D02*
X011455Y011005D01*
X011455Y010955D02*
X011455Y011105D01*
X011530Y011105D01*
X011555Y011080D01*
X011555Y011030D01*
X011530Y011005D01*
X011555Y016455D02*
X011505Y016505D01*
X011530Y016505D02*
X011455Y016505D01*
X011455Y016455D02*
X011455Y016605D01*
X011530Y016605D01*
X011555Y016580D01*
X011555Y016530D01*
X011530Y016505D01*
X011602Y016480D02*
X011602Y016580D01*
X011627Y016605D01*
X011677Y016605D01*
X011702Y016580D01*
X011702Y016480D01*
X011677Y016455D01*
X011627Y016455D01*
X011602Y016480D01*
X011750Y016480D02*
X011775Y016455D01*
X011825Y016455D01*
X011850Y016480D01*
X011850Y016605D01*
X011897Y016605D02*
X011997Y016605D01*
X012044Y016605D02*
X012044Y016455D01*
X012144Y016455D01*
X012094Y016530D02*
X012044Y016530D01*
X012044Y016605D02*
X012144Y016605D01*
X012339Y016580D02*
X012339Y016480D01*
X012364Y016455D01*
X012414Y016455D01*
X012439Y016480D01*
X012439Y016580D01*
X012414Y016605D01*
X012364Y016605D01*
X012339Y016580D01*
X012486Y016605D02*
X012486Y016480D01*
X012511Y016455D01*
X012561Y016455D01*
X012586Y016480D01*
X012586Y016605D01*
X012634Y016605D02*
X012734Y016605D01*
X012684Y016605D02*
X012684Y016455D01*
X011947Y016455D02*
X011947Y016605D01*
X011750Y016605D02*
X011750Y016480D01*
X011725Y021955D02*
X011750Y021980D01*
X011750Y022105D01*
X011797Y022105D02*
X011897Y022105D01*
X011944Y022105D02*
X011944Y021955D01*
X012044Y021955D01*
X011994Y022030D02*
X011944Y022030D01*
X011944Y022105D02*
X012044Y022105D01*
X012239Y022080D02*
X012239Y021980D01*
X012264Y021955D01*
X012314Y021955D01*
X012339Y021980D01*
X012339Y022080D01*
X012314Y022105D01*
X012264Y022105D01*
X012239Y022080D01*
X012386Y022105D02*
X012386Y021980D01*
X012411Y021955D01*
X012461Y021955D01*
X012486Y021980D01*
X012486Y022105D01*
X012534Y022105D02*
X012634Y022105D01*
X012584Y022105D02*
X012584Y021955D01*
X011847Y021955D02*
X011847Y022105D01*
X011725Y021955D02*
X011675Y021955D01*
X011650Y021980D01*
X011650Y022105D01*
X011602Y022080D02*
X011577Y022105D01*
X011527Y022105D01*
X011502Y022080D01*
X011502Y021980D01*
X011527Y021955D01*
X011577Y021955D01*
X011602Y021980D01*
X011602Y022080D01*
X011455Y022080D02*
X011455Y022030D01*
X011430Y022005D01*
X011355Y022005D01*
X011355Y021955D02*
X011355Y022105D01*
X011430Y022105D01*
X011455Y022080D01*
X011405Y022005D02*
X011455Y021955D01*
X011455Y027455D02*
X011455Y027605D01*
X011530Y027605D01*
X011555Y027580D01*
X011555Y027530D01*
X011530Y027505D01*
X011455Y027505D01*
X011505Y027505D02*
X011555Y027455D01*
X011602Y027480D02*
X011627Y027455D01*
X011677Y027455D01*
X011702Y027480D01*
X011702Y027580D01*
X011677Y027605D01*
X011627Y027605D01*
X011602Y027580D01*
X011602Y027480D01*
X011750Y027480D02*
X011775Y027455D01*
X011825Y027455D01*
X011850Y027480D01*
X011850Y027605D01*
X011897Y027605D02*
X011997Y027605D01*
X012044Y027605D02*
X012044Y027455D01*
X012144Y027455D01*
X012094Y027530D02*
X012044Y027530D01*
X012044Y027605D02*
X012144Y027605D01*
X012339Y027580D02*
X012339Y027480D01*
X012364Y027455D01*
X012414Y027455D01*
X012439Y027480D01*
X012439Y027580D01*
X012414Y027605D01*
X012364Y027605D01*
X012339Y027580D01*
X012486Y027605D02*
X012486Y027480D01*
X012511Y027455D01*
X012561Y027455D01*
X012586Y027480D01*
X012586Y027605D01*
X012634Y027605D02*
X012734Y027605D01*
X012684Y027605D02*
X012684Y027455D01*
X011947Y027455D02*
X011947Y027605D01*
X011750Y027605D02*
X011750Y027480D01*
X011775Y032955D02*
X011825Y032955D01*
X011850Y032980D01*
X011850Y033105D01*
X011897Y033105D02*
X011997Y033105D01*
X012044Y033105D02*
X012044Y032955D01*
X012144Y032955D01*
X012094Y033030D02*
X012044Y033030D01*
X012044Y033105D02*
X012144Y033105D01*
X012339Y033080D02*
X012339Y032980D01*
X012364Y032955D01*
X012414Y032955D01*
X012439Y032980D01*
X012439Y033080D01*
X012414Y033105D01*
X012364Y033105D01*
X012339Y033080D01*
X012486Y033105D02*
X012486Y032980D01*
X012511Y032955D01*
X012561Y032955D01*
X012586Y032980D01*
X012586Y033105D01*
X012634Y033105D02*
X012734Y033105D01*
X012684Y033105D02*
X012684Y032955D01*
X011947Y032955D02*
X011947Y033105D01*
X011750Y033105D02*
X011750Y032980D01*
X011775Y032955D01*
X011702Y032980D02*
X011702Y033080D01*
X011677Y033105D01*
X011627Y033105D01*
X011602Y033080D01*
X011602Y032980D01*
X011627Y032955D01*
X011677Y032955D01*
X011702Y032980D01*
X011555Y032955D02*
X011505Y033005D01*
X011530Y033005D02*
X011455Y033005D01*
X011455Y032955D02*
X011455Y033105D01*
X011530Y033105D01*
X011555Y033080D01*
X011555Y033030D01*
X011530Y033005D01*
X016255Y033005D02*
X016330Y033005D01*
X016355Y033030D01*
X016355Y033080D01*
X016330Y033105D01*
X016255Y033105D01*
X016255Y032955D01*
X016305Y033005D02*
X016355Y032955D01*
X016402Y032980D02*
X016427Y032955D01*
X016477Y032955D01*
X016502Y032980D01*
X016502Y033080D01*
X016477Y033105D01*
X016427Y033105D01*
X016402Y033080D01*
X016402Y032980D01*
X016550Y032980D02*
X016575Y032955D01*
X016625Y032955D01*
X016650Y032980D01*
X016650Y033105D01*
X016697Y033105D02*
X016797Y033105D01*
X016844Y033105D02*
X016844Y032955D01*
X016944Y032955D01*
X016894Y033030D02*
X016844Y033030D01*
X016844Y033105D02*
X016944Y033105D01*
X017139Y033080D02*
X017139Y032980D01*
X017164Y032955D01*
X017214Y032955D01*
X017239Y032980D01*
X017239Y033080D01*
X017214Y033105D01*
X017164Y033105D01*
X017139Y033080D01*
X017286Y033105D02*
X017286Y032980D01*
X017311Y032955D01*
X017361Y032955D01*
X017386Y032980D01*
X017386Y033105D01*
X017434Y033105D02*
X017534Y033105D01*
X017484Y033105D02*
X017484Y032955D01*
X016747Y032955D02*
X016747Y033105D01*
X016550Y033105D02*
X016550Y032980D01*
X016550Y027605D02*
X016550Y027480D01*
X016575Y027455D01*
X016625Y027455D01*
X016650Y027480D01*
X016650Y027605D01*
X016697Y027605D02*
X016797Y027605D01*
X016844Y027605D02*
X016844Y027455D01*
X016944Y027455D01*
X016894Y027530D02*
X016844Y027530D01*
X016844Y027605D02*
X016944Y027605D01*
X017139Y027580D02*
X017139Y027480D01*
X017164Y027455D01*
X017214Y027455D01*
X017239Y027480D01*
X017239Y027580D01*
X017214Y027605D01*
X017164Y027605D01*
X017139Y027580D01*
X017286Y027605D02*
X017286Y027480D01*
X017311Y027455D01*
X017361Y027455D01*
X017386Y027480D01*
X017386Y027605D01*
X017434Y027605D02*
X017534Y027605D01*
X017484Y027605D02*
X017484Y027455D01*
X016747Y027455D02*
X016747Y027605D01*
X016502Y027580D02*
X016477Y027605D01*
X016427Y027605D01*
X016402Y027580D01*
X016402Y027480D01*
X016427Y027455D01*
X016477Y027455D01*
X016502Y027480D01*
X016502Y027580D01*
X016355Y027580D02*
X016355Y027530D01*
X016330Y027505D01*
X016255Y027505D01*
X016255Y027455D02*
X016255Y027605D01*
X016330Y027605D01*
X016355Y027580D01*
X016305Y027505D02*
X016355Y027455D01*
X016377Y022105D02*
X016402Y022080D01*
X016402Y021980D01*
X016377Y021955D01*
X016327Y021955D01*
X016302Y021980D01*
X016302Y022080D01*
X016327Y022105D01*
X016377Y022105D01*
X016450Y022105D02*
X016450Y021980D01*
X016475Y021955D01*
X016525Y021955D01*
X016550Y021980D01*
X016550Y022105D01*
X016597Y022105D02*
X016697Y022105D01*
X016744Y022105D02*
X016744Y021955D01*
X016844Y021955D01*
X016794Y022030D02*
X016744Y022030D01*
X016744Y022105D02*
X016844Y022105D01*
X017039Y022080D02*
X017039Y021980D01*
X017064Y021955D01*
X017114Y021955D01*
X017139Y021980D01*
X017139Y022080D01*
X017114Y022105D01*
X017064Y022105D01*
X017039Y022080D01*
X017186Y022105D02*
X017186Y021980D01*
X017211Y021955D01*
X017261Y021955D01*
X017286Y021980D01*
X017286Y022105D01*
X017334Y022105D02*
X017434Y022105D01*
X017384Y022105D02*
X017384Y021955D01*
X016647Y021955D02*
X016647Y022105D01*
X016255Y022080D02*
X016255Y022030D01*
X016230Y022005D01*
X016155Y022005D01*
X016155Y021955D02*
X016155Y022105D01*
X016230Y022105D01*
X016255Y022080D01*
X016205Y022005D02*
X016255Y021955D01*
X016255Y016605D02*
X016330Y016605D01*
X016355Y016580D01*
X016355Y016530D01*
X016330Y016505D01*
X016255Y016505D01*
X016255Y016455D02*
X016255Y016605D01*
X016305Y016505D02*
X016355Y016455D01*
X016402Y016480D02*
X016402Y016580D01*
X016427Y016605D01*
X016477Y016605D01*
X016502Y016580D01*
X016502Y016480D01*
X016477Y016455D01*
X016427Y016455D01*
X016402Y016480D01*
X016550Y016480D02*
X016575Y016455D01*
X016625Y016455D01*
X016650Y016480D01*
X016650Y016605D01*
X016697Y016605D02*
X016797Y016605D01*
X016844Y016605D02*
X016844Y016455D01*
X016944Y016455D01*
X016894Y016530D02*
X016844Y016530D01*
X016844Y016605D02*
X016944Y016605D01*
X017139Y016580D02*
X017139Y016480D01*
X017164Y016455D01*
X017214Y016455D01*
X017239Y016480D01*
X017239Y016580D01*
X017214Y016605D01*
X017164Y016605D01*
X017139Y016580D01*
X017286Y016605D02*
X017286Y016480D01*
X017311Y016455D01*
X017361Y016455D01*
X017386Y016480D01*
X017386Y016605D01*
X017434Y016605D02*
X017534Y016605D01*
X017484Y016605D02*
X017484Y016455D01*
X016747Y016455D02*
X016747Y016605D01*
X016550Y016605D02*
X016550Y016480D01*
X016550Y011105D02*
X016550Y010980D01*
X016575Y010955D01*
X016625Y010955D01*
X016650Y010980D01*
X016650Y011105D01*
X016697Y011105D02*
X016797Y011105D01*
X016844Y011105D02*
X016844Y010955D01*
X016944Y010955D01*
X016894Y011030D02*
X016844Y011030D01*
X016844Y011105D02*
X016944Y011105D01*
X017139Y011080D02*
X017139Y010980D01*
X017164Y010955D01*
X017214Y010955D01*
X017239Y010980D01*
X017239Y011080D01*
X017214Y011105D01*
X017164Y011105D01*
X017139Y011080D01*
X017286Y011105D02*
X017286Y010980D01*
X017311Y010955D01*
X017361Y010955D01*
X017386Y010980D01*
X017386Y011105D01*
X017434Y011105D02*
X017534Y011105D01*
X017484Y011105D02*
X017484Y010955D01*
X016747Y010955D02*
X016747Y011105D01*
X016502Y011080D02*
X016477Y011105D01*
X016427Y011105D01*
X016402Y011080D01*
X016402Y010980D01*
X016427Y010955D01*
X016477Y010955D01*
X016502Y010980D01*
X016502Y011080D01*
X016355Y011080D02*
X016355Y011030D01*
X016330Y011005D01*
X016255Y011005D01*
X016255Y010955D02*
X016255Y011105D01*
X016330Y011105D01*
X016355Y011080D01*
X016305Y011005D02*
X016355Y010955D01*
X016330Y005605D02*
X016355Y005580D01*
X016355Y005530D01*
X016330Y005505D01*
X016255Y005505D01*
X016255Y005455D02*
X016255Y005605D01*
X016330Y005605D01*
X016402Y005580D02*
X016402Y005480D01*
X016427Y005455D01*
X016477Y005455D01*
X016502Y005480D01*
X016502Y005580D01*
X016477Y005605D01*
X016427Y005605D01*
X016402Y005580D01*
X016305Y005505D02*
X016355Y005455D01*
X016550Y005480D02*
X016575Y005455D01*
X016625Y005455D01*
X016650Y005480D01*
X016650Y005605D01*
X016697Y005605D02*
X016797Y005605D01*
X016844Y005605D02*
X016844Y005455D01*
X016944Y005455D01*
X016894Y005530D02*
X016844Y005530D01*
X016844Y005605D02*
X016944Y005605D01*
X017139Y005580D02*
X017139Y005480D01*
X017164Y005455D01*
X017214Y005455D01*
X017239Y005480D01*
X017239Y005580D01*
X017214Y005605D01*
X017164Y005605D01*
X017139Y005580D01*
X017286Y005605D02*
X017286Y005480D01*
X017311Y005455D01*
X017361Y005455D01*
X017386Y005480D01*
X017386Y005605D01*
X017434Y005605D02*
X017534Y005605D01*
X017484Y005605D02*
X017484Y005455D01*
X016747Y005455D02*
X016747Y005605D01*
X016550Y005605D02*
X016550Y005480D01*
X021055Y005505D02*
X021130Y005505D01*
X021155Y005530D01*
X021155Y005580D01*
X021130Y005605D01*
X021055Y005605D01*
X021055Y005455D01*
X021105Y005505D02*
X021155Y005455D01*
X021202Y005480D02*
X021227Y005455D01*
X021277Y005455D01*
X021302Y005480D01*
X021302Y005580D01*
X021277Y005605D01*
X021227Y005605D01*
X021202Y005580D01*
X021202Y005480D01*
X021350Y005480D02*
X021375Y005455D01*
X021425Y005455D01*
X021450Y005480D01*
X021450Y005605D01*
X021497Y005605D02*
X021597Y005605D01*
X021644Y005605D02*
X021644Y005455D01*
X021744Y005455D01*
X021694Y005530D02*
X021644Y005530D01*
X021644Y005605D02*
X021744Y005605D01*
X021939Y005580D02*
X021939Y005480D01*
X021964Y005455D01*
X022014Y005455D01*
X022039Y005480D01*
X022039Y005580D01*
X022014Y005605D01*
X021964Y005605D01*
X021939Y005580D01*
X022086Y005605D02*
X022086Y005480D01*
X022111Y005455D01*
X022161Y005455D01*
X022186Y005480D01*
X022186Y005605D01*
X022234Y005605D02*
X022334Y005605D01*
X022284Y005605D02*
X022284Y005455D01*
X021547Y005455D02*
X021547Y005605D01*
X021350Y005605D02*
X021350Y005480D01*
X021375Y010955D02*
X021425Y010955D01*
X021450Y010980D01*
X021450Y011105D01*
X021497Y011105D02*
X021597Y011105D01*
X021644Y011105D02*
X021644Y010955D01*
X021744Y010955D01*
X021694Y011030D02*
X021644Y011030D01*
X021644Y011105D02*
X021744Y011105D01*
X021939Y011080D02*
X021939Y010980D01*
X021964Y010955D01*
X022014Y010955D01*
X022039Y010980D01*
X022039Y011080D01*
X022014Y011105D01*
X021964Y011105D01*
X021939Y011080D01*
X022086Y011105D02*
X022086Y010980D01*
X022111Y010955D01*
X022161Y010955D01*
X022186Y010980D01*
X022186Y011105D01*
X022234Y011105D02*
X022334Y011105D01*
X022284Y011105D02*
X022284Y010955D01*
X021547Y010955D02*
X021547Y011105D01*
X021350Y011105D02*
X021350Y010980D01*
X021375Y010955D01*
X021302Y010980D02*
X021302Y011080D01*
X021277Y011105D01*
X021227Y011105D01*
X021202Y011080D01*
X021202Y010980D01*
X021227Y010955D01*
X021277Y010955D01*
X021302Y010980D01*
X021155Y010955D02*
X021105Y011005D01*
X021130Y011005D02*
X021055Y011005D01*
X021055Y010955D02*
X021055Y011105D01*
X021130Y011105D01*
X021155Y011080D01*
X021155Y011030D01*
X021130Y011005D01*
X021155Y016455D02*
X021105Y016505D01*
X021130Y016505D02*
X021055Y016505D01*
X021055Y016455D02*
X021055Y016605D01*
X021130Y016605D01*
X021155Y016580D01*
X021155Y016530D01*
X021130Y016505D01*
X021202Y016480D02*
X021227Y016455D01*
X021277Y016455D01*
X021302Y016480D01*
X021302Y016580D01*
X021277Y016605D01*
X021227Y016605D01*
X021202Y016580D01*
X021202Y016480D01*
X021350Y016480D02*
X021350Y016605D01*
X021450Y016605D02*
X021450Y016480D01*
X021425Y016455D01*
X021375Y016455D01*
X021350Y016480D01*
X021497Y016605D02*
X021597Y016605D01*
X021644Y016605D02*
X021644Y016455D01*
X021744Y016455D01*
X021694Y016530D02*
X021644Y016530D01*
X021644Y016605D02*
X021744Y016605D01*
X021939Y016580D02*
X021939Y016480D01*
X021964Y016455D01*
X022014Y016455D01*
X022039Y016480D01*
X022039Y016580D01*
X022014Y016605D01*
X021964Y016605D01*
X021939Y016580D01*
X022086Y016605D02*
X022086Y016480D01*
X022111Y016455D01*
X022161Y016455D01*
X022186Y016480D01*
X022186Y016605D01*
X022234Y016605D02*
X022334Y016605D01*
X022284Y016605D02*
X022284Y016455D01*
X021547Y016455D02*
X021547Y016605D01*
X021544Y021955D02*
X021644Y021955D01*
X021594Y022030D02*
X021544Y022030D01*
X021544Y022105D02*
X021544Y021955D01*
X021447Y021955D02*
X021447Y022105D01*
X021397Y022105D02*
X021497Y022105D01*
X021544Y022105D02*
X021644Y022105D01*
X021839Y022080D02*
X021839Y021980D01*
X021864Y021955D01*
X021914Y021955D01*
X021939Y021980D01*
X021939Y022080D01*
X021914Y022105D01*
X021864Y022105D01*
X021839Y022080D01*
X021986Y022105D02*
X021986Y021980D01*
X022011Y021955D01*
X022061Y021955D01*
X022086Y021980D01*
X022086Y022105D01*
X022134Y022105D02*
X022234Y022105D01*
X022184Y022105D02*
X022184Y021955D01*
X021350Y021980D02*
X021350Y022105D01*
X021250Y022105D02*
X021250Y021980D01*
X021275Y021955D01*
X021325Y021955D01*
X021350Y021980D01*
X021202Y021980D02*
X021202Y022080D01*
X021177Y022105D01*
X021127Y022105D01*
X021102Y022080D01*
X021102Y021980D01*
X021127Y021955D01*
X021177Y021955D01*
X021202Y021980D01*
X021055Y021955D02*
X021005Y022005D01*
X021030Y022005D02*
X020955Y022005D01*
X020955Y021955D02*
X020955Y022105D01*
X021030Y022105D01*
X021055Y022080D01*
X021055Y022030D01*
X021030Y022005D01*
X021055Y027455D02*
X021055Y027605D01*
X021130Y027605D01*
X021155Y027580D01*
X021155Y027530D01*
X021130Y027505D01*
X021055Y027505D01*
X021105Y027505D02*
X021155Y027455D01*
X021202Y027480D02*
X021227Y027455D01*
X021277Y027455D01*
X021302Y027480D01*
X021302Y027580D01*
X021277Y027605D01*
X021227Y027605D01*
X021202Y027580D01*
X021202Y027480D01*
X021350Y027480D02*
X021375Y027455D01*
X021425Y027455D01*
X021450Y027480D01*
X021450Y027605D01*
X021497Y027605D02*
X021597Y027605D01*
X021644Y027605D02*
X021644Y027455D01*
X021744Y027455D01*
X021694Y027530D02*
X021644Y027530D01*
X021644Y027605D02*
X021744Y027605D01*
X021939Y027580D02*
X021939Y027480D01*
X021964Y027455D01*
X022014Y027455D01*
X022039Y027480D01*
X022039Y027580D01*
X022014Y027605D01*
X021964Y027605D01*
X021939Y027580D01*
X022086Y027605D02*
X022086Y027480D01*
X022111Y027455D01*
X022161Y027455D01*
X022186Y027480D01*
X022186Y027605D01*
X022234Y027605D02*
X022334Y027605D01*
X022284Y027605D02*
X022284Y027455D01*
X021547Y027455D02*
X021547Y027605D01*
X021350Y027605D02*
X021350Y027480D01*
X021375Y032955D02*
X021425Y032955D01*
X021450Y032980D01*
X021450Y033105D01*
X021497Y033105D02*
X021597Y033105D01*
X021644Y033105D02*
X021644Y032955D01*
X021744Y032955D01*
X021694Y033030D02*
X021644Y033030D01*
X021644Y033105D02*
X021744Y033105D01*
X021939Y033080D02*
X021939Y032980D01*
X021964Y032955D01*
X022014Y032955D01*
X022039Y032980D01*
X022039Y033080D01*
X022014Y033105D01*
X021964Y033105D01*
X021939Y033080D01*
X022086Y033105D02*
X022086Y032980D01*
X022111Y032955D01*
X022161Y032955D01*
X022186Y032980D01*
X022186Y033105D01*
X022234Y033105D02*
X022334Y033105D01*
X022284Y033105D02*
X022284Y032955D01*
X021547Y032955D02*
X021547Y033105D01*
X021350Y033105D02*
X021350Y032980D01*
X021375Y032955D01*
X021302Y032980D02*
X021302Y033080D01*
X021277Y033105D01*
X021227Y033105D01*
X021202Y033080D01*
X021202Y032980D01*
X021227Y032955D01*
X021277Y032955D01*
X021302Y032980D01*
X021155Y032955D02*
X021105Y033005D01*
X021130Y033005D02*
X021055Y033005D01*
X021055Y032955D02*
X021055Y033105D01*
X021130Y033105D01*
X021155Y033080D01*
X021155Y033030D01*
X021130Y033005D01*
D12*
X021658Y030920D03*
X021658Y036420D03*
X016858Y036420D03*
X016858Y030920D03*
X016858Y025420D03*
X016858Y019920D03*
X016858Y014420D03*
X016858Y008920D03*
X016858Y003420D03*
X012058Y003420D03*
X012058Y008920D03*
X012058Y014420D03*
X012058Y019920D03*
X012058Y025420D03*
X012058Y030920D03*
X012058Y036420D03*
X007258Y036420D03*
X007258Y030920D03*
X007258Y025420D03*
X007258Y019920D03*
X007258Y014420D03*
X007258Y008920D03*
X007258Y003420D03*
X002458Y003420D03*
X002458Y008920D03*
X002458Y014420D03*
X002458Y019920D03*
X002458Y025420D03*
X002458Y030920D03*
X002458Y036420D03*
X021658Y025420D03*
X021658Y019920D03*
X021658Y014420D03*
X021658Y008920D03*
X021658Y003420D03*
D13*
X021776Y002795D02*
X021776Y002520D01*
X021540Y002283D01*
X021540Y002756D01*
X021776Y002520D01*
X021776Y002244D01*
X022052Y002126D02*
X022603Y002126D01*
X022603Y002913D01*
X022052Y002913D01*
X021264Y002913D02*
X020713Y002913D01*
X020713Y002126D01*
X021264Y002126D01*
X021264Y007626D02*
X020713Y007626D01*
X020713Y008413D01*
X021264Y008413D01*
X021540Y008256D02*
X021540Y007783D01*
X021776Y008020D01*
X021540Y008256D01*
X021776Y008295D02*
X021776Y008020D01*
X021776Y007744D01*
X022052Y007626D02*
X022603Y007626D01*
X022603Y008413D01*
X022052Y008413D01*
X022052Y013126D02*
X022603Y013126D01*
X022603Y013913D01*
X022052Y013913D01*
X021776Y013795D02*
X021776Y013520D01*
X021540Y013283D01*
X021540Y013756D01*
X021776Y013520D01*
X021776Y013244D01*
X021264Y013126D02*
X020713Y013126D01*
X020713Y013913D01*
X021264Y013913D01*
X021264Y018626D02*
X020713Y018626D01*
X020713Y019413D01*
X021264Y019413D01*
X021540Y019256D02*
X021540Y018783D01*
X021776Y019020D01*
X021540Y019256D01*
X021776Y019295D02*
X021776Y019020D01*
X021776Y018744D01*
X022052Y018626D02*
X022603Y018626D01*
X022603Y019413D01*
X022052Y019413D01*
X022052Y024126D02*
X022603Y024126D01*
X022603Y024913D01*
X022052Y024913D01*
X021776Y024795D02*
X021776Y024520D01*
X021540Y024283D01*
X021540Y024756D01*
X021776Y024520D01*
X021776Y024244D01*
X021264Y024126D02*
X020713Y024126D01*
X020713Y024913D01*
X021264Y024913D01*
X021264Y029626D02*
X020713Y029626D01*
X020713Y030413D01*
X021264Y030413D01*
X021540Y030256D02*
X021540Y029783D01*
X021776Y030020D01*
X021540Y030256D01*
X021776Y030295D02*
X021776Y030020D01*
X021776Y029744D01*
X022052Y029626D02*
X022603Y029626D01*
X022603Y030413D01*
X022052Y030413D01*
X022052Y035126D02*
X022603Y035126D01*
X022603Y035913D01*
X022052Y035913D01*
X021776Y035795D02*
X021776Y035520D01*
X021540Y035283D01*
X021540Y035756D01*
X021776Y035520D01*
X021776Y035244D01*
X021264Y035126D02*
X020713Y035126D01*
X020713Y035913D01*
X021264Y035913D01*
X017803Y035913D02*
X017803Y035126D01*
X017252Y035126D01*
X016976Y035244D02*
X016976Y035520D01*
X016740Y035283D01*
X016740Y035756D01*
X016976Y035520D01*
X016976Y035795D01*
X017252Y035913D02*
X017803Y035913D01*
X016464Y035913D02*
X015913Y035913D01*
X015913Y035126D01*
X016464Y035126D01*
X016464Y030413D02*
X015913Y030413D01*
X015913Y029626D01*
X016464Y029626D01*
X016740Y029783D02*
X016976Y030020D01*
X016740Y030256D01*
X016740Y029783D01*
X016976Y029744D02*
X016976Y030020D01*
X016976Y030295D01*
X017252Y030413D02*
X017803Y030413D01*
X017803Y029626D01*
X017252Y029626D01*
X017252Y024913D02*
X017803Y024913D01*
X017803Y024126D01*
X017252Y024126D01*
X016976Y024244D02*
X016976Y024520D01*
X016740Y024283D01*
X016740Y024756D01*
X016976Y024520D01*
X016976Y024795D01*
X016464Y024913D02*
X015913Y024913D01*
X015913Y024126D01*
X016464Y024126D01*
X016464Y019413D02*
X015913Y019413D01*
X015913Y018626D01*
X016464Y018626D01*
X016740Y018783D02*
X016976Y019020D01*
X016740Y019256D01*
X016740Y018783D01*
X016976Y018744D02*
X016976Y019020D01*
X016976Y019295D01*
X017252Y019413D02*
X017803Y019413D01*
X017803Y018626D01*
X017252Y018626D01*
X017252Y013913D02*
X017803Y013913D01*
X017803Y013126D01*
X017252Y013126D01*
X016976Y013244D02*
X016976Y013520D01*
X016740Y013283D01*
X016740Y013756D01*
X016976Y013520D01*
X016976Y013795D01*
X016464Y013913D02*
X015913Y013913D01*
X015913Y013126D01*
X016464Y013126D01*
X016464Y008413D02*
X015913Y008413D01*
X015913Y007626D01*
X016464Y007626D01*
X016740Y007783D02*
X016976Y008020D01*
X016740Y008256D01*
X016740Y007783D01*
X016976Y007744D02*
X016976Y008020D01*
X016976Y008295D01*
X017252Y008413D02*
X017803Y008413D01*
X017803Y007626D01*
X017252Y007626D01*
X017252Y002913D02*
X017803Y002913D01*
X017803Y002126D01*
X017252Y002126D01*
X016976Y002244D02*
X016976Y002520D01*
X016740Y002283D01*
X016740Y002756D01*
X016976Y002520D01*
X016976Y002795D01*
X016464Y002913D02*
X015913Y002913D01*
X015913Y002126D01*
X016464Y002126D01*
X013003Y002126D02*
X012452Y002126D01*
X012176Y002244D02*
X012176Y002520D01*
X011940Y002283D01*
X011940Y002756D01*
X012176Y002520D01*
X012176Y002795D01*
X012452Y002913D02*
X013003Y002913D01*
X013003Y002126D01*
X011664Y002126D02*
X011113Y002126D01*
X011113Y002913D01*
X011664Y002913D01*
X011664Y007626D02*
X011113Y007626D01*
X011113Y008413D01*
X011664Y008413D01*
X011940Y008256D02*
X011940Y007783D01*
X012176Y008020D01*
X011940Y008256D01*
X012176Y008295D02*
X012176Y008020D01*
X012176Y007744D01*
X012452Y007626D02*
X013003Y007626D01*
X013003Y008413D01*
X012452Y008413D01*
X012452Y013126D02*
X013003Y013126D01*
X013003Y013913D01*
X012452Y013913D01*
X012176Y013795D02*
X012176Y013520D01*
X011940Y013283D01*
X011940Y013756D01*
X012176Y013520D01*
X012176Y013244D01*
X011664Y013126D02*
X011113Y013126D01*
X011113Y013913D01*
X011664Y013913D01*
X011664Y018626D02*
X011113Y018626D01*
X011113Y019413D01*
X011664Y019413D01*
X011940Y019256D02*
X011940Y018783D01*
X012176Y019020D01*
X011940Y019256D01*
X012176Y019295D02*
X012176Y019020D01*
X012176Y018744D01*
X012452Y018626D02*
X013003Y018626D01*
X013003Y019413D01*
X012452Y019413D01*
X012452Y024126D02*
X013003Y024126D01*
X013003Y024913D01*
X012452Y024913D01*
X012176Y024795D02*
X012176Y024520D01*
X011940Y024283D01*
X011940Y024756D01*
X012176Y024520D01*
X012176Y024244D01*
X011664Y024126D02*
X011113Y024126D01*
X011113Y024913D01*
X011664Y024913D01*
X011664Y029626D02*
X011113Y029626D01*
X011113Y030413D01*
X011664Y030413D01*
X011940Y030256D02*
X011940Y029783D01*
X012176Y030020D01*
X011940Y030256D01*
X012176Y030295D02*
X012176Y030020D01*
X012176Y029744D01*
X012452Y029626D02*
X013003Y029626D01*
X013003Y030413D01*
X012452Y030413D01*
X012452Y035126D02*
X013003Y035126D01*
X013003Y035913D01*
X012452Y035913D01*
X012176Y035795D02*
X012176Y035520D01*
X011940Y035283D01*
X011940Y035756D01*
X012176Y035520D01*
X012176Y035244D01*
X011664Y035126D02*
X011113Y035126D01*
X011113Y035913D01*
X011664Y035913D01*
X008203Y035913D02*
X008203Y035126D01*
X007652Y035126D01*
X007376Y035244D02*
X007376Y035520D01*
X007140Y035283D01*
X007140Y035756D01*
X007376Y035520D01*
X007376Y035795D01*
X007652Y035913D02*
X008203Y035913D01*
X006864Y035913D02*
X006313Y035913D01*
X006313Y035126D01*
X006864Y035126D01*
X006864Y030413D02*
X006313Y030413D01*
X006313Y029626D01*
X006864Y029626D01*
X007140Y029783D02*
X007376Y030020D01*
X007140Y030256D01*
X007140Y029783D01*
X007376Y029744D02*
X007376Y030020D01*
X007376Y030295D01*
X007652Y030413D02*
X008203Y030413D01*
X008203Y029626D01*
X007652Y029626D01*
X007652Y024913D02*
X008203Y024913D01*
X008203Y024126D01*
X007652Y024126D01*
X007376Y024244D02*
X007376Y024520D01*
X007140Y024283D01*
X007140Y024756D01*
X007376Y024520D01*
X007376Y024795D01*
X006864Y024913D02*
X006313Y024913D01*
X006313Y024126D01*
X006864Y024126D01*
X006864Y019413D02*
X006313Y019413D01*
X006313Y018626D01*
X006864Y018626D01*
X007140Y018783D02*
X007376Y019020D01*
X007140Y019256D01*
X007140Y018783D01*
X007376Y018744D02*
X007376Y019020D01*
X007376Y019295D01*
X007652Y019413D02*
X008203Y019413D01*
X008203Y018626D01*
X007652Y018626D01*
X007652Y013913D02*
X008203Y013913D01*
X008203Y013126D01*
X007652Y013126D01*
X007376Y013244D02*
X007376Y013520D01*
X007140Y013283D01*
X007140Y013756D01*
X007376Y013520D01*
X007376Y013795D01*
X006864Y013913D02*
X006313Y013913D01*
X006313Y013126D01*
X006864Y013126D01*
X006864Y008413D02*
X006313Y008413D01*
X006313Y007626D01*
X006864Y007626D01*
X007140Y007783D02*
X007376Y008020D01*
X007140Y008256D01*
X007140Y007783D01*
X007376Y007744D02*
X007376Y008020D01*
X007376Y008295D01*
X007652Y008413D02*
X008203Y008413D01*
X008203Y007626D01*
X007652Y007626D01*
X007652Y002913D02*
X008203Y002913D01*
X008203Y002126D01*
X007652Y002126D01*
X007376Y002244D02*
X007376Y002520D01*
X007140Y002283D01*
X007140Y002756D01*
X007376Y002520D01*
X007376Y002795D01*
X006864Y002913D02*
X006313Y002913D01*
X006313Y002126D01*
X006864Y002126D01*
X003403Y002126D02*
X002852Y002126D01*
X002576Y002244D02*
X002576Y002520D01*
X002340Y002283D01*
X002340Y002756D01*
X002576Y002520D01*
X002576Y002795D01*
X002852Y002913D02*
X003403Y002913D01*
X003403Y002126D01*
X002064Y002126D02*
X001513Y002126D01*
X001513Y002913D01*
X002064Y002913D01*
X002064Y007626D02*
X001513Y007626D01*
X001513Y008413D01*
X002064Y008413D01*
X002340Y008256D02*
X002340Y007783D01*
X002576Y008020D01*
X002340Y008256D01*
X002576Y008295D02*
X002576Y008020D01*
X002576Y007744D01*
X002852Y007626D02*
X003403Y007626D01*
X003403Y008413D01*
X002852Y008413D01*
X002852Y013126D02*
X003403Y013126D01*
X003403Y013913D01*
X002852Y013913D01*
X002576Y013795D02*
X002576Y013520D01*
X002340Y013283D01*
X002340Y013756D01*
X002576Y013520D01*
X002576Y013244D01*
X002064Y013126D02*
X001513Y013126D01*
X001513Y013913D01*
X002064Y013913D01*
X002064Y018626D02*
X001513Y018626D01*
X001513Y019413D01*
X002064Y019413D01*
X002340Y019256D02*
X002340Y018783D01*
X002576Y019020D01*
X002340Y019256D01*
X002576Y019295D02*
X002576Y019020D01*
X002576Y018744D01*
X002852Y018626D02*
X003403Y018626D01*
X003403Y019413D01*
X002852Y019413D01*
X002852Y024126D02*
X003403Y024126D01*
X003403Y024913D01*
X002852Y024913D01*
X002576Y024795D02*
X002576Y024520D01*
X002340Y024283D01*
X002340Y024756D01*
X002576Y024520D01*
X002576Y024244D01*
X002064Y024126D02*
X001513Y024126D01*
X001513Y024913D01*
X002064Y024913D01*
X002064Y029626D02*
X001513Y029626D01*
X001513Y030413D01*
X002064Y030413D01*
X002340Y030256D02*
X002340Y029783D01*
X002576Y030020D01*
X002340Y030256D01*
X002576Y030295D02*
X002576Y030020D01*
X002576Y029744D01*
X002852Y029626D02*
X003403Y029626D01*
X003403Y030413D01*
X002852Y030413D01*
X002852Y035126D02*
X003403Y035126D01*
X003403Y035913D01*
X002852Y035913D01*
X002576Y035795D02*
X002576Y035520D01*
X002340Y035283D01*
X002340Y035756D01*
X002576Y035520D01*
X002576Y035244D01*
X002064Y035126D02*
X001513Y035126D01*
X001513Y035913D01*
X002064Y035913D01*
M02*
