G75*
G70*
%OFA0B0*%
%FSLAX24Y24*%
%IPPOS*%
%LPD*%
%AMOC8*
5,1,8,0,0,1.08239X$1,22.5*
%
%ADD10C,0.0080*%
D10*
X001640Y001780D02*
X001960Y001780D01*
X001800Y001940D02*
X001800Y001620D01*
X002105Y001959D02*
X002135Y001953D01*
X002166Y001950D01*
X002197Y001951D01*
X002227Y001955D01*
X002257Y001963D01*
X002286Y001974D01*
X002313Y001988D01*
X002339Y002005D01*
X002363Y002025D01*
X002384Y002047D01*
X002402Y002072D01*
X002418Y002098D01*
X002431Y002127D01*
X002440Y002156D01*
X002440Y002157D02*
X002442Y002190D01*
X002447Y002223D01*
X002457Y002254D01*
X002469Y002285D01*
X002485Y002314D01*
X002504Y002341D01*
X002526Y002366D01*
X002551Y002388D01*
X002578Y002407D01*
X002607Y002423D01*
X002638Y002435D01*
X002669Y002445D01*
X002702Y002450D01*
X002735Y002452D01*
X002774Y002452D01*
X002813Y002059D02*
X002772Y002061D01*
X002731Y002066D01*
X002691Y002075D01*
X002652Y002087D01*
X002614Y002103D01*
X002577Y002122D01*
X002542Y002144D01*
X002510Y002169D01*
X002479Y002197D01*
X002451Y002228D01*
X002426Y002260D01*
X002404Y002295D01*
X002385Y002332D01*
X002369Y002370D01*
X002357Y002409D01*
X002348Y002449D01*
X002343Y002490D01*
X002341Y002531D01*
X002341Y002786D01*
X002243Y002708D02*
X002164Y002708D01*
X002341Y002786D02*
X002339Y002819D01*
X002334Y002852D01*
X002324Y002883D01*
X002312Y002914D01*
X002296Y002943D01*
X002277Y002970D01*
X002255Y002995D01*
X002230Y003017D01*
X002203Y003036D01*
X002174Y003052D01*
X002143Y003064D01*
X002112Y003074D01*
X002079Y003079D01*
X002046Y003081D01*
X002046Y003082D02*
X002006Y003082D01*
X002006Y003081D02*
X001989Y003080D01*
X001972Y003075D01*
X001957Y003068D01*
X001943Y003058D01*
X001931Y003046D01*
X001921Y003032D01*
X001914Y003017D01*
X001909Y003000D01*
X001908Y002983D01*
X001908Y002964D01*
X001910Y002933D01*
X001915Y002903D01*
X001925Y002873D01*
X001937Y002845D01*
X001953Y002819D01*
X001972Y002794D01*
X001994Y002772D01*
X002019Y002753D01*
X002045Y002737D01*
X002073Y002725D01*
X002103Y002715D01*
X002133Y002710D01*
X002164Y002708D01*
X002243Y002708D02*
X002285Y002710D01*
X002327Y002715D01*
X002369Y002724D01*
X002409Y002736D01*
X002449Y002751D01*
X002487Y002770D01*
X002523Y002791D01*
X002557Y002816D01*
X002590Y002843D01*
X002620Y002873D01*
X002647Y002906D01*
X002672Y002940D01*
X002693Y002976D01*
X002712Y003014D01*
X002727Y003054D01*
X002739Y003094D01*
X002748Y003136D01*
X002753Y003178D01*
X002755Y003220D01*
X002840Y003830D02*
X003160Y003830D01*
X002990Y002235D02*
X002988Y002210D01*
X002983Y002185D01*
X002974Y002161D01*
X002962Y002139D01*
X002947Y002119D01*
X002929Y002101D01*
X002909Y002086D01*
X002887Y002074D01*
X002863Y002065D01*
X002838Y002060D01*
X002813Y002058D01*
X002991Y002235D02*
X002989Y002263D01*
X002984Y002291D01*
X002974Y002318D01*
X002962Y002343D01*
X002946Y002367D01*
X002927Y002388D01*
X002906Y002407D01*
X002883Y002423D01*
X002857Y002435D01*
X002830Y002445D01*
X002802Y002450D01*
X002774Y002452D01*
X001800Y007120D02*
X001800Y007440D01*
X001640Y007280D02*
X001960Y007280D01*
X002105Y007459D02*
X002135Y007453D01*
X002166Y007450D01*
X002197Y007451D01*
X002227Y007455D01*
X002257Y007463D01*
X002286Y007474D01*
X002313Y007488D01*
X002339Y007505D01*
X002363Y007525D01*
X002384Y007547D01*
X002402Y007572D01*
X002418Y007598D01*
X002431Y007627D01*
X002440Y007656D01*
X002440Y007657D02*
X002442Y007690D01*
X002447Y007723D01*
X002457Y007754D01*
X002469Y007785D01*
X002485Y007814D01*
X002504Y007841D01*
X002526Y007866D01*
X002551Y007888D01*
X002578Y007907D01*
X002607Y007923D01*
X002638Y007935D01*
X002669Y007945D01*
X002702Y007950D01*
X002735Y007952D01*
X002774Y007952D01*
X002813Y007559D02*
X002772Y007561D01*
X002731Y007566D01*
X002691Y007575D01*
X002652Y007587D01*
X002614Y007603D01*
X002577Y007622D01*
X002542Y007644D01*
X002510Y007669D01*
X002479Y007697D01*
X002451Y007728D01*
X002426Y007760D01*
X002404Y007795D01*
X002385Y007832D01*
X002369Y007870D01*
X002357Y007909D01*
X002348Y007949D01*
X002343Y007990D01*
X002341Y008031D01*
X002341Y008286D01*
X002243Y008208D02*
X002164Y008208D01*
X002341Y008286D02*
X002339Y008319D01*
X002334Y008352D01*
X002324Y008383D01*
X002312Y008414D01*
X002296Y008443D01*
X002277Y008470D01*
X002255Y008495D01*
X002230Y008517D01*
X002203Y008536D01*
X002174Y008552D01*
X002143Y008564D01*
X002112Y008574D01*
X002079Y008579D01*
X002046Y008581D01*
X002046Y008582D02*
X002006Y008582D01*
X002006Y008581D02*
X001989Y008580D01*
X001972Y008575D01*
X001957Y008568D01*
X001943Y008558D01*
X001931Y008546D01*
X001921Y008532D01*
X001914Y008517D01*
X001909Y008500D01*
X001908Y008483D01*
X001908Y008464D01*
X001910Y008433D01*
X001915Y008403D01*
X001925Y008373D01*
X001937Y008345D01*
X001953Y008319D01*
X001972Y008294D01*
X001994Y008272D01*
X002019Y008253D01*
X002045Y008237D01*
X002073Y008225D01*
X002103Y008215D01*
X002133Y008210D01*
X002164Y008208D01*
X002243Y008208D02*
X002285Y008210D01*
X002327Y008215D01*
X002369Y008224D01*
X002409Y008236D01*
X002449Y008251D01*
X002487Y008270D01*
X002523Y008291D01*
X002557Y008316D01*
X002590Y008343D01*
X002620Y008373D01*
X002647Y008406D01*
X002672Y008440D01*
X002693Y008476D01*
X002712Y008514D01*
X002727Y008554D01*
X002739Y008594D01*
X002748Y008636D01*
X002753Y008678D01*
X002755Y008720D01*
X002840Y009330D02*
X003160Y009330D01*
X002990Y007735D02*
X002988Y007710D01*
X002983Y007685D01*
X002974Y007661D01*
X002962Y007639D01*
X002947Y007619D01*
X002929Y007601D01*
X002909Y007586D01*
X002887Y007574D01*
X002863Y007565D01*
X002838Y007560D01*
X002813Y007558D01*
X002991Y007735D02*
X002989Y007763D01*
X002984Y007791D01*
X002974Y007818D01*
X002962Y007843D01*
X002946Y007867D01*
X002927Y007888D01*
X002906Y007907D01*
X002883Y007923D01*
X002857Y007935D01*
X002830Y007945D01*
X002802Y007950D01*
X002774Y007952D01*
X001800Y012620D02*
X001800Y012940D01*
X001640Y012780D02*
X001960Y012780D01*
X002105Y012959D02*
X002135Y012953D01*
X002166Y012950D01*
X002197Y012951D01*
X002227Y012955D01*
X002257Y012963D01*
X002286Y012974D01*
X002313Y012988D01*
X002339Y013005D01*
X002363Y013025D01*
X002384Y013047D01*
X002402Y013072D01*
X002418Y013098D01*
X002431Y013127D01*
X002440Y013156D01*
X002440Y013157D02*
X002442Y013190D01*
X002447Y013223D01*
X002457Y013254D01*
X002469Y013285D01*
X002485Y013314D01*
X002504Y013341D01*
X002526Y013366D01*
X002551Y013388D01*
X002578Y013407D01*
X002607Y013423D01*
X002638Y013435D01*
X002669Y013445D01*
X002702Y013450D01*
X002735Y013452D01*
X002774Y013452D01*
X002813Y013059D02*
X002772Y013061D01*
X002731Y013066D01*
X002691Y013075D01*
X002652Y013087D01*
X002614Y013103D01*
X002577Y013122D01*
X002542Y013144D01*
X002510Y013169D01*
X002479Y013197D01*
X002451Y013228D01*
X002426Y013260D01*
X002404Y013295D01*
X002385Y013332D01*
X002369Y013370D01*
X002357Y013409D01*
X002348Y013449D01*
X002343Y013490D01*
X002341Y013531D01*
X002341Y013786D01*
X002243Y013708D02*
X002164Y013708D01*
X002341Y013786D02*
X002339Y013819D01*
X002334Y013852D01*
X002324Y013883D01*
X002312Y013914D01*
X002296Y013943D01*
X002277Y013970D01*
X002255Y013995D01*
X002230Y014017D01*
X002203Y014036D01*
X002174Y014052D01*
X002143Y014064D01*
X002112Y014074D01*
X002079Y014079D01*
X002046Y014081D01*
X002046Y014082D02*
X002006Y014082D01*
X002006Y014081D02*
X001989Y014080D01*
X001972Y014075D01*
X001957Y014068D01*
X001943Y014058D01*
X001931Y014046D01*
X001921Y014032D01*
X001914Y014017D01*
X001909Y014000D01*
X001908Y013983D01*
X001908Y013964D01*
X001910Y013933D01*
X001915Y013903D01*
X001925Y013873D01*
X001937Y013845D01*
X001953Y013819D01*
X001972Y013794D01*
X001994Y013772D01*
X002019Y013753D01*
X002045Y013737D01*
X002073Y013725D01*
X002103Y013715D01*
X002133Y013710D01*
X002164Y013708D01*
X002243Y013708D02*
X002285Y013710D01*
X002327Y013715D01*
X002369Y013724D01*
X002409Y013736D01*
X002449Y013751D01*
X002487Y013770D01*
X002523Y013791D01*
X002557Y013816D01*
X002590Y013843D01*
X002620Y013873D01*
X002647Y013906D01*
X002672Y013940D01*
X002693Y013976D01*
X002712Y014014D01*
X002727Y014054D01*
X002739Y014094D01*
X002748Y014136D01*
X002753Y014178D01*
X002755Y014220D01*
X002840Y014830D02*
X003160Y014830D01*
X002990Y013235D02*
X002988Y013210D01*
X002983Y013185D01*
X002974Y013161D01*
X002962Y013139D01*
X002947Y013119D01*
X002929Y013101D01*
X002909Y013086D01*
X002887Y013074D01*
X002863Y013065D01*
X002838Y013060D01*
X002813Y013058D01*
X002991Y013235D02*
X002989Y013263D01*
X002984Y013291D01*
X002974Y013318D01*
X002962Y013343D01*
X002946Y013367D01*
X002927Y013388D01*
X002906Y013407D01*
X002883Y013423D01*
X002857Y013435D01*
X002830Y013445D01*
X002802Y013450D01*
X002774Y013452D01*
X001800Y018120D02*
X001800Y018440D01*
X001640Y018280D02*
X001960Y018280D01*
X002105Y018459D02*
X002135Y018453D01*
X002166Y018450D01*
X002197Y018451D01*
X002227Y018455D01*
X002257Y018463D01*
X002286Y018474D01*
X002313Y018488D01*
X002339Y018505D01*
X002363Y018525D01*
X002384Y018547D01*
X002402Y018572D01*
X002418Y018598D01*
X002431Y018627D01*
X002440Y018656D01*
X002440Y018657D02*
X002442Y018690D01*
X002447Y018723D01*
X002457Y018754D01*
X002469Y018785D01*
X002485Y018814D01*
X002504Y018841D01*
X002526Y018866D01*
X002551Y018888D01*
X002578Y018907D01*
X002607Y018923D01*
X002638Y018935D01*
X002669Y018945D01*
X002702Y018950D01*
X002735Y018952D01*
X002774Y018952D01*
X002813Y018559D02*
X002772Y018561D01*
X002731Y018566D01*
X002691Y018575D01*
X002652Y018587D01*
X002614Y018603D01*
X002577Y018622D01*
X002542Y018644D01*
X002510Y018669D01*
X002479Y018697D01*
X002451Y018728D01*
X002426Y018760D01*
X002404Y018795D01*
X002385Y018832D01*
X002369Y018870D01*
X002357Y018909D01*
X002348Y018949D01*
X002343Y018990D01*
X002341Y019031D01*
X002341Y019286D01*
X002243Y019208D02*
X002164Y019208D01*
X002341Y019286D02*
X002339Y019319D01*
X002334Y019352D01*
X002324Y019383D01*
X002312Y019414D01*
X002296Y019443D01*
X002277Y019470D01*
X002255Y019495D01*
X002230Y019517D01*
X002203Y019536D01*
X002174Y019552D01*
X002143Y019564D01*
X002112Y019574D01*
X002079Y019579D01*
X002046Y019581D01*
X002046Y019582D02*
X002006Y019582D01*
X002006Y019581D02*
X001989Y019580D01*
X001972Y019575D01*
X001957Y019568D01*
X001943Y019558D01*
X001931Y019546D01*
X001921Y019532D01*
X001914Y019517D01*
X001909Y019500D01*
X001908Y019483D01*
X001908Y019464D01*
X001910Y019433D01*
X001915Y019403D01*
X001925Y019373D01*
X001937Y019345D01*
X001953Y019319D01*
X001972Y019294D01*
X001994Y019272D01*
X002019Y019253D01*
X002045Y019237D01*
X002073Y019225D01*
X002103Y019215D01*
X002133Y019210D01*
X002164Y019208D01*
X002243Y019208D02*
X002285Y019210D01*
X002327Y019215D01*
X002369Y019224D01*
X002409Y019236D01*
X002449Y019251D01*
X002487Y019270D01*
X002523Y019291D01*
X002557Y019316D01*
X002590Y019343D01*
X002620Y019373D01*
X002647Y019406D01*
X002672Y019440D01*
X002693Y019476D01*
X002712Y019514D01*
X002727Y019554D01*
X002739Y019594D01*
X002748Y019636D01*
X002753Y019678D01*
X002755Y019720D01*
X002840Y020330D02*
X003160Y020330D01*
X002990Y018735D02*
X002988Y018710D01*
X002983Y018685D01*
X002974Y018661D01*
X002962Y018639D01*
X002947Y018619D01*
X002929Y018601D01*
X002909Y018586D01*
X002887Y018574D01*
X002863Y018565D01*
X002838Y018560D01*
X002813Y018558D01*
X002991Y018735D02*
X002989Y018763D01*
X002984Y018791D01*
X002974Y018818D01*
X002962Y018843D01*
X002946Y018867D01*
X002927Y018888D01*
X002906Y018907D01*
X002883Y018923D01*
X002857Y018935D01*
X002830Y018945D01*
X002802Y018950D01*
X002774Y018952D01*
X001800Y023620D02*
X001800Y023940D01*
X001640Y023780D02*
X001960Y023780D01*
X002105Y023959D02*
X002135Y023953D01*
X002166Y023950D01*
X002197Y023951D01*
X002227Y023955D01*
X002257Y023963D01*
X002286Y023974D01*
X002313Y023988D01*
X002339Y024005D01*
X002363Y024025D01*
X002384Y024047D01*
X002402Y024072D01*
X002418Y024098D01*
X002431Y024127D01*
X002440Y024156D01*
X002440Y024157D02*
X002442Y024190D01*
X002447Y024223D01*
X002457Y024254D01*
X002469Y024285D01*
X002485Y024314D01*
X002504Y024341D01*
X002526Y024366D01*
X002551Y024388D01*
X002578Y024407D01*
X002607Y024423D01*
X002638Y024435D01*
X002669Y024445D01*
X002702Y024450D01*
X002735Y024452D01*
X002774Y024452D01*
X002813Y024059D02*
X002772Y024061D01*
X002731Y024066D01*
X002691Y024075D01*
X002652Y024087D01*
X002614Y024103D01*
X002577Y024122D01*
X002542Y024144D01*
X002510Y024169D01*
X002479Y024197D01*
X002451Y024228D01*
X002426Y024260D01*
X002404Y024295D01*
X002385Y024332D01*
X002369Y024370D01*
X002357Y024409D01*
X002348Y024449D01*
X002343Y024490D01*
X002341Y024531D01*
X002341Y024786D01*
X002243Y024708D02*
X002164Y024708D01*
X002341Y024786D02*
X002339Y024819D01*
X002334Y024852D01*
X002324Y024883D01*
X002312Y024914D01*
X002296Y024943D01*
X002277Y024970D01*
X002255Y024995D01*
X002230Y025017D01*
X002203Y025036D01*
X002174Y025052D01*
X002143Y025064D01*
X002112Y025074D01*
X002079Y025079D01*
X002046Y025081D01*
X002046Y025082D02*
X002006Y025082D01*
X002006Y025081D02*
X001989Y025080D01*
X001972Y025075D01*
X001957Y025068D01*
X001943Y025058D01*
X001931Y025046D01*
X001921Y025032D01*
X001914Y025017D01*
X001909Y025000D01*
X001908Y024983D01*
X001908Y024964D01*
X001910Y024933D01*
X001915Y024903D01*
X001925Y024873D01*
X001937Y024845D01*
X001953Y024819D01*
X001972Y024794D01*
X001994Y024772D01*
X002019Y024753D01*
X002045Y024737D01*
X002073Y024725D01*
X002103Y024715D01*
X002133Y024710D01*
X002164Y024708D01*
X002243Y024708D02*
X002285Y024710D01*
X002327Y024715D01*
X002369Y024724D01*
X002409Y024736D01*
X002449Y024751D01*
X002487Y024770D01*
X002523Y024791D01*
X002557Y024816D01*
X002590Y024843D01*
X002620Y024873D01*
X002647Y024906D01*
X002672Y024940D01*
X002693Y024976D01*
X002712Y025014D01*
X002727Y025054D01*
X002739Y025094D01*
X002748Y025136D01*
X002753Y025178D01*
X002755Y025220D01*
X002840Y025830D02*
X003160Y025830D01*
X002990Y024235D02*
X002988Y024210D01*
X002983Y024185D01*
X002974Y024161D01*
X002962Y024139D01*
X002947Y024119D01*
X002929Y024101D01*
X002909Y024086D01*
X002887Y024074D01*
X002863Y024065D01*
X002838Y024060D01*
X002813Y024058D01*
X002991Y024235D02*
X002989Y024263D01*
X002984Y024291D01*
X002974Y024318D01*
X002962Y024343D01*
X002946Y024367D01*
X002927Y024388D01*
X002906Y024407D01*
X002883Y024423D01*
X002857Y024435D01*
X002830Y024445D01*
X002802Y024450D01*
X002774Y024452D01*
X001800Y029120D02*
X001800Y029440D01*
X001640Y029280D02*
X001960Y029280D01*
X002105Y029459D02*
X002135Y029453D01*
X002166Y029450D01*
X002197Y029451D01*
X002227Y029455D01*
X002257Y029463D01*
X002286Y029474D01*
X002313Y029488D01*
X002339Y029505D01*
X002363Y029525D01*
X002384Y029547D01*
X002402Y029572D01*
X002418Y029598D01*
X002431Y029627D01*
X002440Y029656D01*
X002440Y029657D02*
X002442Y029690D01*
X002447Y029723D01*
X002457Y029754D01*
X002469Y029785D01*
X002485Y029814D01*
X002504Y029841D01*
X002526Y029866D01*
X002551Y029888D01*
X002578Y029907D01*
X002607Y029923D01*
X002638Y029935D01*
X002669Y029945D01*
X002702Y029950D01*
X002735Y029952D01*
X002774Y029952D01*
X002813Y029559D02*
X002772Y029561D01*
X002731Y029566D01*
X002691Y029575D01*
X002652Y029587D01*
X002614Y029603D01*
X002577Y029622D01*
X002542Y029644D01*
X002510Y029669D01*
X002479Y029697D01*
X002451Y029728D01*
X002426Y029760D01*
X002404Y029795D01*
X002385Y029832D01*
X002369Y029870D01*
X002357Y029909D01*
X002348Y029949D01*
X002343Y029990D01*
X002341Y030031D01*
X002341Y030286D01*
X002243Y030208D02*
X002164Y030208D01*
X002341Y030286D02*
X002339Y030319D01*
X002334Y030352D01*
X002324Y030383D01*
X002312Y030414D01*
X002296Y030443D01*
X002277Y030470D01*
X002255Y030495D01*
X002230Y030517D01*
X002203Y030536D01*
X002174Y030552D01*
X002143Y030564D01*
X002112Y030574D01*
X002079Y030579D01*
X002046Y030581D01*
X002046Y030582D02*
X002006Y030582D01*
X002006Y030581D02*
X001989Y030580D01*
X001972Y030575D01*
X001957Y030568D01*
X001943Y030558D01*
X001931Y030546D01*
X001921Y030532D01*
X001914Y030517D01*
X001909Y030500D01*
X001908Y030483D01*
X001908Y030464D01*
X001910Y030433D01*
X001915Y030403D01*
X001925Y030373D01*
X001937Y030345D01*
X001953Y030319D01*
X001972Y030294D01*
X001994Y030272D01*
X002019Y030253D01*
X002045Y030237D01*
X002073Y030225D01*
X002103Y030215D01*
X002133Y030210D01*
X002164Y030208D01*
X002243Y030208D02*
X002285Y030210D01*
X002327Y030215D01*
X002369Y030224D01*
X002409Y030236D01*
X002449Y030251D01*
X002487Y030270D01*
X002523Y030291D01*
X002557Y030316D01*
X002590Y030343D01*
X002620Y030373D01*
X002647Y030406D01*
X002672Y030440D01*
X002693Y030476D01*
X002712Y030514D01*
X002727Y030554D01*
X002739Y030594D01*
X002748Y030636D01*
X002753Y030678D01*
X002755Y030720D01*
X002840Y031330D02*
X003160Y031330D01*
X002990Y029735D02*
X002988Y029710D01*
X002983Y029685D01*
X002974Y029661D01*
X002962Y029639D01*
X002947Y029619D01*
X002929Y029601D01*
X002909Y029586D01*
X002887Y029574D01*
X002863Y029565D01*
X002838Y029560D01*
X002813Y029558D01*
X002991Y029735D02*
X002989Y029763D01*
X002984Y029791D01*
X002974Y029818D01*
X002962Y029843D01*
X002946Y029867D01*
X002927Y029888D01*
X002906Y029907D01*
X002883Y029923D01*
X002857Y029935D01*
X002830Y029945D01*
X002802Y029950D01*
X002774Y029952D01*
X001800Y034620D02*
X001800Y034940D01*
X001640Y034780D02*
X001960Y034780D01*
X002105Y034959D02*
X002135Y034953D01*
X002166Y034950D01*
X002197Y034951D01*
X002227Y034955D01*
X002257Y034963D01*
X002286Y034974D01*
X002313Y034988D01*
X002339Y035005D01*
X002363Y035025D01*
X002384Y035047D01*
X002402Y035072D01*
X002418Y035098D01*
X002431Y035127D01*
X002440Y035156D01*
X002440Y035157D02*
X002442Y035190D01*
X002447Y035223D01*
X002457Y035254D01*
X002469Y035285D01*
X002485Y035314D01*
X002504Y035341D01*
X002526Y035366D01*
X002551Y035388D01*
X002578Y035407D01*
X002607Y035423D01*
X002638Y035435D01*
X002669Y035445D01*
X002702Y035450D01*
X002735Y035452D01*
X002774Y035452D01*
X002813Y035059D02*
X002772Y035061D01*
X002731Y035066D01*
X002691Y035075D01*
X002652Y035087D01*
X002614Y035103D01*
X002577Y035122D01*
X002542Y035144D01*
X002510Y035169D01*
X002479Y035197D01*
X002451Y035228D01*
X002426Y035260D01*
X002404Y035295D01*
X002385Y035332D01*
X002369Y035370D01*
X002357Y035409D01*
X002348Y035449D01*
X002343Y035490D01*
X002341Y035531D01*
X002341Y035786D01*
X002243Y035708D02*
X002164Y035708D01*
X002341Y035786D02*
X002339Y035819D01*
X002334Y035852D01*
X002324Y035883D01*
X002312Y035914D01*
X002296Y035943D01*
X002277Y035970D01*
X002255Y035995D01*
X002230Y036017D01*
X002203Y036036D01*
X002174Y036052D01*
X002143Y036064D01*
X002112Y036074D01*
X002079Y036079D01*
X002046Y036081D01*
X002046Y036082D02*
X002006Y036082D01*
X002006Y036081D02*
X001989Y036080D01*
X001972Y036075D01*
X001957Y036068D01*
X001943Y036058D01*
X001931Y036046D01*
X001921Y036032D01*
X001914Y036017D01*
X001909Y036000D01*
X001908Y035983D01*
X001908Y035964D01*
X001910Y035933D01*
X001915Y035903D01*
X001925Y035873D01*
X001937Y035845D01*
X001953Y035819D01*
X001972Y035794D01*
X001994Y035772D01*
X002019Y035753D01*
X002045Y035737D01*
X002073Y035725D01*
X002103Y035715D01*
X002133Y035710D01*
X002164Y035708D01*
X002243Y035708D02*
X002285Y035710D01*
X002327Y035715D01*
X002369Y035724D01*
X002409Y035736D01*
X002449Y035751D01*
X002487Y035770D01*
X002523Y035791D01*
X002557Y035816D01*
X002590Y035843D01*
X002620Y035873D01*
X002647Y035906D01*
X002672Y035940D01*
X002693Y035976D01*
X002712Y036014D01*
X002727Y036054D01*
X002739Y036094D01*
X002748Y036136D01*
X002753Y036178D01*
X002755Y036220D01*
X002840Y036830D02*
X003160Y036830D01*
X002990Y035235D02*
X002988Y035210D01*
X002983Y035185D01*
X002974Y035161D01*
X002962Y035139D01*
X002947Y035119D01*
X002929Y035101D01*
X002909Y035086D01*
X002887Y035074D01*
X002863Y035065D01*
X002838Y035060D01*
X002813Y035058D01*
X002991Y035235D02*
X002989Y035263D01*
X002984Y035291D01*
X002974Y035318D01*
X002962Y035343D01*
X002946Y035367D01*
X002927Y035388D01*
X002906Y035407D01*
X002883Y035423D01*
X002857Y035435D01*
X002830Y035445D01*
X002802Y035450D01*
X002774Y035452D01*
X006440Y034780D02*
X006760Y034780D01*
X006600Y034940D02*
X006600Y034620D01*
X006905Y034959D02*
X006935Y034953D01*
X006966Y034950D01*
X006997Y034951D01*
X007027Y034955D01*
X007057Y034963D01*
X007086Y034974D01*
X007113Y034988D01*
X007139Y035005D01*
X007163Y035025D01*
X007184Y035047D01*
X007202Y035072D01*
X007218Y035098D01*
X007231Y035127D01*
X007240Y035156D01*
X007240Y035157D02*
X007242Y035190D01*
X007247Y035223D01*
X007257Y035254D01*
X007269Y035285D01*
X007285Y035314D01*
X007304Y035341D01*
X007326Y035366D01*
X007351Y035388D01*
X007378Y035407D01*
X007407Y035423D01*
X007438Y035435D01*
X007469Y035445D01*
X007502Y035450D01*
X007535Y035452D01*
X007574Y035452D01*
X007613Y035059D02*
X007572Y035061D01*
X007531Y035066D01*
X007491Y035075D01*
X007452Y035087D01*
X007414Y035103D01*
X007377Y035122D01*
X007342Y035144D01*
X007310Y035169D01*
X007279Y035197D01*
X007251Y035228D01*
X007226Y035260D01*
X007204Y035295D01*
X007185Y035332D01*
X007169Y035370D01*
X007157Y035409D01*
X007148Y035449D01*
X007143Y035490D01*
X007141Y035531D01*
X007141Y035786D01*
X007043Y035708D02*
X006964Y035708D01*
X007141Y035786D02*
X007139Y035819D01*
X007134Y035852D01*
X007124Y035883D01*
X007112Y035914D01*
X007096Y035943D01*
X007077Y035970D01*
X007055Y035995D01*
X007030Y036017D01*
X007003Y036036D01*
X006974Y036052D01*
X006943Y036064D01*
X006912Y036074D01*
X006879Y036079D01*
X006846Y036081D01*
X006846Y036082D02*
X006806Y036082D01*
X006806Y036081D02*
X006789Y036080D01*
X006772Y036075D01*
X006757Y036068D01*
X006743Y036058D01*
X006731Y036046D01*
X006721Y036032D01*
X006714Y036017D01*
X006709Y036000D01*
X006708Y035983D01*
X006708Y035964D01*
X006710Y035933D01*
X006715Y035903D01*
X006725Y035873D01*
X006737Y035845D01*
X006753Y035819D01*
X006772Y035794D01*
X006794Y035772D01*
X006819Y035753D01*
X006845Y035737D01*
X006873Y035725D01*
X006903Y035715D01*
X006933Y035710D01*
X006964Y035708D01*
X007043Y035708D02*
X007085Y035710D01*
X007127Y035715D01*
X007169Y035724D01*
X007209Y035736D01*
X007249Y035751D01*
X007287Y035770D01*
X007323Y035791D01*
X007357Y035816D01*
X007390Y035843D01*
X007420Y035873D01*
X007447Y035906D01*
X007472Y035940D01*
X007493Y035976D01*
X007512Y036014D01*
X007527Y036054D01*
X007539Y036094D01*
X007548Y036136D01*
X007553Y036178D01*
X007555Y036220D01*
X007640Y036830D02*
X007960Y036830D01*
X007790Y035235D02*
X007788Y035210D01*
X007783Y035185D01*
X007774Y035161D01*
X007762Y035139D01*
X007747Y035119D01*
X007729Y035101D01*
X007709Y035086D01*
X007687Y035074D01*
X007663Y035065D01*
X007638Y035060D01*
X007613Y035058D01*
X007791Y035235D02*
X007789Y035263D01*
X007784Y035291D01*
X007774Y035318D01*
X007762Y035343D01*
X007746Y035367D01*
X007727Y035388D01*
X007706Y035407D01*
X007683Y035423D01*
X007657Y035435D01*
X007630Y035445D01*
X007602Y035450D01*
X007574Y035452D01*
X007640Y031330D02*
X007960Y031330D01*
X007141Y030031D02*
X007143Y029990D01*
X007148Y029949D01*
X007157Y029909D01*
X007169Y029870D01*
X007185Y029832D01*
X007204Y029795D01*
X007226Y029760D01*
X007251Y029728D01*
X007279Y029697D01*
X007310Y029669D01*
X007342Y029644D01*
X007377Y029622D01*
X007414Y029603D01*
X007452Y029587D01*
X007491Y029575D01*
X007531Y029566D01*
X007572Y029561D01*
X007613Y029559D01*
X007240Y029657D02*
X007242Y029690D01*
X007247Y029723D01*
X007257Y029754D01*
X007269Y029785D01*
X007285Y029814D01*
X007304Y029841D01*
X007326Y029866D01*
X007351Y029888D01*
X007378Y029907D01*
X007407Y029923D01*
X007438Y029935D01*
X007469Y029945D01*
X007502Y029950D01*
X007535Y029952D01*
X007574Y029952D01*
X007602Y029950D01*
X007630Y029945D01*
X007657Y029935D01*
X007683Y029923D01*
X007706Y029907D01*
X007727Y029888D01*
X007746Y029867D01*
X007762Y029843D01*
X007774Y029818D01*
X007784Y029791D01*
X007789Y029763D01*
X007791Y029735D01*
X007790Y029735D02*
X007788Y029710D01*
X007783Y029685D01*
X007774Y029661D01*
X007762Y029639D01*
X007747Y029619D01*
X007729Y029601D01*
X007709Y029586D01*
X007687Y029574D01*
X007663Y029565D01*
X007638Y029560D01*
X007613Y029558D01*
X007141Y030031D02*
X007141Y030286D01*
X007043Y030208D02*
X006964Y030208D01*
X007141Y030286D02*
X007139Y030319D01*
X007134Y030352D01*
X007124Y030383D01*
X007112Y030414D01*
X007096Y030443D01*
X007077Y030470D01*
X007055Y030495D01*
X007030Y030517D01*
X007003Y030536D01*
X006974Y030552D01*
X006943Y030564D01*
X006912Y030574D01*
X006879Y030579D01*
X006846Y030581D01*
X006846Y030582D02*
X006806Y030582D01*
X006806Y030581D02*
X006789Y030580D01*
X006772Y030575D01*
X006757Y030568D01*
X006743Y030558D01*
X006731Y030546D01*
X006721Y030532D01*
X006714Y030517D01*
X006709Y030500D01*
X006708Y030483D01*
X006708Y030464D01*
X006710Y030433D01*
X006715Y030403D01*
X006725Y030373D01*
X006737Y030345D01*
X006753Y030319D01*
X006772Y030294D01*
X006794Y030272D01*
X006819Y030253D01*
X006845Y030237D01*
X006873Y030225D01*
X006903Y030215D01*
X006933Y030210D01*
X006964Y030208D01*
X007240Y029656D02*
X007231Y029627D01*
X007218Y029598D01*
X007202Y029572D01*
X007184Y029547D01*
X007163Y029525D01*
X007139Y029505D01*
X007113Y029488D01*
X007086Y029474D01*
X007057Y029463D01*
X007027Y029455D01*
X006997Y029451D01*
X006966Y029450D01*
X006935Y029453D01*
X006905Y029459D01*
X006760Y029280D02*
X006440Y029280D01*
X006600Y029440D02*
X006600Y029120D01*
X007043Y030208D02*
X007085Y030210D01*
X007127Y030215D01*
X007169Y030224D01*
X007209Y030236D01*
X007249Y030251D01*
X007287Y030270D01*
X007323Y030291D01*
X007357Y030316D01*
X007390Y030343D01*
X007420Y030373D01*
X007447Y030406D01*
X007472Y030440D01*
X007493Y030476D01*
X007512Y030514D01*
X007527Y030554D01*
X007539Y030594D01*
X007548Y030636D01*
X007553Y030678D01*
X007555Y030720D01*
X007640Y025830D02*
X007960Y025830D01*
X007555Y025220D02*
X007553Y025178D01*
X007548Y025136D01*
X007539Y025094D01*
X007527Y025054D01*
X007512Y025014D01*
X007493Y024976D01*
X007472Y024940D01*
X007447Y024906D01*
X007420Y024873D01*
X007390Y024843D01*
X007357Y024816D01*
X007323Y024791D01*
X007287Y024770D01*
X007249Y024751D01*
X007209Y024736D01*
X007169Y024724D01*
X007127Y024715D01*
X007085Y024710D01*
X007043Y024708D01*
X006964Y024708D01*
X007141Y024786D02*
X007139Y024819D01*
X007134Y024852D01*
X007124Y024883D01*
X007112Y024914D01*
X007096Y024943D01*
X007077Y024970D01*
X007055Y024995D01*
X007030Y025017D01*
X007003Y025036D01*
X006974Y025052D01*
X006943Y025064D01*
X006912Y025074D01*
X006879Y025079D01*
X006846Y025081D01*
X006846Y025082D02*
X006806Y025082D01*
X006806Y025081D02*
X006789Y025080D01*
X006772Y025075D01*
X006757Y025068D01*
X006743Y025058D01*
X006731Y025046D01*
X006721Y025032D01*
X006714Y025017D01*
X006709Y025000D01*
X006708Y024983D01*
X006708Y024964D01*
X006710Y024933D01*
X006715Y024903D01*
X006725Y024873D01*
X006737Y024845D01*
X006753Y024819D01*
X006772Y024794D01*
X006794Y024772D01*
X006819Y024753D01*
X006845Y024737D01*
X006873Y024725D01*
X006903Y024715D01*
X006933Y024710D01*
X006964Y024708D01*
X007141Y024786D02*
X007141Y024531D01*
X007240Y024156D02*
X007231Y024127D01*
X007218Y024098D01*
X007202Y024072D01*
X007184Y024047D01*
X007163Y024025D01*
X007139Y024005D01*
X007113Y023988D01*
X007086Y023974D01*
X007057Y023963D01*
X007027Y023955D01*
X006997Y023951D01*
X006966Y023950D01*
X006935Y023953D01*
X006905Y023959D01*
X006760Y023780D02*
X006440Y023780D01*
X006600Y023940D02*
X006600Y023620D01*
X007240Y024157D02*
X007242Y024190D01*
X007247Y024223D01*
X007257Y024254D01*
X007269Y024285D01*
X007285Y024314D01*
X007304Y024341D01*
X007326Y024366D01*
X007351Y024388D01*
X007378Y024407D01*
X007407Y024423D01*
X007438Y024435D01*
X007469Y024445D01*
X007502Y024450D01*
X007535Y024452D01*
X007574Y024452D01*
X007613Y024059D02*
X007572Y024061D01*
X007531Y024066D01*
X007491Y024075D01*
X007452Y024087D01*
X007414Y024103D01*
X007377Y024122D01*
X007342Y024144D01*
X007310Y024169D01*
X007279Y024197D01*
X007251Y024228D01*
X007226Y024260D01*
X007204Y024295D01*
X007185Y024332D01*
X007169Y024370D01*
X007157Y024409D01*
X007148Y024449D01*
X007143Y024490D01*
X007141Y024531D01*
X007574Y024452D02*
X007602Y024450D01*
X007630Y024445D01*
X007657Y024435D01*
X007683Y024423D01*
X007706Y024407D01*
X007727Y024388D01*
X007746Y024367D01*
X007762Y024343D01*
X007774Y024318D01*
X007784Y024291D01*
X007789Y024263D01*
X007791Y024235D01*
X007790Y024235D02*
X007788Y024210D01*
X007783Y024185D01*
X007774Y024161D01*
X007762Y024139D01*
X007747Y024119D01*
X007729Y024101D01*
X007709Y024086D01*
X007687Y024074D01*
X007663Y024065D01*
X007638Y024060D01*
X007613Y024058D01*
X007640Y020330D02*
X007960Y020330D01*
X007141Y019031D02*
X007143Y018990D01*
X007148Y018949D01*
X007157Y018909D01*
X007169Y018870D01*
X007185Y018832D01*
X007204Y018795D01*
X007226Y018760D01*
X007251Y018728D01*
X007279Y018697D01*
X007310Y018669D01*
X007342Y018644D01*
X007377Y018622D01*
X007414Y018603D01*
X007452Y018587D01*
X007491Y018575D01*
X007531Y018566D01*
X007572Y018561D01*
X007613Y018559D01*
X007240Y018657D02*
X007242Y018690D01*
X007247Y018723D01*
X007257Y018754D01*
X007269Y018785D01*
X007285Y018814D01*
X007304Y018841D01*
X007326Y018866D01*
X007351Y018888D01*
X007378Y018907D01*
X007407Y018923D01*
X007438Y018935D01*
X007469Y018945D01*
X007502Y018950D01*
X007535Y018952D01*
X007574Y018952D01*
X007602Y018950D01*
X007630Y018945D01*
X007657Y018935D01*
X007683Y018923D01*
X007706Y018907D01*
X007727Y018888D01*
X007746Y018867D01*
X007762Y018843D01*
X007774Y018818D01*
X007784Y018791D01*
X007789Y018763D01*
X007791Y018735D01*
X007790Y018735D02*
X007788Y018710D01*
X007783Y018685D01*
X007774Y018661D01*
X007762Y018639D01*
X007747Y018619D01*
X007729Y018601D01*
X007709Y018586D01*
X007687Y018574D01*
X007663Y018565D01*
X007638Y018560D01*
X007613Y018558D01*
X007141Y019031D02*
X007141Y019286D01*
X007043Y019208D02*
X006964Y019208D01*
X007141Y019286D02*
X007139Y019319D01*
X007134Y019352D01*
X007124Y019383D01*
X007112Y019414D01*
X007096Y019443D01*
X007077Y019470D01*
X007055Y019495D01*
X007030Y019517D01*
X007003Y019536D01*
X006974Y019552D01*
X006943Y019564D01*
X006912Y019574D01*
X006879Y019579D01*
X006846Y019581D01*
X006846Y019582D02*
X006806Y019582D01*
X006806Y019581D02*
X006789Y019580D01*
X006772Y019575D01*
X006757Y019568D01*
X006743Y019558D01*
X006731Y019546D01*
X006721Y019532D01*
X006714Y019517D01*
X006709Y019500D01*
X006708Y019483D01*
X006708Y019464D01*
X006710Y019433D01*
X006715Y019403D01*
X006725Y019373D01*
X006737Y019345D01*
X006753Y019319D01*
X006772Y019294D01*
X006794Y019272D01*
X006819Y019253D01*
X006845Y019237D01*
X006873Y019225D01*
X006903Y019215D01*
X006933Y019210D01*
X006964Y019208D01*
X007240Y018656D02*
X007231Y018627D01*
X007218Y018598D01*
X007202Y018572D01*
X007184Y018547D01*
X007163Y018525D01*
X007139Y018505D01*
X007113Y018488D01*
X007086Y018474D01*
X007057Y018463D01*
X007027Y018455D01*
X006997Y018451D01*
X006966Y018450D01*
X006935Y018453D01*
X006905Y018459D01*
X006760Y018280D02*
X006440Y018280D01*
X006600Y018440D02*
X006600Y018120D01*
X007043Y019208D02*
X007085Y019210D01*
X007127Y019215D01*
X007169Y019224D01*
X007209Y019236D01*
X007249Y019251D01*
X007287Y019270D01*
X007323Y019291D01*
X007357Y019316D01*
X007390Y019343D01*
X007420Y019373D01*
X007447Y019406D01*
X007472Y019440D01*
X007493Y019476D01*
X007512Y019514D01*
X007527Y019554D01*
X007539Y019594D01*
X007548Y019636D01*
X007553Y019678D01*
X007555Y019720D01*
X007640Y014830D02*
X007960Y014830D01*
X007141Y013531D02*
X007143Y013490D01*
X007148Y013449D01*
X007157Y013409D01*
X007169Y013370D01*
X007185Y013332D01*
X007204Y013295D01*
X007226Y013260D01*
X007251Y013228D01*
X007279Y013197D01*
X007310Y013169D01*
X007342Y013144D01*
X007377Y013122D01*
X007414Y013103D01*
X007452Y013087D01*
X007491Y013075D01*
X007531Y013066D01*
X007572Y013061D01*
X007613Y013059D01*
X007240Y013157D02*
X007242Y013190D01*
X007247Y013223D01*
X007257Y013254D01*
X007269Y013285D01*
X007285Y013314D01*
X007304Y013341D01*
X007326Y013366D01*
X007351Y013388D01*
X007378Y013407D01*
X007407Y013423D01*
X007438Y013435D01*
X007469Y013445D01*
X007502Y013450D01*
X007535Y013452D01*
X007574Y013452D01*
X007602Y013450D01*
X007630Y013445D01*
X007657Y013435D01*
X007683Y013423D01*
X007706Y013407D01*
X007727Y013388D01*
X007746Y013367D01*
X007762Y013343D01*
X007774Y013318D01*
X007784Y013291D01*
X007789Y013263D01*
X007791Y013235D01*
X007790Y013235D02*
X007788Y013210D01*
X007783Y013185D01*
X007774Y013161D01*
X007762Y013139D01*
X007747Y013119D01*
X007729Y013101D01*
X007709Y013086D01*
X007687Y013074D01*
X007663Y013065D01*
X007638Y013060D01*
X007613Y013058D01*
X007141Y013531D02*
X007141Y013786D01*
X007043Y013708D02*
X006964Y013708D01*
X007141Y013786D02*
X007139Y013819D01*
X007134Y013852D01*
X007124Y013883D01*
X007112Y013914D01*
X007096Y013943D01*
X007077Y013970D01*
X007055Y013995D01*
X007030Y014017D01*
X007003Y014036D01*
X006974Y014052D01*
X006943Y014064D01*
X006912Y014074D01*
X006879Y014079D01*
X006846Y014081D01*
X006846Y014082D02*
X006806Y014082D01*
X006806Y014081D02*
X006789Y014080D01*
X006772Y014075D01*
X006757Y014068D01*
X006743Y014058D01*
X006731Y014046D01*
X006721Y014032D01*
X006714Y014017D01*
X006709Y014000D01*
X006708Y013983D01*
X006708Y013964D01*
X006710Y013933D01*
X006715Y013903D01*
X006725Y013873D01*
X006737Y013845D01*
X006753Y013819D01*
X006772Y013794D01*
X006794Y013772D01*
X006819Y013753D01*
X006845Y013737D01*
X006873Y013725D01*
X006903Y013715D01*
X006933Y013710D01*
X006964Y013708D01*
X007240Y013156D02*
X007231Y013127D01*
X007218Y013098D01*
X007202Y013072D01*
X007184Y013047D01*
X007163Y013025D01*
X007139Y013005D01*
X007113Y012988D01*
X007086Y012974D01*
X007057Y012963D01*
X007027Y012955D01*
X006997Y012951D01*
X006966Y012950D01*
X006935Y012953D01*
X006905Y012959D01*
X006760Y012780D02*
X006440Y012780D01*
X006600Y012940D02*
X006600Y012620D01*
X007043Y013708D02*
X007085Y013710D01*
X007127Y013715D01*
X007169Y013724D01*
X007209Y013736D01*
X007249Y013751D01*
X007287Y013770D01*
X007323Y013791D01*
X007357Y013816D01*
X007390Y013843D01*
X007420Y013873D01*
X007447Y013906D01*
X007472Y013940D01*
X007493Y013976D01*
X007512Y014014D01*
X007527Y014054D01*
X007539Y014094D01*
X007548Y014136D01*
X007553Y014178D01*
X007555Y014220D01*
X007640Y009330D02*
X007960Y009330D01*
X007555Y008720D02*
X007553Y008678D01*
X007548Y008636D01*
X007539Y008594D01*
X007527Y008554D01*
X007512Y008514D01*
X007493Y008476D01*
X007472Y008440D01*
X007447Y008406D01*
X007420Y008373D01*
X007390Y008343D01*
X007357Y008316D01*
X007323Y008291D01*
X007287Y008270D01*
X007249Y008251D01*
X007209Y008236D01*
X007169Y008224D01*
X007127Y008215D01*
X007085Y008210D01*
X007043Y008208D01*
X006964Y008208D01*
X007141Y008286D02*
X007139Y008319D01*
X007134Y008352D01*
X007124Y008383D01*
X007112Y008414D01*
X007096Y008443D01*
X007077Y008470D01*
X007055Y008495D01*
X007030Y008517D01*
X007003Y008536D01*
X006974Y008552D01*
X006943Y008564D01*
X006912Y008574D01*
X006879Y008579D01*
X006846Y008581D01*
X006846Y008582D02*
X006806Y008582D01*
X006806Y008581D02*
X006789Y008580D01*
X006772Y008575D01*
X006757Y008568D01*
X006743Y008558D01*
X006731Y008546D01*
X006721Y008532D01*
X006714Y008517D01*
X006709Y008500D01*
X006708Y008483D01*
X006708Y008464D01*
X006710Y008433D01*
X006715Y008403D01*
X006725Y008373D01*
X006737Y008345D01*
X006753Y008319D01*
X006772Y008294D01*
X006794Y008272D01*
X006819Y008253D01*
X006845Y008237D01*
X006873Y008225D01*
X006903Y008215D01*
X006933Y008210D01*
X006964Y008208D01*
X007141Y008286D02*
X007141Y008031D01*
X007240Y007656D02*
X007231Y007627D01*
X007218Y007598D01*
X007202Y007572D01*
X007184Y007547D01*
X007163Y007525D01*
X007139Y007505D01*
X007113Y007488D01*
X007086Y007474D01*
X007057Y007463D01*
X007027Y007455D01*
X006997Y007451D01*
X006966Y007450D01*
X006935Y007453D01*
X006905Y007459D01*
X006760Y007280D02*
X006440Y007280D01*
X006600Y007440D02*
X006600Y007120D01*
X007240Y007657D02*
X007242Y007690D01*
X007247Y007723D01*
X007257Y007754D01*
X007269Y007785D01*
X007285Y007814D01*
X007304Y007841D01*
X007326Y007866D01*
X007351Y007888D01*
X007378Y007907D01*
X007407Y007923D01*
X007438Y007935D01*
X007469Y007945D01*
X007502Y007950D01*
X007535Y007952D01*
X007574Y007952D01*
X007613Y007559D02*
X007572Y007561D01*
X007531Y007566D01*
X007491Y007575D01*
X007452Y007587D01*
X007414Y007603D01*
X007377Y007622D01*
X007342Y007644D01*
X007310Y007669D01*
X007279Y007697D01*
X007251Y007728D01*
X007226Y007760D01*
X007204Y007795D01*
X007185Y007832D01*
X007169Y007870D01*
X007157Y007909D01*
X007148Y007949D01*
X007143Y007990D01*
X007141Y008031D01*
X007574Y007952D02*
X007602Y007950D01*
X007630Y007945D01*
X007657Y007935D01*
X007683Y007923D01*
X007706Y007907D01*
X007727Y007888D01*
X007746Y007867D01*
X007762Y007843D01*
X007774Y007818D01*
X007784Y007791D01*
X007789Y007763D01*
X007791Y007735D01*
X007790Y007735D02*
X007788Y007710D01*
X007783Y007685D01*
X007774Y007661D01*
X007762Y007639D01*
X007747Y007619D01*
X007729Y007601D01*
X007709Y007586D01*
X007687Y007574D01*
X007663Y007565D01*
X007638Y007560D01*
X007613Y007558D01*
X007640Y003830D02*
X007960Y003830D01*
X007141Y002531D02*
X007143Y002490D01*
X007148Y002449D01*
X007157Y002409D01*
X007169Y002370D01*
X007185Y002332D01*
X007204Y002295D01*
X007226Y002260D01*
X007251Y002228D01*
X007279Y002197D01*
X007310Y002169D01*
X007342Y002144D01*
X007377Y002122D01*
X007414Y002103D01*
X007452Y002087D01*
X007491Y002075D01*
X007531Y002066D01*
X007572Y002061D01*
X007613Y002059D01*
X007240Y002157D02*
X007242Y002190D01*
X007247Y002223D01*
X007257Y002254D01*
X007269Y002285D01*
X007285Y002314D01*
X007304Y002341D01*
X007326Y002366D01*
X007351Y002388D01*
X007378Y002407D01*
X007407Y002423D01*
X007438Y002435D01*
X007469Y002445D01*
X007502Y002450D01*
X007535Y002452D01*
X007574Y002452D01*
X007602Y002450D01*
X007630Y002445D01*
X007657Y002435D01*
X007683Y002423D01*
X007706Y002407D01*
X007727Y002388D01*
X007746Y002367D01*
X007762Y002343D01*
X007774Y002318D01*
X007784Y002291D01*
X007789Y002263D01*
X007791Y002235D01*
X007790Y002235D02*
X007788Y002210D01*
X007783Y002185D01*
X007774Y002161D01*
X007762Y002139D01*
X007747Y002119D01*
X007729Y002101D01*
X007709Y002086D01*
X007687Y002074D01*
X007663Y002065D01*
X007638Y002060D01*
X007613Y002058D01*
X007141Y002531D02*
X007141Y002786D01*
X007043Y002708D02*
X006964Y002708D01*
X007141Y002786D02*
X007139Y002819D01*
X007134Y002852D01*
X007124Y002883D01*
X007112Y002914D01*
X007096Y002943D01*
X007077Y002970D01*
X007055Y002995D01*
X007030Y003017D01*
X007003Y003036D01*
X006974Y003052D01*
X006943Y003064D01*
X006912Y003074D01*
X006879Y003079D01*
X006846Y003081D01*
X006846Y003082D02*
X006806Y003082D01*
X006806Y003081D02*
X006789Y003080D01*
X006772Y003075D01*
X006757Y003068D01*
X006743Y003058D01*
X006731Y003046D01*
X006721Y003032D01*
X006714Y003017D01*
X006709Y003000D01*
X006708Y002983D01*
X006708Y002964D01*
X006710Y002933D01*
X006715Y002903D01*
X006725Y002873D01*
X006737Y002845D01*
X006753Y002819D01*
X006772Y002794D01*
X006794Y002772D01*
X006819Y002753D01*
X006845Y002737D01*
X006873Y002725D01*
X006903Y002715D01*
X006933Y002710D01*
X006964Y002708D01*
X007043Y002708D02*
X007085Y002710D01*
X007127Y002715D01*
X007169Y002724D01*
X007209Y002736D01*
X007249Y002751D01*
X007287Y002770D01*
X007323Y002791D01*
X007357Y002816D01*
X007390Y002843D01*
X007420Y002873D01*
X007447Y002906D01*
X007472Y002940D01*
X007493Y002976D01*
X007512Y003014D01*
X007527Y003054D01*
X007539Y003094D01*
X007548Y003136D01*
X007553Y003178D01*
X007555Y003220D01*
X007240Y002156D02*
X007231Y002127D01*
X007218Y002098D01*
X007202Y002072D01*
X007184Y002047D01*
X007163Y002025D01*
X007139Y002005D01*
X007113Y001988D01*
X007086Y001974D01*
X007057Y001963D01*
X007027Y001955D01*
X006997Y001951D01*
X006966Y001950D01*
X006935Y001953D01*
X006905Y001959D01*
X006760Y001780D02*
X006440Y001780D01*
X006600Y001940D02*
X006600Y001620D01*
X011240Y001780D02*
X011560Y001780D01*
X011400Y001940D02*
X011400Y001620D01*
X011705Y001959D02*
X011735Y001953D01*
X011766Y001950D01*
X011797Y001951D01*
X011827Y001955D01*
X011857Y001963D01*
X011886Y001974D01*
X011913Y001988D01*
X011939Y002005D01*
X011963Y002025D01*
X011984Y002047D01*
X012002Y002072D01*
X012018Y002098D01*
X012031Y002127D01*
X012040Y002156D01*
X011941Y002531D02*
X011941Y002786D01*
X011843Y002708D02*
X011764Y002708D01*
X011941Y002786D02*
X011939Y002819D01*
X011934Y002852D01*
X011924Y002883D01*
X011912Y002914D01*
X011896Y002943D01*
X011877Y002970D01*
X011855Y002995D01*
X011830Y003017D01*
X011803Y003036D01*
X011774Y003052D01*
X011743Y003064D01*
X011712Y003074D01*
X011679Y003079D01*
X011646Y003081D01*
X011646Y003082D02*
X011606Y003082D01*
X011606Y003081D02*
X011589Y003080D01*
X011572Y003075D01*
X011557Y003068D01*
X011543Y003058D01*
X011531Y003046D01*
X011521Y003032D01*
X011514Y003017D01*
X011509Y003000D01*
X011508Y002983D01*
X011508Y002964D01*
X011510Y002933D01*
X011515Y002903D01*
X011525Y002873D01*
X011537Y002845D01*
X011553Y002819D01*
X011572Y002794D01*
X011594Y002772D01*
X011619Y002753D01*
X011645Y002737D01*
X011673Y002725D01*
X011703Y002715D01*
X011733Y002710D01*
X011764Y002708D01*
X011843Y002708D02*
X011885Y002710D01*
X011927Y002715D01*
X011969Y002724D01*
X012009Y002736D01*
X012049Y002751D01*
X012087Y002770D01*
X012123Y002791D01*
X012157Y002816D01*
X012190Y002843D01*
X012220Y002873D01*
X012247Y002906D01*
X012272Y002940D01*
X012293Y002976D01*
X012312Y003014D01*
X012327Y003054D01*
X012339Y003094D01*
X012348Y003136D01*
X012353Y003178D01*
X012355Y003220D01*
X012440Y003830D02*
X012760Y003830D01*
X011941Y002531D02*
X011943Y002490D01*
X011948Y002449D01*
X011957Y002409D01*
X011969Y002370D01*
X011985Y002332D01*
X012004Y002295D01*
X012026Y002260D01*
X012051Y002228D01*
X012079Y002197D01*
X012110Y002169D01*
X012142Y002144D01*
X012177Y002122D01*
X012214Y002103D01*
X012252Y002087D01*
X012291Y002075D01*
X012331Y002066D01*
X012372Y002061D01*
X012413Y002059D01*
X012040Y002157D02*
X012042Y002190D01*
X012047Y002223D01*
X012057Y002254D01*
X012069Y002285D01*
X012085Y002314D01*
X012104Y002341D01*
X012126Y002366D01*
X012151Y002388D01*
X012178Y002407D01*
X012207Y002423D01*
X012238Y002435D01*
X012269Y002445D01*
X012302Y002450D01*
X012335Y002452D01*
X012374Y002452D01*
X012402Y002450D01*
X012430Y002445D01*
X012457Y002435D01*
X012483Y002423D01*
X012506Y002407D01*
X012527Y002388D01*
X012546Y002367D01*
X012562Y002343D01*
X012574Y002318D01*
X012584Y002291D01*
X012589Y002263D01*
X012591Y002235D01*
X012590Y002235D02*
X012588Y002210D01*
X012583Y002185D01*
X012574Y002161D01*
X012562Y002139D01*
X012547Y002119D01*
X012529Y002101D01*
X012509Y002086D01*
X012487Y002074D01*
X012463Y002065D01*
X012438Y002060D01*
X012413Y002058D01*
X011400Y007120D02*
X011400Y007440D01*
X011240Y007280D02*
X011560Y007280D01*
X011705Y007459D02*
X011735Y007453D01*
X011766Y007450D01*
X011797Y007451D01*
X011827Y007455D01*
X011857Y007463D01*
X011886Y007474D01*
X011913Y007488D01*
X011939Y007505D01*
X011963Y007525D01*
X011984Y007547D01*
X012002Y007572D01*
X012018Y007598D01*
X012031Y007627D01*
X012040Y007656D01*
X011941Y008031D02*
X011941Y008286D01*
X011843Y008208D02*
X011764Y008208D01*
X011941Y008286D02*
X011939Y008319D01*
X011934Y008352D01*
X011924Y008383D01*
X011912Y008414D01*
X011896Y008443D01*
X011877Y008470D01*
X011855Y008495D01*
X011830Y008517D01*
X011803Y008536D01*
X011774Y008552D01*
X011743Y008564D01*
X011712Y008574D01*
X011679Y008579D01*
X011646Y008581D01*
X011646Y008582D02*
X011606Y008582D01*
X011606Y008581D02*
X011589Y008580D01*
X011572Y008575D01*
X011557Y008568D01*
X011543Y008558D01*
X011531Y008546D01*
X011521Y008532D01*
X011514Y008517D01*
X011509Y008500D01*
X011508Y008483D01*
X011508Y008464D01*
X011510Y008433D01*
X011515Y008403D01*
X011525Y008373D01*
X011537Y008345D01*
X011553Y008319D01*
X011572Y008294D01*
X011594Y008272D01*
X011619Y008253D01*
X011645Y008237D01*
X011673Y008225D01*
X011703Y008215D01*
X011733Y008210D01*
X011764Y008208D01*
X011843Y008208D02*
X011885Y008210D01*
X011927Y008215D01*
X011969Y008224D01*
X012009Y008236D01*
X012049Y008251D01*
X012087Y008270D01*
X012123Y008291D01*
X012157Y008316D01*
X012190Y008343D01*
X012220Y008373D01*
X012247Y008406D01*
X012272Y008440D01*
X012293Y008476D01*
X012312Y008514D01*
X012327Y008554D01*
X012339Y008594D01*
X012348Y008636D01*
X012353Y008678D01*
X012355Y008720D01*
X012440Y009330D02*
X012760Y009330D01*
X011941Y008031D02*
X011943Y007990D01*
X011948Y007949D01*
X011957Y007909D01*
X011969Y007870D01*
X011985Y007832D01*
X012004Y007795D01*
X012026Y007760D01*
X012051Y007728D01*
X012079Y007697D01*
X012110Y007669D01*
X012142Y007644D01*
X012177Y007622D01*
X012214Y007603D01*
X012252Y007587D01*
X012291Y007575D01*
X012331Y007566D01*
X012372Y007561D01*
X012413Y007559D01*
X012040Y007657D02*
X012042Y007690D01*
X012047Y007723D01*
X012057Y007754D01*
X012069Y007785D01*
X012085Y007814D01*
X012104Y007841D01*
X012126Y007866D01*
X012151Y007888D01*
X012178Y007907D01*
X012207Y007923D01*
X012238Y007935D01*
X012269Y007945D01*
X012302Y007950D01*
X012335Y007952D01*
X012374Y007952D01*
X012402Y007950D01*
X012430Y007945D01*
X012457Y007935D01*
X012483Y007923D01*
X012506Y007907D01*
X012527Y007888D01*
X012546Y007867D01*
X012562Y007843D01*
X012574Y007818D01*
X012584Y007791D01*
X012589Y007763D01*
X012591Y007735D01*
X012590Y007735D02*
X012588Y007710D01*
X012583Y007685D01*
X012574Y007661D01*
X012562Y007639D01*
X012547Y007619D01*
X012529Y007601D01*
X012509Y007586D01*
X012487Y007574D01*
X012463Y007565D01*
X012438Y007560D01*
X012413Y007558D01*
X011400Y012620D02*
X011400Y012940D01*
X011240Y012780D02*
X011560Y012780D01*
X011705Y012959D02*
X011735Y012953D01*
X011766Y012950D01*
X011797Y012951D01*
X011827Y012955D01*
X011857Y012963D01*
X011886Y012974D01*
X011913Y012988D01*
X011939Y013005D01*
X011963Y013025D01*
X011984Y013047D01*
X012002Y013072D01*
X012018Y013098D01*
X012031Y013127D01*
X012040Y013156D01*
X011941Y013531D02*
X011941Y013786D01*
X011843Y013708D02*
X011764Y013708D01*
X011941Y013786D02*
X011939Y013819D01*
X011934Y013852D01*
X011924Y013883D01*
X011912Y013914D01*
X011896Y013943D01*
X011877Y013970D01*
X011855Y013995D01*
X011830Y014017D01*
X011803Y014036D01*
X011774Y014052D01*
X011743Y014064D01*
X011712Y014074D01*
X011679Y014079D01*
X011646Y014081D01*
X011646Y014082D02*
X011606Y014082D01*
X011606Y014081D02*
X011589Y014080D01*
X011572Y014075D01*
X011557Y014068D01*
X011543Y014058D01*
X011531Y014046D01*
X011521Y014032D01*
X011514Y014017D01*
X011509Y014000D01*
X011508Y013983D01*
X011508Y013964D01*
X011510Y013933D01*
X011515Y013903D01*
X011525Y013873D01*
X011537Y013845D01*
X011553Y013819D01*
X011572Y013794D01*
X011594Y013772D01*
X011619Y013753D01*
X011645Y013737D01*
X011673Y013725D01*
X011703Y013715D01*
X011733Y013710D01*
X011764Y013708D01*
X011843Y013708D02*
X011885Y013710D01*
X011927Y013715D01*
X011969Y013724D01*
X012009Y013736D01*
X012049Y013751D01*
X012087Y013770D01*
X012123Y013791D01*
X012157Y013816D01*
X012190Y013843D01*
X012220Y013873D01*
X012247Y013906D01*
X012272Y013940D01*
X012293Y013976D01*
X012312Y014014D01*
X012327Y014054D01*
X012339Y014094D01*
X012348Y014136D01*
X012353Y014178D01*
X012355Y014220D01*
X011941Y013531D02*
X011943Y013490D01*
X011948Y013449D01*
X011957Y013409D01*
X011969Y013370D01*
X011985Y013332D01*
X012004Y013295D01*
X012026Y013260D01*
X012051Y013228D01*
X012079Y013197D01*
X012110Y013169D01*
X012142Y013144D01*
X012177Y013122D01*
X012214Y013103D01*
X012252Y013087D01*
X012291Y013075D01*
X012331Y013066D01*
X012372Y013061D01*
X012413Y013059D01*
X012040Y013157D02*
X012042Y013190D01*
X012047Y013223D01*
X012057Y013254D01*
X012069Y013285D01*
X012085Y013314D01*
X012104Y013341D01*
X012126Y013366D01*
X012151Y013388D01*
X012178Y013407D01*
X012207Y013423D01*
X012238Y013435D01*
X012269Y013445D01*
X012302Y013450D01*
X012335Y013452D01*
X012374Y013452D01*
X012402Y013450D01*
X012430Y013445D01*
X012457Y013435D01*
X012483Y013423D01*
X012506Y013407D01*
X012527Y013388D01*
X012546Y013367D01*
X012562Y013343D01*
X012574Y013318D01*
X012584Y013291D01*
X012589Y013263D01*
X012591Y013235D01*
X012590Y013235D02*
X012588Y013210D01*
X012583Y013185D01*
X012574Y013161D01*
X012562Y013139D01*
X012547Y013119D01*
X012529Y013101D01*
X012509Y013086D01*
X012487Y013074D01*
X012463Y013065D01*
X012438Y013060D01*
X012413Y013058D01*
X012440Y014830D02*
X012760Y014830D01*
X011400Y018120D02*
X011400Y018440D01*
X011240Y018280D02*
X011560Y018280D01*
X011705Y018459D02*
X011735Y018453D01*
X011766Y018450D01*
X011797Y018451D01*
X011827Y018455D01*
X011857Y018463D01*
X011886Y018474D01*
X011913Y018488D01*
X011939Y018505D01*
X011963Y018525D01*
X011984Y018547D01*
X012002Y018572D01*
X012018Y018598D01*
X012031Y018627D01*
X012040Y018656D01*
X011941Y019031D02*
X011941Y019286D01*
X011843Y019208D02*
X011764Y019208D01*
X011941Y019286D02*
X011939Y019319D01*
X011934Y019352D01*
X011924Y019383D01*
X011912Y019414D01*
X011896Y019443D01*
X011877Y019470D01*
X011855Y019495D01*
X011830Y019517D01*
X011803Y019536D01*
X011774Y019552D01*
X011743Y019564D01*
X011712Y019574D01*
X011679Y019579D01*
X011646Y019581D01*
X011646Y019582D02*
X011606Y019582D01*
X011606Y019581D02*
X011589Y019580D01*
X011572Y019575D01*
X011557Y019568D01*
X011543Y019558D01*
X011531Y019546D01*
X011521Y019532D01*
X011514Y019517D01*
X011509Y019500D01*
X011508Y019483D01*
X011508Y019464D01*
X011510Y019433D01*
X011515Y019403D01*
X011525Y019373D01*
X011537Y019345D01*
X011553Y019319D01*
X011572Y019294D01*
X011594Y019272D01*
X011619Y019253D01*
X011645Y019237D01*
X011673Y019225D01*
X011703Y019215D01*
X011733Y019210D01*
X011764Y019208D01*
X011843Y019208D02*
X011885Y019210D01*
X011927Y019215D01*
X011969Y019224D01*
X012009Y019236D01*
X012049Y019251D01*
X012087Y019270D01*
X012123Y019291D01*
X012157Y019316D01*
X012190Y019343D01*
X012220Y019373D01*
X012247Y019406D01*
X012272Y019440D01*
X012293Y019476D01*
X012312Y019514D01*
X012327Y019554D01*
X012339Y019594D01*
X012348Y019636D01*
X012353Y019678D01*
X012355Y019720D01*
X012440Y020330D02*
X012760Y020330D01*
X011941Y019031D02*
X011943Y018990D01*
X011948Y018949D01*
X011957Y018909D01*
X011969Y018870D01*
X011985Y018832D01*
X012004Y018795D01*
X012026Y018760D01*
X012051Y018728D01*
X012079Y018697D01*
X012110Y018669D01*
X012142Y018644D01*
X012177Y018622D01*
X012214Y018603D01*
X012252Y018587D01*
X012291Y018575D01*
X012331Y018566D01*
X012372Y018561D01*
X012413Y018559D01*
X012040Y018657D02*
X012042Y018690D01*
X012047Y018723D01*
X012057Y018754D01*
X012069Y018785D01*
X012085Y018814D01*
X012104Y018841D01*
X012126Y018866D01*
X012151Y018888D01*
X012178Y018907D01*
X012207Y018923D01*
X012238Y018935D01*
X012269Y018945D01*
X012302Y018950D01*
X012335Y018952D01*
X012374Y018952D01*
X012402Y018950D01*
X012430Y018945D01*
X012457Y018935D01*
X012483Y018923D01*
X012506Y018907D01*
X012527Y018888D01*
X012546Y018867D01*
X012562Y018843D01*
X012574Y018818D01*
X012584Y018791D01*
X012589Y018763D01*
X012591Y018735D01*
X012590Y018735D02*
X012588Y018710D01*
X012583Y018685D01*
X012574Y018661D01*
X012562Y018639D01*
X012547Y018619D01*
X012529Y018601D01*
X012509Y018586D01*
X012487Y018574D01*
X012463Y018565D01*
X012438Y018560D01*
X012413Y018558D01*
X011400Y023620D02*
X011400Y023940D01*
X011240Y023780D02*
X011560Y023780D01*
X011705Y023959D02*
X011735Y023953D01*
X011766Y023950D01*
X011797Y023951D01*
X011827Y023955D01*
X011857Y023963D01*
X011886Y023974D01*
X011913Y023988D01*
X011939Y024005D01*
X011963Y024025D01*
X011984Y024047D01*
X012002Y024072D01*
X012018Y024098D01*
X012031Y024127D01*
X012040Y024156D01*
X011941Y024531D02*
X011941Y024786D01*
X011843Y024708D02*
X011764Y024708D01*
X011941Y024786D02*
X011939Y024819D01*
X011934Y024852D01*
X011924Y024883D01*
X011912Y024914D01*
X011896Y024943D01*
X011877Y024970D01*
X011855Y024995D01*
X011830Y025017D01*
X011803Y025036D01*
X011774Y025052D01*
X011743Y025064D01*
X011712Y025074D01*
X011679Y025079D01*
X011646Y025081D01*
X011646Y025082D02*
X011606Y025082D01*
X011606Y025081D02*
X011589Y025080D01*
X011572Y025075D01*
X011557Y025068D01*
X011543Y025058D01*
X011531Y025046D01*
X011521Y025032D01*
X011514Y025017D01*
X011509Y025000D01*
X011508Y024983D01*
X011508Y024964D01*
X011510Y024933D01*
X011515Y024903D01*
X011525Y024873D01*
X011537Y024845D01*
X011553Y024819D01*
X011572Y024794D01*
X011594Y024772D01*
X011619Y024753D01*
X011645Y024737D01*
X011673Y024725D01*
X011703Y024715D01*
X011733Y024710D01*
X011764Y024708D01*
X011843Y024708D02*
X011885Y024710D01*
X011927Y024715D01*
X011969Y024724D01*
X012009Y024736D01*
X012049Y024751D01*
X012087Y024770D01*
X012123Y024791D01*
X012157Y024816D01*
X012190Y024843D01*
X012220Y024873D01*
X012247Y024906D01*
X012272Y024940D01*
X012293Y024976D01*
X012312Y025014D01*
X012327Y025054D01*
X012339Y025094D01*
X012348Y025136D01*
X012353Y025178D01*
X012355Y025220D01*
X012440Y025830D02*
X012760Y025830D01*
X011941Y024531D02*
X011943Y024490D01*
X011948Y024449D01*
X011957Y024409D01*
X011969Y024370D01*
X011985Y024332D01*
X012004Y024295D01*
X012026Y024260D01*
X012051Y024228D01*
X012079Y024197D01*
X012110Y024169D01*
X012142Y024144D01*
X012177Y024122D01*
X012214Y024103D01*
X012252Y024087D01*
X012291Y024075D01*
X012331Y024066D01*
X012372Y024061D01*
X012413Y024059D01*
X012040Y024157D02*
X012042Y024190D01*
X012047Y024223D01*
X012057Y024254D01*
X012069Y024285D01*
X012085Y024314D01*
X012104Y024341D01*
X012126Y024366D01*
X012151Y024388D01*
X012178Y024407D01*
X012207Y024423D01*
X012238Y024435D01*
X012269Y024445D01*
X012302Y024450D01*
X012335Y024452D01*
X012374Y024452D01*
X012402Y024450D01*
X012430Y024445D01*
X012457Y024435D01*
X012483Y024423D01*
X012506Y024407D01*
X012527Y024388D01*
X012546Y024367D01*
X012562Y024343D01*
X012574Y024318D01*
X012584Y024291D01*
X012589Y024263D01*
X012591Y024235D01*
X012590Y024235D02*
X012588Y024210D01*
X012583Y024185D01*
X012574Y024161D01*
X012562Y024139D01*
X012547Y024119D01*
X012529Y024101D01*
X012509Y024086D01*
X012487Y024074D01*
X012463Y024065D01*
X012438Y024060D01*
X012413Y024058D01*
X011400Y029120D02*
X011400Y029440D01*
X011240Y029280D02*
X011560Y029280D01*
X011705Y029459D02*
X011735Y029453D01*
X011766Y029450D01*
X011797Y029451D01*
X011827Y029455D01*
X011857Y029463D01*
X011886Y029474D01*
X011913Y029488D01*
X011939Y029505D01*
X011963Y029525D01*
X011984Y029547D01*
X012002Y029572D01*
X012018Y029598D01*
X012031Y029627D01*
X012040Y029656D01*
X011941Y030031D02*
X011941Y030286D01*
X011843Y030208D02*
X011764Y030208D01*
X011941Y030286D02*
X011939Y030319D01*
X011934Y030352D01*
X011924Y030383D01*
X011912Y030414D01*
X011896Y030443D01*
X011877Y030470D01*
X011855Y030495D01*
X011830Y030517D01*
X011803Y030536D01*
X011774Y030552D01*
X011743Y030564D01*
X011712Y030574D01*
X011679Y030579D01*
X011646Y030581D01*
X011646Y030582D02*
X011606Y030582D01*
X011606Y030581D02*
X011589Y030580D01*
X011572Y030575D01*
X011557Y030568D01*
X011543Y030558D01*
X011531Y030546D01*
X011521Y030532D01*
X011514Y030517D01*
X011509Y030500D01*
X011508Y030483D01*
X011508Y030464D01*
X011510Y030433D01*
X011515Y030403D01*
X011525Y030373D01*
X011537Y030345D01*
X011553Y030319D01*
X011572Y030294D01*
X011594Y030272D01*
X011619Y030253D01*
X011645Y030237D01*
X011673Y030225D01*
X011703Y030215D01*
X011733Y030210D01*
X011764Y030208D01*
X011843Y030208D02*
X011885Y030210D01*
X011927Y030215D01*
X011969Y030224D01*
X012009Y030236D01*
X012049Y030251D01*
X012087Y030270D01*
X012123Y030291D01*
X012157Y030316D01*
X012190Y030343D01*
X012220Y030373D01*
X012247Y030406D01*
X012272Y030440D01*
X012293Y030476D01*
X012312Y030514D01*
X012327Y030554D01*
X012339Y030594D01*
X012348Y030636D01*
X012353Y030678D01*
X012355Y030720D01*
X011941Y030031D02*
X011943Y029990D01*
X011948Y029949D01*
X011957Y029909D01*
X011969Y029870D01*
X011985Y029832D01*
X012004Y029795D01*
X012026Y029760D01*
X012051Y029728D01*
X012079Y029697D01*
X012110Y029669D01*
X012142Y029644D01*
X012177Y029622D01*
X012214Y029603D01*
X012252Y029587D01*
X012291Y029575D01*
X012331Y029566D01*
X012372Y029561D01*
X012413Y029559D01*
X012040Y029657D02*
X012042Y029690D01*
X012047Y029723D01*
X012057Y029754D01*
X012069Y029785D01*
X012085Y029814D01*
X012104Y029841D01*
X012126Y029866D01*
X012151Y029888D01*
X012178Y029907D01*
X012207Y029923D01*
X012238Y029935D01*
X012269Y029945D01*
X012302Y029950D01*
X012335Y029952D01*
X012374Y029952D01*
X012402Y029950D01*
X012430Y029945D01*
X012457Y029935D01*
X012483Y029923D01*
X012506Y029907D01*
X012527Y029888D01*
X012546Y029867D01*
X012562Y029843D01*
X012574Y029818D01*
X012584Y029791D01*
X012589Y029763D01*
X012591Y029735D01*
X012590Y029735D02*
X012588Y029710D01*
X012583Y029685D01*
X012574Y029661D01*
X012562Y029639D01*
X012547Y029619D01*
X012529Y029601D01*
X012509Y029586D01*
X012487Y029574D01*
X012463Y029565D01*
X012438Y029560D01*
X012413Y029558D01*
X012440Y031330D02*
X012760Y031330D01*
X011400Y034620D02*
X011400Y034940D01*
X011240Y034780D02*
X011560Y034780D01*
X011705Y034959D02*
X011735Y034953D01*
X011766Y034950D01*
X011797Y034951D01*
X011827Y034955D01*
X011857Y034963D01*
X011886Y034974D01*
X011913Y034988D01*
X011939Y035005D01*
X011963Y035025D01*
X011984Y035047D01*
X012002Y035072D01*
X012018Y035098D01*
X012031Y035127D01*
X012040Y035156D01*
X011941Y035531D02*
X011941Y035786D01*
X011843Y035708D02*
X011764Y035708D01*
X011941Y035786D02*
X011939Y035819D01*
X011934Y035852D01*
X011924Y035883D01*
X011912Y035914D01*
X011896Y035943D01*
X011877Y035970D01*
X011855Y035995D01*
X011830Y036017D01*
X011803Y036036D01*
X011774Y036052D01*
X011743Y036064D01*
X011712Y036074D01*
X011679Y036079D01*
X011646Y036081D01*
X011646Y036082D02*
X011606Y036082D01*
X011606Y036081D02*
X011589Y036080D01*
X011572Y036075D01*
X011557Y036068D01*
X011543Y036058D01*
X011531Y036046D01*
X011521Y036032D01*
X011514Y036017D01*
X011509Y036000D01*
X011508Y035983D01*
X011508Y035964D01*
X011510Y035933D01*
X011515Y035903D01*
X011525Y035873D01*
X011537Y035845D01*
X011553Y035819D01*
X011572Y035794D01*
X011594Y035772D01*
X011619Y035753D01*
X011645Y035737D01*
X011673Y035725D01*
X011703Y035715D01*
X011733Y035710D01*
X011764Y035708D01*
X011843Y035708D02*
X011885Y035710D01*
X011927Y035715D01*
X011969Y035724D01*
X012009Y035736D01*
X012049Y035751D01*
X012087Y035770D01*
X012123Y035791D01*
X012157Y035816D01*
X012190Y035843D01*
X012220Y035873D01*
X012247Y035906D01*
X012272Y035940D01*
X012293Y035976D01*
X012312Y036014D01*
X012327Y036054D01*
X012339Y036094D01*
X012348Y036136D01*
X012353Y036178D01*
X012355Y036220D01*
X012440Y036830D02*
X012760Y036830D01*
X011941Y035531D02*
X011943Y035490D01*
X011948Y035449D01*
X011957Y035409D01*
X011969Y035370D01*
X011985Y035332D01*
X012004Y035295D01*
X012026Y035260D01*
X012051Y035228D01*
X012079Y035197D01*
X012110Y035169D01*
X012142Y035144D01*
X012177Y035122D01*
X012214Y035103D01*
X012252Y035087D01*
X012291Y035075D01*
X012331Y035066D01*
X012372Y035061D01*
X012413Y035059D01*
X012040Y035157D02*
X012042Y035190D01*
X012047Y035223D01*
X012057Y035254D01*
X012069Y035285D01*
X012085Y035314D01*
X012104Y035341D01*
X012126Y035366D01*
X012151Y035388D01*
X012178Y035407D01*
X012207Y035423D01*
X012238Y035435D01*
X012269Y035445D01*
X012302Y035450D01*
X012335Y035452D01*
X012374Y035452D01*
X012402Y035450D01*
X012430Y035445D01*
X012457Y035435D01*
X012483Y035423D01*
X012506Y035407D01*
X012527Y035388D01*
X012546Y035367D01*
X012562Y035343D01*
X012574Y035318D01*
X012584Y035291D01*
X012589Y035263D01*
X012591Y035235D01*
X012590Y035235D02*
X012588Y035210D01*
X012583Y035185D01*
X012574Y035161D01*
X012562Y035139D01*
X012547Y035119D01*
X012529Y035101D01*
X012509Y035086D01*
X012487Y035074D01*
X012463Y035065D01*
X012438Y035060D01*
X012413Y035058D01*
X016040Y034780D02*
X016360Y034780D01*
X016200Y034940D02*
X016200Y034620D01*
X016505Y034959D02*
X016535Y034953D01*
X016566Y034950D01*
X016597Y034951D01*
X016627Y034955D01*
X016657Y034963D01*
X016686Y034974D01*
X016713Y034988D01*
X016739Y035005D01*
X016763Y035025D01*
X016784Y035047D01*
X016802Y035072D01*
X016818Y035098D01*
X016831Y035127D01*
X016840Y035156D01*
X016741Y035531D02*
X016741Y035786D01*
X016643Y035708D02*
X016564Y035708D01*
X016741Y035786D02*
X016739Y035819D01*
X016734Y035852D01*
X016724Y035883D01*
X016712Y035914D01*
X016696Y035943D01*
X016677Y035970D01*
X016655Y035995D01*
X016630Y036017D01*
X016603Y036036D01*
X016574Y036052D01*
X016543Y036064D01*
X016512Y036074D01*
X016479Y036079D01*
X016446Y036081D01*
X016446Y036082D02*
X016406Y036082D01*
X016406Y036081D02*
X016389Y036080D01*
X016372Y036075D01*
X016357Y036068D01*
X016343Y036058D01*
X016331Y036046D01*
X016321Y036032D01*
X016314Y036017D01*
X016309Y036000D01*
X016308Y035983D01*
X016308Y035964D01*
X016310Y035933D01*
X016315Y035903D01*
X016325Y035873D01*
X016337Y035845D01*
X016353Y035819D01*
X016372Y035794D01*
X016394Y035772D01*
X016419Y035753D01*
X016445Y035737D01*
X016473Y035725D01*
X016503Y035715D01*
X016533Y035710D01*
X016564Y035708D01*
X016643Y035708D02*
X016685Y035710D01*
X016727Y035715D01*
X016769Y035724D01*
X016809Y035736D01*
X016849Y035751D01*
X016887Y035770D01*
X016923Y035791D01*
X016957Y035816D01*
X016990Y035843D01*
X017020Y035873D01*
X017047Y035906D01*
X017072Y035940D01*
X017093Y035976D01*
X017112Y036014D01*
X017127Y036054D01*
X017139Y036094D01*
X017148Y036136D01*
X017153Y036178D01*
X017155Y036220D01*
X017240Y036830D02*
X017560Y036830D01*
X016741Y035531D02*
X016743Y035490D01*
X016748Y035449D01*
X016757Y035409D01*
X016769Y035370D01*
X016785Y035332D01*
X016804Y035295D01*
X016826Y035260D01*
X016851Y035228D01*
X016879Y035197D01*
X016910Y035169D01*
X016942Y035144D01*
X016977Y035122D01*
X017014Y035103D01*
X017052Y035087D01*
X017091Y035075D01*
X017131Y035066D01*
X017172Y035061D01*
X017213Y035059D01*
X016840Y035157D02*
X016842Y035190D01*
X016847Y035223D01*
X016857Y035254D01*
X016869Y035285D01*
X016885Y035314D01*
X016904Y035341D01*
X016926Y035366D01*
X016951Y035388D01*
X016978Y035407D01*
X017007Y035423D01*
X017038Y035435D01*
X017069Y035445D01*
X017102Y035450D01*
X017135Y035452D01*
X017174Y035452D01*
X017202Y035450D01*
X017230Y035445D01*
X017257Y035435D01*
X017283Y035423D01*
X017306Y035407D01*
X017327Y035388D01*
X017346Y035367D01*
X017362Y035343D01*
X017374Y035318D01*
X017384Y035291D01*
X017389Y035263D01*
X017391Y035235D01*
X017390Y035235D02*
X017388Y035210D01*
X017383Y035185D01*
X017374Y035161D01*
X017362Y035139D01*
X017347Y035119D01*
X017329Y035101D01*
X017309Y035086D01*
X017287Y035074D01*
X017263Y035065D01*
X017238Y035060D01*
X017213Y035058D01*
X017240Y031330D02*
X017560Y031330D01*
X017155Y030720D02*
X017153Y030678D01*
X017148Y030636D01*
X017139Y030594D01*
X017127Y030554D01*
X017112Y030514D01*
X017093Y030476D01*
X017072Y030440D01*
X017047Y030406D01*
X017020Y030373D01*
X016990Y030343D01*
X016957Y030316D01*
X016923Y030291D01*
X016887Y030270D01*
X016849Y030251D01*
X016809Y030236D01*
X016769Y030224D01*
X016727Y030215D01*
X016685Y030210D01*
X016643Y030208D01*
X016564Y030208D01*
X016741Y030286D02*
X016739Y030319D01*
X016734Y030352D01*
X016724Y030383D01*
X016712Y030414D01*
X016696Y030443D01*
X016677Y030470D01*
X016655Y030495D01*
X016630Y030517D01*
X016603Y030536D01*
X016574Y030552D01*
X016543Y030564D01*
X016512Y030574D01*
X016479Y030579D01*
X016446Y030581D01*
X016446Y030582D02*
X016406Y030582D01*
X016406Y030581D02*
X016389Y030580D01*
X016372Y030575D01*
X016357Y030568D01*
X016343Y030558D01*
X016331Y030546D01*
X016321Y030532D01*
X016314Y030517D01*
X016309Y030500D01*
X016308Y030483D01*
X016308Y030464D01*
X016310Y030433D01*
X016315Y030403D01*
X016325Y030373D01*
X016337Y030345D01*
X016353Y030319D01*
X016372Y030294D01*
X016394Y030272D01*
X016419Y030253D01*
X016445Y030237D01*
X016473Y030225D01*
X016503Y030215D01*
X016533Y030210D01*
X016564Y030208D01*
X016741Y030286D02*
X016741Y030031D01*
X016840Y029656D02*
X016831Y029627D01*
X016818Y029598D01*
X016802Y029572D01*
X016784Y029547D01*
X016763Y029525D01*
X016739Y029505D01*
X016713Y029488D01*
X016686Y029474D01*
X016657Y029463D01*
X016627Y029455D01*
X016597Y029451D01*
X016566Y029450D01*
X016535Y029453D01*
X016505Y029459D01*
X016360Y029280D02*
X016040Y029280D01*
X016200Y029440D02*
X016200Y029120D01*
X016840Y029657D02*
X016842Y029690D01*
X016847Y029723D01*
X016857Y029754D01*
X016869Y029785D01*
X016885Y029814D01*
X016904Y029841D01*
X016926Y029866D01*
X016951Y029888D01*
X016978Y029907D01*
X017007Y029923D01*
X017038Y029935D01*
X017069Y029945D01*
X017102Y029950D01*
X017135Y029952D01*
X017174Y029952D01*
X017213Y029559D02*
X017172Y029561D01*
X017131Y029566D01*
X017091Y029575D01*
X017052Y029587D01*
X017014Y029603D01*
X016977Y029622D01*
X016942Y029644D01*
X016910Y029669D01*
X016879Y029697D01*
X016851Y029728D01*
X016826Y029760D01*
X016804Y029795D01*
X016785Y029832D01*
X016769Y029870D01*
X016757Y029909D01*
X016748Y029949D01*
X016743Y029990D01*
X016741Y030031D01*
X017174Y029952D02*
X017202Y029950D01*
X017230Y029945D01*
X017257Y029935D01*
X017283Y029923D01*
X017306Y029907D01*
X017327Y029888D01*
X017346Y029867D01*
X017362Y029843D01*
X017374Y029818D01*
X017384Y029791D01*
X017389Y029763D01*
X017391Y029735D01*
X017390Y029735D02*
X017388Y029710D01*
X017383Y029685D01*
X017374Y029661D01*
X017362Y029639D01*
X017347Y029619D01*
X017329Y029601D01*
X017309Y029586D01*
X017287Y029574D01*
X017263Y029565D01*
X017238Y029560D01*
X017213Y029558D01*
X017240Y025830D02*
X017560Y025830D01*
X017155Y025220D02*
X017153Y025178D01*
X017148Y025136D01*
X017139Y025094D01*
X017127Y025054D01*
X017112Y025014D01*
X017093Y024976D01*
X017072Y024940D01*
X017047Y024906D01*
X017020Y024873D01*
X016990Y024843D01*
X016957Y024816D01*
X016923Y024791D01*
X016887Y024770D01*
X016849Y024751D01*
X016809Y024736D01*
X016769Y024724D01*
X016727Y024715D01*
X016685Y024710D01*
X016643Y024708D01*
X016564Y024708D01*
X016741Y024786D02*
X016739Y024819D01*
X016734Y024852D01*
X016724Y024883D01*
X016712Y024914D01*
X016696Y024943D01*
X016677Y024970D01*
X016655Y024995D01*
X016630Y025017D01*
X016603Y025036D01*
X016574Y025052D01*
X016543Y025064D01*
X016512Y025074D01*
X016479Y025079D01*
X016446Y025081D01*
X016446Y025082D02*
X016406Y025082D01*
X016406Y025081D02*
X016389Y025080D01*
X016372Y025075D01*
X016357Y025068D01*
X016343Y025058D01*
X016331Y025046D01*
X016321Y025032D01*
X016314Y025017D01*
X016309Y025000D01*
X016308Y024983D01*
X016308Y024964D01*
X016310Y024933D01*
X016315Y024903D01*
X016325Y024873D01*
X016337Y024845D01*
X016353Y024819D01*
X016372Y024794D01*
X016394Y024772D01*
X016419Y024753D01*
X016445Y024737D01*
X016473Y024725D01*
X016503Y024715D01*
X016533Y024710D01*
X016564Y024708D01*
X016741Y024786D02*
X016741Y024531D01*
X016840Y024156D02*
X016831Y024127D01*
X016818Y024098D01*
X016802Y024072D01*
X016784Y024047D01*
X016763Y024025D01*
X016739Y024005D01*
X016713Y023988D01*
X016686Y023974D01*
X016657Y023963D01*
X016627Y023955D01*
X016597Y023951D01*
X016566Y023950D01*
X016535Y023953D01*
X016505Y023959D01*
X016360Y023780D02*
X016040Y023780D01*
X016200Y023940D02*
X016200Y023620D01*
X016840Y024157D02*
X016842Y024190D01*
X016847Y024223D01*
X016857Y024254D01*
X016869Y024285D01*
X016885Y024314D01*
X016904Y024341D01*
X016926Y024366D01*
X016951Y024388D01*
X016978Y024407D01*
X017007Y024423D01*
X017038Y024435D01*
X017069Y024445D01*
X017102Y024450D01*
X017135Y024452D01*
X017174Y024452D01*
X017213Y024059D02*
X017172Y024061D01*
X017131Y024066D01*
X017091Y024075D01*
X017052Y024087D01*
X017014Y024103D01*
X016977Y024122D01*
X016942Y024144D01*
X016910Y024169D01*
X016879Y024197D01*
X016851Y024228D01*
X016826Y024260D01*
X016804Y024295D01*
X016785Y024332D01*
X016769Y024370D01*
X016757Y024409D01*
X016748Y024449D01*
X016743Y024490D01*
X016741Y024531D01*
X017174Y024452D02*
X017202Y024450D01*
X017230Y024445D01*
X017257Y024435D01*
X017283Y024423D01*
X017306Y024407D01*
X017327Y024388D01*
X017346Y024367D01*
X017362Y024343D01*
X017374Y024318D01*
X017384Y024291D01*
X017389Y024263D01*
X017391Y024235D01*
X017390Y024235D02*
X017388Y024210D01*
X017383Y024185D01*
X017374Y024161D01*
X017362Y024139D01*
X017347Y024119D01*
X017329Y024101D01*
X017309Y024086D01*
X017287Y024074D01*
X017263Y024065D01*
X017238Y024060D01*
X017213Y024058D01*
X017240Y020330D02*
X017560Y020330D01*
X017155Y019720D02*
X017153Y019678D01*
X017148Y019636D01*
X017139Y019594D01*
X017127Y019554D01*
X017112Y019514D01*
X017093Y019476D01*
X017072Y019440D01*
X017047Y019406D01*
X017020Y019373D01*
X016990Y019343D01*
X016957Y019316D01*
X016923Y019291D01*
X016887Y019270D01*
X016849Y019251D01*
X016809Y019236D01*
X016769Y019224D01*
X016727Y019215D01*
X016685Y019210D01*
X016643Y019208D01*
X016564Y019208D01*
X016741Y019286D02*
X016739Y019319D01*
X016734Y019352D01*
X016724Y019383D01*
X016712Y019414D01*
X016696Y019443D01*
X016677Y019470D01*
X016655Y019495D01*
X016630Y019517D01*
X016603Y019536D01*
X016574Y019552D01*
X016543Y019564D01*
X016512Y019574D01*
X016479Y019579D01*
X016446Y019581D01*
X016446Y019582D02*
X016406Y019582D01*
X016406Y019581D02*
X016389Y019580D01*
X016372Y019575D01*
X016357Y019568D01*
X016343Y019558D01*
X016331Y019546D01*
X016321Y019532D01*
X016314Y019517D01*
X016309Y019500D01*
X016308Y019483D01*
X016308Y019464D01*
X016310Y019433D01*
X016315Y019403D01*
X016325Y019373D01*
X016337Y019345D01*
X016353Y019319D01*
X016372Y019294D01*
X016394Y019272D01*
X016419Y019253D01*
X016445Y019237D01*
X016473Y019225D01*
X016503Y019215D01*
X016533Y019210D01*
X016564Y019208D01*
X016741Y019286D02*
X016741Y019031D01*
X016840Y018656D02*
X016831Y018627D01*
X016818Y018598D01*
X016802Y018572D01*
X016784Y018547D01*
X016763Y018525D01*
X016739Y018505D01*
X016713Y018488D01*
X016686Y018474D01*
X016657Y018463D01*
X016627Y018455D01*
X016597Y018451D01*
X016566Y018450D01*
X016535Y018453D01*
X016505Y018459D01*
X016360Y018280D02*
X016040Y018280D01*
X016200Y018440D02*
X016200Y018120D01*
X016840Y018657D02*
X016842Y018690D01*
X016847Y018723D01*
X016857Y018754D01*
X016869Y018785D01*
X016885Y018814D01*
X016904Y018841D01*
X016926Y018866D01*
X016951Y018888D01*
X016978Y018907D01*
X017007Y018923D01*
X017038Y018935D01*
X017069Y018945D01*
X017102Y018950D01*
X017135Y018952D01*
X017174Y018952D01*
X017213Y018559D02*
X017172Y018561D01*
X017131Y018566D01*
X017091Y018575D01*
X017052Y018587D01*
X017014Y018603D01*
X016977Y018622D01*
X016942Y018644D01*
X016910Y018669D01*
X016879Y018697D01*
X016851Y018728D01*
X016826Y018760D01*
X016804Y018795D01*
X016785Y018832D01*
X016769Y018870D01*
X016757Y018909D01*
X016748Y018949D01*
X016743Y018990D01*
X016741Y019031D01*
X017174Y018952D02*
X017202Y018950D01*
X017230Y018945D01*
X017257Y018935D01*
X017283Y018923D01*
X017306Y018907D01*
X017327Y018888D01*
X017346Y018867D01*
X017362Y018843D01*
X017374Y018818D01*
X017384Y018791D01*
X017389Y018763D01*
X017391Y018735D01*
X017390Y018735D02*
X017388Y018710D01*
X017383Y018685D01*
X017374Y018661D01*
X017362Y018639D01*
X017347Y018619D01*
X017329Y018601D01*
X017309Y018586D01*
X017287Y018574D01*
X017263Y018565D01*
X017238Y018560D01*
X017213Y018558D01*
X017240Y014830D02*
X017560Y014830D01*
X017155Y014220D02*
X017153Y014178D01*
X017148Y014136D01*
X017139Y014094D01*
X017127Y014054D01*
X017112Y014014D01*
X017093Y013976D01*
X017072Y013940D01*
X017047Y013906D01*
X017020Y013873D01*
X016990Y013843D01*
X016957Y013816D01*
X016923Y013791D01*
X016887Y013770D01*
X016849Y013751D01*
X016809Y013736D01*
X016769Y013724D01*
X016727Y013715D01*
X016685Y013710D01*
X016643Y013708D01*
X016564Y013708D01*
X016741Y013786D02*
X016739Y013819D01*
X016734Y013852D01*
X016724Y013883D01*
X016712Y013914D01*
X016696Y013943D01*
X016677Y013970D01*
X016655Y013995D01*
X016630Y014017D01*
X016603Y014036D01*
X016574Y014052D01*
X016543Y014064D01*
X016512Y014074D01*
X016479Y014079D01*
X016446Y014081D01*
X016446Y014082D02*
X016406Y014082D01*
X016406Y014081D02*
X016389Y014080D01*
X016372Y014075D01*
X016357Y014068D01*
X016343Y014058D01*
X016331Y014046D01*
X016321Y014032D01*
X016314Y014017D01*
X016309Y014000D01*
X016308Y013983D01*
X016308Y013964D01*
X016310Y013933D01*
X016315Y013903D01*
X016325Y013873D01*
X016337Y013845D01*
X016353Y013819D01*
X016372Y013794D01*
X016394Y013772D01*
X016419Y013753D01*
X016445Y013737D01*
X016473Y013725D01*
X016503Y013715D01*
X016533Y013710D01*
X016564Y013708D01*
X016741Y013786D02*
X016741Y013531D01*
X016840Y013156D02*
X016831Y013127D01*
X016818Y013098D01*
X016802Y013072D01*
X016784Y013047D01*
X016763Y013025D01*
X016739Y013005D01*
X016713Y012988D01*
X016686Y012974D01*
X016657Y012963D01*
X016627Y012955D01*
X016597Y012951D01*
X016566Y012950D01*
X016535Y012953D01*
X016505Y012959D01*
X016360Y012780D02*
X016040Y012780D01*
X016200Y012940D02*
X016200Y012620D01*
X016840Y013157D02*
X016842Y013190D01*
X016847Y013223D01*
X016857Y013254D01*
X016869Y013285D01*
X016885Y013314D01*
X016904Y013341D01*
X016926Y013366D01*
X016951Y013388D01*
X016978Y013407D01*
X017007Y013423D01*
X017038Y013435D01*
X017069Y013445D01*
X017102Y013450D01*
X017135Y013452D01*
X017174Y013452D01*
X017213Y013059D02*
X017172Y013061D01*
X017131Y013066D01*
X017091Y013075D01*
X017052Y013087D01*
X017014Y013103D01*
X016977Y013122D01*
X016942Y013144D01*
X016910Y013169D01*
X016879Y013197D01*
X016851Y013228D01*
X016826Y013260D01*
X016804Y013295D01*
X016785Y013332D01*
X016769Y013370D01*
X016757Y013409D01*
X016748Y013449D01*
X016743Y013490D01*
X016741Y013531D01*
X017174Y013452D02*
X017202Y013450D01*
X017230Y013445D01*
X017257Y013435D01*
X017283Y013423D01*
X017306Y013407D01*
X017327Y013388D01*
X017346Y013367D01*
X017362Y013343D01*
X017374Y013318D01*
X017384Y013291D01*
X017389Y013263D01*
X017391Y013235D01*
X017390Y013235D02*
X017388Y013210D01*
X017383Y013185D01*
X017374Y013161D01*
X017362Y013139D01*
X017347Y013119D01*
X017329Y013101D01*
X017309Y013086D01*
X017287Y013074D01*
X017263Y013065D01*
X017238Y013060D01*
X017213Y013058D01*
X017240Y009330D02*
X017560Y009330D01*
X017155Y008720D02*
X017153Y008678D01*
X017148Y008636D01*
X017139Y008594D01*
X017127Y008554D01*
X017112Y008514D01*
X017093Y008476D01*
X017072Y008440D01*
X017047Y008406D01*
X017020Y008373D01*
X016990Y008343D01*
X016957Y008316D01*
X016923Y008291D01*
X016887Y008270D01*
X016849Y008251D01*
X016809Y008236D01*
X016769Y008224D01*
X016727Y008215D01*
X016685Y008210D01*
X016643Y008208D01*
X016564Y008208D01*
X016741Y008286D02*
X016739Y008319D01*
X016734Y008352D01*
X016724Y008383D01*
X016712Y008414D01*
X016696Y008443D01*
X016677Y008470D01*
X016655Y008495D01*
X016630Y008517D01*
X016603Y008536D01*
X016574Y008552D01*
X016543Y008564D01*
X016512Y008574D01*
X016479Y008579D01*
X016446Y008581D01*
X016446Y008582D02*
X016406Y008582D01*
X016406Y008581D02*
X016389Y008580D01*
X016372Y008575D01*
X016357Y008568D01*
X016343Y008558D01*
X016331Y008546D01*
X016321Y008532D01*
X016314Y008517D01*
X016309Y008500D01*
X016308Y008483D01*
X016308Y008464D01*
X016310Y008433D01*
X016315Y008403D01*
X016325Y008373D01*
X016337Y008345D01*
X016353Y008319D01*
X016372Y008294D01*
X016394Y008272D01*
X016419Y008253D01*
X016445Y008237D01*
X016473Y008225D01*
X016503Y008215D01*
X016533Y008210D01*
X016564Y008208D01*
X016741Y008286D02*
X016741Y008031D01*
X016840Y007656D02*
X016831Y007627D01*
X016818Y007598D01*
X016802Y007572D01*
X016784Y007547D01*
X016763Y007525D01*
X016739Y007505D01*
X016713Y007488D01*
X016686Y007474D01*
X016657Y007463D01*
X016627Y007455D01*
X016597Y007451D01*
X016566Y007450D01*
X016535Y007453D01*
X016505Y007459D01*
X016360Y007280D02*
X016040Y007280D01*
X016200Y007440D02*
X016200Y007120D01*
X016840Y007657D02*
X016842Y007690D01*
X016847Y007723D01*
X016857Y007754D01*
X016869Y007785D01*
X016885Y007814D01*
X016904Y007841D01*
X016926Y007866D01*
X016951Y007888D01*
X016978Y007907D01*
X017007Y007923D01*
X017038Y007935D01*
X017069Y007945D01*
X017102Y007950D01*
X017135Y007952D01*
X017174Y007952D01*
X017213Y007559D02*
X017172Y007561D01*
X017131Y007566D01*
X017091Y007575D01*
X017052Y007587D01*
X017014Y007603D01*
X016977Y007622D01*
X016942Y007644D01*
X016910Y007669D01*
X016879Y007697D01*
X016851Y007728D01*
X016826Y007760D01*
X016804Y007795D01*
X016785Y007832D01*
X016769Y007870D01*
X016757Y007909D01*
X016748Y007949D01*
X016743Y007990D01*
X016741Y008031D01*
X017174Y007952D02*
X017202Y007950D01*
X017230Y007945D01*
X017257Y007935D01*
X017283Y007923D01*
X017306Y007907D01*
X017327Y007888D01*
X017346Y007867D01*
X017362Y007843D01*
X017374Y007818D01*
X017384Y007791D01*
X017389Y007763D01*
X017391Y007735D01*
X017390Y007735D02*
X017388Y007710D01*
X017383Y007685D01*
X017374Y007661D01*
X017362Y007639D01*
X017347Y007619D01*
X017329Y007601D01*
X017309Y007586D01*
X017287Y007574D01*
X017263Y007565D01*
X017238Y007560D01*
X017213Y007558D01*
X017240Y003830D02*
X017560Y003830D01*
X017155Y003220D02*
X017153Y003178D01*
X017148Y003136D01*
X017139Y003094D01*
X017127Y003054D01*
X017112Y003014D01*
X017093Y002976D01*
X017072Y002940D01*
X017047Y002906D01*
X017020Y002873D01*
X016990Y002843D01*
X016957Y002816D01*
X016923Y002791D01*
X016887Y002770D01*
X016849Y002751D01*
X016809Y002736D01*
X016769Y002724D01*
X016727Y002715D01*
X016685Y002710D01*
X016643Y002708D01*
X016564Y002708D01*
X016741Y002786D02*
X016739Y002819D01*
X016734Y002852D01*
X016724Y002883D01*
X016712Y002914D01*
X016696Y002943D01*
X016677Y002970D01*
X016655Y002995D01*
X016630Y003017D01*
X016603Y003036D01*
X016574Y003052D01*
X016543Y003064D01*
X016512Y003074D01*
X016479Y003079D01*
X016446Y003081D01*
X016446Y003082D02*
X016406Y003082D01*
X016406Y003081D02*
X016389Y003080D01*
X016372Y003075D01*
X016357Y003068D01*
X016343Y003058D01*
X016331Y003046D01*
X016321Y003032D01*
X016314Y003017D01*
X016309Y003000D01*
X016308Y002983D01*
X016308Y002964D01*
X016310Y002933D01*
X016315Y002903D01*
X016325Y002873D01*
X016337Y002845D01*
X016353Y002819D01*
X016372Y002794D01*
X016394Y002772D01*
X016419Y002753D01*
X016445Y002737D01*
X016473Y002725D01*
X016503Y002715D01*
X016533Y002710D01*
X016564Y002708D01*
X016741Y002786D02*
X016741Y002531D01*
X016840Y002156D02*
X016831Y002127D01*
X016818Y002098D01*
X016802Y002072D01*
X016784Y002047D01*
X016763Y002025D01*
X016739Y002005D01*
X016713Y001988D01*
X016686Y001974D01*
X016657Y001963D01*
X016627Y001955D01*
X016597Y001951D01*
X016566Y001950D01*
X016535Y001953D01*
X016505Y001959D01*
X016360Y001780D02*
X016040Y001780D01*
X016200Y001940D02*
X016200Y001620D01*
X016840Y002157D02*
X016842Y002190D01*
X016847Y002223D01*
X016857Y002254D01*
X016869Y002285D01*
X016885Y002314D01*
X016904Y002341D01*
X016926Y002366D01*
X016951Y002388D01*
X016978Y002407D01*
X017007Y002423D01*
X017038Y002435D01*
X017069Y002445D01*
X017102Y002450D01*
X017135Y002452D01*
X017174Y002452D01*
X017213Y002059D02*
X017172Y002061D01*
X017131Y002066D01*
X017091Y002075D01*
X017052Y002087D01*
X017014Y002103D01*
X016977Y002122D01*
X016942Y002144D01*
X016910Y002169D01*
X016879Y002197D01*
X016851Y002228D01*
X016826Y002260D01*
X016804Y002295D01*
X016785Y002332D01*
X016769Y002370D01*
X016757Y002409D01*
X016748Y002449D01*
X016743Y002490D01*
X016741Y002531D01*
X017174Y002452D02*
X017202Y002450D01*
X017230Y002445D01*
X017257Y002435D01*
X017283Y002423D01*
X017306Y002407D01*
X017327Y002388D01*
X017346Y002367D01*
X017362Y002343D01*
X017374Y002318D01*
X017384Y002291D01*
X017389Y002263D01*
X017391Y002235D01*
X017390Y002235D02*
X017388Y002210D01*
X017383Y002185D01*
X017374Y002161D01*
X017362Y002139D01*
X017347Y002119D01*
X017329Y002101D01*
X017309Y002086D01*
X017287Y002074D01*
X017263Y002065D01*
X017238Y002060D01*
X017213Y002058D01*
X020840Y001780D02*
X021160Y001780D01*
X021000Y001940D02*
X021000Y001620D01*
X021305Y001959D02*
X021335Y001953D01*
X021366Y001950D01*
X021397Y001951D01*
X021427Y001955D01*
X021457Y001963D01*
X021486Y001974D01*
X021513Y001988D01*
X021539Y002005D01*
X021563Y002025D01*
X021584Y002047D01*
X021602Y002072D01*
X021618Y002098D01*
X021631Y002127D01*
X021640Y002156D01*
X021541Y002531D02*
X021541Y002786D01*
X021443Y002708D02*
X021364Y002708D01*
X021541Y002786D02*
X021539Y002819D01*
X021534Y002852D01*
X021524Y002883D01*
X021512Y002914D01*
X021496Y002943D01*
X021477Y002970D01*
X021455Y002995D01*
X021430Y003017D01*
X021403Y003036D01*
X021374Y003052D01*
X021343Y003064D01*
X021312Y003074D01*
X021279Y003079D01*
X021246Y003081D01*
X021246Y003082D02*
X021206Y003082D01*
X021206Y003081D02*
X021189Y003080D01*
X021172Y003075D01*
X021157Y003068D01*
X021143Y003058D01*
X021131Y003046D01*
X021121Y003032D01*
X021114Y003017D01*
X021109Y003000D01*
X021108Y002983D01*
X021108Y002964D01*
X021110Y002933D01*
X021115Y002903D01*
X021125Y002873D01*
X021137Y002845D01*
X021153Y002819D01*
X021172Y002794D01*
X021194Y002772D01*
X021219Y002753D01*
X021245Y002737D01*
X021273Y002725D01*
X021303Y002715D01*
X021333Y002710D01*
X021364Y002708D01*
X021443Y002708D02*
X021485Y002710D01*
X021527Y002715D01*
X021569Y002724D01*
X021609Y002736D01*
X021649Y002751D01*
X021687Y002770D01*
X021723Y002791D01*
X021757Y002816D01*
X021790Y002843D01*
X021820Y002873D01*
X021847Y002906D01*
X021872Y002940D01*
X021893Y002976D01*
X021912Y003014D01*
X021927Y003054D01*
X021939Y003094D01*
X021948Y003136D01*
X021953Y003178D01*
X021955Y003220D01*
X022040Y003830D02*
X022360Y003830D01*
X021541Y002531D02*
X021543Y002490D01*
X021548Y002449D01*
X021557Y002409D01*
X021569Y002370D01*
X021585Y002332D01*
X021604Y002295D01*
X021626Y002260D01*
X021651Y002228D01*
X021679Y002197D01*
X021710Y002169D01*
X021742Y002144D01*
X021777Y002122D01*
X021814Y002103D01*
X021852Y002087D01*
X021891Y002075D01*
X021931Y002066D01*
X021972Y002061D01*
X022013Y002059D01*
X021640Y002157D02*
X021642Y002190D01*
X021647Y002223D01*
X021657Y002254D01*
X021669Y002285D01*
X021685Y002314D01*
X021704Y002341D01*
X021726Y002366D01*
X021751Y002388D01*
X021778Y002407D01*
X021807Y002423D01*
X021838Y002435D01*
X021869Y002445D01*
X021902Y002450D01*
X021935Y002452D01*
X021974Y002452D01*
X022002Y002450D01*
X022030Y002445D01*
X022057Y002435D01*
X022083Y002423D01*
X022106Y002407D01*
X022127Y002388D01*
X022146Y002367D01*
X022162Y002343D01*
X022174Y002318D01*
X022184Y002291D01*
X022189Y002263D01*
X022191Y002235D01*
X022190Y002235D02*
X022188Y002210D01*
X022183Y002185D01*
X022174Y002161D01*
X022162Y002139D01*
X022147Y002119D01*
X022129Y002101D01*
X022109Y002086D01*
X022087Y002074D01*
X022063Y002065D01*
X022038Y002060D01*
X022013Y002058D01*
X021000Y007120D02*
X021000Y007440D01*
X020840Y007280D02*
X021160Y007280D01*
X021305Y007459D02*
X021335Y007453D01*
X021366Y007450D01*
X021397Y007451D01*
X021427Y007455D01*
X021457Y007463D01*
X021486Y007474D01*
X021513Y007488D01*
X021539Y007505D01*
X021563Y007525D01*
X021584Y007547D01*
X021602Y007572D01*
X021618Y007598D01*
X021631Y007627D01*
X021640Y007656D01*
X021541Y008031D02*
X021541Y008286D01*
X021443Y008208D02*
X021364Y008208D01*
X021541Y008286D02*
X021539Y008319D01*
X021534Y008352D01*
X021524Y008383D01*
X021512Y008414D01*
X021496Y008443D01*
X021477Y008470D01*
X021455Y008495D01*
X021430Y008517D01*
X021403Y008536D01*
X021374Y008552D01*
X021343Y008564D01*
X021312Y008574D01*
X021279Y008579D01*
X021246Y008581D01*
X021246Y008582D02*
X021206Y008582D01*
X021206Y008581D02*
X021189Y008580D01*
X021172Y008575D01*
X021157Y008568D01*
X021143Y008558D01*
X021131Y008546D01*
X021121Y008532D01*
X021114Y008517D01*
X021109Y008500D01*
X021108Y008483D01*
X021108Y008464D01*
X021110Y008433D01*
X021115Y008403D01*
X021125Y008373D01*
X021137Y008345D01*
X021153Y008319D01*
X021172Y008294D01*
X021194Y008272D01*
X021219Y008253D01*
X021245Y008237D01*
X021273Y008225D01*
X021303Y008215D01*
X021333Y008210D01*
X021364Y008208D01*
X021443Y008208D02*
X021485Y008210D01*
X021527Y008215D01*
X021569Y008224D01*
X021609Y008236D01*
X021649Y008251D01*
X021687Y008270D01*
X021723Y008291D01*
X021757Y008316D01*
X021790Y008343D01*
X021820Y008373D01*
X021847Y008406D01*
X021872Y008440D01*
X021893Y008476D01*
X021912Y008514D01*
X021927Y008554D01*
X021939Y008594D01*
X021948Y008636D01*
X021953Y008678D01*
X021955Y008720D01*
X022040Y009330D02*
X022360Y009330D01*
X021541Y008031D02*
X021543Y007990D01*
X021548Y007949D01*
X021557Y007909D01*
X021569Y007870D01*
X021585Y007832D01*
X021604Y007795D01*
X021626Y007760D01*
X021651Y007728D01*
X021679Y007697D01*
X021710Y007669D01*
X021742Y007644D01*
X021777Y007622D01*
X021814Y007603D01*
X021852Y007587D01*
X021891Y007575D01*
X021931Y007566D01*
X021972Y007561D01*
X022013Y007559D01*
X021640Y007657D02*
X021642Y007690D01*
X021647Y007723D01*
X021657Y007754D01*
X021669Y007785D01*
X021685Y007814D01*
X021704Y007841D01*
X021726Y007866D01*
X021751Y007888D01*
X021778Y007907D01*
X021807Y007923D01*
X021838Y007935D01*
X021869Y007945D01*
X021902Y007950D01*
X021935Y007952D01*
X021974Y007952D01*
X022002Y007950D01*
X022030Y007945D01*
X022057Y007935D01*
X022083Y007923D01*
X022106Y007907D01*
X022127Y007888D01*
X022146Y007867D01*
X022162Y007843D01*
X022174Y007818D01*
X022184Y007791D01*
X022189Y007763D01*
X022191Y007735D01*
X022190Y007735D02*
X022188Y007710D01*
X022183Y007685D01*
X022174Y007661D01*
X022162Y007639D01*
X022147Y007619D01*
X022129Y007601D01*
X022109Y007586D01*
X022087Y007574D01*
X022063Y007565D01*
X022038Y007560D01*
X022013Y007558D01*
X021000Y012620D02*
X021000Y012940D01*
X020840Y012780D02*
X021160Y012780D01*
X021305Y012959D02*
X021335Y012953D01*
X021366Y012950D01*
X021397Y012951D01*
X021427Y012955D01*
X021457Y012963D01*
X021486Y012974D01*
X021513Y012988D01*
X021539Y013005D01*
X021563Y013025D01*
X021584Y013047D01*
X021602Y013072D01*
X021618Y013098D01*
X021631Y013127D01*
X021640Y013156D01*
X021541Y013531D02*
X021541Y013786D01*
X021443Y013708D02*
X021364Y013708D01*
X021541Y013786D02*
X021539Y013819D01*
X021534Y013852D01*
X021524Y013883D01*
X021512Y013914D01*
X021496Y013943D01*
X021477Y013970D01*
X021455Y013995D01*
X021430Y014017D01*
X021403Y014036D01*
X021374Y014052D01*
X021343Y014064D01*
X021312Y014074D01*
X021279Y014079D01*
X021246Y014081D01*
X021246Y014082D02*
X021206Y014082D01*
X021206Y014081D02*
X021189Y014080D01*
X021172Y014075D01*
X021157Y014068D01*
X021143Y014058D01*
X021131Y014046D01*
X021121Y014032D01*
X021114Y014017D01*
X021109Y014000D01*
X021108Y013983D01*
X021108Y013964D01*
X021110Y013933D01*
X021115Y013903D01*
X021125Y013873D01*
X021137Y013845D01*
X021153Y013819D01*
X021172Y013794D01*
X021194Y013772D01*
X021219Y013753D01*
X021245Y013737D01*
X021273Y013725D01*
X021303Y013715D01*
X021333Y013710D01*
X021364Y013708D01*
X021443Y013708D02*
X021485Y013710D01*
X021527Y013715D01*
X021569Y013724D01*
X021609Y013736D01*
X021649Y013751D01*
X021687Y013770D01*
X021723Y013791D01*
X021757Y013816D01*
X021790Y013843D01*
X021820Y013873D01*
X021847Y013906D01*
X021872Y013940D01*
X021893Y013976D01*
X021912Y014014D01*
X021927Y014054D01*
X021939Y014094D01*
X021948Y014136D01*
X021953Y014178D01*
X021955Y014220D01*
X021541Y013531D02*
X021543Y013490D01*
X021548Y013449D01*
X021557Y013409D01*
X021569Y013370D01*
X021585Y013332D01*
X021604Y013295D01*
X021626Y013260D01*
X021651Y013228D01*
X021679Y013197D01*
X021710Y013169D01*
X021742Y013144D01*
X021777Y013122D01*
X021814Y013103D01*
X021852Y013087D01*
X021891Y013075D01*
X021931Y013066D01*
X021972Y013061D01*
X022013Y013059D01*
X021640Y013157D02*
X021642Y013190D01*
X021647Y013223D01*
X021657Y013254D01*
X021669Y013285D01*
X021685Y013314D01*
X021704Y013341D01*
X021726Y013366D01*
X021751Y013388D01*
X021778Y013407D01*
X021807Y013423D01*
X021838Y013435D01*
X021869Y013445D01*
X021902Y013450D01*
X021935Y013452D01*
X021974Y013452D01*
X022002Y013450D01*
X022030Y013445D01*
X022057Y013435D01*
X022083Y013423D01*
X022106Y013407D01*
X022127Y013388D01*
X022146Y013367D01*
X022162Y013343D01*
X022174Y013318D01*
X022184Y013291D01*
X022189Y013263D01*
X022191Y013235D01*
X022190Y013235D02*
X022188Y013210D01*
X022183Y013185D01*
X022174Y013161D01*
X022162Y013139D01*
X022147Y013119D01*
X022129Y013101D01*
X022109Y013086D01*
X022087Y013074D01*
X022063Y013065D01*
X022038Y013060D01*
X022013Y013058D01*
X022040Y014830D02*
X022360Y014830D01*
X021000Y018120D02*
X021000Y018440D01*
X020840Y018280D02*
X021160Y018280D01*
X021305Y018459D02*
X021335Y018453D01*
X021366Y018450D01*
X021397Y018451D01*
X021427Y018455D01*
X021457Y018463D01*
X021486Y018474D01*
X021513Y018488D01*
X021539Y018505D01*
X021563Y018525D01*
X021584Y018547D01*
X021602Y018572D01*
X021618Y018598D01*
X021631Y018627D01*
X021640Y018656D01*
X021541Y019031D02*
X021541Y019286D01*
X021443Y019208D02*
X021364Y019208D01*
X021541Y019286D02*
X021539Y019319D01*
X021534Y019352D01*
X021524Y019383D01*
X021512Y019414D01*
X021496Y019443D01*
X021477Y019470D01*
X021455Y019495D01*
X021430Y019517D01*
X021403Y019536D01*
X021374Y019552D01*
X021343Y019564D01*
X021312Y019574D01*
X021279Y019579D01*
X021246Y019581D01*
X021246Y019582D02*
X021206Y019582D01*
X021206Y019581D02*
X021189Y019580D01*
X021172Y019575D01*
X021157Y019568D01*
X021143Y019558D01*
X021131Y019546D01*
X021121Y019532D01*
X021114Y019517D01*
X021109Y019500D01*
X021108Y019483D01*
X021108Y019464D01*
X021110Y019433D01*
X021115Y019403D01*
X021125Y019373D01*
X021137Y019345D01*
X021153Y019319D01*
X021172Y019294D01*
X021194Y019272D01*
X021219Y019253D01*
X021245Y019237D01*
X021273Y019225D01*
X021303Y019215D01*
X021333Y019210D01*
X021364Y019208D01*
X021443Y019208D02*
X021485Y019210D01*
X021527Y019215D01*
X021569Y019224D01*
X021609Y019236D01*
X021649Y019251D01*
X021687Y019270D01*
X021723Y019291D01*
X021757Y019316D01*
X021790Y019343D01*
X021820Y019373D01*
X021847Y019406D01*
X021872Y019440D01*
X021893Y019476D01*
X021912Y019514D01*
X021927Y019554D01*
X021939Y019594D01*
X021948Y019636D01*
X021953Y019678D01*
X021955Y019720D01*
X022040Y020330D02*
X022360Y020330D01*
X021541Y019031D02*
X021543Y018990D01*
X021548Y018949D01*
X021557Y018909D01*
X021569Y018870D01*
X021585Y018832D01*
X021604Y018795D01*
X021626Y018760D01*
X021651Y018728D01*
X021679Y018697D01*
X021710Y018669D01*
X021742Y018644D01*
X021777Y018622D01*
X021814Y018603D01*
X021852Y018587D01*
X021891Y018575D01*
X021931Y018566D01*
X021972Y018561D01*
X022013Y018559D01*
X021640Y018657D02*
X021642Y018690D01*
X021647Y018723D01*
X021657Y018754D01*
X021669Y018785D01*
X021685Y018814D01*
X021704Y018841D01*
X021726Y018866D01*
X021751Y018888D01*
X021778Y018907D01*
X021807Y018923D01*
X021838Y018935D01*
X021869Y018945D01*
X021902Y018950D01*
X021935Y018952D01*
X021974Y018952D01*
X022002Y018950D01*
X022030Y018945D01*
X022057Y018935D01*
X022083Y018923D01*
X022106Y018907D01*
X022127Y018888D01*
X022146Y018867D01*
X022162Y018843D01*
X022174Y018818D01*
X022184Y018791D01*
X022189Y018763D01*
X022191Y018735D01*
X022190Y018735D02*
X022188Y018710D01*
X022183Y018685D01*
X022174Y018661D01*
X022162Y018639D01*
X022147Y018619D01*
X022129Y018601D01*
X022109Y018586D01*
X022087Y018574D01*
X022063Y018565D01*
X022038Y018560D01*
X022013Y018558D01*
X021000Y023620D02*
X021000Y023940D01*
X020840Y023780D02*
X021160Y023780D01*
X021305Y023959D02*
X021335Y023953D01*
X021366Y023950D01*
X021397Y023951D01*
X021427Y023955D01*
X021457Y023963D01*
X021486Y023974D01*
X021513Y023988D01*
X021539Y024005D01*
X021563Y024025D01*
X021584Y024047D01*
X021602Y024072D01*
X021618Y024098D01*
X021631Y024127D01*
X021640Y024156D01*
X021541Y024531D02*
X021541Y024786D01*
X021443Y024708D02*
X021364Y024708D01*
X021541Y024786D02*
X021539Y024819D01*
X021534Y024852D01*
X021524Y024883D01*
X021512Y024914D01*
X021496Y024943D01*
X021477Y024970D01*
X021455Y024995D01*
X021430Y025017D01*
X021403Y025036D01*
X021374Y025052D01*
X021343Y025064D01*
X021312Y025074D01*
X021279Y025079D01*
X021246Y025081D01*
X021246Y025082D02*
X021206Y025082D01*
X021206Y025081D02*
X021189Y025080D01*
X021172Y025075D01*
X021157Y025068D01*
X021143Y025058D01*
X021131Y025046D01*
X021121Y025032D01*
X021114Y025017D01*
X021109Y025000D01*
X021108Y024983D01*
X021108Y024964D01*
X021110Y024933D01*
X021115Y024903D01*
X021125Y024873D01*
X021137Y024845D01*
X021153Y024819D01*
X021172Y024794D01*
X021194Y024772D01*
X021219Y024753D01*
X021245Y024737D01*
X021273Y024725D01*
X021303Y024715D01*
X021333Y024710D01*
X021364Y024708D01*
X021443Y024708D02*
X021485Y024710D01*
X021527Y024715D01*
X021569Y024724D01*
X021609Y024736D01*
X021649Y024751D01*
X021687Y024770D01*
X021723Y024791D01*
X021757Y024816D01*
X021790Y024843D01*
X021820Y024873D01*
X021847Y024906D01*
X021872Y024940D01*
X021893Y024976D01*
X021912Y025014D01*
X021927Y025054D01*
X021939Y025094D01*
X021948Y025136D01*
X021953Y025178D01*
X021955Y025220D01*
X022040Y025830D02*
X022360Y025830D01*
X021541Y024531D02*
X021543Y024490D01*
X021548Y024449D01*
X021557Y024409D01*
X021569Y024370D01*
X021585Y024332D01*
X021604Y024295D01*
X021626Y024260D01*
X021651Y024228D01*
X021679Y024197D01*
X021710Y024169D01*
X021742Y024144D01*
X021777Y024122D01*
X021814Y024103D01*
X021852Y024087D01*
X021891Y024075D01*
X021931Y024066D01*
X021972Y024061D01*
X022013Y024059D01*
X021640Y024157D02*
X021642Y024190D01*
X021647Y024223D01*
X021657Y024254D01*
X021669Y024285D01*
X021685Y024314D01*
X021704Y024341D01*
X021726Y024366D01*
X021751Y024388D01*
X021778Y024407D01*
X021807Y024423D01*
X021838Y024435D01*
X021869Y024445D01*
X021902Y024450D01*
X021935Y024452D01*
X021974Y024452D01*
X022002Y024450D01*
X022030Y024445D01*
X022057Y024435D01*
X022083Y024423D01*
X022106Y024407D01*
X022127Y024388D01*
X022146Y024367D01*
X022162Y024343D01*
X022174Y024318D01*
X022184Y024291D01*
X022189Y024263D01*
X022191Y024235D01*
X022190Y024235D02*
X022188Y024210D01*
X022183Y024185D01*
X022174Y024161D01*
X022162Y024139D01*
X022147Y024119D01*
X022129Y024101D01*
X022109Y024086D01*
X022087Y024074D01*
X022063Y024065D01*
X022038Y024060D01*
X022013Y024058D01*
X021000Y029120D02*
X021000Y029440D01*
X020840Y029280D02*
X021160Y029280D01*
X021305Y029459D02*
X021335Y029453D01*
X021366Y029450D01*
X021397Y029451D01*
X021427Y029455D01*
X021457Y029463D01*
X021486Y029474D01*
X021513Y029488D01*
X021539Y029505D01*
X021563Y029525D01*
X021584Y029547D01*
X021602Y029572D01*
X021618Y029598D01*
X021631Y029627D01*
X021640Y029656D01*
X021541Y030031D02*
X021541Y030286D01*
X021443Y030208D02*
X021364Y030208D01*
X021541Y030286D02*
X021539Y030319D01*
X021534Y030352D01*
X021524Y030383D01*
X021512Y030414D01*
X021496Y030443D01*
X021477Y030470D01*
X021455Y030495D01*
X021430Y030517D01*
X021403Y030536D01*
X021374Y030552D01*
X021343Y030564D01*
X021312Y030574D01*
X021279Y030579D01*
X021246Y030581D01*
X021246Y030582D02*
X021206Y030582D01*
X021206Y030581D02*
X021189Y030580D01*
X021172Y030575D01*
X021157Y030568D01*
X021143Y030558D01*
X021131Y030546D01*
X021121Y030532D01*
X021114Y030517D01*
X021109Y030500D01*
X021108Y030483D01*
X021108Y030464D01*
X021110Y030433D01*
X021115Y030403D01*
X021125Y030373D01*
X021137Y030345D01*
X021153Y030319D01*
X021172Y030294D01*
X021194Y030272D01*
X021219Y030253D01*
X021245Y030237D01*
X021273Y030225D01*
X021303Y030215D01*
X021333Y030210D01*
X021364Y030208D01*
X021443Y030208D02*
X021485Y030210D01*
X021527Y030215D01*
X021569Y030224D01*
X021609Y030236D01*
X021649Y030251D01*
X021687Y030270D01*
X021723Y030291D01*
X021757Y030316D01*
X021790Y030343D01*
X021820Y030373D01*
X021847Y030406D01*
X021872Y030440D01*
X021893Y030476D01*
X021912Y030514D01*
X021927Y030554D01*
X021939Y030594D01*
X021948Y030636D01*
X021953Y030678D01*
X021955Y030720D01*
X021541Y030031D02*
X021543Y029990D01*
X021548Y029949D01*
X021557Y029909D01*
X021569Y029870D01*
X021585Y029832D01*
X021604Y029795D01*
X021626Y029760D01*
X021651Y029728D01*
X021679Y029697D01*
X021710Y029669D01*
X021742Y029644D01*
X021777Y029622D01*
X021814Y029603D01*
X021852Y029587D01*
X021891Y029575D01*
X021931Y029566D01*
X021972Y029561D01*
X022013Y029559D01*
X021640Y029657D02*
X021642Y029690D01*
X021647Y029723D01*
X021657Y029754D01*
X021669Y029785D01*
X021685Y029814D01*
X021704Y029841D01*
X021726Y029866D01*
X021751Y029888D01*
X021778Y029907D01*
X021807Y029923D01*
X021838Y029935D01*
X021869Y029945D01*
X021902Y029950D01*
X021935Y029952D01*
X021974Y029952D01*
X022002Y029950D01*
X022030Y029945D01*
X022057Y029935D01*
X022083Y029923D01*
X022106Y029907D01*
X022127Y029888D01*
X022146Y029867D01*
X022162Y029843D01*
X022174Y029818D01*
X022184Y029791D01*
X022189Y029763D01*
X022191Y029735D01*
X022190Y029735D02*
X022188Y029710D01*
X022183Y029685D01*
X022174Y029661D01*
X022162Y029639D01*
X022147Y029619D01*
X022129Y029601D01*
X022109Y029586D01*
X022087Y029574D01*
X022063Y029565D01*
X022038Y029560D01*
X022013Y029558D01*
X022040Y031330D02*
X022360Y031330D01*
X021000Y034620D02*
X021000Y034940D01*
X020840Y034780D02*
X021160Y034780D01*
X021305Y034959D02*
X021335Y034953D01*
X021366Y034950D01*
X021397Y034951D01*
X021427Y034955D01*
X021457Y034963D01*
X021486Y034974D01*
X021513Y034988D01*
X021539Y035005D01*
X021563Y035025D01*
X021584Y035047D01*
X021602Y035072D01*
X021618Y035098D01*
X021631Y035127D01*
X021640Y035156D01*
X021541Y035531D02*
X021541Y035786D01*
X021443Y035708D02*
X021364Y035708D01*
X021541Y035786D02*
X021539Y035819D01*
X021534Y035852D01*
X021524Y035883D01*
X021512Y035914D01*
X021496Y035943D01*
X021477Y035970D01*
X021455Y035995D01*
X021430Y036017D01*
X021403Y036036D01*
X021374Y036052D01*
X021343Y036064D01*
X021312Y036074D01*
X021279Y036079D01*
X021246Y036081D01*
X021246Y036082D02*
X021206Y036082D01*
X021206Y036081D02*
X021189Y036080D01*
X021172Y036075D01*
X021157Y036068D01*
X021143Y036058D01*
X021131Y036046D01*
X021121Y036032D01*
X021114Y036017D01*
X021109Y036000D01*
X021108Y035983D01*
X021108Y035964D01*
X021110Y035933D01*
X021115Y035903D01*
X021125Y035873D01*
X021137Y035845D01*
X021153Y035819D01*
X021172Y035794D01*
X021194Y035772D01*
X021219Y035753D01*
X021245Y035737D01*
X021273Y035725D01*
X021303Y035715D01*
X021333Y035710D01*
X021364Y035708D01*
X021443Y035708D02*
X021485Y035710D01*
X021527Y035715D01*
X021569Y035724D01*
X021609Y035736D01*
X021649Y035751D01*
X021687Y035770D01*
X021723Y035791D01*
X021757Y035816D01*
X021790Y035843D01*
X021820Y035873D01*
X021847Y035906D01*
X021872Y035940D01*
X021893Y035976D01*
X021912Y036014D01*
X021927Y036054D01*
X021939Y036094D01*
X021948Y036136D01*
X021953Y036178D01*
X021955Y036220D01*
X022040Y036830D02*
X022360Y036830D01*
X021541Y035531D02*
X021543Y035490D01*
X021548Y035449D01*
X021557Y035409D01*
X021569Y035370D01*
X021585Y035332D01*
X021604Y035295D01*
X021626Y035260D01*
X021651Y035228D01*
X021679Y035197D01*
X021710Y035169D01*
X021742Y035144D01*
X021777Y035122D01*
X021814Y035103D01*
X021852Y035087D01*
X021891Y035075D01*
X021931Y035066D01*
X021972Y035061D01*
X022013Y035059D01*
X021640Y035157D02*
X021642Y035190D01*
X021647Y035223D01*
X021657Y035254D01*
X021669Y035285D01*
X021685Y035314D01*
X021704Y035341D01*
X021726Y035366D01*
X021751Y035388D01*
X021778Y035407D01*
X021807Y035423D01*
X021838Y035435D01*
X021869Y035445D01*
X021902Y035450D01*
X021935Y035452D01*
X021974Y035452D01*
X022002Y035450D01*
X022030Y035445D01*
X022057Y035435D01*
X022083Y035423D01*
X022106Y035407D01*
X022127Y035388D01*
X022146Y035367D01*
X022162Y035343D01*
X022174Y035318D01*
X022184Y035291D01*
X022189Y035263D01*
X022191Y035235D01*
X022190Y035235D02*
X022188Y035210D01*
X022183Y035185D01*
X022174Y035161D01*
X022162Y035139D01*
X022147Y035119D01*
X022129Y035101D01*
X022109Y035086D01*
X022087Y035074D01*
X022063Y035065D01*
X022038Y035060D01*
X022013Y035058D01*
M02*
