%
M48
M72
T01C0.0866
%
T01
X2450Y1100
X2450Y4500
X2450Y6600
X2450Y10000
X2450Y12100
X2450Y15500
X2450Y17600
X2450Y21000
X2450Y23100
X2450Y26500
X2450Y28600
X2450Y32000
X2450Y34100
X2450Y37500
X7250Y37500
X7250Y34100
X7250Y32000
X7250Y28600
X7250Y26500
X7250Y23100
X7250Y21000
X7250Y17600
X7250Y15500
X7250Y12100
X7250Y10000
X7250Y6600
X7250Y4500
X7250Y1100
X12050Y1100
X12050Y4500
X12050Y6600
X12050Y10000
X12050Y12100
X12050Y15500
X12050Y17600
X12050Y21000
X12050Y23100
X12050Y26500
X12050Y28600
X12050Y32000
X12050Y34100
X12050Y37500
X16850Y37500
X16850Y34100
X16850Y32000
X16850Y28600
X16850Y26500
X16850Y23100
X16850Y21000
X16850Y17600
X16850Y15500
X16850Y12100
X16850Y10000
X16850Y6600
X16850Y4500
X16850Y1100
X21650Y1100
X21650Y4500
X21650Y6600
X21650Y10000
X21650Y12100
X21650Y15500
X21650Y17600
X21650Y21000
X21650Y23100
X21650Y26500
X21650Y28600
X21650Y32000
X21650Y34100
X21650Y37500
M30
