G75*
G70*
%OFA0B0*%
%FSLAX24Y24*%
%IPPOS*%
%LPD*%
%AMOC8*
5,1,8,0,0,1.08239X$1,22.5*
%
%ADD10R,0.0433X0.0394*%
%ADD11R,0.0472X0.0551*%
D10*
X002123Y003420D03*
X002793Y003420D03*
X002793Y008920D03*
X002123Y008920D03*
X002123Y014420D03*
X002793Y014420D03*
X002793Y019920D03*
X002123Y019920D03*
X002123Y025420D03*
X002793Y025420D03*
X002793Y030920D03*
X002123Y030920D03*
X002123Y036420D03*
X002793Y036420D03*
X006923Y036420D03*
X007593Y036420D03*
X007593Y030920D03*
X006923Y030920D03*
X006923Y025420D03*
X007593Y025420D03*
X007593Y019920D03*
X006923Y019920D03*
X006923Y014420D03*
X007593Y014420D03*
X007593Y008920D03*
X006923Y008920D03*
X006923Y003420D03*
X007593Y003420D03*
X011723Y003420D03*
X012393Y003420D03*
X012393Y008920D03*
X011723Y008920D03*
X011723Y014420D03*
X012393Y014420D03*
X012393Y019920D03*
X011723Y019920D03*
X011723Y025420D03*
X012393Y025420D03*
X012393Y030920D03*
X011723Y030920D03*
X011723Y036420D03*
X012393Y036420D03*
X016523Y036420D03*
X017193Y036420D03*
X017193Y030920D03*
X016523Y030920D03*
X016523Y025420D03*
X017193Y025420D03*
X017193Y019920D03*
X016523Y019920D03*
X016523Y014420D03*
X017193Y014420D03*
X017193Y008920D03*
X016523Y008920D03*
X016523Y003420D03*
X017193Y003420D03*
X021323Y003420D03*
X021993Y003420D03*
X021993Y008920D03*
X021323Y008920D03*
X021323Y014420D03*
X021993Y014420D03*
X021993Y019920D03*
X021323Y019920D03*
X021323Y025420D03*
X021993Y025420D03*
X021993Y030920D03*
X021323Y030920D03*
X021323Y036420D03*
X021993Y036420D03*
D11*
X001867Y002520D03*
X003048Y002520D03*
X003048Y008020D03*
X001867Y008020D03*
X001867Y013520D03*
X003048Y013520D03*
X003048Y019020D03*
X001867Y019020D03*
X001867Y024520D03*
X003048Y024520D03*
X003048Y030020D03*
X001867Y030020D03*
X001867Y035520D03*
X003048Y035520D03*
X006667Y035520D03*
X007848Y035520D03*
X011467Y035520D03*
X012648Y035520D03*
X016267Y035520D03*
X017448Y035520D03*
X021067Y035520D03*
X022248Y035520D03*
X022248Y030020D03*
X021067Y030020D03*
X021067Y024520D03*
X022248Y024520D03*
X022248Y019020D03*
X021067Y019020D03*
X021067Y013520D03*
X022248Y013520D03*
X022248Y008020D03*
X021067Y008020D03*
X021067Y002520D03*
X022248Y002520D03*
X017448Y002520D03*
X016267Y002520D03*
X016267Y008020D03*
X017448Y008020D03*
X017448Y013520D03*
X016267Y013520D03*
X016267Y019020D03*
X017448Y019020D03*
X017448Y024520D03*
X016267Y024520D03*
X016267Y030020D03*
X017448Y030020D03*
X012648Y030020D03*
X011467Y030020D03*
X011467Y024520D03*
X012648Y024520D03*
X012648Y019020D03*
X011467Y019020D03*
X011467Y013520D03*
X012648Y013520D03*
X012648Y008020D03*
X011467Y008020D03*
X011467Y002520D03*
X012648Y002520D03*
X007848Y002520D03*
X006667Y002520D03*
X006667Y008020D03*
X007848Y008020D03*
X007848Y013520D03*
X006667Y013520D03*
X006667Y019020D03*
X007848Y019020D03*
X007848Y024520D03*
X006667Y024520D03*
X006667Y030020D03*
X007848Y030020D03*
M02*
